<?xml version="1.0" encoding="utf-8"?>
<!-- Generator: Adobe Illustrator 24.2.0, SVG Export Plug-In . SVG Version: 6.00 Build 0)  -->
<svg version="1.1"
	 id="Layer_1" xmlns:cc="http://creativecommons.org/ns#" xmlns:dc="http://purl.org/dc/elements/1.1/" xmlns:rdf="http://www.w3.org/1999/02/22-rdf-syntax-ns#"
	 xmlns="http://www.w3.org/2000/svg" xmlns:xlink="http://www.w3.org/1999/xlink" x="0px" y="0px" viewBox="0 0 19 38.5"
	 style="enable-background:new 0 0 19 38.5;" xml:space="preserve">
<style type="text/css">
	.st0{clip-path:url(#SVGID_2_);}
	.st1{fill:none;}
	.st2{clip-path:url(#SVGID_4_);}
	.st3{clip-path:url(#SVGID_6_);fill:none;stroke:#FFFFFF;stroke-width:1.674;stroke-miterlimit:10;}
	.st4{clip-path:url(#SVGID_8_);fill:none;stroke:#000000;stroke-width:0.837;stroke-miterlimit:10;}
	.st5{clip-path:url(#SVGID_10_);}
	.st6{display:none;fill:#FFFFFF;}
</style>
<g>
	<g>
		<defs>
			<rect id="SVGID_1_" x="0.5" y="10.3" width="17.9" height="17.9"/>
		</defs>
		<clipPath id="SVGID_2_">
			<use xlink:href="#SVGID_1_"  style="overflow:visible;"/>
		</clipPath>
		<path class="st0" d="M7.7,17v-2.6c0-0.2,0-0.4-0.1-0.5c-1.7-0.5-1.9,1.2-1.9,1.2c-0.1,0.2-0.1,0.6-0.1,1c0.1,0,0.2,0,0.3,0
			c0.3,0,0.5,0.1,0.6,0.3c0.2,0.2,0.3,0.6,0.2,1h0.4C7.4,17.5,7.7,17.3,7.7,17"/>
	</g>
	<rect x="0.5" y="10.3" class="st1" width="17.9" height="17.9"/>
	<rect x="0.5" y="10.3" class="st1" width="17.9" height="17.9"/>
	<g>
		<defs>
			<rect id="SVGID_3_" x="0.5" y="10.3" width="17.9" height="17.9"/>
		</defs>
		<clipPath id="SVGID_4_">
			<use xlink:href="#SVGID_3_"  style="overflow:visible;"/>
		</clipPath>
		<path class="st2" d="M8.8,18.1h0.3c0.4,0,0.7-0.2,0.7-0.5v-3.1c0-0.3-0.3-0.5-0.7-0.5H8.8c-0.4,0-0.7,0.2-0.7,0.5v3.1
			C8.1,17.8,8.4,18.1,8.8,18.1"/>
	</g>
	<rect x="0.5" y="10.3" class="st1" width="17.9" height="17.9"/>
	<g>
		<defs>
			<rect id="SVGID_5_" x="0.5" y="10.3" width="17.9" height="17.9"/>
		</defs>
		<clipPath id="SVGID_6_">
			<use xlink:href="#SVGID_5_"  style="overflow:visible;"/>
		</clipPath>
		<path class="st3" d="M15.6,13.2"/>
		<path class="st3" d="M3.5,25.2"/>
	</g>
	<g>
		<defs>
			<rect id="SVGID_7_" x="0.5" y="10.3" width="17.9" height="17.9"/>
		</defs>
		<clipPath id="SVGID_8_">
			<use xlink:href="#SVGID_7_"  style="overflow:visible;"/>
		</clipPath>
		<path class="st4" d="M1,19.2c0-4.7,3.8-8.5,8.5-8.5c4.7,0,8.5,3.8,8.5,8.5c0,4.7-3.8,8.5-8.5,8.5C4.8,27.8,1,24,1,19.2z"/>
	</g>
	<g>
		<defs>
			<rect id="SVGID_9_" x="0.5" y="10.3" width="17.9" height="17.9"/>
		</defs>
		<clipPath id="SVGID_10_">
			<use xlink:href="#SVGID_9_"  style="overflow:visible;"/>
		</clipPath>
		<rect x="1" y="18.8" transform="matrix(0.7071 -0.7071 0.7071 0.7071 -10.7846 12.3716)" class="st5" width="17.1" height="0.8"/>
	</g>
	<g>
		<line x1="3.5" y1="25.2" x2="15.6" y2="13.2"/>
		<rect x="1" y="18.4" transform="matrix(0.7068 -0.7074 0.7074 0.7068 -10.7874 12.3798)" class="st6" width="17.1" height="1.7"/>
		<g>
			<path d="M13.1,20.7h-0.3c-0.6,0-1-0.4-1-0.8v-0.5c-0.2,0.1-0.4,0.2-0.7,0.2h-0.3c-0.1,0-0.3,0-0.4-0.1l-3.7,3.7c0,0,0,0.1,0,0.1
				l0.9,1.1l5.4,0.1l0.3-1c0.6-1.1,0.8-2.3,0.9-3.4C13.9,20.4,13.5,20.7,13.1,20.7z"/>
			<path d="M5.6,22l3.1-3.1c-0.5,0-1-0.4-1-0.8c-0.2,0.1-0.4,0.2-0.6,0.2H6.7c-0.1,0.3,0,1.1-0.4,1.4c-0.2,0.2-0.5-0.1-0.5-0.1
				c0.6-0.6,0.5-1.6,0.5-1.6c0.1-0.8-0.4-1.2-0.7-1.2c-0.1,0-0.2,0-0.3,0.1c0,0-0.6,0.3-0.8,0.5C4.4,17.3,4,17.8,4,17.9l0,0
				c-0.6,0.9,0.1,1.9,0.1,1.9C4.5,20.4,5.1,21.3,5.6,22z"/>
		</g>
		<g>
			<path d="M11.1,18.9c0.4,0,0.7-0.2,0.7-0.5v-0.2L11.1,18.9z"/>
			<path d="M11.8,15.8v-0.5c0-0.3-0.3-0.5-0.7-0.5h-0.3c-0.4,0-0.7,0.2-0.7,0.5v2.2L11.8,15.8z"/>
		</g>
		<path d="M12.1,17.9v1.6c0,0.3,0.3,0.5,0.7,0.5h0.3c0.4,0,0.7-0.2,0.7-0.5v-3.1c0,0,0-0.1,0-0.1L12.1,17.9z"/>
	</g>
</g>
</svg>
