<?xml version="1.0" encoding="UTF-8"?>
<svg width="6.7021mm" height="13.579mm" version="1.1" viewBox="0 0 6.7021 13.579" xmlns="http://www.w3.org/2000/svg" xmlns:cc="http://creativecommons.org/ns#" xmlns:dc="http://purl.org/dc/elements/1.1/" xmlns:rdf="http://www.w3.org/1999/02/22-rdf-syntax-ns#">
 <defs>
  <clipPath id="clipPath4284">
   <path d="m0 0h595.28v841.89h-595.28z"/>
  </clipPath>
  <clipPath id="clipPath4292">
   <path d="m147.85 777.59h35.908v-25.908h-35.908z"/>
  </clipPath>
  <clipPath id="clipPath4296">
   <path d="m156.85 752.68h17.908v17.908h-17.908z"/>
  </clipPath>
 </defs>
 <metadata>
  <rdf:RDF>
   <cc:Work rdf:about="">
    <dc:format>image/svg+xml</dc:format>
    <dc:type rdf:resource="http://purl.org/dc/dcmitype/StillImage"/>
    <dc:title/>
   </cc:Work>
  </rdf:RDF>
 </metadata>
 <g transform="matrix(.35278 0 0 -.35278 -55.141 275.48)">
  <g clip-path="url(#clipPath4284)">
   <g clip-path="url(#clipPath4292)">
    <g clip-path="url(#clipPath4296)">
     <g transform="translate(164.05 763.84)">
      <path d="m0 0v2.555c0 0.176-0.023 0.369-0.095 0.472-1.738 0.486-1.938-1.204-1.938-1.204-0.055-0.21-0.082-0.609-0.096-1.014 0.09 0.021 0.181 0.034 0.266 0.034 0.251 0 0.473-0.098 0.625-0.283 0.187-0.227 0.251-0.553 0.201-1.012h0.449c0.283 0 0.52 0.193 0.588 0.452"/>
     </g>
     <g transform="translate(169.37 760.18)">
      <path d="m0 0h-0.286c-0.567 0-1.029 0.371-1.029 0.826v0.453c-0.185-0.133-0.427-0.216-0.692-0.216h-0.285c-0.568 0-1.031 0.369-1.031 0.828v0.187c-0.18-0.133-0.42-0.215-0.69-0.215h-0.282c-0.561 0-1.017 0.361-1.031 0.809-0.155-0.134-0.364-0.217-0.585-0.217h-0.5c-0.064-0.289 7e-3 -1.074-0.356-1.367-0.204-0.194-0.47 0.143-0.47 0.143 0.578 0.632 0.541 1.643 0.541 1.643 0.147 0.782-0.375 1.207-0.67 1.207-0.085 0-0.181-0.024-0.276-0.055 0 0-0.574-0.295-0.802-0.503-0.214-0.146-0.626-0.635-0.666-0.686l-0.011 0.017c-0.565-0.922 0.132-1.867 0.132-1.867 0.899-1.575 2.589-3.653 2.589-3.653l0.866-1.069 5.371-0.058 0.299 1.014c0.558 1.058 0.779 2.323 0.857 3.395-0.119-0.353-0.517-0.616-0.993-0.616"/>
     </g>
     <g transform="translate(169.09 760.96)">
      <path d="m0 0h0.286c0.374 0 0.69 0.225 0.69 0.49v3.078c0 0.265-0.316 0.485-0.69 0.485h-0.286c-0.373 0-0.69-0.22-0.69-0.485v-3.078c0-0.265 0.317-0.49 0.69-0.49"/>
     </g>
     <g transform="translate(165.08 762.83)">
      <path d="m0 0h0.282c0.378 0 0.69 0.221 0.69 0.49v3.075c0 0.265-0.312 0.488-0.69 0.488h-0.282c-0.378 0-0.694-0.223-0.694-0.488v-3.079c0-0.265 0.316-0.486 0.694-0.486"/>
     </g>
     <g transform="translate(167.08 762.03)">
      <path d="m0 0h0.286c0.373 0 0.69 0.221 0.69 0.486v3.079c0 0.264-0.317 0.488-0.69 0.488h-0.286c-0.374 0-0.69-0.224-0.69-0.488v-3.079c0-0.265 0.316-0.486 0.69-0.486"/>
     </g>
     <g transform="translate(159.81 755.64)">
      <path d="m0 0 12.071 12.071" fill="none" stroke="#fff" stroke-miterlimit="10" stroke-width="1.674"/>
     </g>
     <g transform="translate(157.27 761.64)">
      <path d="m0 0c0 4.714 3.821 8.536 8.536 8.536 4.714 0 8.535-3.822 8.535-8.536s-3.821-8.536-8.535-8.536c-4.715 0-8.536 3.822-8.536 8.536z" fill="none" stroke="#000" stroke-miterlimit="10" stroke-width=".837"/>
     </g>
     <g transform="translate(159.81 755.64)">
      <path d="m0 0 12.071 12.071" fill="none" stroke="#000" stroke-miterlimit="10" stroke-width=".837"/>
     </g>
    </g>
   </g>
  </g>
 </g>
</svg>
