<svg
   xmlns:dc="http://purl.org/dc/elements/1.1/"
   xmlns:cc="http://creativecommons.org/ns#"
   xmlns:rdf="http://www.w3.org/1999/02/22-rdf-syntax-ns#"
   xmlns:svg="http://www.w3.org/2000/svg"
   xmlns="http://www.w3.org/2000/svg"
   xmlns:sodipodi="http://sodipodi.sourceforge.net/DTD/sodipodi-0.dtd"
   xmlns:inkscape="http://www.inkscape.org/namespaces/inkscape"
   inkscape:version="1.0 (4035a4fb49, 2020-05-01)"
   sodipodi:docname="all_stacked (copy).svg"
   id="svg2899"
   viewBox="0 0 6.7021 13.579"
   version="1.1"
   height="13.579mm"
   width="6.7021mm"><g xmlns="http://www.w3.org/2000/svg" transform="matrix(0.35278,0,0,-0.35278,-4.4,201.34)" id="g873">
    <g clip-path="url(#clipPath24152)" id="g871">
      <g transform="translate(17.43,556.19)" id="g869">
        <path d="m 0,0 c 1.458,0.812 3.107,1.017 4.632,0.699 -2.66,0.883 -5.654,0.008 -7.348,-2.204 0.097,0.216 0.208,0.428 0.333,0.636 1.798,3.001 5.779,4.03 8.894,2.297 1.458,-0.812 2.468,-2.085 2.944,-3.517 -0.537,2.662 -2.82,4.723 -5.654,5.031 0.242,0.027 0.488,0.041 0.738,0.041 3.595,0 6.511,-2.81 6.511,-6.276 0,-1.623 -0.64,-3.102 -1.689,-4.216 2.124,1.779 2.835,4.716 1.695,7.235 0.144,-0.189 0.279,-0.387 0.404,-0.595 1.798,-3.001 0.731,-6.839 -2.383,-8.572 -1.458,-0.812 -3.107,-1.018 -4.633,-0.699 2.661,-0.883 5.655,-0.008 7.348,2.203 -0.097,-0.215 -0.207,-0.427 -0.332,-0.635 -1.798,-3.002 -5.78,-4.03 -8.894,-2.297 -1.459,0.811 -2.468,2.084 -2.944,3.517 0.536,-2.662 2.819,-4.724 5.654,-5.032 -0.242,-0.026 -0.488,-0.04 -0.737,-0.04 -3.597,0 -6.512,2.81 -6.512,6.276 0,1.622 0.64,3.102 1.689,4.216 -2.125,-1.78 -2.835,-4.716 -1.695,-7.235 -0.144,0.188 -0.28,0.387 -0.404,0.595 C -4.182,-5.571 -3.114,-1.733 0,0 m 0.351,-2.864 c 0.145,0.189 0.306,0.361 0.48,0.515 1.005,0.889 2.453,1.191 3.762,0.757 C 3.712,-1.408 2.76,-1.527 1.918,-1.996 0.856,-2.586 0.207,-3.601 0.067,-4.69 -0.03,-5.445 0.118,-6.235 0.542,-6.944 c 0.073,-0.12 0.151,-0.235 0.234,-0.344 -0.097,0.216 -0.171,0.436 -0.222,0.659 -0.297,1.283 0.155,2.643 1.2,3.518 C 1.149,-3.754 0.78,-4.608 0.78,-5.545 c 0,-1.182 0.587,-2.231 1.495,-2.892 0.63,-0.459 1.413,-0.73 2.264,-0.73 0.143,0 0.285,0.008 0.425,0.023 -0.242,0.026 -0.477,0.075 -0.703,0.143 -1.301,0.395 -2.297,1.452 -2.561,2.761 0.275,-0.827 0.858,-1.562 1.7,-2.03 1.061,-0.591 2.298,-0.625 3.347,-0.198 0.726,0.296 1.362,0.815 1.787,1.524 0.072,0.12 0.136,0.243 0.192,0.367 C 8.582,-6.766 8.42,-6.938 8.246,-7.092 7.241,-7.981 5.793,-8.284 4.484,-7.849 5.365,-8.033 6.316,-7.914 7.158,-7.446 8.22,-6.855 8.87,-5.84 9.01,-4.751 9.106,-3.997 8.959,-3.207 8.534,-2.497 8.462,-2.377 8.384,-2.263 8.3,-2.154 8.398,-2.369 8.472,-2.589 8.523,-2.812 8.819,-4.095 8.367,-5.455 7.322,-6.33 c 0.606,0.643 0.975,1.497 0.975,2.434 0,1.181 -0.587,2.231 -1.495,2.892 -0.63,0.458 -1.414,0.73 -2.263,0.73 -0.144,0 -0.287,-0.008 -0.426,-0.023 C 4.355,-0.323 4.59,-0.372 4.816,-0.441 6.117,-0.835 7.113,-1.892 7.377,-3.202 7.102,-2.375 6.519,-1.64 5.677,-1.171 4.615,-0.58 3.379,-0.546 2.331,-0.973 1.604,-1.27 0.968,-1.788 0.542,-2.497 0.471,-2.617 0.407,-2.74 0.351,-2.864" id="path867"/>
      </g>
    </g>
  </g></svg>