<svg
   xmlns:dc="http://purl.org/dc/elements/1.1/"
   xmlns:cc="http://creativecommons.org/ns#"
   xmlns:rdf="http://www.w3.org/1999/02/22-rdf-syntax-ns#"
   xmlns:svg="http://www.w3.org/2000/svg"
   xmlns="http://www.w3.org/2000/svg"
   xmlns:sodipodi="http://sodipodi.sourceforge.net/DTD/sodipodi-0.dtd"
   xmlns:inkscape="http://www.inkscape.org/namespaces/inkscape"
   inkscape:version="1.0 (4035a4fb49, 2020-05-01)"
   sodipodi:docname="all_stacked (copy).svg"
   id="svg2899"
   viewBox="0 0 6.7021 13.579"
   version="1.1"
   height="13.579mm"
   width="6.7021mm"><g xmlns="http://www.w3.org/2000/svg" transform="matrix(0.35278,0,0,-0.35278,-3.487,188.01)" id="g881">
    <g clip-path="url(#clipPath24176)" id="g879">
      <g transform="translate(19.583,519.33)" id="g877">
        <path d="m 0,0 c -0.125,0.078 -0.28,0.078 -0.406,0 -0.96,-0.596 -5.003,-3.286 -5.003,-6.374 0,-1.605 1.278,-2.907 2.855,-2.907 0.516,0 1,0.14 1.417,0.384 0.12,0.07 0.26,-0.053 0.213,-0.186 -0.223,-0.631 -0.538,-1.216 -0.93,-1.738 -0.149,-0.199 -0.006,-0.488 0.239,-0.488 h 2.854 c 0.245,0 0.389,0.289 0.239,0.489 -0.387,0.515 -0.7,1.093 -0.922,1.715 -0.047,0.133 0.091,0.257 0.211,0.188 0.409,-0.231 0.88,-0.364 1.381,-0.364 1.577,0 2.856,1.302 2.856,2.907 C 5.004,-3.286 0.961,-0.596 0,0" id="path875"/>
      </g>
    </g>
  </g></svg>