<svg
   xmlns:dc="http://purl.org/dc/elements/1.1/"
   xmlns:cc="http://creativecommons.org/ns#"
   xmlns:rdf="http://www.w3.org/1999/02/22-rdf-syntax-ns#"
   xmlns:svg="http://www.w3.org/2000/svg"
   xmlns="http://www.w3.org/2000/svg"
   xmlns:sodipodi="http://sodipodi.sourceforge.net/DTD/sodipodi-0.dtd"
   xmlns:inkscape="http://www.inkscape.org/namespaces/inkscape"
   inkscape:version="1.0 (4035a4fb49, 2020-05-01)"
   sodipodi:docname="all_stacked (copy).svg"
   id="svg2899"
   viewBox="0 0 6.7021 13.579"
   version="1.1"
   height="13.579mm"
   width="6.7021mm"><g xmlns="http://www.w3.org/2000/svg" transform="matrix(0.35278,0,0,-0.35278,-55.071,257.78)" id="g2551">
    <g clip-path="url(#clipPath33382)" id="g2549">
      <g transform="translate(164.61,712.25)" id="g2495">
        <path d="m 0,0 c 0,0 0.162,-6.938 -0.555,-7.588 -0.717,-0.65 -0.986,-1.793 -0.247,-1.838 0.74,-0.044 -1.367,-3.339 0.493,-3.182 1.861,0.157 1.368,4.46 0.874,5.894 -0.493,1.435 -0.043,4.954 0.573,4.595 0.615,-0.358 2.005,0.583 1.624,-2.241 -0.381,-2.824 0.56,-2.286 0.56,-2.286 0,0 0.695,-0.673 0.247,2.263 -0.448,2.937 0.314,3.362 0.672,3.228 C 4.6,-1.29 4.954,-1.357 4.864,-2.634 4.775,-3.912 4.842,-4.159 5.357,-4.159 c 0.516,0 0.516,1.435 -0.224,2.825 C 4.394,0.055 4.766,0.863 4.766,0.863 L 1.811,1.685 Z" id="path2493"/>
      </g>
      <g transform="translate(169.99,710.38)" id="g2499">
        <path d="M 0,0 C 0,0 -0.496,0.994 0.157,1.364 0.81,1.734 0.788,0.392 1.223,0.682 1.658,0.972 0.418,1.734 0.94,2.147 1.462,2.561 2.202,1.777 2.311,2.017 2.42,2.256 1.506,2.626 1.593,3.083 1.68,3.54 1.854,3.431 1.963,4.236 c 0.109,0.805 1.066,0.218 1.066,0.218 0,0 0.832,-0.03 -0.155,0.5 C 1.887,5.484 1.732,5.109 2.107,5.778 2.482,6.447 3.673,6.235 3.592,6.7 3.51,7.165 2.368,6.366 2.001,7.141 1.634,7.916 2.654,7.745 2.547,8.095 2.441,8.446 1.813,7.712 1.397,8.283 0.981,8.854 1.903,9.27 1.903,9.27 c 0,0 0.334,0.147 0.13,0.286 C 1.829,9.695 1.087,8.765 0.606,9.205 0.124,9.646 -0.3,10.005 0.149,10.421 0.597,10.837 0.198,11 0.198,11 c 0,0 -0.351,0.269 -0.514,-0.726 -0.164,-0.995 -1.681,-0.106 -1.673,0.131 0.008,0.236 -1.167,-0.384 -0.237,0.856 0.93,1.241 -1.109,0.767 -0.604,0 0.506,-0.767 -0.554,-0.865 -0.734,-0.734 -0.179,0.131 -0.465,0.171 -0.253,0.849 0.212,0.677 -0.302,0.571 -0.44,0.408 -0.139,-0.164 -0.204,-0.523 0,-0.857 0.204,-0.335 -0.229,-0.498 -0.539,-0.49 -0.31,0.008 -0.416,0.041 -0.685,1.094 -0.27,1.052 -1.151,0.122 -0.669,-0.384 0.481,-0.506 0.497,-1.265 -0.784,-1.648 -1.281,-0.384 -0.816,1.338 -1.632,0.098 -0.816,-1.24 0.343,-0.93 0.343,-0.93 0,0 0.792,-0.033 -0.024,-0.678 C -9.063,7.345 -8.957,8.577 -9.594,8.185 -10.23,7.794 -8.729,7.777 -9.014,7.092 -9.3,6.406 -9.61,7.255 -9.683,6.676 c -0.074,-0.58 0.527,0.073 0.527,-0.405 0,-0.479 -0.478,-0.283 -0.522,-0.479 -0.043,-0.196 0.326,-0.359 0.326,-0.359 0,0 0.381,-0.696 -1.49,-0.675 -1.871,0.022 -1.001,-0.38 -1.001,-0.38 0,0 0.642,-0.066 0.947,0.087 0.304,0.152 1.61,0.261 1.479,-0.425 C -9.547,3.355 -8.862,3.148 -8.71,3.05 -8.557,2.952 -8.525,2.419 -9.112,1.875 -9.7,1.331 -8.209,2.474 -7.981,2.028 -7.752,1.582 -8.829,0.602 -9.678,0.211 c -0.849,-0.392 -0.751,-0.871 -0.62,-0.871 0.13,0 0.329,-0.412 1.338,1.078 1.009,1.489 2.47,0.892 1.915,-0.066 -0.555,-0.957 -1.806,-0.979 -1.088,-1.632 0.718,-0.652 0.566,1.839 1.588,1.534 1.023,-0.304 1.099,-1.158 1.142,-2.235 0.044,-1.077 0.746,2.709 0.746,2.709 l 1.436,-0.18 2.089,1.224 z" id="path2497"/>
      </g>
      <g transform="translate(173.09,714.27)" id="g2503">
        <path d="M 0,0 C 0,0.204 0.166,0.37 0.37,0.37 0.574,0.37 0.74,0.204 0.74,0 0.74,-0.204 0.574,-0.37 0.37,-0.37 0.166,-0.37 0,-0.204 0,0" id="path2501"/>
      </g>
      <g transform="translate(173.95,715.3)" id="g2507">
        <path d="m 0,0 c 0,0.11 0.089,0.199 0.199,0.199 0.111,0 0.2,-0.089 0.2,-0.199 0,-0.11 -0.089,-0.199 -0.2,-0.199 C 0.089,-0.199 0,-0.11 0,0" id="path2505"/>
      </g>
      <g transform="translate(170.93,720.49)" id="g2511">
        <path d="M 0,0 C 0,0.204 0.166,0.37 0.37,0.37 0.574,0.37 0.74,0.204 0.74,0 0.74,-0.204 0.574,-0.37 0.37,-0.37 0.166,-0.37 0,-0.204 0,0" id="path2509"/>
      </g>
      <g transform="translate(171.15,721.6)" id="g2515">
        <path d="M 0,0 C 0,0.228 0.185,0.413 0.413,0.413 0.642,0.413 0.827,0.228 0.827,0 0.827,-0.228 0.642,-0.413 0.413,-0.413 0.185,-0.413 0,-0.228 0,0" id="path2513"/>
      </g>
      <g transform="translate(172.14,720.86)" id="g2519">
        <path d="M 0,0 C 0,0.102 0.083,0.185 0.185,0.185 0.287,0.185 0.37,0.102 0.37,0 0.37,-0.102 0.287,-0.185 0.185,-0.185 0.083,-0.185 0,-0.102 0,0" id="path2517"/>
      </g>
      <g transform="translate(162.38,722.77)" id="g2523">
        <path d="M 0,0 C 0,0.279 0.227,0.506 0.506,0.506 0.785,0.506 1.012,0.279 1.012,0 1.012,-0.279 0.785,-0.506 0.506,-0.506 0.227,-0.506 0,-0.279 0,0" id="path2521"/>
      </g>
      <g transform="translate(159.44,719.74)" id="g2527">
        <path d="M 0,0 C 0,0.176 0.142,0.318 0.318,0.318 0.494,0.318 0.636,0.176 0.636,0 0.636,-0.176 0.494,-0.318 0.318,-0.318 0.142,-0.318 0,-0.176 0,0" id="path2525"/>
      </g>
      <g transform="translate(159.44,718.79)" id="g2531">
        <path d="M 0,0 C 0,0.131 0.106,0.237 0.237,0.237 0.367,0.237 0.473,0.131 0.473,0 0.473,-0.131 0.367,-0.237 0.237,-0.237 0.106,-0.237 0,-0.131 0,0" id="path2529"/>
      </g>
      <g transform="translate(157.6,717.08)" id="g2535">
        <path d="M 0,0 C 0,0.306 0.248,0.555 0.555,0.555 0.861,0.555 1.11,0.306 1.11,0 1.11,-0.306 0.861,-0.555 0.555,-0.555 0.248,-0.555 0,-0.306 0,0" id="path2533"/>
      </g>
      <g transform="translate(156.85,715.3)" id="g2539">
        <path d="M 0,0 C 0,0.153 0.124,0.277 0.277,0.277 0.431,0.277 0.555,0.153 0.555,0 0.555,-0.153 0.431,-0.277 0.277,-0.277 0.124,-0.277 0,-0.153 0,0" id="path2537"/>
      </g>
      <g transform="translate(157.27,714.7)" id="g2543">
        <path d="m 0,0 c 0,0.072 0.058,0.131 0.131,0.131 0.072,0 0.13,-0.059 0.13,-0.131 0,-0.072 -0.058,-0.131 -0.13,-0.131 C 0.058,-0.131 0,-0.072 0,0" id="path2541"/>
      </g>
      <g transform="translate(157.13,709.89)" id="g2547">
        <path d="M 0,0 C 0,0.354 0.287,0.642 0.642,0.642 0.996,0.642 1.284,0.354 1.284,0 1.284,-0.355 0.996,-0.642 0.642,-0.642 0.287,-0.642 0,-0.355 0,0" id="path2545"/>
      </g>
    </g>
  </g></svg>