<svg
   xmlns:dc="http://purl.org/dc/elements/1.1/"
   xmlns:cc="http://creativecommons.org/ns#"
   xmlns:rdf="http://www.w3.org/1999/02/22-rdf-syntax-ns#"
   xmlns:svg="http://www.w3.org/2000/svg"
   xmlns="http://www.w3.org/2000/svg"
   xmlns:sodipodi="http://sodipodi.sourceforge.net/DTD/sodipodi-0.dtd"
   xmlns:inkscape="http://www.inkscape.org/namespaces/inkscape"
   inkscape:version="1.0 (4035a4fb49, 2020-05-01)"
   sodipodi:docname="all_stacked (copy).svg"
   id="svg2899"
   viewBox="0 0 6.7021 13.579"
   version="1.1"
   height="13.579mm"
   width="6.7021mm"><g xmlns="http://www.w3.org/2000/svg" transform="matrix(0.35278,0,0,-0.35278,-4,159.96)" id="g929">
    <g clip-path="url(#clipPath24208)" id="g927">
      <g transform="translate(15.244,444.77)" id="g885">
        <path d="m 0,0 c 3.784,0.285 7.567,0.569 11.351,0.854 -3.362,-7.563 3.1,-15.304 -0.262,-22.866 -3.776,0.421 -7.551,0.843 -11.327,1.265 C 2.813,-13.885 -3.051,-6.862 0,0" fill="#ffffff" id="path883"/>
      </g>
      <g transform="translate(15.244,444.77)" id="g889">
        <path d="m 0,0 c 3.784,0.285 7.567,0.569 11.351,0.854 -3.362,-7.563 3.1,-15.304 -0.262,-22.866 -3.776,0.421 -7.551,0.843 -11.327,1.265 C 2.813,-13.885 -3.051,-6.862 0,0 Z" fill="none" stroke="#000000" stroke-miterlimit="10" stroke-width="0.324" id="path887"/>
      </g>
      <g transform="translate(15.77,443.97)" id="g893">
        <path d="m 0,0 c 3.199,0.217 6.399,0.434 9.598,0.651 -2.349,-6.897 2.819,-13.931 0.47,-20.828 -3.212,0.333 -6.424,0.667 -9.635,1 C 2.595,-12.826 -2.163,-6.35 0,0" fill="#ffffff" id="path891"/>
      </g>
      <g transform="translate(15.77,443.97)" id="g897">
        <path d="m 0,0 c 3.199,0.217 6.399,0.434 9.598,0.651 -2.349,-6.897 2.819,-13.931 0.47,-20.828 -3.212,0.333 -6.424,0.667 -9.635,1 C 2.595,-12.826 -2.163,-6.35 0,0 Z" fill="none" stroke="#000000" stroke-miterlimit="10" stroke-width="0.324" id="path895"/>
      </g>
      <g transform="translate(16.906,434.36)" id="g901">
        <path d="M 0,0 C -0.447,2.07 1.058,3.783 3.203,3.83 5.323,3.878 7.294,2.101 7.776,-0.14 8.259,-2.382 6.748,-4.095 4.573,-3.971 2.424,-3.846 0.447,-2.07 0,0" fill="#ffffff" id="path899"/>
      </g>
      <g transform="translate(16.906,434.36)" id="g905">
        <path d="M 0,0 C -0.447,2.07 1.058,3.783 3.203,3.83 5.323,3.878 7.294,2.101 7.776,-0.14 8.259,-2.382 6.748,-4.095 4.573,-3.971 2.424,-3.846 0.447,-2.07 0,0" fill="none" stroke="#000000" stroke-miterlimit="10" stroke-width="0.324" id="path903"/>
      </g>
      <g transform="translate(18.113,441.37)" id="g909">
        <path d="M 0,0 C 0.065,1.021 1.122,1.898 2.16,1.963 3.199,2.028 3.816,1.223 3.748,0.161 3.675,-0.901 2.912,-1.784 1.872,-1.808 0.841,-1.831 -0.07,-1.021 0,0" fill="#ffffff" id="path907"/>
      </g>
      <g transform="translate(18.113,441.37)" id="g913">
        <path d="M 0,0 C 0.065,1.021 1.122,1.898 2.16,1.963 3.199,2.028 3.816,1.223 3.748,0.161 3.675,-0.901 2.912,-1.784 1.872,-1.808 0.841,-1.831 -0.07,-1.021 0,0" fill="none" stroke="#000000" stroke-miterlimit="10" stroke-width="0.324" id="path911"/>
      </g>
      <g transform="translate(19.703,427.32)" id="g917">
        <path d="M 0,0 C 0.068,1.021 0.845,1.801 1.899,1.74 2.944,1.679 3.872,0.766 3.802,-0.296 3.736,-1.358 2.666,-2.133 1.62,-2.031 0.573,-1.929 -0.063,-1.021 0,0" fill="#ffffff" id="path915"/>
      </g>
      <g transform="translate(19.703,427.32)" id="g921">
        <path d="M 0,0 C 0.068,1.021 0.845,1.801 1.899,1.74 2.944,1.679 3.872,0.766 3.802,-0.296 3.736,-1.358 2.666,-2.133 1.62,-2.031 0.573,-1.929 -0.063,-1.021 0,0" fill="none" stroke="#000000" stroke-miterlimit="10" stroke-width="0.324" id="path919"/>
      </g>
      <g transform="translate(21.568,433.73)" id="g925">
        <path d="M 0,0 C 0.094,0.043 0.47,-0.1 0.506,0.32 L -0.41,0.338 c -0.153,-0.567 -0.319,-0.967 -1.007,-0.948 -0.525,0.016 -0.985,0.443 -1.115,0.937 -0.108,0.003 -0.216,0.005 -0.324,0.007 -0.028,0.142 -0.057,0.283 -0.086,0.425 0.108,-0.002 0.216,-0.004 0.323,-0.005 -0.06,0.56 0.278,0.901 0.853,0.882 0.045,-0.228 0.091,-0.456 0.137,-0.684 -0.21,0.003 -0.431,-0.067 -0.412,-0.3 0.285,-0.005 0.571,-0.01 0.857,-0.015 0.127,0.574 0.266,1.006 0.961,1 C 0.383,1.632 0.824,1.279 0.995,0.654 1.175,0.651 1.354,0.648 1.534,0.644 L 1.624,0.203 C 1.442,0.207 1.261,0.21 1.08,0.214 1.107,-0.473 0.824,-0.708 0.137,-0.688 0.092,-0.458 0.046,-0.229 0,0 m -2.001,0.404 c 0.091,-0.181 0.182,-0.319 0.408,-0.324 0.196,-0.005 0.321,0.124 0.337,0.309 -0.248,0.005 -0.496,0.01 -0.745,0.015 m 2.446,0.17 C 0.362,0.788 0.169,0.969 -0.059,0.938 -0.168,0.876 -0.252,1 -0.373,0.588 -0.101,0.583 0.172,0.579 0.445,0.574" id="path923"/>
      </g>
    </g>
  </g></svg>