<svg
   xmlns:dc="http://purl.org/dc/elements/1.1/"
   xmlns:cc="http://creativecommons.org/ns#"
   xmlns:rdf="http://www.w3.org/1999/02/22-rdf-syntax-ns#"
   xmlns:svg="http://www.w3.org/2000/svg"
   xmlns="http://www.w3.org/2000/svg"
   xmlns:sodipodi="http://sodipodi.sourceforge.net/DTD/sodipodi-0.dtd"
   xmlns:inkscape="http://www.inkscape.org/namespaces/inkscape"
   inkscape:version="1.0 (4035a4fb49, 2020-05-01)"
   sodipodi:docname="all_stacked (copy).svg"
   id="svg2899"
   viewBox="0 0 6.7021 13.579"
   version="1.1"
   height="13.579mm"
   width="6.7021mm"><g xmlns="http://www.w3.org/2000/svg" transform="matrix(0.35278,0,0,-0.35278,-4.476,149.58)" id="g937">
    <g clip-path="url(#clipPath24278)" id="g935">
      <g transform="translate(19.624,402.49)" id="g933">
        <path d="M 0,0 C -0.019,-1.383 0.86,-2.243 2,-2.467 V 1.439 C 1.869,1.495 1.645,1.551 1.402,1.607 c -1.869,0.505 -3.738,1.234 -3.738,3.72 0,2.56 2.093,3.869 4.336,3.999 v 1.439 H 3.102 V 9.326 C 5.327,9.083 7.158,7.925 7.308,5.345 H 4.654 C 4.635,6.336 3.944,7.14 3.102,7.14 V 3.832 C 3.402,3.757 3.719,3.682 4.056,3.588 7.7,2.579 7.775,0.505 7.775,-0.748 7.775,-1.813 6.822,-4.411 3.102,-4.654 V -6.242 H 2 v 1.588 C -0.766,-4.448 -2.374,-2.934 -2.654,0 Z M 2,7.14 C 1.159,7.14 0.318,6.616 0.318,5.588 0.318,4.766 0.804,4.374 2,4.093 Z m 1.102,-9.607 c 0.916,0.093 2.019,0.635 2.019,1.832 0,0.99 -0.542,1.345 -2.019,1.756 z" id="path931"/>
      </g>
    </g>
  </g></svg>