<svg
   xmlns:dc="http://purl.org/dc/elements/1.1/"
   xmlns:cc="http://creativecommons.org/ns#"
   xmlns:rdf="http://www.w3.org/1999/02/22-rdf-syntax-ns#"
   xmlns:svg="http://www.w3.org/2000/svg"
   xmlns="http://www.w3.org/2000/svg"
   xmlns:sodipodi="http://sodipodi.sourceforge.net/DTD/sodipodi-0.dtd"
   xmlns:inkscape="http://www.inkscape.org/namespaces/inkscape"
   inkscape:version="1.0 (4035a4fb49, 2020-05-01)"
   sodipodi:docname="all_stacked (copy).svg"
   id="svg2899"
   viewBox="0 0 6.7021 13.579"
   version="1.1"
   height="13.579mm"
   width="6.7021mm"><g xmlns="http://www.w3.org/2000/svg" transform="translate(-73.508,-82.287)" id="g987">
    <g transform="matrix(0.35278,0,0,-0.35278,76.658,87.515)" id="g941">
      <path d="M 0,0 1.129,0.351 0.71,-3.33 2.909,0.916 1.781,0.565 2.199,4.245 Z" id="path939"/>
    </g>
    <g transform="matrix(0.35278,0,0,-0.35278,76.658,87.515)" id="g945">
      <path d="M 0,0 1.129,0.351 0.71,-3.33 2.909,0.916 1.781,0.565 2.199,4.245 Z" fill="none" stroke="#000000" stroke-miterlimit="10" stroke-width="0.25" id="path943"/>
    </g>
    <g transform="matrix(0.35278,0,0,-0.35278,75.368,88.461)" id="g949">
      <path d="M 0,0 0.253,1.121 3.319,-1.06 0.641,2.894 0.389,1.773 -2.677,3.954 Z" id="path947"/>
    </g>
    <g transform="matrix(0.35278,0,0,-0.35278,75.368,88.461)" id="g953">
      <path d="M 0,0 0.253,1.121 3.319,-1.06 0.641,2.894 0.389,1.773 -2.677,3.954 Z" fill="none" stroke="#000000" stroke-miterlimit="10" stroke-width="0.25" id="path951"/>
    </g>
    <g transform="matrix(0.35278,0,0,-0.35278,75.566,90.028)" id="g957">
      <path d="M 0,0 -0.874,0.781 2.596,2.278 -2.261,2.008 -1.388,1.227 -4.857,-0.27 Z" id="path955"/>
    </g>
    <g transform="matrix(0.35278,0,0,-0.35278,75.566,90.028)" id="g961">
      <path d="M 0,0 -0.874,0.781 2.596,2.278 -2.261,2.008 -1.388,1.227 -4.857,-0.27 Z" fill="none" stroke="#000000" stroke-miterlimit="10" stroke-width="0.25" id="path959"/>
    </g>
    <g transform="matrix(0.35278,0,0,-0.35278,77.057,90.639)" id="g965">
      <path d="M 0,0 -1.128,-0.351 -0.71,3.33 -2.909,-0.915 -1.78,-0.564 -2.199,-4.245 Z" id="path963"/>
    </g>
    <g transform="matrix(0.35278,0,0,-0.35278,77.057,90.639)" id="g969">
      <path d="M 0,0 -1.128,-0.351 -0.71,3.33 -2.909,-0.915 -1.78,-0.564 -2.199,-4.245 Z" fill="none" stroke="#000000" stroke-miterlimit="10" stroke-width="0.25" id="path967"/>
    </g>
    <g transform="matrix(0.35278,0,0,-0.35278,78.347,89.692)" id="g973">
      <path d="m 0,0 -0.252,-1.121 -3.067,2.181 2.678,-3.954 0.253,1.121 3.066,-2.18 z" id="path971"/>
    </g>
    <g transform="matrix(0.35278,0,0,-0.35278,78.347,89.692)" id="g977">
      <path d="m 0,0 -0.252,-1.121 -3.067,2.181 2.678,-3.954 0.253,1.121 3.066,-2.18 z" fill="none" stroke="#000000" stroke-miterlimit="10" stroke-width="0.25" id="path975"/>
    </g>
    <g transform="matrix(0.35278,0,0,-0.35278,78.149,88.125)" id="g981">
      <path d="m 0,0 0.873,-0.781 -3.47,-1.496 4.858,0.269 -0.874,0.781 3.47,1.497 z" id="path979"/>
    </g>
    <g transform="matrix(0.35278,0,0,-0.35278,78.149,88.125)" id="g985">
      <path d="m 0,0 0.873,-0.781 -3.47,-1.496 4.858,0.269 -0.874,0.781 3.47,1.497 z" fill="none" stroke="#000000" stroke-miterlimit="10" stroke-width="0.25" id="path983"/>
    </g>
  </g></svg>