<svg
   xmlns:dc="http://purl.org/dc/elements/1.1/"
   xmlns:cc="http://creativecommons.org/ns#"
   xmlns:rdf="http://www.w3.org/1999/02/22-rdf-syntax-ns#"
   xmlns:svg="http://www.w3.org/2000/svg"
   xmlns="http://www.w3.org/2000/svg"
   xmlns:sodipodi="http://sodipodi.sourceforge.net/DTD/sodipodi-0.dtd"
   xmlns:inkscape="http://www.inkscape.org/namespaces/inkscape"
   inkscape:version="1.0 (4035a4fb49, 2020-05-01)"
   sodipodi:docname="all_stacked (copy).svg"
   id="svg2899"
   viewBox="0 0 6.7021 13.579"
   version="1.1"
   height="13.579mm"
   width="6.7021mm"><g xmlns="http://www.w3.org/2000/svg" transform="translate(-161.395,-72.58)" id="g2597">
    <g transform="matrix(0.35278,0,0,-0.35278,106.69,304.67)" id="g2563">
      <g clip-path="url(#clipPath33500)" id="g2561">
        <g transform="translate(161.54,640.73)" id="g2555">
          <path d="m 0,0 -0.39,-0.39 0.571,-0.571 c 0.029,-0.029 0.029,-0.076 0,-0.105 -0.029,-0.029 -0.076,-0.029 -0.105,0 l -0.571,0.571 -0.451,-0.451 1.488,-1.487 0.945,0.946 z" id="path2553"/>
        </g>
        <g transform="translate(162.97,642.19)" id="g2559">
          <path d="m 0,0 -0.127,-0.127 0.763,-0.764 c 0.028,-0.028 0.028,-0.073 0,-0.102 -0.028,-0.028 -0.074,-0.028 -0.102,0.001 l -0.763,0.763 -0.828,-0.828 1.07,-1.07 c 0.028,-0.029 0.028,-0.074 0,-0.102 -0.028,-0.029 -0.074,-0.028 -0.102,0 l -1.07,1.07 -0.194,-0.194 1.443,-1.444 1.354,1.353 z" id="path2557"/>
        </g>
      </g>
    </g>
    <g transform="matrix(0.35278,0,0,-0.35278,164.21,78.127)" id="g2567">
      <path d="M 0,0 1.834,-1.834 2.433,-1.236 0.599,0.599 Z" id="path2565"/>
    </g>
    <g transform="matrix(0.35278,0,0,-0.35278,164.16,79.777)" id="g2571">
      <path d="M 0,0 2.946,2.946 2.222,3.671 -0.724,0.724 Z" id="path2569"/>
    </g>
    <g transform="matrix(0.35278,0,0,-0.35278,106.69,304.67)" id="g2583">
      <g clip-path="url(#clipPath33524)" id="g2581">
        <g transform="translate(163.91,637.32)" id="g2575">
          <path d="m 0,0 0.061,0.061 c 0.33,0.33 0.868,0.329 1.2,-0.003 l 1.846,-1.846 c 0.224,-0.224 0.586,-0.225 0.809,-0.002 0.222,0.223 0.222,0.585 -0.002,0.808 L 2.068,0.865 H 2.067 C 1.735,1.197 1.734,1.734 2.065,2.065 l 0.061,0.06 C 2.352,2.352 2.351,2.721 2.124,2.948 L -0.823,0.002 C -0.595,-0.226 -0.227,-0.227 0,0 M 3.634,-1.508 C 3.535,-1.606 3.375,-1.606 3.276,-1.507 3.177,-1.408 3.177,-1.248 3.275,-1.15 3.374,-1.051 3.534,-1.052 3.633,-1.151 3.732,-1.25 3.732,-1.41 3.634,-1.508" id="path2573"/>
        </g>
        <g transform="translate(164.58,631.84)" id="g2579">
          <path d="m 0,0 c 3.75,0 6.801,3.051 6.801,6.801 0,3.75 -3.051,6.801 -6.801,6.801 -3.75,0 -6.801,-3.051 -6.801,-6.801 C -6.801,3.051 -3.75,0 0,0 Z" fill="none" stroke="#000000" stroke-width="1.85" id="path2577"/>
        </g>
      </g>
    </g>
    <g transform="matrix(0.35278,0,0,-0.35278,163.32,78.946)" id="g2587">
      <path d="M 0,0 3.001,2.911 5.486,0.403 2.531,-2.531 Z" id="path2585"/>
    </g>
    <g transform="matrix(0.35278,0,0,-0.35278,106.69,304.67)" id="g2595">
      <g clip-path="url(#clipPath33544)" id="g2593">
        <g transform="translate(167.38,635.45)" id="g2591">
          <path d="M 0,0 C 0.198,0 0.358,0.16 0.358,0.358 0.358,0.556 0.198,0.717 0,0.717 -0.198,0.717 -0.358,0.556 -0.358,0.358 -0.358,0.16 -0.198,0 0,0" id="path2589"/>
        </g>
      </g>
    </g>
  </g></svg>