<svg
   xmlns:dc="http://purl.org/dc/elements/1.1/"
   xmlns:cc="http://creativecommons.org/ns#"
   xmlns:rdf="http://www.w3.org/1999/02/22-rdf-syntax-ns#"
   xmlns:svg="http://www.w3.org/2000/svg"
   xmlns="http://www.w3.org/2000/svg"
   xmlns:sodipodi="http://sodipodi.sourceforge.net/DTD/sodipodi-0.dtd"
   xmlns:inkscape="http://www.inkscape.org/namespaces/inkscape"
   inkscape:version="1.0 (4035a4fb49, 2020-05-01)"
   sodipodi:docname="all_stacked (copy).svg"
   id="svg2899"
   viewBox="0 0 6.7021 13.579"
   version="1.1"
   height="13.579mm"
   width="6.7021mm"><g xmlns="http://www.w3.org/2000/svg" transform="translate(-73.251,-98.921)" id="g1013">
    <g transform="matrix(0.35278,0,0,-0.35278,68.607,209.08)" id="g999">
      <g clip-path="url(#clipPath24398)" id="g997">
        <g transform="translate(22.868,300.14)" id="g991">
          <path d="m 0,0 c 1.36,-0.83 4.752,-3.677 4.752,-6.901 0,-3.128 -1.783,-4.465 -4.394,-4.465 -2.136,0 -3.941,1.417 -4.527,3.362 0.163,-2.807 2.491,-5.034 5.339,-5.034 2.954,0 5.349,2.395 5.349,5.349 C 6.519,-3.677 2.148,-0.695 0,0" id="path989"/>
        </g>
        <g transform="translate(19.12,290.35)" id="g995">
          <path d="m 0,0 -0.56,-0.56 h -0.48 l -0.107,-0.5 -2.269,-2.268 c 0,0 -0.298,-0.454 0,-0.824 0.299,-0.37 1.099,0 1.099,0 l 2.191,2.191 0.352,0.125 0.101,0.359 0.393,0.393 z" id="path993"/>
        </g>
      </g>
    </g>
    <g transform="matrix(0.35278,0,0,-0.35278,75.015,105.4)" id="g1003">
      <path d="M 0,0 4.226,4.035 1.528,4.8 -1.624,1.719 Z" id="path1001"/>
    </g>
    <g transform="matrix(0.35278,0,0,-0.35278,68.607,209.08)" id="g1011">
      <g clip-path="url(#clipPath24418)" id="g1009">
        <g transform="translate(19.278,295.49)" id="g1007">
          <path d="m 0,0 9.273,-9.61 c 0,0 0.526,0.071 0.836,0.501 0.31,0.43 0.358,0.717 0.358,0.717 l -9.384,9.36 z" id="path1005"/>
        </g>
      </g>
    </g>
  </g></svg>