<svg
   xmlns:dc="http://purl.org/dc/elements/1.1/"
   xmlns:cc="http://creativecommons.org/ns#"
   xmlns:rdf="http://www.w3.org/1999/02/22-rdf-syntax-ns#"
   xmlns:svg="http://www.w3.org/2000/svg"
   xmlns="http://www.w3.org/2000/svg"
   xmlns:sodipodi="http://sodipodi.sourceforge.net/DTD/sodipodi-0.dtd"
   xmlns:inkscape="http://www.inkscape.org/namespaces/inkscape"
   inkscape:version="1.0 (4035a4fb49, 2020-05-01)"
   sodipodi:docname="all_stacked (copy).svg"
   id="svg2899"
   viewBox="0 0 6.7021 13.579"
   version="1.1"
   height="13.579mm"
   width="6.7021mm"><g xmlns="http://www.w3.org/2000/svg" transform="matrix(0.35278,0,0,-0.35278,-106.9357,245.19)" id="g717">
    <g clip-path="url(#clipPath1237)" id="g715">
      <g transform="translate(311.2,678.44)" id="g697">
        <path d="M 0,0 V 3.153 C 0,3.371 -0.029,3.609 -0.117,3.737 -2.262,4.337 -2.51,2.25 -2.51,2.25 -2.577,1.991 -2.61,1.499 -2.628,0.999 c 0.111,0.025 0.223,0.042 0.328,0.042 0.311,0 0.584,-0.122 0.771,-0.35 0.231,-0.28 0.311,-0.682 0.249,-1.249 h 0.554 c 0.35,0 0.642,0.238 0.726,0.558" id="path695"/>
      </g>
      <g transform="translate(317.77,673.93)" id="g701">
        <path d="m 0,0 h -0.353 c -0.7,0 -1.27,0.458 -1.27,1.02 V 1.578 C -1.851,1.414 -2.15,1.313 -2.477,1.313 h -0.352 c -0.701,0 -1.272,0.454 -1.272,1.021 V 2.565 C -4.323,2.4 -4.62,2.3 -4.953,2.3 H -5.301 C -5.994,2.3 -6.557,2.745 -6.573,3.299 -6.765,3.132 -7.023,3.03 -7.296,3.03 H -7.913 C -7.992,2.673 -7.904,1.704 -8.352,1.343 -8.604,1.104 -8.933,1.52 -8.933,1.52 c 0.714,0.78 0.668,2.028 0.668,2.028 0.181,0.964 -0.462,1.489 -0.827,1.489 -0.105,0 -0.223,-0.03 -0.34,-0.067 0,0 -0.708,-0.365 -0.99,-0.621 -0.264,-0.18 -0.773,-0.785 -0.822,-0.848 l -0.014,0.021 c -0.697,-1.137 0.164,-2.304 0.164,-2.304 1.108,-1.944 3.195,-4.509 3.195,-4.509 0.973,-0.836 0.415,-1.319 0.415,-1.319 l 7.283,-0.072 0.369,1.251 C 0.857,-2.124 1.13,-0.562 1.226,0.76 1.079,0.324 0.588,0 0,0" id="path699"/>
      </g>
      <g transform="translate(317.42,674.9)" id="g705">
        <path d="m 0,0 h 0.353 c 0.462,0 0.852,0.278 0.852,0.604 v 3.8 c 0,0.327 -0.39,0.599 -0.852,0.599 H 0 c -0.461,0 -0.852,-0.272 -0.852,-0.599 v -3.8 C -0.852,0.278 -0.461,0 0,0" id="path703"/>
      </g>
      <g transform="translate(312.47,677.2)" id="g709">
        <path d="M 0,0 H 0.348 C 0.815,0 1.2,0.273 1.2,0.604 V 4.4 C 1.2,4.727 0.815,5.003 0.348,5.003 H 0 C -0.467,5.003 -0.857,4.727 -0.857,4.4 V 0.6 C -0.857,0.273 -0.467,0 0,0" id="path707"/>
      </g>
      <g transform="translate(314.94,676.21)" id="g713">
        <path d="m 0,0 h 0.353 c 0.46,0 0.852,0.273 0.852,0.6 v 3.8 c 0,0.327 -0.392,0.603 -0.852,0.603 H 0 C -0.462,5.003 -0.852,4.727 -0.852,4.4 V 0.6 C -0.852,0.273 -0.462,0 0,0" id="path711"/>
      </g>
    </g>
  </g></svg>