<svg
   xmlns:dc="http://purl.org/dc/elements/1.1/"
   xmlns:cc="http://creativecommons.org/ns#"
   xmlns:rdf="http://www.w3.org/1999/02/22-rdf-syntax-ns#"
   xmlns:svg="http://www.w3.org/2000/svg"
   xmlns="http://www.w3.org/2000/svg"
   xmlns:sodipodi="http://sodipodi.sourceforge.net/DTD/sodipodi-0.dtd"
   xmlns:inkscape="http://www.inkscape.org/namespaces/inkscape"
   inkscape:version="1.0 (4035a4fb49, 2020-05-01)"
   sodipodi:docname="all_stacked (copy).svg"
   id="svg2899"
   viewBox="0 0 6.7021 13.579"
   version="1.1"
   height="13.579mm"
   width="6.7021mm"><g xmlns="http://www.w3.org/2000/svg" transform="matrix(0.35278,0,0,-0.35278,-4.437,95.56)" id="g1021">
    <g clip-path="url(#clipPath24444)" id="g1019">
      <g transform="translate(27.175,260.19)" id="g1017">
        <path d="M 0,0 H -2.572 V -1.78 H -3.816 V 0 H -6.388 V -1.78 H -7.614 V 0 h -2.59 v -3.894 c 0,-0.379 0.193,-0.731 0.513,-0.935 l 2.186,-1.389 v -4.167 l -1.144,-0.461 V -11.9 h 0.913 v -0.022 c 0,-0.563 -1.08,-1.045 -1.541,-1.225 -0.071,-0.025 -0.139,-0.05 -0.203,-0.075 -10e-4,-0.001 -0.002,-0.001 -0.002,-0.001 -0.458,-0.185 -0.722,-0.402 -0.722,-0.633 v -3.281 H 0 v 3.281 c 0,0.231 -0.264,0.448 -0.722,0.633 0,0 -0.002,0 -0.002,0.001 -0.064,0.025 -0.132,0.05 -0.203,0.075 -0.462,0.18 -1.541,0.663 -1.541,1.225 v 0.022 h 0.913 v 1.054 l -1.144,0.461 -0.04,1.172 v 2.971 l 2.226,1.413 C -0.194,-4.625 0,-4.273 0,-3.894 Z" id="path1015"/>
      </g>
    </g>
  </g></svg>