<svg
   xmlns:dc="http://purl.org/dc/elements/1.1/"
   xmlns:cc="http://creativecommons.org/ns#"
   xmlns:rdf="http://www.w3.org/1999/02/22-rdf-syntax-ns#"
   xmlns:svg="http://www.w3.org/2000/svg"
   xmlns="http://www.w3.org/2000/svg"
   xmlns:sodipodi="http://sodipodi.sourceforge.net/DTD/sodipodi-0.dtd"
   xmlns:inkscape="http://www.inkscape.org/namespaces/inkscape"
   inkscape:version="1.0 (4035a4fb49, 2020-05-01)"
   sodipodi:docname="all_stacked (copy).svg"
   id="svg2899"
   viewBox="0 0 6.7021 13.579"
   version="1.1"
   height="13.579mm"
   width="6.7021mm"><g xmlns="http://www.w3.org/2000/svg" transform="matrix(0.35278,0,0,-0.35278,-157.15,290.36)" id="g823">
    <g clip-path="url(#clipPath2099)" id="g821">
      <g transform="translate(462.05,803.81)" id="g819">
        <path d="m 0,0 c 0,3.908 -3.179,7.087 -7.087,7.087 -3.907,0 -7.086,-3.179 -7.086,-7.087 0,-3.908 3.179,-7.087 7.086,-7.087 C -3.179,-7.087 0,-3.908 0,0 m -3.231,-5.135 -1.394,4.205 3.747,2.579 C -0.738,1.122 -0.662,0.57 -0.662,0 c 0,-2.097 -1.01,-3.962 -2.569,-5.135 m -2.999,6.946 -1.769,0.003 0.876,2.69 z m 0.219,-0.663 0.601,-1.814 -1.677,-1.154 -1.71,1.184 0.582,1.788 z m -1.659,-3.369 -2.118,-1.457 0.777,2.385 z m -1.695,1.978 -2.024,1.401 2.478,-0.005 z m 4.172,-1.077 0.779,-2.349 -2.09,1.446 z m -0.12,2.466 2.53,-0.004 -2.059,-1.417 z m -1.774,-7.57 c -1.401,0 -2.698,0.452 -3.755,1.216 l 3.754,2.584 3.744,-2.592 C -4.398,-5.975 -5.691,-6.424 -7.087,-6.424 M -13.511,0 c 0,0.577 0.078,1.136 0.221,1.668 l 3.71,-2.568 -1.376,-4.225 c -1.551,1.174 -2.555,3.034 -2.555,5.125 m 6.316,6.422 -1.5,-4.607 -4.551,0.009 c 0.779,2.623 3.19,4.55 6.051,4.598 M -0.921,1.8 -5.532,1.809 -7.062,6.424 C -4.155,6.412 -1.699,4.461 -0.921,1.8" id="path817"/>
      </g>
    </g>
  </g></svg>