<svg
   xmlns:dc="http://purl.org/dc/elements/1.1/"
   xmlns:cc="http://creativecommons.org/ns#"
   xmlns:rdf="http://www.w3.org/1999/02/22-rdf-syntax-ns#"
   xmlns:svg="http://www.w3.org/2000/svg"
   xmlns="http://www.w3.org/2000/svg"
   xmlns:sodipodi="http://sodipodi.sourceforge.net/DTD/sodipodi-0.dtd"
   xmlns:inkscape="http://www.inkscape.org/namespaces/inkscape"
   inkscape:version="1.0 (4035a4fb49, 2020-05-01)"
   sodipodi:docname="all_stacked (copy).svg"
   id="svg2899"
   viewBox="0 0 6.7021 13.579"
   version="1.1"
   height="13.579mm"
   width="6.7021mm"><g xmlns="http://www.w3.org/2000/svg" transform="matrix(0.35278,0,0,-0.35278,-4.15,70.32)" id="g1029">
    <g clip-path="url(#clipPath24488)" id="g1027">
      <g transform="translate(28.347,181.44)" id="g1025">
        <path d="m 0,0 -1.702,-3.756 -0.549,1.395 c -2.578,-1.358 -3.352,-3.408 -3.52,-6.615 l -2.598,0.011 c 0.202,4.075 1.291,7.142 5.143,9.075 L -3.78,1.518 Z m -8.367,-0.164 c 0.482,-0.397 0.912,-0.827 1.293,-1.294 0.384,0.464 0.818,0.891 1.304,1.283 v 3.343 h 1.493 L -7.015,6.257 -9.836,3.187 -8.367,3.18 Z m 0.608,-2.239 c -0.75,0.988 -1.771,1.838 -3.151,2.545 l 0.566,1.403 -3.829,-1.45 1.709,-3.808 0.561,1.391 c 1.49,-0.8 2.371,-1.829 2.875,-3.179 0.272,1.122 0.675,2.149 1.269,3.098" id="path1023"/>
      </g>
    </g>
  </g></svg>