<svg
   xmlns:dc="http://purl.org/dc/elements/1.1/"
   xmlns:cc="http://creativecommons.org/ns#"
   xmlns:rdf="http://www.w3.org/1999/02/22-rdf-syntax-ns#"
   xmlns:svg="http://www.w3.org/2000/svg"
   xmlns="http://www.w3.org/2000/svg"
   xmlns:sodipodi="http://sodipodi.sourceforge.net/DTD/sodipodi-0.dtd"
   xmlns:inkscape="http://www.inkscape.org/namespaces/inkscape"
   inkscape:version="1.0 (4035a4fb49, 2020-05-01)"
   sodipodi:docname="all_stacked (copy).svg"
   id="svg2899"
   viewBox="0 0 6.7021 13.579"
   version="1.1"
   height="13.579mm"
   width="6.7021mm"><g xmlns="http://www.w3.org/2000/svg" transform="translate(-72.757,-164.394)" id="g1075">
    <g transform="matrix(0.35278,0,0,-0.35278,75.208,174)" id="g1033">
      <path d="m 0,0 -0.344,0.244 v 0.155 l 0.172,0.443 -0.344,0.865 -0.452,0.177 -0.624,-0.266 -1.035,0.266 -1.051,1.109 -0.258,0.488 v 0.532 l 0.516,0.576 -0.279,0.344 0.086,1.025 -0.516,0.567 -0.409,3.229 0.15,0.776 0.667,1.951 1.094,1.552 0.713,0.377 0.021,0.377 2.538,1.33 1.699,0.244 L 5.42,15.829 7.248,14.476 8.99,12.769 9.635,10.73 V 8.757 L 9.356,7.072 9.377,6.252 8.753,4.212 9.055,3.68 8.904,2.882 8.796,2.461 8.388,2.283 8.237,2.04 7.936,1.907 7.334,1.463 6.538,1.574 5.592,1.374 5.269,0.842 5.42,0.31 5.398,0 5.194,-0.055 5.097,0.155 4.914,-0.055 4.775,0.022 4.613,-0.144 4.344,0.089 3.99,-0.144 3.818,0.055 3.538,-0.277 3.291,-0.377 2.968,-0.188 2.731,-0.31 2.645,-0.377 2.301,-0.144 2.011,-0.266 1.893,-0.377 1.721,-0.111 1.667,-0.055 1.505,-0.144 1.387,-0.266 1.151,0.033 1.022,0.055 0.828,-0.078 0.688,0.066 0.591,-0.033 0.376,0.1 0.28,-0.011 0.215,0.111 Z" id="path1031"/>
    </g>
    <g transform="matrix(0.35278,0,0,-0.35278,76.172,172.13)" id="g1037">
      <path d="M 0,0 -0.215,0.139 -0.387,0.025 v -0.38 L -0.775,-0.799 V -1.42 l -0.301,-0.599 0.129,-0.976 0.258,-0.399 0.538,-0.266 0.043,0.51 -0.172,0.266 0.151,0.954 -0.043,0.954 z" fill="#ffffff" id="path1035"/>
    </g>
    <g transform="matrix(0.35278,0,0,-0.35278,76.139,173.46)" id="g1041">
      <path d="m 0,0 -0.639,0.316 -0.275,0.427 -0.002,0.014 -0.132,0.996 0.303,0.603 v 0.63 l 0.388,0.443 V 3.82 L -0.121,3.977 0.165,3.791 -0.013,2.78 0.03,1.826 -0.118,0.891 0.053,0.627 Z M -0.55,0.416 -0.113,0.2 -0.079,0.594 -0.253,0.862 -0.099,1.834 -0.142,2.788 0.023,3.729 -0.12,3.822 -0.228,3.751 V 3.381 L -0.616,2.937 V 2.325 L -0.915,1.73 -0.79,0.788 Z" id="path1039"/>
    </g>
    <g transform="matrix(0.35278,0,0,-0.35278,68.607,209.08)" id="g1049">
      <g clip-path="url(#clipPath24544)" id="g1047">
        <g transform="translate(20.432,105.28)" id="g1045">
          <path d="m 0,0 v 0.687 c 0,0 -0.667,1.086 -1.097,1.153 -0.43,0.066 -1.075,-0.2 -1.075,-0.2 L -3.484,1.152 -3.914,0.621 v -0.953 l 0.279,-0.976 0.559,-0.332 1.119,0.089 1.118,0.332 C -0.839,-1.219 0,-0.687 0,0" fill="#ffffff" id="path1043"/>
        </g>
      </g>
    </g>
    <g transform="matrix(0.35278,0,0,-0.35278,76.232,172.13)" id="g1053">
      <path d="M 0,0 0.215,0.139 0.387,0.025 v -0.38 L 0.775,-0.799 V -1.42 L 1.076,-2.019 0.947,-2.995 0.689,-3.394 0.151,-3.66 0.108,-3.15 0.28,-2.884 0.129,-1.93 0.172,-0.976 Z" fill="#ffffff" id="path1051"/>
    </g>
    <g transform="matrix(0.35278,0,0,-0.35278,76.266,173.46)" id="g1057">
      <path d="M 0,0 -0.053,0.627 0.118,0.891 -0.03,1.826 0.013,2.78 -0.165,3.791 0.121,3.977 0.357,3.82 V 3.429 L 0.745,2.986 V 2.356 L 1.048,1.753 0.914,0.743 0.639,0.316 Z M 0.079,0.594 0.113,0.2 0.55,0.416 0.79,0.788 0.915,1.73 0.616,2.325 V 2.937 L 0.228,3.381 v 0.37 L 0.12,3.822 -0.023,3.729 0.142,2.788 0.099,1.834 0.253,0.862 Z" id="path1055"/>
    </g>
    <g transform="matrix(0.35278,0,0,-0.35278,68.607,209.08)" id="g1065">
      <g clip-path="url(#clipPath24564)" id="g1063">
        <g transform="translate(22.626,105.28)" id="g1061">
          <path d="m 0,0 v 0.687 c 0,0 0.667,1.086 1.097,1.153 0.43,0.066 1.075,-0.2 1.075,-0.2 L 3.484,1.152 3.914,0.621 V -0.332 L 3.635,-1.308 3.076,-1.64 1.957,-1.551 0.839,-1.219 C 0.839,-1.219 0,-0.687 0,0" fill="#ffffff" id="path1059"/>
        </g>
      </g>
    </g>
    <g transform="matrix(0.35278,0,0,-0.35278,76.176,172.12)" id="g1069">
      <path d="M 0,0 -0.215,0.139 -0.387,0.025 v -0.379 l -0.386,-0.443 v -0.62 l -0.301,-0.598 0.129,-0.974 0.258,-0.399 0.537,-0.265 0.043,0.509 -0.172,0.265 0.15,0.953 -0.043,0.952 z" fill="#ffffff" id="path1067"/>
    </g>
    <g transform="matrix(0.35278,0,0,-0.35278,76.237,172.12)" id="g1073">
      <path d="M 0,0 0.215,0.139 0.387,0.025 v -0.379 l 0.387,-0.443 v -0.62 l 0.3,-0.598 -0.129,-0.974 -0.257,-0.399 -0.538,-0.265 -0.043,0.509 0.172,0.265 -0.15,0.953 0.043,0.952 z" fill="#ffffff" id="path1071"/>
    </g>
  </g></svg>