<svg
   xmlns:dc="http://purl.org/dc/elements/1.1/"
   xmlns:cc="http://creativecommons.org/ns#"
   xmlns:rdf="http://www.w3.org/1999/02/22-rdf-syntax-ns#"
   xmlns:svg="http://www.w3.org/2000/svg"
   xmlns="http://www.w3.org/2000/svg"
   xmlns:sodipodi="http://sodipodi.sourceforge.net/DTD/sodipodi-0.dtd"
   xmlns:inkscape="http://www.inkscape.org/namespaces/inkscape"
   inkscape:version="1.0 (4035a4fb49, 2020-05-01)"
   sodipodi:docname="all_stacked (copy).svg"
   id="svg2899"
   viewBox="0 0 6.7021 13.579"
   version="1.1"
   height="13.579mm"
   width="6.7021mm"><g xmlns="http://www.w3.org/2000/svg" transform="matrix(0.35278,0,0,-0.35278,-54.733,295.96)" id="g1083">
    <g clip-path="url(#clipPath25384)" id="g1081">
      <g transform="translate(172.42,816.65)" id="g1079">
        <path d="m 0,0 c -0.383,0.024 -0.949,-0.036 -1.15,0 -0.485,0.899 -1.182,1.601 -2.177,2.029 0.035,0.587 0.119,1.128 0.485,1.407 -0.889,0.057 -1.638,-0.501 -2.117,-1.014 -1.792,1.736 -7.116,2.043 -9.677,-0.449 -0.444,0.03 -0.393,0.865 0.18,0.733 -0.934,0.591 -1.449,-1.034 -0.543,-1.242 -0.754,-1.001 -0.825,-3.155 0.18,-3.945 0.147,-1.187 0.373,-2.301 0.993,-3.048 h 2.032 c -0.053,0.385 -0.107,0.796 -0.06,1.244 1.235,-0.261 2.7,-0.336 4.174,-0.225 0.226,-0.352 0.447,-0.709 0.716,-1.019 h 2.013 c -0.075,0.496 -0.153,1.017 -0.008,1.525 0.479,0.087 2.974,0.677 4.657,2.311 C 0.025,-1.377 0.053,-0.788 0,0 M -7.086,2.933 -7.241,2.63 c -1.383,0.444 -2.903,0.442 -4.281,-0.012 l -0.158,0.3 c 1.478,0.488 3.109,0.492 4.594,0.015 m 4.507,-2.576 c 0,-0.255 -0.226,-0.466 -0.499,-0.466 -0.277,0 -0.501,0.211 -0.501,0.466 0,0.257 0.224,0.466 0.501,0.466 0.273,0 0.499,-0.209 0.499,-0.466 M -6.89,6.4 c 0.123,0.181 0.064,0.422 -0.131,0.536 l -1.224,0.717 c -0.068,0.039 -0.144,0.06 -0.222,0.06 -0.031,0 -0.062,-0.004 -0.093,-0.01 C -8.669,7.68 -8.761,7.619 -8.821,7.531 L -9.074,7.155 -8.957,6.771 C -8.865,6.473 -9.051,6.161 -9.371,6.076 l -0.525,-0.14 -0.37,-0.548 C -10.389,5.206 -10.33,4.966 -10.135,4.852 L -8.91,4.135 c 0.094,-0.056 0.206,-0.074 0.314,-0.05 0.109,0.023 0.201,0.084 0.261,0.172 z m -1.463,2.307 -0.126,2.529 c -0.005,0.104 -0.053,0.199 -0.136,0.269 -0.077,0.066 -0.176,0.102 -0.28,0.102 -0.007,0 -0.014,-10e-4 -0.02,-10e-4 l -1.445,-0.062 c -0.23,-0.01 -0.408,-0.193 -0.397,-0.407 l 0.08,-1.606 0.228,0.06 c 0.321,0.085 0.655,-0.088 0.746,-0.386 l 0.286,-0.933 0.667,0.029 c 0.23,0.01 0.408,0.192 0.397,0.406 m -2.315,0.645 -0.184,-0.048 -0.936,-0.25 c -0.107,-0.028 -0.196,-0.094 -0.25,-0.185 -0.054,-0.09 -0.067,-0.195 -0.037,-0.295 l 0.746,-2.434 c 0.064,-0.206 0.296,-0.326 0.516,-0.267 l 0.797,0.212 0.134,0.036 0.134,0.035 0.326,0.087 c 0.107,0.028 0.196,0.094 0.25,0.185 0.054,0.091 0.067,0.196 0.036,0.296 l -0.071,0.233 -0.035,0.113 -0.034,0.112 -0.279,0.91 -0.026,0.086 -0.027,0.086 -0.274,0.893 c -0.052,0.171 -0.22,0.283 -0.401,0.283 -0.038,0 -0.076,-0.005 -0.115,-0.016 z" id="path1077"/>
      </g>
    </g>
  </g></svg>