<svg
   xmlns:dc="http://purl.org/dc/elements/1.1/"
   xmlns:cc="http://creativecommons.org/ns#"
   xmlns:rdf="http://www.w3.org/1999/02/22-rdf-syntax-ns#"
   xmlns:svg="http://www.w3.org/2000/svg"
   xmlns="http://www.w3.org/2000/svg"
   xmlns:sodipodi="http://sodipodi.sourceforge.net/DTD/sodipodi-0.dtd"
   xmlns:inkscape="http://www.inkscape.org/namespaces/inkscape"
   inkscape:version="1.0 (4035a4fb49, 2020-05-01)"
   sodipodi:docname="all_stacked (copy).svg"
   id="svg2899"
   viewBox="0 0 6.7021 13.579"
   version="1.1"
   height="13.579mm"
   width="6.7021mm"><g xmlns="http://www.w3.org/2000/svg" transform="matrix(0.35278,0,0,-0.35278,6.1,8.46)" id="g1087">
    <path d="m 0,0 v 8.084 l -4.792,1.361 v -0.73 l -2.142,-1.116 2.607,-1.027 0.825,-0.037 0.7,-0.72 1.176,0.432 0.55,-0.18 0.376,0.072 -0.376,-0.378 -0.5,0.216 -1,-0.357 0.425,-0.183 -0.075,-0.775 0.65,-0.343 -0.7,-0.324 0.425,0.378 -0.625,0.163 V 5.222 L -2.876,5.62 -3.977,6.273 -6.404,6.698 -7.126,6.273 -8.06,5.422 -6.55,4.908 -5.671,4.235 -6.495,3.919 V 3.365 L -7.923,2.02 -7.648,3.879 -8.582,4.671 -8.747,4.315 -9.626,4.394 -10.643,3.82 -10.45,2.91 -11.302,2.574 -11.329,2.02 l -0.192,0.573 0.576,0.317 0.083,0.969 -0.797,-0.118 -0.247,-0.495 0.055,0.653 1.153,0.237 1.484,0.891 V 5.64 l -0.138,0.534 -0.714,-0.198 0.714,0.574 -0.302,0.95 -1.236,-0.218 -0.631,-0.494 -1.621,-0.04 0.302,-0.673 -0.714,-0.296 0.467,0.257 -0.275,0.732 -0.659,-0.712 -0.879,-0.277 0.577,0.336 0.879,0.811 1.867,0.138 0.33,0.277 1.099,0.475 0.788,1.39 L -10.752,8.912 -13.581,8.301 -15.284,8.4 -15.59,7.414 -15.408,0 Z" id="path1085"/>
  </g></svg>