<svg
   xmlns:dc="http://purl.org/dc/elements/1.1/"
   xmlns:cc="http://creativecommons.org/ns#"
   xmlns:rdf="http://www.w3.org/1999/02/22-rdf-syntax-ns#"
   xmlns:svg="http://www.w3.org/2000/svg"
   xmlns="http://www.w3.org/2000/svg"
   xmlns:sodipodi="http://sodipodi.sourceforge.net/DTD/sodipodi-0.dtd"
   xmlns:inkscape="http://www.inkscape.org/namespaces/inkscape"
   inkscape:version="1.0 (4035a4fb49, 2020-05-01)"
   sodipodi:docname="all_stacked (copy).svg"
   id="svg2899"
   viewBox="0 0 6.7021 13.579"
   version="1.1"
   height="13.579mm"
   width="6.7021mm"><g xmlns="http://www.w3.org/2000/svg" transform="matrix(0.35278,0,0,-0.35278,-107.1193,205.72)" id="g725">
    <g clip-path="url(#clipPath1329)" id="g723">
      <g transform="translate(320.04,564.38)" id="g721">
        <path d="m 0,0 c 0,0.219 -0.177,0.399 -0.399,0.399 h -1.4 c -0.219,0 -0.399,-0.177 -0.399,-0.399 0,-0.219 0.177,-0.399 0.399,-0.399 h 1.4 C -0.18,-0.399 0,-0.222 0,0 m -2.021,4.313 c 0.157,0.157 0.157,0.408 0,0.565 -0.156,0.157 -0.408,0.157 -0.565,0 L -3.577,3.887 c -0.156,-0.157 -0.156,-0.408 0,-0.565 0.08,-0.077 0.181,-0.115 0.284,-0.115 0.101,0 0.205,0.038 0.282,0.115 z m -1.303,-4.377 c 0,1.982 -1.613,3.589 -3.598,3.574 -1.989,-0.015 -3.572,-1.624 -3.551,-3.613 0.009,-0.947 0.388,-1.807 0.997,-2.44 0.472,-0.487 0.78,-1.12 0.884,-1.786 0,0 0.036,-0.264 0.036,-0.495 h 0.685 v 0.002 h 0.336 v -0.002 h 1.285 v 0.002 h 0.335 v -0.002 h 0.674 c 0,0.231 0.036,0.495 0.036,0.495 h -0.001 c 0,10e-4 0,0.002 0.001,0.003 0.101,0.666 0.406,1.29 0.878,1.78 0.621,0.642 1.003,1.517 1.003,2.482 M -6.499,5.1 v 1.399 c 0,0.219 -0.178,0.399 -0.4,0.399 -0.221,0 -0.399,-0.177 -0.399,-0.399 V 5.1 c 0,-0.222 0.18,-0.4 0.399,-0.4 0.219,0 0.4,0.178 0.4,0.4 m -3.725,-1.775 c 0.157,0.156 0.157,0.408 0,0.565 l -0.991,0.991 c -0.156,0.157 -0.408,0.157 -0.565,0 -0.157,-0.157 -0.157,-0.408 0,-0.565 l 0.994,-0.991 c 0.077,-0.077 0.181,-0.116 0.281,-0.116 0.101,0 0.204,0.039 0.281,0.116 m -1.775,-2.926 h -1.399 c -0.219,0 -0.399,-0.177 -0.399,-0.399 0,-0.219 0.177,-0.399 0.399,-0.399 h 1.399 c 0.222,0 0.4,0.177 0.4,0.399 0,0.219 -0.178,0.399 -0.4,0.399 m 0.222,-4.715 c -0.156,-0.157 -0.156,-0.409 0,-0.565 0.077,-0.077 0.181,-0.116 0.281,-0.116 0.101,0 0.204,0.039 0.281,0.116 l 0.991,0.991 c 0.157,0.157 0.157,0.408 0,0.565 -0.154,0.157 -0.408,0.157 -0.562,0 z m 3.102,-1.236 v -0.289 c 0,-0.104 0.084,-0.188 0.189,-0.188 h 0.27 v -0.559 h -0.27 c -0.105,0 -0.189,-0.085 -0.189,-0.189 v -0.289 c 0,-0.104 0.084,-0.188 0.189,-0.188 h 0.27 v -0.003 l 0.39,-0.51 c 0.034,-0.046 0.081,-0.071 0.129,-0.071 H -6.1 c 0.048,0 0.095,0.025 0.129,0.071 l 0.39,0.51 h -0.003 v 0.003 h 0.27 c 0.104,0 0.189,0.084 0.189,0.188 v 0.289 c 0,0.104 -0.085,0.189 -0.189,0.189 h -0.27 v 0.559 h 0.27 c 0.104,0 0.189,0.084 0.189,0.188 v 0.289 c 0,0.104 -0.085,0.189 -0.189,0.189 h -3.172 c -0.105,0 -0.189,-0.085 -0.189,-0.189 m 5.098,2.227 c -0.156,-0.157 -0.156,-0.408 0,-0.565 l 0.991,-0.991 c 0.077,-0.077 0.181,-0.116 0.281,-0.116 0.101,0 0.205,0.039 0.282,0.116 0.156,0.156 0.156,0.408 0,0.565 l -0.988,0.991 c -0.157,0.157 -0.409,0.157 -0.566,0" id="path719"/>
      </g>
    </g>
  </g></svg>