<svg
   xmlns:dc="http://purl.org/dc/elements/1.1/"
   xmlns:cc="http://creativecommons.org/ns#"
   xmlns:rdf="http://www.w3.org/1999/02/22-rdf-syntax-ns#"
   xmlns:svg="http://www.w3.org/2000/svg"
   xmlns="http://www.w3.org/2000/svg"
   xmlns:sodipodi="http://sodipodi.sourceforge.net/DTD/sodipodi-0.dtd"
   xmlns:inkscape="http://www.inkscape.org/namespaces/inkscape"
   inkscape:version="1.0 (4035a4fb49, 2020-05-01)"
   sodipodi:docname="all_stacked (copy).svg"
   id="svg2899"
   viewBox="0 0 6.7021 13.579"
   version="1.1"
   height="13.579mm"
   width="6.7021mm"><g xmlns="http://www.w3.org/2000/svg" transform="matrix(0.35278,0,0,-0.35278,-55.177,249.92)" id="g1123">
    <g clip-path="url(#clipPath25456)" id="g1121">
      <g transform="translate(174.68,686.09)" id="g1091">
        <path d="M 0,0 C -0.005,0.105 -0.046,0.363 -0.294,0.594 -0.673,0.949 -1.353,1.071 -2.312,0.957 -2.639,0.918 -3.017,0.85 -3.454,0.744 -3.872,0.642 -4.258,0.573 -4.612,0.531 -6.356,0.324 -7.159,0.799 -7.464,1.07 c -0.441,3.727 -0.881,7.455 -1.322,11.183 -0.032,0.274 -0.169,0.518 -0.385,0.689 -0.217,0.171 -0.487,0.248 -0.76,0.215 l -0.464,-0.055 c -0.565,-0.067 -0.97,-0.581 -0.903,-1.147 0.384,-3.251 0.769,-6.503 1.153,-9.754 0.007,-0.088 0.015,-0.175 0.022,-0.262 l 0.119,-1.005 c 0.056,-0.476 -0.284,-0.909 -0.759,-0.965 l -0.491,-0.059 c -0.278,-0.033 -0.557,0.074 -0.746,0.284 l -0.49,0.547 0.054,-0.732 c 0.035,-0.466 -0.299,-0.873 -0.761,-0.928 l -0.49,-0.058 c -0.266,-0.032 -0.527,0.061 -0.717,0.253 l -0.404,0.408 -0.024,-0.574 c -0.018,-0.429 -0.338,-0.776 -0.763,-0.827 l -0.49,-0.058 c -0.226,-0.026 -0.45,0.036 -0.631,0.176 l -0.472,0.365 0.07,-0.592 0.148,-1.25 c 0.003,-0.055 0.119,-1.677 1.44,-2.818 0.963,-0.832 2.299,-1.182 3.973,-1.043 0.172,0.015 0.34,0.032 0.501,0.051 3.443,0.408 4.589,1.879 5.426,2.953 0.266,0.343 0.497,0.639 0.76,0.851 l 0.3,0.245 c 0.901,0.738 1.397,1.144 3.243,1.363 0.563,0.067 0.959,0.269 1.178,0.601 C 0.088,-0.513 0.027,-0.122 0,0" id="path1089"/>
      </g>
      <g transform="translate(174.68,686.09)" id="g1095">
        <path d="M 0,0 C -0.005,0.105 -0.046,0.363 -0.294,0.594 -0.673,0.949 -1.353,1.071 -2.312,0.957 -2.639,0.918 -3.017,0.85 -3.454,0.744 -3.872,0.642 -4.258,0.573 -4.612,0.531 -6.356,0.324 -7.159,0.799 -7.464,1.07 c -0.441,3.727 -0.881,7.455 -1.322,11.183 -0.032,0.274 -0.169,0.518 -0.385,0.689 -0.217,0.171 -0.487,0.248 -0.76,0.215 l -0.464,-0.055 c -0.565,-0.067 -0.97,-0.581 -0.903,-1.147 0.384,-3.251 0.769,-6.503 1.153,-9.754 0.007,-0.088 0.015,-0.175 0.022,-0.262 l 0.119,-1.005 c 0.056,-0.476 -0.284,-0.909 -0.759,-0.965 l -0.491,-0.059 c -0.278,-0.033 -0.557,0.074 -0.746,0.284 l -0.49,0.547 0.054,-0.732 c 0.035,-0.466 -0.299,-0.873 -0.761,-0.928 l -0.49,-0.058 c -0.266,-0.032 -0.527,0.061 -0.717,0.253 l -0.404,0.408 -0.024,-0.574 c -0.018,-0.429 -0.338,-0.776 -0.763,-0.827 l -0.49,-0.058 c -0.226,-0.026 -0.45,0.036 -0.631,0.176 l -0.472,0.365 0.07,-0.592 0.148,-1.25 c 0.003,-0.055 0.119,-1.677 1.44,-2.818 0.963,-0.832 2.299,-1.182 3.973,-1.043 0.172,0.015 0.34,0.032 0.501,0.051 3.443,0.408 4.589,1.879 5.426,2.953 0.266,0.343 0.497,0.639 0.76,0.851 l 0.3,0.245 c 0.901,0.738 1.397,1.144 3.243,1.363 0.563,0.067 0.959,0.269 1.178,0.601 C 0.088,-0.513 0.027,-0.122 0,0 Z" fill="none" stroke="#ffffff" stroke-miterlimit="10" stroke-width="0.5" id="path1093"/>
      </g>
      <g transform="translate(158.52,684.22)" id="g1099">
        <path d="M 0,0 0.453,0.054 C 0.985,0.118 1.365,0.617 1.3,1.166 L 1.093,2.937 1.074,3.098 1.055,3.26 0.968,4.003 C 0.937,4.276 0.802,4.518 0.591,4.685 0.388,4.845 0.138,4.916 -0.114,4.886 L -0.567,4.831 C -1.098,4.768 -1.479,4.269 -1.414,3.719 L -1.308,2.813 -1.289,2.652 -1.27,2.49 -1.082,0.882 C -1.05,0.609 -0.916,0.367 -0.704,0.2 -0.502,0.041 -0.252,-0.03 0,0" id="path1097"/>
      </g>
      <g transform="translate(158.52,684.22)" id="g1103">
        <path d="M 0,0 0.453,0.054 C 0.985,0.118 1.365,0.617 1.3,1.166 L 1.093,2.937 1.074,3.098 1.055,3.26 0.968,4.003 C 0.937,4.276 0.802,4.518 0.591,4.685 0.388,4.845 0.138,4.916 -0.114,4.886 L -0.567,4.831 C -1.098,4.768 -1.479,4.269 -1.414,3.719 L -1.308,2.813 -1.289,2.652 -1.27,2.49 -1.082,0.882 C -1.05,0.609 -0.916,0.367 -0.704,0.2 -0.502,0.041 -0.252,-0.03 0,0 Z" fill="none" stroke="#ffffff" stroke-miterlimit="10" stroke-width="0.5" id="path1101"/>
      </g>
      <g transform="translate(160.95,685.02)" id="g1107">
        <path d="M 0,0 0.453,0.054 C 0.985,0.118 1.366,0.619 1.301,1.171 L 1.128,2.657 1.109,2.82 1.09,2.982 0.901,4.596 C 0.869,4.871 0.734,5.114 0.521,5.282 0.319,5.441 0.069,5.512 -0.182,5.482 L -0.636,5.428 C -1.168,5.364 -1.548,4.863 -1.484,4.312 L -1.276,2.534 -1.238,2.21 -1.083,0.886 C -1.051,0.612 -0.916,0.368 -0.703,0.2 -0.501,0.041 -0.251,-0.03 0,0" id="path1105"/>
      </g>
      <g transform="translate(160.95,685.02)" id="g1111">
        <path d="M 0,0 0.453,0.054 C 0.985,0.118 1.366,0.619 1.301,1.171 L 1.128,2.657 1.109,2.82 1.09,2.982 0.901,4.596 C 0.869,4.871 0.734,5.114 0.521,5.282 0.319,5.441 0.069,5.512 -0.182,5.482 L -0.636,5.428 C -1.168,5.364 -1.548,4.863 -1.484,4.312 L -1.276,2.534 -1.238,2.21 -1.083,0.886 C -1.051,0.612 -0.916,0.368 -0.703,0.2 -0.501,0.041 -0.251,-0.03 0,0 Z" fill="none" stroke="#ffffff" stroke-miterlimit="10" stroke-width="0.5" id="path1109"/>
      </g>
      <g transform="translate(163.41,685.92)" id="g1115">
        <path d="M 0,0 0.454,0.054 C 0.986,0.118 1.366,0.62 1.302,1.173 L 1.186,2.161 1.167,2.324 1.148,2.486 0.859,4.963 C 0.827,5.239 0.692,5.483 0.478,5.651 0.276,5.811 0.026,5.882 -0.225,5.852 L -0.679,5.797 C -1.211,5.733 -1.591,5.232 -1.527,4.679 L -1.233,2.164 -1.214,2.001 -1.195,1.839 -1.084,0.888 C -1.052,0.613 -0.917,0.369 -0.703,0.2 -0.501,0.041 -0.251,-0.03 0,0" id="path1113"/>
      </g>
      <g transform="translate(163.41,685.92)" id="g1119">
        <path d="M 0,0 0.454,0.054 C 0.986,0.118 1.366,0.62 1.302,1.173 L 1.186,2.161 1.167,2.324 1.148,2.486 0.859,4.963 C 0.827,5.239 0.692,5.483 0.478,5.651 0.276,5.811 0.026,5.882 -0.225,5.852 L -0.679,5.797 C -1.211,5.733 -1.591,5.232 -1.527,4.679 L -1.233,2.164 -1.214,2.001 -1.195,1.839 -1.084,0.888 C -1.052,0.613 -0.917,0.369 -0.703,0.2 -0.501,0.041 -0.251,-0.03 0,0 Z" fill="none" stroke="#ffffff" stroke-miterlimit="10" stroke-width="0.5" id="path1117"/>
      </g>
    </g>
  </g></svg>