<svg
   xmlns:dc="http://purl.org/dc/elements/1.1/"
   xmlns:cc="http://creativecommons.org/ns#"
   xmlns:rdf="http://www.w3.org/1999/02/22-rdf-syntax-ns#"
   xmlns:svg="http://www.w3.org/2000/svg"
   xmlns="http://www.w3.org/2000/svg"
   xmlns:sodipodi="http://sodipodi.sourceforge.net/DTD/sodipodi-0.dtd"
   xmlns:inkscape="http://www.inkscape.org/namespaces/inkscape"
   inkscape:version="1.0 (4035a4fb49, 2020-05-01)"
   sodipodi:docname="all_stacked (copy).svg"
   id="svg2899"
   viewBox="0 0 6.7021 13.579"
   version="1.1"
   height="13.579mm"
   width="6.7021mm"><g xmlns="http://www.w3.org/2000/svg" transform="translate(-90.931,-80.399)" id="g1209">
    <g transform="matrix(0.35278,0,0,-0.35278,35.597,307.03)" id="g1135">
      <g clip-path="url(#clipPath25526)" id="g1133">
        <g transform="translate(175.49,619.7)" id="g1127">
          <path d="M 0,0 C -0.164,0.15 -0.513,0.469 -0.929,0.851 -0.979,0.912 -1.036,0.965 -1.099,1.008 -1.61,1.478 -2.193,2.014 -2.651,2.44 -3.7,3.412 -5.068,5.599 -5.068,5.599 L -7.624,4.997 c 0,0 -2.777,-5.632 -1.206,-4.837 1.572,0.795 3.34,-0.966 3.34,-0.966 l 0.317,-0.527 c 0,0 2.398,-1.796 2.649,-1.846 0.251,-0.049 0.894,0.059 0.894,0.059 0.531,-0.253 1.302,0.256 1.721,1.137 C 0.478,-1.169 0.429,-0.323 0,0" id="path1125"/>
        </g>
        <g transform="translate(174.97,619.99)" id="g1131">
          <path d="M 0,0 C 0.158,-0.145 0.273,-0.25 0.361,-0.331 L 0.43,-0.394 0.44,-0.402 c 0.377,-0.284 0.399,-1.082 0.05,-1.817 -0.315,-0.662 -0.851,-1.124 -1.303,-1.124 -0.085,0 -0.165,0.017 -0.237,0.051 l -0.039,0.019 -0.042,-0.007 c -0.004,-0.001 -0.418,-0.07 -0.697,-0.07 -0.057,0 -0.096,0.003 -0.121,0.006 0.608,0.172 1.225,0.764 1.614,1.582 C -0.051,-1.166 0.066,-0.529 0,0 m -0.239,0.403 c 0.214,-0.534 0.151,-1.332 -0.218,-2.107 -0.449,-0.942 -1.207,-1.555 -1.845,-1.555 -0.028,0 -0.055,10e-4 -0.082,0.004 0.191,-0.125 0.33,-0.207 0.381,-0.217 0.047,-0.01 0.108,-0.013 0.175,-0.013 0.294,0 0.719,0.071 0.719,0.071 0.093,-0.044 0.192,-0.065 0.296,-0.065 0.493,0 1.079,0.474 1.425,1.202 0.388,0.814 0.339,1.66 -0.091,1.983 L 0.453,-0.231 C 0.312,-0.102 0.102,0.091 -0.239,0.403" fill="#ffffff" id="path1129"/>
        </g>
      </g>
    </g>
    <g transform="matrix(0.35278,0,0,-0.35278,92.192,85.434)" id="g1139">
      <path d="M 0,0 2.2,-1.754 0.34,1.343 0.12,0.495 l -2.2,1.753 1.86,-3.097 z" id="path1137"/>
    </g>
    <g transform="matrix(0.35278,0,0,-0.35278,91.837,87.208)" id="g1143">
      <path d="M 0,0 2.349,0.265 -0.596,1 -0.223,0.365 -2.572,0.1 0.373,-0.635 Z" id="path1141"/>
    </g>
    <g transform="matrix(0.35278,0,0,-0.35278,93.646,84.28)" id="g1147">
      <path d="M 0,0 0.265,-2.349 1,0.596 0.365,0.223 0.1,2.572 -0.635,-0.373 Z" id="path1145"/>
    </g>
    <g transform="matrix(0.35278,0,0,-0.35278,35.597,307.03)" id="g1191">
      <g clip-path="url(#clipPath25554)" id="g1189">
        <g transform="translate(169.59,622.83)" id="g1151">
          <path d="m 0,0 c -1.491,-2.74 -4.092,-4.203 -5.811,-3.268 -1.718,0.935 -1.903,3.914 -0.412,6.654 1.49,2.74 4.092,4.203 5.81,3.267 C 1.306,5.719 1.49,2.74 0,0" fill="#ffffff" id="path1149"/>
        </g>
        <g transform="translate(169.26,622.97)" id="g1155">
          <path d="m 0,0 c -1.332,-2.51 -3.656,-3.85 -5.191,-2.994 -1.535,0.857 -1.7,3.586 -0.369,6.096 1.332,2.51 3.656,3.851 5.191,2.994 C 1.167,5.239 1.332,2.51 0,0 Z" fill="none" stroke="#000000" stroke-linejoin="round" stroke-miterlimit="10" stroke-width="1.032" id="path1153"/>
        </g>
        <g transform="translate(169.04,623.13)" id="g1159">
          <path d="m 0,0 c -1.333,-2.45 -3.611,-3.784 -5.089,-2.98 -1.478,0.804 -1.596,3.442 -0.263,5.892 1.333,2.45 3.611,3.784 5.089,2.98 C 1.215,5.088 1.333,2.45 0,0" fill="#ffffff" id="path1157"/>
        </g>
        <g transform="translate(168.71,623.27)" id="g1163">
          <path d="m 0,0 c -1.171,-2.219 -3.171,-3.428 -4.469,-2.699 -1.298,0.728 -1.401,3.118 -0.231,5.337 1.171,2.219 3.172,3.428 4.469,2.7 C 1.067,4.609 1.17,2.219 0,0 Z" fill="none" stroke="#000000" stroke-linejoin="round" stroke-miterlimit="10" stroke-width="1.032" id="path1161"/>
        </g>
        <g transform="translate(166.89,625.55)" id="g1167">
          <path d="m 0,0 2.467,-1.776 c 0,0 -0.037,-1.073 -1.47,-2.423 l -2.138,2.18 z" fill="#ffffff" id="path1165"/>
        </g>
        <g transform="translate(167.05,625.11)" id="g1171">
          <path d="m 0,0 1.866,-1.404 c 0,0 -0.028,-0.849 -1.111,-1.917 l -1.618,1.724 z" fill="none" stroke="#000000" stroke-linejoin="round" stroke-miterlimit="10" stroke-width="1.032" id="path1169"/>
        </g>
        <g transform="translate(166.92,624.21)" id="g1175">
          <path d="M 0,0 C -0.306,-0.562 -0.829,-0.869 -1.169,-0.684 -1.508,-0.5 -1.535,0.106 -1.229,0.669 -0.923,1.231 -0.4,1.538 -0.06,1.353 0.279,1.168 0.306,0.562 0,0" fill="#ffffff" id="path1173"/>
        </g>
        <g transform="translate(166.59,624.35)" id="g1179">
          <path d="m 0,0 c -0.144,-0.332 -0.389,-0.513 -0.548,-0.404 -0.16,0.109 -0.172,0.467 -0.029,0.799 0.144,0.332 0.39,0.513 0.549,0.404 C 0.131,0.69 0.144,0.332 0,0" id="path1177"/>
        </g>
        <g transform="translate(168.93,623.44)" id="g1183">
          <path d="m 0,0 c -1.376,-2.486 -3.727,-3.839 -5.253,-3.023 -1.525,0.816 -1.646,3.492 -0.271,5.978 1.376,2.485 3.728,3.839 5.253,3.023 C 1.254,5.162 1.376,2.486 0,0 M 0.147,6.445 C -1.627,7.393 -4.312,5.909 -5.85,3.129 c -1.539,-2.779 -1.348,-5.802 0.425,-6.75 1.774,-0.949 4.459,0.535 5.997,3.315 1.539,2.78 1.348,5.802 -0.425,6.751" fill="#ffffff" id="path1181"/>
        </g>
        <g transform="translate(168.93,623.44)" id="g1187">
          <path d="m 0,0 c -1.376,-2.486 -3.727,-3.839 -5.253,-3.023 -1.525,0.816 -1.646,3.492 -0.271,5.978 1.376,2.485 3.728,3.839 5.253,3.023 C 1.254,5.162 1.376,2.486 0,0 M 0.147,6.445 C -1.627,7.393 -4.312,5.909 -5.85,3.129 c -1.539,-2.779 -1.348,-5.802 0.425,-6.75 1.774,-0.949 4.459,0.535 5.997,3.315 1.539,2.78 1.348,5.802 -0.425,6.751" fill="none" stroke="#000000" stroke-miterlimit="10" stroke-width="0.25" id="path1185"/>
        </g>
      </g>
    </g>
    <g transform="matrix(0.35278,0,0,-0.35278,95.942,89.165)" id="g1195">
      <path d="m 0,0 -0.825,-3.865 0.73,-1.032 0.792,-0.198 -0.731,1.032 0.826,3.866 0.661,0.434 -0.791,0.198 z" id="path1193"/>
    </g>
    <g transform="matrix(0.35278,0,0,-0.35278,95.942,89.165)" id="g1199">
      <path d="m 0,0 -0.825,-3.865 0.73,-1.032 0.792,-0.198 -0.731,1.032 0.826,3.866 0.661,0.434 -0.791,0.198 z" fill="none" stroke="#ffffff" stroke-linejoin="round" stroke-miterlimit="10" stroke-width="0.25" id="path1197"/>
    </g>
    <g transform="matrix(0.35278,0,0,-0.35278,96.221,89.234)" id="g1203">
      <path d="m 0,0 -0.826,-3.865 0.731,-1.032 1.008,3.246 0.013,1.747 -0.264,0.339 z" id="path1201"/>
    </g>
    <g transform="matrix(0.35278,0,0,-0.35278,96.221,89.234)" id="g1207">
      <path d="m 0,0 -0.826,-3.865 0.731,-1.032 1.008,3.246 0.013,1.747 -0.264,0.339 z" fill="none" stroke="#ffffff" stroke-linejoin="round" stroke-miterlimit="10" stroke-width="0.25" id="path1205"/>
    </g>
  </g></svg>