<svg
   xmlns:dc="http://purl.org/dc/elements/1.1/"
   xmlns:cc="http://creativecommons.org/ns#"
   xmlns:rdf="http://www.w3.org/1999/02/22-rdf-syntax-ns#"
   xmlns:svg="http://www.w3.org/2000/svg"
   xmlns="http://www.w3.org/2000/svg"
   xmlns:sodipodi="http://sodipodi.sourceforge.net/DTD/sodipodi-0.dtd"
   xmlns:inkscape="http://www.inkscape.org/namespaces/inkscape"
   inkscape:version="1.0 (4035a4fb49, 2020-05-01)"
   sodipodi:docname="all_stacked (copy).svg"
   id="svg2899"
   viewBox="0 0 6.7021 13.579"
   version="1.1"
   height="13.579mm"
   width="6.7021mm"><g xmlns="http://www.w3.org/2000/svg" transform="matrix(0.35278,0,0,-0.35278,-107.9356,288.29)" id="g673">
    <g clip-path="url(#clipPath1141)" id="g671">
      <g transform="translate(306.24,801.71)" id="g657">
        <path d="m 0,0 v 0.291 h 1.292 c 0,0 0.03,0.307 0.63,0.275 0.601,-0.032 3.83,-3.823 5.647,-2.302 1.817,1.52 2.854,1.342 3.665,0.711 0.811,-0.63 5.061,-4.819 0,-6.227 0,0 -3.064,-0.986 -6.398,2.087 C 1.502,-2.092 1.802,-0.065 0,0" id="path655"/>
      </g>
      <g transform="translate(318.99,792.73)" id="g661">
        <path d="M 0,0 C 0,0 -0.15,0.032 -1.292,1.003 -2.332,1.888 -2.961,1.665 -3.064,1.619 -3.166,1.665 -3.795,1.888 -4.836,1.003 -5.977,0.032 -6.128,0 -6.128,0 c 0,0 -0.21,-0.016 -0.195,-0.34 0.015,-0.322 1.627,-0.307 3.259,-0.307 1.632,0 3.244,-0.015 3.259,0.307 C 0.21,-0.016 0,0 0,0" id="path659"/>
      </g>
      <g transform="translate(319.68,797.74)" id="g665">
        <path d="m 0,0 c 0,0 -0.961,3.183 2.323,3.183 3.284,0 2.603,-1.592 2.603,-1.592 0,0 -0.04,-1.233 -3.104,-2.031 0,0 -1.261,-0.237 -1.241,-0.863 0,0 0.04,0.798 0.981,0.453 0.941,-0.345 0.18,-1.531 -0.341,-1.531 -0.52,0 -1.762,0.819 -0.5,1.919 1.261,1.1 3.344,1.769 2.783,2.911 C 2.944,3.592 -0.053,0.66 0.187,-0.548 Z" id="path663"/>
      </g>
      <g transform="translate(316.23,803.8)" id="g669">
        <path d="m 0,0 c -0.526,-0.271 -0.89,-0.849 -0.89,-1.519 0,-0.67 0.364,-1.248 0.89,-1.519 0.526,0.271 0.89,0.849 0.89,1.519 C 0.89,-0.849 0.526,-0.271 0,0" id="path667"/>
      </g>
    </g>
  </g></svg>