<svg
   xmlns:dc="http://purl.org/dc/elements/1.1/"
   xmlns:cc="http://creativecommons.org/ns#"
   xmlns:rdf="http://www.w3.org/1999/02/22-rdf-syntax-ns#"
   xmlns:svg="http://www.w3.org/2000/svg"
   xmlns="http://www.w3.org/2000/svg"
   xmlns:sodipodi="http://sodipodi.sourceforge.net/DTD/sodipodi-0.dtd"
   xmlns:inkscape="http://www.inkscape.org/namespaces/inkscape"
   inkscape:version="1.0 (4035a4fb49, 2020-05-01)"
   sodipodi:docname="all_stacked (copy).svg"
   id="svg2899"
   viewBox="0 0 6.7021 13.579"
   version="1.1"
   height="13.579mm"
   width="6.7021mm"><g xmlns="http://www.w3.org/2000/svg" transform="matrix(0.35278,0,0,-0.35278,-107.1856,267.96)" id="g693">
    <g clip-path="url(#clipPath1191)" id="g691">
      <g transform="translate(308.32,743.59)" id="g677">
        <path d="m 0,0 c -1.241,-0.075 -2.169,-0.928 -2.073,-1.905 0.057,-0.585 0.473,-1.078 1.061,-1.366 -0.191,-0.093 -0.373,-0.201 -0.526,-0.341 -0.81,-0.744 -0.7,-1.864 0.245,-2.501 0.944,-0.637 2.367,-0.551 3.177,0.192 0,0 2.432,2.204 3.122,2.646 v 0.016 C 4.316,-2.817 1.884,-0.614 1.884,-0.614 1.432,-0.205 0.74,0.045 0,0" id="path675"/>
      </g>
      <g transform="translate(318.34,737.07)" id="g681">
        <path d="M 0,0 C 1.241,0.075 2.169,0.928 2.073,1.905 2.016,2.49 1.6,2.983 1.012,3.271 1.203,3.364 1.385,3.472 1.538,3.612 2.348,4.356 2.238,5.476 1.293,6.113 0.349,6.75 -1.074,6.664 -1.884,5.921 c 0,0 -2.432,-2.204 -3.122,-2.646 V 3.259 C -4.316,2.817 -1.884,0.614 -1.884,0.614 -1.432,0.205 -0.74,-0.045 0,0" id="path679"/>
      </g>
      <g transform="translate(310.07,735.33)" id="g685">
        <path d="m 0,0 c 0.075,-1.241 0.928,-2.169 1.905,-2.073 0.585,0.057 1.078,0.473 1.366,1.061 0.093,-0.191 0.201,-0.373 0.341,-0.526 0.744,-0.81 1.864,-0.7 2.501,0.245 0.637,0.944 0.551,2.367 -0.192,3.177 0,0 -2.204,2.432 -2.646,3.122 H 3.259 C 2.817,4.316 0.614,1.884 0.614,1.884 0.205,1.432 -0.045,0.74 0,0" id="path683"/>
      </g>
      <g transform="translate(316.59,745.34)" id="g689">
        <path d="M 0,0 C -0.075,1.24 -0.928,2.169 -1.905,2.073 -2.49,2.016 -2.983,1.6 -3.271,1.012 c -0.093,0.191 -0.201,0.373 -0.341,0.526 -0.744,0.81 -1.864,0.7 -2.501,-0.245 -0.637,-0.944 -0.551,-2.367 0.192,-3.177 0,0 2.204,-2.432 2.646,-3.122 h 0.016 c 0.442,0.69 2.645,3.122 2.645,3.122 C -0.205,-1.432 0.045,-0.74 0,0" id="path687"/>
      </g>
    </g>
  </g></svg>