<svg
   xmlns:dc="http://purl.org/dc/elements/1.1/"
   xmlns:cc="http://creativecommons.org/ns#"
   xmlns:rdf="http://www.w3.org/1999/02/22-rdf-syntax-ns#"
   xmlns:svg="http://www.w3.org/2000/svg"
   xmlns="http://www.w3.org/2000/svg"
   xmlns:sodipodi="http://sodipodi.sourceforge.net/DTD/sodipodi-0.dtd"
   xmlns:inkscape="http://www.inkscape.org/namespaces/inkscape"
   inkscape:version="1.0 (4035a4fb49, 2020-05-01)"
   sodipodi:docname="all_stacked (copy).svg"
   id="svg2899"
   viewBox="0 0 6.7021 13.579"
   version="1.1"
   height="13.579mm"
   width="6.7021mm"><g xmlns="http://www.w3.org/2000/svg" transform="translate(-90.58,-113.452)" id="g1309">
    <g transform="matrix(0.35278,0,0,-0.35278,35.597,307.03)" id="g1303">
      <g clip-path="url(#clipPath25668)" id="g1301">
        <g transform="translate(169.79,530.2)" id="g1223">
          <path d="M 0,0 C -4.946,2.768 -4.972,-6.952 -9.918,-4.184 -10.857,-1.8 -11.796,0.584 -12.735,2.968 -7.789,0.2 -7.763,9.92 -2.817,7.152 -1.878,4.768 -0.939,2.384 0,0" fill="#ffffff" id="path1221"/>
        </g>
        <g transform="translate(161.54,525.41)" id="g1227">
          <path d="m 0,0 c -0.505,0 -1.072,0.154 -1.719,0.517 l -0.032,0.018 -2.936,7.452 0.251,-0.14 c 2.393,-1.339 3.574,0.314 4.825,2.062 1.249,1.746 2.54,3.551 5.093,2.122 L 5.513,12.013 8.449,4.561 8.199,4.701 C 5.806,6.04 4.624,4.388 3.373,2.639 2.441,1.336 1.486,0 0,0 M -1.587,0.678 C 0.784,-0.629 1.961,1.016 3.206,2.758 4.414,4.446 5.661,6.191 8.052,5.01 L 5.35,11.87 C 2.978,13.177 1.801,11.532 0.556,9.79 -0.652,8.102 -1.899,6.358 -4.29,7.538 Z" id="path1225"/>
        </g>
        <g transform="translate(161.72,525.52)" id="g1231">
          <path d="M 0,0 C -0.534,-0.041 -1.141,0.099 -1.847,0.495 -2.035,0.972 -2.223,1.448 -2.41,1.925 -1.704,1.53 -1.098,1.389 -0.563,1.43 -0.376,0.954 -0.188,0.477 0,0" id="path1229"/>
        </g>
        <g transform="translate(160.59,528.38)" id="g1235">
          <path d="M 0,0 C -0.534,-0.041 -1.141,0.099 -1.847,0.495 -2.035,0.972 -2.223,1.448 -2.41,1.925 -1.704,1.53 -1.098,1.389 -0.563,1.43 -0.376,0.953 -0.188,0.477 0,0" id="path1233"/>
        </g>
        <g transform="translate(162.57,527.55)" id="g1239">
          <path d="M 0,0 C -0.42,-0.333 -0.882,-0.556 -1.417,-0.598 -1.604,-0.121 -1.792,0.356 -1.98,0.833 -1.446,0.874 -0.983,1.098 -0.563,1.43 -0.375,0.954 -0.188,0.477 0,0" id="path1237"/>
        </g>
        <g transform="translate(164.29,527.37)" id="g1243">
          <path d="m 0,0 c -0.362,-0.478 -0.739,-0.92 -1.159,-1.253 -0.187,0.477 -0.375,0.953 -0.563,1.43 0.42,0.333 0.796,0.775 1.159,1.253 C -0.376,0.954 -0.188,0.477 0,0" id="path1241"/>
        </g>
        <g transform="translate(159.46,531.24)" id="g1247">
          <path d="M 0,0 C -0.534,-0.041 -1.141,0.099 -1.847,0.495 -2.035,0.971 -2.223,1.448 -2.41,1.925 -1.704,1.529 -1.098,1.389 -0.563,1.43 -0.376,0.953 -0.188,0.477 0,0" id="path1245"/>
        </g>
        <g transform="translate(161.44,530.41)" id="g1251">
          <path d="M 0,0 C -0.42,-0.333 -0.882,-0.556 -1.417,-0.598 -1.605,-0.121 -1.792,0.356 -1.98,0.833 -1.446,0.874 -0.983,1.098 -0.563,1.43 -0.376,0.953 -0.188,0.477 0,0" id="path1249"/>
        </g>
        <g transform="translate(163.16,530.23)" id="g1255">
          <path d="m 0,0 c -0.362,-0.478 -0.739,-0.92 -1.159,-1.253 -0.188,0.477 -0.375,0.954 -0.563,1.43 0.42,0.333 0.796,0.775 1.159,1.253 C -0.376,0.954 -0.188,0.477 0,0" id="path1253"/>
        </g>
        <g transform="translate(164.8,530.27)" id="g1259">
          <path d="m 0,0 c -0.362,-0.478 -0.71,-0.993 -1.073,-1.471 -0.187,0.476 -0.375,0.953 -0.563,1.43 0.362,0.478 0.71,0.993 1.072,1.471 C -0.376,0.954 -0.188,0.477 0,0" id="path1257"/>
        </g>
        <g transform="translate(166.52,530.09)" id="g1263">
          <path d="M 0,0 C -0.42,-0.333 -0.796,-0.775 -1.159,-1.253 -1.346,-0.776 -1.534,-0.3 -1.722,0.177 -1.36,0.655 -0.983,1.098 -0.563,1.43 -0.376,0.954 -0.188,0.477 0,0" id="path1261"/>
        </g>
        <g transform="translate(162.04,533.09)" id="g1267">
          <path d="m 0,0 c -0.362,-0.478 -0.739,-0.92 -1.159,-1.253 -0.187,0.477 -0.375,0.954 -0.563,1.43 0.42,0.333 0.796,0.775 1.159,1.253 C -0.376,0.954 -0.188,0.477 0,0" id="path1265"/>
        </g>
        <g transform="translate(163.67,533.13)" id="g1271">
          <path d="m 0,0 c -0.362,-0.478 -0.71,-0.993 -1.072,-1.471 -0.188,0.476 -0.376,0.953 -0.564,1.43 0.362,0.478 0.71,0.993 1.073,1.471 C -0.376,0.954 -0.188,0.477 0,0" id="path1269"/>
        </g>
        <g transform="translate(165.4,532.95)" id="g1275">
          <path d="m 0,0 c -0.42,-0.333 -0.796,-0.775 -1.159,-1.253 -0.187,0.477 -0.375,0.954 -0.563,1.43 0.362,0.479 0.739,0.921 1.158,1.253 C -0.376,0.954 -0.188,0.477 0,0" id="path1273"/>
        </g>
        <g transform="translate(167.38,532.12)" id="g1279">
          <path d="M 0,0 C -0.534,-0.041 -0.997,-0.265 -1.417,-0.598 -1.605,-0.121 -1.792,0.356 -1.98,0.833 -1.56,1.165 -1.098,1.389 -0.563,1.43 -0.376,0.954 -0.188,0.477 0,0" id="path1277"/>
        </g>
        <g transform="translate(169.79,530.2)" id="g1283">
          <path d="M 0,0 C -0.707,0.396 -1.313,0.536 -1.847,0.495 -2.035,0.972 -2.223,1.448 -2.41,1.925 -1.876,1.967 -1.27,1.826 -0.564,1.43 -0.376,0.954 -0.188,0.477 0,0" id="path1281"/>
        </g>
        <g transform="translate(164.27,535.82)" id="g1287">
          <path d="m 0,0 c -0.42,-0.333 -0.796,-0.775 -1.159,-1.253 -0.188,0.477 -0.375,0.954 -0.563,1.43 0.362,0.479 0.739,0.921 1.159,1.253 C -0.376,0.954 -0.188,0.477 0,0" id="path1285"/>
        </g>
        <g transform="translate(166.25,534.98)" id="g1291">
          <path d="M 0,0 C -0.534,-0.042 -0.997,-0.265 -1.417,-0.598 -1.604,-0.121 -1.792,0.356 -1.98,0.833 -1.56,1.165 -1.098,1.389 -0.563,1.43 -0.376,0.953 -0.188,0.477 0,0" id="path1289"/>
        </g>
        <g transform="translate(168.66,533.06)" id="g1295">
          <path d="M 0,0 C -0.706,0.396 -1.313,0.536 -1.847,0.495 -2.035,0.971 -2.223,1.448 -2.41,1.925 -1.876,1.966 -1.27,1.826 -0.564,1.43 -0.376,0.954 -0.188,0.477 0,0" id="path1293"/>
        </g>
        <g transform="translate(167.53,535.92)" id="g1299">
          <path d="M 0,0 C -0.706,0.396 -1.312,0.536 -1.847,0.495 -2.035,0.972 -2.223,1.448 -2.41,1.925 -1.876,1.966 -1.27,1.826 -0.563,1.43 -0.376,0.954 -0.188,0.477 0,0" id="path1297"/>
        </g>
      </g>
    </g>
    <g transform="matrix(0.35278,0,0,-0.35278,96.795,123.37)" id="g1307">
      <path d="M 0,0 -6.932,17.598 -6.55,17.748 0.382,0.15 Z" id="path1305"/>
    </g>
  </g></svg>