<svg
   xmlns:dc="http://purl.org/dc/elements/1.1/"
   xmlns:cc="http://creativecommons.org/ns#"
   xmlns:rdf="http://www.w3.org/1999/02/22-rdf-syntax-ns#"
   xmlns:svg="http://www.w3.org/2000/svg"
   xmlns="http://www.w3.org/2000/svg"
   xmlns:sodipodi="http://sodipodi.sourceforge.net/DTD/sodipodi-0.dtd"
   xmlns:inkscape="http://www.inkscape.org/namespaces/inkscape"
   inkscape:version="1.0 (4035a4fb49, 2020-05-01)"
   sodipodi:docname="all_stacked (copy).svg"
   id="svg2899"
   viewBox="0 0 6.7021 13.579"
   version="1.1"
   height="13.579mm"
   width="6.7021mm"><g xmlns="http://www.w3.org/2000/svg" transform="matrix(0.35278,0,0,-0.35278,-54.733,182.66)" id="g1337">
    <g clip-path="url(#clipPath25770)" id="g1335">
      <g transform="translate(168.9,499.24)" id="g1313">
        <path d="m 0,0 c 0,-0.781 -0.637,-1.415 -1.419,-1.415 -0.782,0 -1.418,0.634 -1.418,1.415 0,0.786 0.636,1.419 1.418,1.419 C -0.637,1.419 0,0.786 0,0" id="path1311"/>
      </g>
      <g transform="translate(166.77,493.57)" id="g1317">
        <path d="m 0,0 c 0,-0.391 -0.315,-0.709 -0.709,-0.709 -0.392,0 -0.706,0.318 -0.706,0.709 0,0.391 0.314,0.709 0.706,0.709 C -0.315,0.709 0,0.391 0,0" id="path1315"/>
      </g>
      <g transform="translate(163.94,493.57)" id="g1321">
        <path d="m 0,0 c 0,-0.391 -0.318,-0.709 -0.709,-0.709 -0.391,0 -0.71,0.318 -0.71,0.709 0,0.391 0.319,0.709 0.71,0.709 C -0.318,0.709 0,0.391 0,0" id="path1319"/>
      </g>
      <g transform="translate(166.06,495.7)" id="g1325">
        <path d="m 0,0 c 0,0.498 -1.415,0.851 -1.415,0.851 0,0 -1.419,-0.495 -1.419,-0.851 z" id="path1323"/>
      </g>
      <g transform="translate(163.23,499.24)" id="g1329">
        <path d="m 0,0 c 0,-0.781 -0.634,-1.415 -1.415,-1.415 -0.786,0 -1.419,0.634 -1.419,1.415 0,0.786 0.633,1.419 1.419,1.419 C -0.634,1.419 0,0.786 0,0" id="path1327"/>
      </g>
      <g transform="translate(171.16,499.95)" id="g1333">
        <path d="m 0,0 c 0,-0.425 -0.211,-0.851 -0.495,-0.851 -0.283,0 -0.498,0.426 -0.498,0.851 0,0.426 0.215,0.851 0.498,0.851 C -0.211,0.851 0,0.499 0,0 m -13.038,0 c 0,0.426 0.212,0.851 0.496,0.851 0.283,0 0.495,-0.352 0.495,-0.851 0,-0.425 -0.212,-0.851 -0.495,-0.851 -0.284,0 -0.496,0.357 -0.496,0.851 m 8.492,-8.923 c 0.09,0.121 0.152,0.259 0.152,0.422 0,0.391 -0.318,0.706 -0.709,0.706 -0.392,0 -0.706,-0.315 -0.706,-0.706 0,-0.381 0.298,-0.682 0.668,-0.702 -0.465,-0.184 -0.927,-0.291 -1.378,-0.291 -0.449,0 -0.912,0.107 -1.38,0.291 0.374,0.02 0.671,0.321 0.671,0.702 0,0.391 -0.318,0.706 -0.709,0.706 -0.391,0 -0.71,-0.315 -0.71,-0.706 0,-0.163 0.067,-0.301 0.152,-0.422 -2.099,1.162 -4.062,4.006 -4.51,7.508 h 1.525 v 2.834 h -1.523 c 0.485,3.162 2.682,4.647 5.066,5.052 V 3.543 h 2.834 v 2.928 c 2.387,-0.405 4.581,-1.89 5.068,-5.052 H -1.56 v -2.834 h 1.525 C -0.484,-4.917 -2.443,-7.761 -4.546,-8.923 M -6.519,5.104 c 0.426,0 0.852,-0.215 0.852,-0.499 0,-0.283 -0.426,-0.494 -0.852,-0.494 -0.426,0 -0.851,0.211 -0.851,0.494 0,0.284 0.353,0.499 0.851,0.499 M 1.187,1.419 c -0.471,3.723 -3.01,5.816 -6.29,6.276 v 0.1 H -7.937 V 7.692 C -11.21,7.224 -13.749,5.097 -14.223,1.419 h -0.091 v -2.834 h 0.114 c 0.612,-4.588 3.799,-9.214 7.681,-9.214 3.886,0 7.076,4.581 7.682,9.214 h 0.114 v 2.834 z" id="path1331"/>
      </g>
    </g>
  </g></svg>