<svg
   xmlns:dc="http://purl.org/dc/elements/1.1/"
   xmlns:cc="http://creativecommons.org/ns#"
   xmlns:rdf="http://www.w3.org/1999/02/22-rdf-syntax-ns#"
   xmlns:svg="http://www.w3.org/2000/svg"
   xmlns="http://www.w3.org/2000/svg"
   xmlns:sodipodi="http://sodipodi.sourceforge.net/DTD/sodipodi-0.dtd"
   xmlns:inkscape="http://www.inkscape.org/namespaces/inkscape"
   inkscape:version="1.0 (4035a4fb49, 2020-05-01)"
   sodipodi:docname="all_stacked (copy).svg"
   id="svg2899"
   viewBox="0 0 6.7021 13.579"
   version="1.1"
   height="13.579mm"
   width="6.7021mm"><g xmlns="http://www.w3.org/2000/svg" transform="matrix(0.35278,0,0,-0.35278,-156.9,266.89)" id="g831">
    <g clip-path="url(#clipPath2137)" id="g829">
      <g transform="translate(458.72,739.75)" id="g827">
        <path d="m 0,0 -0.337,-0.054 c -0.441,-0.071 -0.774,-0.391 -0.724,-0.704 l 0.157,-0.978 0.193,-1.204 c 0.07,-0.437 -0.176,-0.457 -0.304,-0.439 l -0.039,0.009 -0.026,0.165 -0.435,2.709 -0.149,0.928 c -0.05,0.313 -0.467,0.517 -0.908,0.446 L -2.909,0.824 C -3.351,0.753 -3.682,0.429 -3.632,0.116 l 0.149,-0.927 0.336,-2.095 -0.429,0.095 -1.395,8.698 C -5.021,6.2 -5.432,6.405 -5.879,6.333 L -6.212,6.28 C -6.658,6.208 -6.989,5.884 -6.939,5.571 l 1.27,-7.917 -0.423,0.094 -0.13,0.806 -0.33,2.062 c -0.034,0.208 -0.098,0.432 -0.202,0.54 -2.145,0.245 -2.062,-1.79 -2.062,-1.79 -0.024,-0.259 0.019,-0.734 0.079,-1.215 l 0.075,-0.468 0.352,-2.195 c 0.016,-0.2 0.008,-0.399 -0.084,-0.414 -0.113,-0.018 -0.201,0.326 -0.255,0.609 l -0.227,1.411 c -0.05,0.313 -0.465,0.513 -0.907,0.442 l -0.337,-0.054 c -0.441,-0.071 -0.774,-0.391 -0.724,-0.704 l 0.485,-3.021 c 0,-0.003 0.002,-0.007 0.002,-0.01 10e-4,-0.005 10e-4,-0.011 0.002,-0.016 0.06,-0.377 0.883,-1.094 1.65,-1.688 0.833,-0.816 2.566,-2.122 2.566,-2.122 1.06,-0.65 0.6,-1.198 0.6,-1.198 l 6.982,1.049 0.161,1.254 c 0.375,1.108 0.372,1.74 0.155,3.197 l 0.004,0.001 -0.272,1.697 -0.427,2.658 -0.157,0.979 C 0.857,-0.129 0.442,0.071 0,0" id="path825"/>
      </g>
    </g>
  </g></svg>