<svg
   xmlns:dc="http://purl.org/dc/elements/1.1/"
   xmlns:cc="http://creativecommons.org/ns#"
   xmlns:rdf="http://www.w3.org/1999/02/22-rdf-syntax-ns#"
   xmlns:svg="http://www.w3.org/2000/svg"
   xmlns="http://www.w3.org/2000/svg"
   xmlns:sodipodi="http://sodipodi.sourceforge.net/DTD/sodipodi-0.dtd"
   xmlns:inkscape="http://www.inkscape.org/namespaces/inkscape"
   inkscape:version="1.0 (4035a4fb49, 2020-05-01)"
   sodipodi:docname="all_stacked (copy).svg"
   id="svg2899"
   viewBox="0 0 6.7021 13.579"
   version="1.1"
   height="13.579mm"
   width="6.7021mm"><g xmlns="http://www.w3.org/2000/svg" transform="matrix(0.35278,0,0,-0.35278,-54.733,162.86)" id="g1389">
    <g clip-path="url(#clipPath25818)" id="g1387">
      <g transform="translate(169.86,447.62)" id="g1341">
        <path d="m 0,0 c 0,0 -0.992,1.472 -3.92,2.16 -2.928,0.688 -5.457,-0.752 -6.825,-2.152 -1.368,-1.4 -2.904,-4.792 -1.72,-7.32 1.184,-2.529 2.24,-5.121 6.737,-5.425 4.496,-0.304 7.132,3.772 7.536,4.496 C 2.212,-7.516 3.696,-3.952 0,0" id="path1339"/>
      </g>
      <g transform="translate(164.61,434.74)" id="g1345">
        <path d="m 0,0 c -0.16,0 -0.322,0.005 -0.487,0.017 -4.42,0.298 -5.591,2.811 -6.724,5.241 l -0.12,0.256 c -1.173,2.505 0.259,5.945 1.744,7.464 1.468,1.502 4.062,2.865 6.946,2.187 2.857,-0.671 3.894,-2.066 3.99,-2.204 C 9.302,8.729 7.4,4.991 7.17,4.578 7.062,4.385 4.559,0 0,0 m -0.176,15.088 c -2.174,0 -4.066,-1.099 -5.228,-2.288 -2.23,-2.283 -2.418,-5.635 -1.695,-7.177 l 0.12,-0.257 C -5.827,2.895 -4.739,0.56 -0.47,0.272 4.238,-0.045 6.838,4.509 6.946,4.703 7.167,5.099 8.994,8.69 5.156,12.794 L 5.144,12.809 C 5.134,12.824 4.137,14.25 1.3,14.917 0.798,15.035 0.304,15.088 -0.176,15.088" fill="#ffffff" id="path1343"/>
      </g>
      <g transform="translate(159.49,443.43)" id="g1349">
        <path d="M 0,0 C 0.126,0.588 0.573,0.991 0.999,0.9 1.426,0.809 1.67,0.258 1.544,-0.33 1.419,-0.918 0.971,-1.321 0.545,-1.229 0.118,-1.138 -0.126,-0.588 0,0" fill="#ffffff" id="path1347"/>
      </g>
      <g transform="translate(165.92,443.56)" id="g1353">
        <path d="M 0,0 C -0.464,0.482 -0.625,1.081 -0.358,1.337 -0.092,1.593 0.5,1.41 0.964,0.928 1.428,0.446 1.589,-0.152 1.322,-0.409 1.056,-0.665 0.464,-0.482 0,0" fill="#ffffff" id="path1351"/>
      </g>
      <g transform="translate(167.23,445.19)" id="g1357">
        <path d="M 0,0 C -0.464,0.482 -0.625,1.081 -0.358,1.337 -0.092,1.593 0.5,1.41 0.964,0.928 1.428,0.446 1.589,-0.152 1.322,-0.409 1.056,-0.665 0.464,-0.482 0,0" fill="#ffffff" id="path1355"/>
      </g>
      <g transform="translate(168.43,446.83)" id="g1361">
        <path d="M 0,0 C -0.464,0.482 -0.624,1.081 -0.358,1.337 -0.092,1.593 0.5,1.41 0.964,0.928 1.428,0.446 1.589,-0.152 1.323,-0.409 1.056,-0.665 0.464,-0.482 0,0" fill="#ffffff" id="path1359"/>
      </g>
      <g transform="translate(164.43,447.75)" id="g1365">
        <path d="M 0,0 C -0.464,0.482 -0.625,1.081 -0.358,1.337 -0.092,1.593 0.5,1.41 0.964,0.928 1.428,0.446 1.589,-0.152 1.322,-0.409 1.056,-0.665 0.464,-0.482 0,0" fill="#ffffff" id="path1363"/>
      </g>
      <g transform="translate(169.89,442.84)" id="g1369">
        <path d="M 0,0 C -0.464,0.482 -0.625,1.081 -0.358,1.337 -0.092,1.593 0.5,1.41 0.964,0.928 1.428,0.446 1.589,-0.152 1.322,-0.409 1.056,-0.665 0.464,-0.482 0,0" fill="#ffffff" id="path1367"/>
      </g>
      <g transform="translate(165.34,440.59)" id="g1373">
        <path d="M 0,0 C 0.569,0.194 1.128,0.063 1.249,-0.291 1.37,-0.646 1.006,-1.09 0.437,-1.284 -0.132,-1.477 -0.692,-1.347 -0.812,-0.992 -0.933,-0.638 -0.569,-0.194 0,0" fill="#ffffff" id="path1371"/>
      </g>
      <g transform="translate(165.87,438.62)" id="g1377">
        <path d="M 0,0 C 0.569,0.194 1.128,0.063 1.249,-0.291 1.37,-0.646 1.006,-1.09 0.437,-1.284 -0.132,-1.477 -0.692,-1.347 -0.812,-0.992 -0.933,-0.638 -0.569,-0.194 0,0" fill="#ffffff" id="path1375"/>
      </g>
      <g transform="translate(166.32,436.77)" id="g1381">
        <path d="M 0,0 C 0.569,0.194 1.128,0.063 1.249,-0.291 1.37,-0.646 1.006,-1.09 0.437,-1.284 -0.132,-1.477 -0.692,-1.347 -0.812,-0.992 -0.933,-0.638 -0.569,-0.194 0,0" fill="#ffffff" id="path1379"/>
      </g>
      <g transform="translate(160.73,435.71)" id="g1385">
        <path d="M 0,0 C -0.007,0.016 -0.53,1.233 0.4,2.715 -0.211,2.273 -0.809,1.976 -1.386,2.032 c -0.437,0.044 -0.82,0.281 -1.17,0.725 l 0.175,0.137 c 0.31,-0.393 0.643,-0.603 1.017,-0.64 0.719,-0.07 1.516,0.508 2.34,1.199 0.15,0.159 0.318,0.32 0.508,0.48 1.038,1.196 1.943,3.802 1.078,6.725 C 2.54,10.735 2.516,10.81 2.491,10.883 2.459,10.966 2.43,11.048 2.403,11.128 2.089,11.936 1.649,12.478 1.091,12.741 0.334,13.098 -0.38,12.803 -0.387,12.8 l -0.087,0.205 c 0.032,0.014 0.813,0.337 1.661,-0.062 0.389,-0.184 0.725,-0.488 1.004,-0.909 -0.064,0.583 0.046,1.06 0.33,1.425 0.749,0.962 2.417,0.773 2.488,0.765 L 4.982,14.003 C 4.966,14.004 3.368,14.185 2.696,13.321 2.326,12.846 2.298,12.134 2.613,11.203 2.643,11.124 2.673,11.043 2.701,10.959 4.074,7.394 7.95,5.691 7.989,5.675 7.994,5.673 8.198,5.588 8.505,5.509 8.701,5.482 8.895,5.452 9.089,5.422 9.159,5.411 9.227,5.398 9.293,5.383 c 0.392,-0.022 0.814,0.022 1.185,0.209 0.485,0.244 0.812,0.701 0.97,1.358 L 11.664,6.898 C 11.49,6.174 11.125,5.667 10.578,5.392 10.353,5.279 10.114,5.213 9.876,5.18 10.172,5.027 10.381,4.814 10.502,4.544 10.913,3.627 10.135,2.4 10.102,2.348 L 9.914,2.468 C 9.922,2.48 10.661,3.647 10.298,4.454 10.143,4.8 9.8,5.037 9.278,5.158 8.965,5.176 8.674,5.233 8.441,5.293 6.217,5.601 3.894,5.623 1.707,3.828 1.689,3.814 1.671,3.799 1.654,3.785 1.542,3.658 1.425,3.543 1.305,3.44 1.244,3.388 1.182,3.336 1.121,3.284 -0.445,1.618 0.173,0.159 0.203,0.091 Z M 2.99,9.833 C 3.259,8.379 3.1,7.149 2.895,6.32 2.718,5.607 2.449,4.955 2.116,4.415 3.915,5.647 5.779,5.787 7.596,5.617 6.75,6.048 4.355,7.428 2.99,9.833" fill="#ffffff" id="path1383"/>
      </g>
    </g>
  </g></svg>