<svg
   xmlns:dc="http://purl.org/dc/elements/1.1/"
   xmlns:cc="http://creativecommons.org/ns#"
   xmlns:rdf="http://www.w3.org/1999/02/22-rdf-syntax-ns#"
   xmlns:svg="http://www.w3.org/2000/svg"
   xmlns="http://www.w3.org/2000/svg"
   xmlns:sodipodi="http://sodipodi.sourceforge.net/DTD/sodipodi-0.dtd"
   xmlns:inkscape="http://www.inkscape.org/namespaces/inkscape"
   inkscape:version="1.0 (4035a4fb49, 2020-05-01)"
   sodipodi:docname="all_stacked (copy).svg"
   id="svg2899"
   viewBox="0 0 6.7021 13.579"
   version="1.1"
   height="13.579mm"
   width="6.7021mm"><g xmlns="http://www.w3.org/2000/svg" transform="matrix(0.35278,0,0,-0.35278,-54.967,127.27)" clip-path="url(#clipPath25912)" id="g519">
    <g transform="translate(171.7,334.34)" id="g329">
      <path d="M 0,0 C -0.022,0.053 -0.03,0.121 -0.068,0.156 -0.499,0.541 -0.762,1.047 -1.05,1.531 -1.244,1.857 -1.396,2.208 -1.56,2.552 -2.09,3.672 -2.272,4.926 -2.899,6.012 -3.06,6.292 -3.14,6.625 -3.221,6.943 -3.34,7.41 -3.534,7.833 -3.841,8.204 -4.029,8.432 -4.22,8.659 -4.418,8.878 -4.643,9.127 -4.954,9.207 -5.258,9.169 -6.505,9.012 -7.294,8.68 -7.678,7.373 -7.763,7.083 -7.99,6.834 -8.151,6.566 l -0.116,0.047 c 0.023,0.11 0.033,0.224 0.072,0.327 0.241,0.651 0.527,1.279 1,1.802 0.372,0.412 0.823,0.668 1.39,0.705 0.208,0.013 0.417,0.109 0.619,0.093 C -4.935,9.519 -4.648,9.48 -4.449,9.345 -3.836,8.927 -3.425,8.34 -3.172,7.635 -3.008,7.177 -2.795,6.736 -2.608,6.286 -2.344,5.647 -2.07,5.012 -1.825,4.366 -1.573,3.704 -1.354,3.029 -1.116,2.362 -1.02,2.094 -0.94,1.815 -0.797,1.573 -0.631,1.293 -0.411,1.044 -0.2,0.794 -0.156,0.743 -0.049,0.745 0.028,0.723 0.021,0.801 0.039,0.894 0.004,0.957 -0.206,1.328 -0.451,1.681 -0.64,2.063 -0.805,2.397 -0.981,2.75 -1.033,3.112 -1.237,4.541 -1.825,5.827 -2.429,7.111 -2.481,7.222 -2.549,7.329 -2.584,7.444 -2.87,8.393 -3.569,9.009 -4.305,9.592 -4.548,9.785 -4.81,9.968 -5.092,10.091 -5.265,10.167 -5.493,10.14 -5.694,10.125 -5.944,10.106 -6.19,10.045 -6.439,10.015 -7.011,9.946 -7.479,9.705 -7.834,9.239 -8.147,8.829 -8.488,8.44 -8.804,8.032 -8.882,7.93 -8.906,7.786 -8.966,7.667 -8.993,7.613 -9.047,7.574 -9.089,7.528 c -0.047,0.053 -0.14,0.111 -0.134,0.157 0.017,0.136 0.048,0.281 0.118,0.396 0.616,1.026 1.448,1.803 2.57,2.266 0.656,0.272 1.252,0.098 1.831,-0.185 1.422,-0.694 2.27,-1.874 2.773,-3.342 0.203,-0.589 0.417,-1.172 0.76,-1.706 0.164,-0.256 0.217,-0.587 0.29,-0.892 0.094,-0.39 0.137,-0.794 0.24,-1.182 C -0.575,2.791 -0.456,2.55 -0.33,2.322 -0.236,2.15 -0.07,2.015 -0.116,1.788 -0.117,1.78 -0.115,1.769 -0.111,1.763 0.106,1.504 0.323,1.247 0.541,0.989 0.566,1.003 0.59,1.018 0.615,1.033 0.595,1.108 0.599,1.218 0.55,1.254 0.176,1.533 0.127,1.985 -0.047,2.367 -0.223,2.755 -0.356,3.164 -0.486,3.571 -0.529,3.707 -0.531,3.872 -0.5,4.012 c 0.058,0.264 -0.008,0.497 -0.104,0.736 -0.398,0.991 -0.726,2.016 -1.2,2.968 -0.465,0.931 -1.193,1.679 -2.09,2.24 -0.307,0.193 -0.606,0.404 -0.922,0.582 -0.131,0.075 -0.298,0.115 -0.45,0.121 C -6.825,10.723 -8.053,10.112 -8.925,8.815 -9.212,8.388 -9.441,7.918 -9.749,7.507 -9.94,7.251 -10.125,6.988 -10.067,6.689 c 0.055,-0.284 -0.067,-0.5 -0.118,-0.744 -0.014,-0.068 -0.061,-0.128 -0.112,-0.23 -0.136,0.251 -0.225,0.436 -0.059,0.671 0.079,0.113 0.069,0.286 0.11,0.429 0.504,1.733 1.519,3.065 3.101,3.956 0.378,0.212 0.783,0.228 1.196,0.225 1.782,-0.012 3.004,-0.944 3.91,-2.388 C -1.826,8.267 -1.603,7.93 -1.421,7.571 -1.254,7.24 -1.135,6.883 -0.996,6.536 -0.978,6.488 -0.97,6.435 -0.948,6.389 -0.704,5.867 -0.477,5.335 -0.207,4.826 0.042,4.358 0.339,3.915 0.609,3.458 0.679,3.339 0.716,3.2 0.789,3.083 0.911,2.887 1.049,2.702 1.181,2.512 1.206,2.527 1.23,2.542 1.255,2.557 1.252,2.595 1.265,2.645 1.246,2.671 0.764,3.323 0.599,4.12 0.26,4.836 -0.056,5.5 -0.36,6.171 -0.632,6.853 c -0.15,0.374 -0.226,0.772 -0.486,1.103 -0.769,0.979 -1.413,2.075 -2.611,2.633 -0.633,0.295 -1.244,0.624 -1.973,0.604 C -7.016,11.157 -8.134,10.727 -9,9.694 -9.663,8.902 -10.275,8.083 -10.534,7.067 -10.627,6.703 -10.597,6.307 -10.632,5.927 -10.67,5.523 -10.726,5.122 -10.763,4.719 -10.79,4.438 -10.795,4.156 -10.82,3.875 c -0.007,-0.077 -0.047,-0.151 -0.072,-0.227 -0.037,0.006 -0.075,0.011 -0.112,0.017 0.013,0.531 0.033,1.062 0.04,1.593 0.005,0.372 0.032,0.751 -0.023,1.116 -0.042,0.278 0.088,0.458 0.201,0.665 0.05,0.089 0.12,0.178 0.136,0.274 0.137,0.911 0.633,1.645 1.188,2.335 0.28,0.349 0.684,0.599 0.969,0.944 0.312,0.379 0.731,0.527 1.159,0.653 0.432,0.127 0.884,0.196 1.331,0.269 0.151,0.024 0.315,-0.005 0.47,-0.031 0.459,-0.074 0.918,-0.158 1.376,-0.241 0.068,-0.012 0.138,-0.031 0.196,-0.065 1.086,-0.648 2.029,-1.433 2.729,-2.521 C -0.595,7.665 -0.024,6.65 0.42,5.559 0.594,5.131 0.819,4.73 0.944,4.275 1.029,3.96 1.242,3.679 1.397,3.383 1.426,3.39 1.454,3.396 1.482,3.403 1.458,3.525 1.449,3.653 1.408,3.769 1.259,4.184 1.16,4.633 0.932,5 0.526,5.652 0.428,6.405 0.139,7.095 c -0.708,1.684 -1.968,2.852 -3.386,3.901 -0.139,0.103 -0.331,0.183 -0.188,0.491 0.276,-0.171 0.556,-0.306 0.791,-0.497 0.387,-0.315 0.743,-0.667 1.114,-1 C -0.476,9.042 0.297,7.904 0.779,6.569 0.838,6.405 0.91,6.242 1,6.093 1.092,5.939 1.171,5.802 1.116,5.607 1.095,5.535 1.168,5.432 1.207,5.347 1.349,5.038 1.49,4.729 1.64,4.424 1.674,4.356 1.744,4.306 1.798,4.248 1.83,4.336 1.908,4.44 1.885,4.511 1.726,5.01 1.55,5.503 1.373,5.996 0.618,8.09 -0.614,9.821 -2.482,11.07 c -0.288,0.192 -0.544,0.43 -0.825,0.632 -0.118,0.085 -0.269,0.12 -0.392,0.198 -0.167,0.107 -0.326,0.227 -0.479,0.354 -0.193,0.161 -0.568,0.219 -0.822,0.079 0.244,-0.107 0.457,-0.201 0.671,-0.295 -0.005,-0.018 -0.009,-0.036 -0.014,-0.055 -0.412,0.046 -0.824,0.092 -1.236,0.138 -0.005,-0.027 -0.01,-0.055 -0.015,-0.082 0.059,-0.023 0.116,-0.054 0.177,-0.068 0.248,-0.057 0.495,-0.114 0.745,-0.16 0.1,-0.019 0.244,-0.057 0.303,-0.008 0.216,0.181 0.391,0.05 0.582,-0.027 0.12,-0.047 0.249,-0.089 0.161,-0.255 -0.066,-0.123 -0.134,-0.245 -0.322,-0.143 -0.098,0.054 -0.23,0.045 -0.344,0.073 -0.265,0.065 -0.545,0.02 -0.8,0.199 -0.132,0.092 -0.367,0.047 -0.555,0.046 -0.81,-0.003 -1.569,-0.245 -2.324,-0.505 C -8.944,10.855 -9.598,10.147 -10.103,9.295 -10.417,8.762 -10.649,8.18 -10.955,7.64 -11.098,7.386 -11.271,7.154 -11.28,6.851 -11.291,6.517 -11.561,6.296 -11.649,6.014 -11.78,5.595 -11.837,5.141 -11.85,4.7 c -0.014,-0.504 0.062,-1.011 0.081,-1.517 0.006,-0.168 -0.045,-0.337 -0.107,-0.51 -0.15,0.172 -0.207,0.363 -0.22,0.581 -0.059,0.986 0.005,1.949 0.334,2.897 0.428,1.23 0.859,2.457 1.564,3.558 0.63,0.984 1.533,1.632 2.624,2.042 0.53,0.199 1.067,0.236 1.619,0.218 0.06,-0.002 0.121,0.021 0.224,0.041 -0.157,0.176 -0.289,0.23 -0.47,0.157 -0.096,-0.039 -0.199,-0.078 -0.3,-0.081 -2.004,-0.061 -3.367,-1.112 -4.319,-2.794 -0.72,-1.273 -1.197,-2.642 -1.581,-4.048 -0.148,-0.542 -0.003,-1.075 0.025,-1.611 0.014,-0.296 0.057,-0.591 0.076,-0.886 0.017,-0.27 0.053,-0.294 0.314,-0.232 0.058,0.014 0.176,-0.047 0.2,-0.102 0.27,-0.639 0.528,-1.283 0.787,-1.927 0.012,-0.029 0.008,-0.065 -0.02,-0.113 -0.577,0.49 -0.773,1.198 -0.977,1.902 -0.035,-0.014 -0.069,-0.027 -0.104,-0.04 -0.004,-0.082 -0.029,-0.17 -0.007,-0.244 0.087,-0.292 0.193,-0.578 0.286,-0.868 0.048,-0.148 0.065,-0.308 0.125,-0.45 0.118,-0.282 0.281,-0.522 0.524,-0.735 0.239,-0.212 0.417,-0.517 0.56,-0.81 0.19,-0.389 0.459,-0.664 0.846,-0.834 -0.013,-0.019 -0.025,-0.037 -0.038,-0.056 0.096,-0.078 0.194,-0.156 0.289,-0.236 0.115,-0.096 0.228,-0.193 0.342,-0.291 -0.015,-0.028 -0.031,-0.056 -0.046,-0.085 -0.136,0.053 -0.284,0.087 -0.406,0.163 -0.677,0.421 -1.156,1.034 -1.596,1.682 -0.27,0.399 -0.543,0.796 -0.809,1.197 -0.041,0.061 -0.06,0.14 -0.078,0.214 -0.019,0.076 -0.007,0.165 -0.041,0.23 -0.384,0.725 -0.302,1.549 -0.488,2.318 -0.102,0.429 -0.099,0.915 -0.017,1.351 0.316,1.683 0.753,3.33 1.678,4.803 0.913,1.456 2.142,2.485 3.809,3 0.678,0.209 1.331,0.231 2.01,0.124 0.076,-0.012 0.155,10e-4 0.234,0.002 0.005,0.034 0.009,0.067 0.014,0.101 -0.137,0.029 -0.274,0.076 -0.412,0.084 -0.242,0.012 -0.487,0.017 -0.727,-0.007 -0.353,-0.035 -0.702,-0.098 -1.054,-0.152 -0.06,-0.009 -0.117,-0.047 -0.175,-0.047 -0.492,0 -0.885,-0.238 -1.279,-0.493 -0.147,-0.095 -0.344,-0.113 -0.498,-0.201 -0.864,-0.493 -1.522,-1.197 -2.042,-2.036 -0.67,-1.08 -1.107,-2.26 -1.49,-3.463 -0.034,-0.102 -0.136,-0.182 -0.198,-0.277 -0.05,-0.077 -0.104,-0.158 -0.126,-0.245 -0.298,-1.218 -0.189,-2.411 0.203,-3.594 0.133,-0.401 0.208,-0.82 0.312,-1.231 0.027,-0.105 0.064,-0.207 0.112,-0.357 -0.351,0.206 -0.651,0.873 -0.61,1.228 0.011,0.092 -0.022,0.194 -0.056,0.282 -0.007,0.016 -0.168,0.007 -0.179,-0.021 -0.038,-0.098 -0.08,-0.222 -0.05,-0.312 0.126,-0.369 0.282,-0.729 0.422,-1.094 0.024,-0.063 0.021,-0.137 0.03,-0.206 -0.026,-0.011 -0.052,-0.023 -0.079,-0.035 -0.055,0.075 -0.109,0.153 -0.168,0.226 -0.25,0.302 -0.374,0.651 -0.457,1.034 -0.065,0.3 -0.238,0.576 -0.336,0.871 -0.054,0.164 -0.055,0.346 -0.072,0.521 -0.063,0.616 -0.163,1.233 -0.167,1.851 -0.002,0.373 0.068,0.79 0.246,1.11 0.272,0.491 0.481,1.008 0.729,1.508 0.218,0.438 0.355,0.915 0.569,1.354 0.31,0.634 0.654,1.25 0.991,1.87 0.228,0.419 0.645,0.628 1.015,0.89 0.167,0.118 0.313,0.268 0.469,0.402 0.032,0.028 0.065,0.061 0.104,0.075 0.4,0.143 0.793,0.311 1.202,0.416 0.678,0.173 1.365,0.305 2.124,0.471 -0.139,0.02 -0.21,0.043 -0.278,0.038 -1.567,-0.13 -3.023,-0.57 -4.27,-1.568 -0.403,-0.322 -0.686,-0.743 -0.905,-1.208 -0.199,-0.423 -0.343,-0.867 -0.621,-1.261 -0.187,-0.266 -0.243,-0.625 -0.357,-0.942 -0.009,-0.025 -0.004,-0.056 -0.017,-0.077 -0.198,-0.296 -0.405,-0.585 -0.592,-0.887 -0.103,-0.167 -0.195,-0.348 -0.254,-0.534 -0.131,-0.417 -0.249,-0.839 -0.356,-1.263 -0.153,-0.607 -0.053,-1.211 0.054,-1.811 0.101,-0.564 0.257,-1.111 0.477,-1.645 0.157,-0.381 0.196,-0.817 0.382,-1.181 0.213,-0.422 0.478,-0.845 0.812,-1.173 0.617,-0.605 1.304,-1.139 1.958,-1.708 0.247,-0.214 0.483,-0.441 0.724,-0.662 -0.01,-0.021 -0.019,-0.043 -0.03,-0.065 -0.077,0.024 -0.171,0.027 -0.232,0.074 -0.815,0.645 -1.64,1.28 -2.432,1.954 -0.275,0.233 -0.465,0.564 -0.693,0.85 -0.055,0.068 -0.105,0.142 -0.168,0.201 -0.023,0.021 -0.089,0.023 -0.119,0.005 -0.026,-0.016 -0.049,-0.079 -0.039,-0.107 0.112,-0.27 0.173,-0.591 0.361,-0.794 0.323,-0.35 0.723,-0.631 1.098,-0.932 0.286,-0.229 0.583,-0.444 0.876,-0.664 0.028,-0.021 0.062,-0.036 0.055,-0.087 -1.099,0.277 -1.862,1.035 -2.621,1.798 l -0.07,-0.067 c 0.044,-0.071 0.079,-0.151 0.135,-0.211 0.095,-0.102 0.219,-0.181 0.301,-0.291 0.04,-0.057 0.015,-0.162 0.02,-0.245 -0.071,0.017 -0.144,0.028 -0.212,0.053 -0.078,0.03 -0.152,0.072 -0.253,0.12 0.05,-0.296 0.232,-0.4 0.479,-0.349 0.097,0.02 0.226,0.02 0.306,-0.028 0.71,-0.423 1.412,-0.86 2.117,-1.292 0.41,-0.252 0.869,-0.449 1.217,-0.768 0.385,-0.35 0.851,-0.363 1.29,-0.477 0.451,-0.116 0.929,-0.127 1.392,-0.203 0.2,-0.033 0.403,-0.086 0.584,-0.174 0.274,-0.136 0.543,-0.235 0.923,-0.168 -0.61,0.311 -1.148,0.585 -1.695,0.864 0.148,0.189 0.33,0.238 0.545,0.131 0.374,-0.185 0.738,-0.392 1.121,-0.557 0.482,-0.209 0.974,-0.399 1.471,-0.568 0.171,-0.058 0.371,-0.028 0.557,-0.038 0.006,0.03 0.011,0.061 0.015,0.092 -0.098,0.03 -0.194,0.064 -0.294,0.091 -0.267,0.074 -0.537,0.142 -0.803,0.22 -0.15,0.044 -0.293,0.113 -0.444,0.155 -0.194,0.054 -0.406,0.03 -0.52,0.277 -0.045,0.1 -0.247,0.118 -0.354,0.203 -0.464,0.369 -0.922,0.747 -1.379,1.126 -0.202,0.168 -0.392,0.348 -0.587,0.522 l 0.006,0.079 c 0.076,-0.005 0.171,0.018 0.223,-0.019 0.226,-0.164 0.434,-0.353 0.659,-0.519 0.427,-0.316 0.861,-0.624 1.291,-0.935 0.098,-0.071 0.207,-0.133 0.29,-0.22 0.287,-0.303 0.66,-0.334 1.026,-0.393 0.019,0.033 0.038,0.066 0.057,0.099 -0.067,0.052 -0.128,0.134 -0.203,0.149 -0.571,0.115 -1.02,0.44 -1.446,0.81 -0.389,0.338 -0.779,0.674 -1.17,1.008 -0.059,0.051 -0.127,0.09 -0.19,0.134 0.046,0.039 0.09,0.079 0.137,0.118 0.607,-0.444 1.215,-0.888 1.845,-1.349 0.107,0.255 -0.045,0.311 -0.172,0.401 -0.296,0.211 -0.586,0.431 -0.866,0.662 -0.07,0.057 -0.093,0.17 -0.136,0.257 0.019,0.019 0.04,0.038 0.06,0.057 0.18,-0.115 0.38,-0.208 0.537,-0.349 0.914,-0.813 1.951,-1.414 3.094,-1.841 0.145,-0.054 0.274,-0.15 0.414,-0.221 0.053,-0.028 0.118,-0.064 0.171,-0.055 0.076,0.012 0.147,0.062 0.22,0.095 -0.055,0.056 -0.1,0.139 -0.165,0.162 -0.297,0.106 -0.609,0.17 -0.897,0.292 -1.515,0.641 -2.762,1.619 -3.731,2.958 C -7.438,0.228 -7.908,1.138 -8.25,2.121 -8.34,2.379 -8.476,2.62 -8.607,2.904 -8.824,2.638 -8.776,2.388 -8.656,2.198 c 0.225,-0.356 0.267,-0.773 0.44,-1.138 0.267,-0.568 0.594,-1.107 0.897,-1.658 0.057,-0.103 0.114,-0.205 0.172,-0.307 -0.024,-0.025 -0.046,-0.05 -0.069,-0.075 -0.085,0.059 -0.189,0.102 -0.251,0.179 -0.634,0.782 -1.029,1.688 -1.317,2.64 -0.236,0.778 -0.429,1.569 -0.641,2.355 -0.03,0.108 -0.061,0.216 -0.112,0.32 -0.093,-0.679 -0.015,-1.345 0.15,-2.001 0.285,-1.135 0.829,-2.151 1.44,-3.137 0.078,-0.126 0.302,-0.259 0.091,-0.434 -0.02,-0.016 -0.245,0.162 -0.328,0.283 -1.189,1.713 -1.693,3.639 -1.811,5.7 -0.044,0.773 0.223,1.477 0.349,2.212 0.019,0.112 0.16,0.203 0.245,0.303 0.014,-0.126 0.057,-0.257 0.037,-0.378 -0.1,-0.601 -0.22,-1.199 -0.325,-1.8 -0.015,-0.08 0.009,-0.168 0.016,-0.253 0.022,-0.008 0.044,-0.015 0.066,-0.023 0.049,0.089 0.128,0.174 0.144,0.27 0.041,0.248 0.058,0.501 0.075,0.753 0.014,0.189 0.05,0.358 0.322,0.5 C -9.071,6.239 -9.015,6 -9.09,5.812 -9.304,5.277 -9.193,4.743 -9.158,4.207 -9.154,4.155 -9.069,4.087 -9.009,4.069 -8.957,4.053 -8.855,4.079 -8.833,4.118 -8.807,4.163 -8.846,4.244 -8.86,4.309 -8.863,4.324 -8.886,4.336 -8.887,4.35 -8.908,4.912 -8.984,5.477 -8.788,6.06 -8.542,5.856 -8.593,5.624 -8.637,5.411 -8.773,4.736 -8.669,4.087 -8.45,3.45 -8.396,3.291 -8.302,3.145 -8.227,2.993 -8.189,3 -8.151,3.008 -8.114,3.016 l -0.21,1.746 0.113,0.024 c 0.065,-0.242 0.145,-0.48 0.19,-0.725 0.054,-0.293 0.069,-0.594 0.123,-0.888 0.019,-0.106 0.102,-0.2 0.156,-0.3 0.148,-0.269 0.337,-0.516 0.363,-0.844 0.004,-0.06 0.18,-0.107 0.277,-0.159 0.026,0.076 0.092,0.166 0.071,0.226 -0.171,0.496 -0.361,0.986 -0.538,1.48 -0.146,0.406 -0.229,0.823 -0.107,1.276 0.069,-0.173 0.151,-0.342 0.205,-0.519 0.228,-0.744 0.447,-1.49 0.675,-2.234 0.03,-0.098 0.09,-0.189 0.146,-0.276 0.202,-0.314 0.386,-0.645 0.558,-0.969 0.412,-0.78 1.002,-1.398 1.599,-2.02 0.05,-0.052 0.095,-0.11 0.141,-0.164 -0.019,-0.03 -0.039,-0.059 -0.059,-0.088 -0.149,0.084 -0.323,0.141 -0.441,0.256 -0.726,0.711 -1.251,1.574 -1.791,2.424 -0.064,0.101 -0.111,0.212 -0.166,0.318 -0.037,-0.015 -0.073,-0.029 -0.109,-0.044 0.026,-0.153 0.021,-0.321 0.083,-0.458 0.583,-1.297 1.49,-2.34 2.648,-3.137 0.759,-0.521 1.595,-0.932 2.397,-1.39 0.051,-0.029 0.111,-0.041 0.197,-0.013 -0.271,0.183 -0.54,0.369 -0.813,0.549 -0.587,0.388 -1.18,0.768 -1.763,1.163 -0.078,0.052 -0.113,0.169 -0.168,0.256 0.129,-0.009 0.274,0.016 0.384,-0.034 0.139,-0.062 0.241,-0.202 0.375,-0.28 0.378,-0.217 0.767,-0.414 1.147,-0.628 0.212,-0.12 0.41,-0.263 0.623,-0.381 0.074,-0.04 0.171,-0.046 0.257,-0.043 0.028,10e-4 0.081,0.112 0.075,0.116 -0.066,0.056 -0.139,0.108 -0.217,0.15 -0.575,0.309 -1.212,0.54 -1.711,0.942 -0.651,0.523 -1.193,1.179 -1.778,1.783 -0.064,0.066 -0.094,0.164 -0.145,0.244 -0.12,0.191 -0.251,0.375 -0.363,0.571 -0.106,0.183 -0.196,0.377 -0.29,0.566 -0.152,0.304 -0.287,0.618 -0.457,0.91 -0.708,1.214 -0.888,2.548 -0.911,3.918 -0.002,0.129 0.054,0.257 0.075,0.386 0.013,0.076 0.044,0.192 0.008,0.225 -0.189,0.171 -0.094,0.354 -0.012,0.502 0.196,0.357 0.386,0.727 0.648,1.033 0.393,0.462 0.981,0.511 1.538,0.527 0.177,0.005 0.432,-0.157 0.528,-0.316 0.272,-0.456 0.492,-0.945 0.713,-1.429 0.175,-0.382 0.335,-0.771 0.477,-1.165 0.094,-0.262 0.074,-0.593 0.23,-0.796 0.22,-0.286 0.27,-0.621 0.411,-0.925 C -2.335,3.525 -2.035,2.62 -1.595,1.788 -1.285,1.202 -0.816,0.699 -0.402,0.172 -0.32,0.068 -0.166,0.021 -0.044,-0.052 -0.03,-0.035 -0.015,-0.018 0,0 m -8.851,-1.093 c -0.233,-0.053 -0.392,0.041 -0.539,0.222 -0.692,0.856 -1.024,1.885 -1.407,2.889 -0.065,0.17 -0.136,0.217 -0.336,0.202 0.048,-0.161 0.093,-0.3 0.129,-0.442 0.048,-0.202 0.061,-0.42 0.14,-0.609 0.171,-0.408 0.352,-0.815 0.574,-1.196 0.184,-0.315 0.439,-0.588 0.652,-0.887 0.133,-0.186 0.245,-0.386 0.367,-0.58 -0.021,-0.015 -0.042,-0.03 -0.062,-0.045 -0.785,0.356 -1.042,1.24 -1.72,1.703 0.008,0.023 0.013,0.046 0.02,0.07 0.108,0.008 0.216,0.016 0.37,0.028 -0.22,0.519 -0.437,1.023 -0.65,1.53 -0.121,0.29 -0.218,0.583 -0.134,0.906 0.02,0.075 0.027,0.157 0.02,0.234 -0.046,0.554 -0.12,1.106 -0.136,1.661 -0.009,0.289 0.082,0.582 0.128,0.873 0.035,-0.002 0.072,-0.003 0.107,-0.005 0.031,-0.14 0.082,-0.28 0.086,-0.421 0.009,-0.279 -0.012,-0.559 -0.014,-0.839 -0.004,-0.518 -0.007,-1.036 0.004,-1.554 0.002,-0.054 0.106,-0.151 0.16,-0.149 0.071,10e-4 0.159,0.068 0.202,0.132 0.029,0.042 -0.012,0.129 -0.012,0.195 -0.003,0.212 -0.129,0.444 0.105,0.621 0.031,-0.134 -0.005,-0.274 0.029,-0.393 0.182,-0.648 0.352,-1.302 0.583,-1.933 0.174,-0.473 0.408,-0.928 0.663,-1.364 0.18,-0.308 0.439,-0.57 0.661,-0.854 0.228,-0.138 0.368,-0.452 0.721,-0.353 0.025,0.006 0.097,-0.156 0.146,-0.24 -0.075,-0.017 -0.152,-0.05 -0.227,-0.047 -0.291,0.012 -0.449,0.238 -0.647,0.406 -0.132,0.111 -0.075,0.165 0.017,0.239 m 0.176,0.187 c -0.057,0.103 -0.103,0.192 -0.156,0.278 -0.321,0.528 -0.69,1.034 -0.957,1.588 -0.43,0.891 -0.574,1.869 -0.685,2.842 -0.05,0.445 -0.014,0.899 -0.002,1.349 0.002,0.092 0.067,0.181 0.096,0.255 0.066,-0.072 0.161,-0.125 0.166,-0.185 0.019,-0.212 0.01,-0.427 0.007,-0.64 -0.022,-1.562 0.332,-3.033 1.06,-4.414 0.032,-0.061 0.07,-0.12 0.115,-0.172 0.205,-0.239 0.414,-0.474 0.638,-0.73 -0.133,-0.081 -0.203,-0.123 -0.282,-0.171 M -5.156,9.891 -5.158,9.762 C -5.584,9.673 -6.012,9.587 -6.439,9.495 -6.571,9.467 -6.718,9.452 -6.83,9.384 -7.319,9.09 -7.697,8.664 -8.002,8.199 -8.244,7.831 -8.371,7.388 -8.55,6.978 -8.592,6.881 -8.644,6.789 -8.691,6.694 -8.716,6.707 -8.74,6.72 -8.764,6.734 c 0.094,0.578 0.26,1.136 0.561,1.642 0.598,1.007 1.487,1.544 2.66,1.593 0.127,0.006 0.258,-0.05 0.387,-0.078 m -6.332,-10.522 c -0.032,-0.019 -0.063,-0.039 -0.094,-0.058 -0.459,0.222 -0.745,0.633 -1.054,1.013 -0.047,0.057 0.011,0.198 0.021,0.301 0.101,-0.028 0.236,-0.024 0.298,-0.089 0.205,-0.213 0.394,-0.444 0.568,-0.683 0.106,-0.147 0.175,-0.322 0.261,-0.484 m 2.896,-1.483 c 0.01,0.025 0.021,0.049 0.031,0.074 0.08,-0.006 0.182,0.017 0.237,-0.024 0.392,-0.29 0.776,-0.589 1.156,-0.894 0.034,-0.028 0.021,-0.115 0.029,-0.174 -0.053,0.003 -0.121,-0.014 -0.158,0.013 -0.388,0.276 -0.772,0.559 -1.155,0.844 -0.056,0.042 -0.093,0.107 -0.14,0.161 m -0.235,-0.357 c 0.564,-0.334 1.143,-0.528 1.568,-0.984 -0.487,-0.033 -1.447,0.528 -1.568,0.984 m 0.447,8.687 c 0.036,0.042 0.1,0.117 0.163,0.192 C -8.183,6.367 -8.118,6.324 -8.119,6.284 -8.128,5.967 -8.146,5.65 -8.171,5.334 -8.175,5.291 -8.241,5.253 -8.278,5.212 -8.319,5.262 -8.394,5.31 -8.394,5.36 -8.4,5.628 -8.388,5.896 -8.38,6.216 M -7.72,6.75 C -7.685,6.744 -7.649,6.736 -7.614,6.729 -7.625,6.376 -7.631,6.024 -7.651,5.672 -7.653,5.638 -7.733,5.591 -7.783,5.583 -7.807,5.579 -7.871,5.65 -7.87,5.687 c 0.002,0.281 0.008,0.563 0.031,0.842 0.006,0.077 0.077,0.148 0.119,0.221 M -8.275,-3.584 c -0.015,-0.034 -0.029,-0.067 -0.044,-0.101 -0.196,0.078 -0.394,0.148 -0.583,0.24 -0.035,0.017 -0.03,0.116 -0.043,0.177 0.047,0.005 0.105,0.03 0.138,0.011 0.182,-0.103 0.356,-0.217 0.532,-0.327 m -3.144,9.757 c 0.098,0.091 0.167,0.153 0.234,0.215 0.023,-0.089 0.076,-0.184 0.062,-0.267 -0.012,-0.071 -0.101,-0.129 -0.156,-0.192 -0.04,0.071 -0.082,0.142 -0.14,0.244 m 4.651,-7.633 c -0.067,0.03 -0.125,0.041 -0.157,0.075 -0.088,0.096 -0.164,0.203 -0.246,0.305 0.044,0.017 0.112,0.06 0.127,0.046 0.108,-0.101 0.208,-0.212 0.305,-0.323 0.009,-0.01 -0.012,-0.047 -0.029,-0.103 m -1.931,-0.52 c -0.218,-0.06 -0.28,0.097 -0.341,0.237 -0.011,0.024 0.096,0.132 0.104,0.127 0.137,-0.081 0.294,-0.156 0.237,-0.364 m 0.837,7.366 c 0.037,0.016 0.075,0.032 0.112,0.048 0.153,-0.046 0.197,-0.165 0.168,-0.313 -0.005,-0.034 -0.086,-0.054 -0.132,-0.08 -0.05,0.115 -0.099,0.23 -0.148,0.345 m -3.532,-6.351 c 0.027,0.041 0.054,0.082 0.081,0.122 0.077,-0.045 0.16,-0.084 0.225,-0.142 0.011,-0.01 -0.056,-0.106 -0.087,-0.161 z" id="path327"/>
    </g>
    <g transform="translate(170.63,331.89)" id="g333">
      <path d="M 0,0 C -0.353,0.275 -0.711,0.531 -1.041,0.822 -1.192,0.955 -1.296,1.148 -1.402,1.325 -1.82,2.03 -2.457,2.551 -2.959,3.186 -3.68,4.097 -4.175,5.135 -4.699,6.159 -4.841,6.437 -4.947,6.733 -4.851,7.12 -4.788,7.016 -4.748,6.964 -4.724,6.906 -4.512,6.39 -4.331,5.858 -4.085,5.359 -3.87,4.923 -3.6,4.51 -3.322,4.108 -3.066,3.739 -2.774,3.395 -2.488,3.048 -2.244,2.75 -1.977,2.47 -1.739,2.169 -1.247,1.547 -0.682,1.005 -0.015,0.575 0.074,0.518 0.209,0.533 0.324,0.515 0.332,0.544 0.34,0.574 0.349,0.604 0.259,0.663 0.169,0.72 0.081,0.782 -0.143,0.941 -0.404,1.067 -0.58,1.267 -1.034,1.785 -1.444,2.34 -1.881,2.873 -2.083,3.12 -2.317,3.341 -2.517,3.59 -2.647,3.752 -2.741,3.943 -2.852,4.121 -3.21,4.698 -3.623,5.235 -3.87,5.887 c -0.168,0.441 -0.465,0.84 -0.743,1.229 -0.296,0.414 -0.403,0.82 -0.26,1.328 0.105,0.373 0.088,0.781 0.128,1.174 0.031,0.309 0.066,0.619 0.1,0.944 C -5.042,10.616 -5.027,10.305 -5.087,10.15 -5.205,9.852 -5.304,9.523 -5.302,9.208 -5.293,7.969 -5.383,6.716 -4.766,5.555 -3.876,3.88 -2.799,2.35 -1.435,1.027 -1.397,0.991 -1.373,0.941 -1.322,0.87 -1.627,0.845 -1.778,0.992 -1.977,1.152 c -0.421,0.339 -0.722,0.771 -1.05,1.178 -1.026,1.276 -1.89,2.653 -2.358,4.236 -0.367,1.244 -0.299,2.494 0.121,3.718 0.057,0.168 0.196,0.33 0.338,0.443 0.199,0.157 0.393,0.092 0.458,-0.15 0.051,-0.195 0.092,-0.426 0.038,-0.611 C -4.554,9.542 -4.479,9.126 -4.464,8.706 -4.459,8.552 -4.45,8.397 -4.443,8.268 -4.588,8.216 -4.792,8.167 -4.788,8.14 c 0.019,-0.189 0.082,-0.373 0.131,-0.559 0.027,0 0.054,0 0.081,10e-4 0.048,0.12 0.096,0.241 0.144,0.361 0.018,0 0.036,-10e-4 0.054,-10e-4 0.016,-0.086 0.039,-0.172 0.047,-0.26 0.052,-0.535 0.235,-1.013 0.55,-1.454 0.167,-0.234 0.247,-0.529 0.4,-0.775 C -2.985,4.816 -2.57,4.19 -2.162,3.561 -2.109,3.48 -2.042,3.409 -1.993,3.327 -1.688,2.813 -1.251,2.414 -0.817,2.022 -0.485,1.722 -0.103,1.475 0.262,1.213 0.336,1.16 0.435,1.146 0.57,1.096 0.302,1.491 0.031,1.794 -0.398,1.917 -0.481,1.941 -0.562,2.02 -0.615,2.093 c -0.393,0.536 -0.789,1.071 -1.164,1.619 -0.498,0.728 -1.007,1.45 -1.459,2.206 -0.785,1.315 -1.094,2.734 -0.809,4.261 0.071,0.38 -0.423,0.863 -0.804,0.802 C -5.334,10.904 -5.636,10.616 -5.769,10.154 -5.817,9.987 -5.842,9.811 -5.861,9.638 -5.918,9.116 -6.017,8.593 -6.002,8.073 -5.987,7.555 -5.921,7.02 -5.759,6.531 -5.49,5.72 -5.203,4.897 -4.782,4.159 -4.371,3.438 -3.783,2.817 -3.272,2.153 -3.178,2.03 -3.078,1.91 -2.982,1.789 -2.95,1.747 -2.93,1.677 -2.89,1.665 -2.477,1.533 -2.33,1.078 -1.958,0.9 -1.943,0.892 -1.931,0.876 -1.915,0.87 -1.332,0.662 -0.802,0.344 -0.257,0.058 -0.183,0.019 -0.088,0.019 0,0" id="path331"/>
    </g>
    <g transform="translate(170.69,334.56)" id="g337">
      <path d="M 0,0 C -0.04,0.078 -0.062,0.176 -0.123,0.231 -0.365,0.451 -0.464,0.738 -0.542,1.039 -0.544,1.048 -0.545,1.057 -0.549,1.064 -0.814,1.508 -1.078,1.952 -1.344,2.395 -1.375,2.446 -1.423,2.49 -1.445,2.545 -1.741,3.302 -2.034,4.06 -2.328,4.817 -2.334,4.833 -2.336,4.853 -2.347,4.866 -2.755,5.373 -2.779,6.027 -3.006,6.603 -3.227,7.158 -3.418,7.72 -3.833,8.17 -3.885,8.227 -3.899,8.32 -3.955,8.37 -4.036,8.444 -4.132,8.518 -4.234,8.547 -4.291,8.563 -4.373,8.485 -4.443,8.45 -4.396,8.377 -4.358,8.252 -4.3,8.241 -3.992,8.18 -3.925,7.957 -3.841,7.702 -3.741,7.391 -3.572,7.103 -3.451,6.797 -3.424,6.729 -3.473,6.631 -3.487,6.547 -3.54,6.608 -3.598,6.665 -3.642,6.73 -3.704,6.82 -3.754,6.917 -3.81,7.01 -3.841,7.001 -3.871,6.991 -3.902,6.982 -3.905,6.849 -3.912,6.715 -3.91,6.581 c 0.012,-0.989 0.274,-1.916 0.679,-2.81 0.162,-0.358 0.314,-0.721 0.47,-1.08 0.021,-0.048 0.036,-0.108 0.073,-0.138 0.527,-0.419 0.701,-1.082 1.105,-1.583 0.311,-0.385 0.651,-0.746 0.978,-1.118 0.088,-0.102 0.175,-0.205 0.3,-0.352 0.015,0.103 0.048,0.168 0.027,0.202 -0.16,0.26 -0.326,0.516 -0.497,0.769 -0.104,0.153 -0.252,0.283 -0.325,0.449 -0.164,0.379 -0.339,0.741 -0.692,0.985 -0.027,0.018 -0.045,0.053 -0.062,0.083 -0.672,1.307 -1.375,2.602 -1.733,4.043 -0.017,0.068 -0.056,0.148 -0.035,0.203 0.035,0.091 0.11,0.167 0.168,0.249 0.05,-0.07 0.122,-0.134 0.146,-0.213 C -3.144,5.727 -3.024,5.167 -2.821,4.64 -2.633,4.153 -2.376,3.69 -2.116,3.236 -1.54,2.237 -0.945,1.249 -0.351,0.261 -0.28,0.143 -0.164,0.052 -0.068,-0.052 -0.045,-0.035 -0.023,-0.018 0,0" id="path335"/>
    </g>
    <g transform="translate(158.62,336.81)" id="g341">
      <path d="m 0,0 c -0.066,0.427 -0.114,0.796 -0.183,1.161 -0.1,0.532 -0.077,1.051 0.02,1.586 0.324,1.785 1.117,3.376 1.951,4.958 0.337,0.642 0.762,1.17 1.393,1.538 0.292,0.17 0.558,0.385 0.836,0.58 C 4.003,9.85 3.989,9.876 3.976,9.904 3.736,9.798 3.474,9.724 3.26,9.58 2.884,9.328 2.525,9.048 2.187,8.749 2.066,8.643 2.04,8.439 1.946,8.295 1.123,7.022 0.381,5.709 -0.123,4.271 -0.536,3.09 -0.679,1.891 -0.395,0.659 -0.34,0.425 -0.292,0.185 0,0" id="path339"/>
    </g>
    <g transform="translate(159.96,350.25)" id="g345">
      <path d="M 0,0 C 0.234,0.084 0.467,0.171 0.702,0.25 1.106,0.387 1.51,0.521 1.916,0.654 1.965,0.67 2.024,0.685 2.071,0.672 2.696,0.496 3.275,0.803 3.878,0.851 c 1,0.08 1.959,0.003 2.919,-0.314 0.421,-0.139 0.871,-0.34 1.351,-0.208 0.023,0.006 0.053,0.002 0.077,-0.006 0.594,-0.208 1.192,-0.405 1.779,-0.632 0.413,-0.159 0.809,-0.36 1.211,-0.543 0.198,-0.09 0.378,-0.268 0.649,-0.117 -0.035,0.04 -0.054,0.083 -0.085,0.096 -0.667,0.292 -1.344,0.561 -2,0.876 C 8.794,0.476 7.701,0.507 6.677,0.817 6.545,0.857 6.422,0.925 6.289,0.959 6.098,1.01 5.902,1.074 5.708,1.074 4.87,1.073 4.032,1.051 3.194,1.035 2.416,1.02 1.666,0.877 0.954,0.549 0.781,0.469 0.584,0.439 0.408,0.365 0.245,0.297 0.093,0.201 -0.063,0.116 -0.042,0.077 -0.021,0.039 0,0" id="path343"/>
    </g>
    <g transform="translate(165.46,351.54)" id="g349">
      <path d="M 0,0 C 0.017,-0.002 0.038,-0.011 0.051,-0.005 0.766,0.344 1.5,0.263 2.245,0.114 2.436,0.076 2.642,0.123 2.84,0.11 3.413,0.071 3.958,-0.059 4.472,-0.338 4.755,-0.492 5.083,-0.564 5.39,-0.673 5.407,-0.642 5.425,-0.611 5.442,-0.58 5.403,-0.535 5.368,-0.488 5.325,-0.448 5.309,-0.433 5.273,-0.442 5.25,-0.432 4.775,-0.229 4.301,-0.025 3.826,0.177 3.777,0.198 3.729,0.221 3.678,0.228 2.92,0.317 2.175,0.495 1.396,0.42 0.979,0.38 0.547,0.474 0.125,0.525 -0.089,0.551 -0.296,0.648 -0.495,0.469 -0.543,0.426 -0.651,0.419 -0.722,0.436 -1.254,0.56 -1.776,0.463 -2.3,0.374 -2.593,0.325 -2.889,0.296 -3.184,0.258 -3.192,0.257 -3.202,0.26 -3.209,0.257 -3.895,0.052 -4.58,-0.153 -5.275,-0.36 c 0.131,-0.276 0.249,-0.294 0.431,-0.173 0.179,0.119 0.377,0.239 0.582,0.283 0.74,0.16 1.47,0.367 2.241,0.367 0.362,0 0.727,0.156 1.086,0.141 C -0.682,0.247 -0.431,0.181 -0.168,0.212 -0.122,0.218 -0.057,0.075 0,0" id="path347"/>
    </g>
    <g transform="translate(167.31,347.96)" id="g353">
      <path d="M 0,0 C -0.414,0.088 -0.827,0.25 -1.241,0.248 -1.999,0.244 -2.774,0.223 -3.512,0.069 c -1.677,-0.35 -3.14,-1.13 -4.36,-2.366 -0.686,-0.695 -1.177,-1.505 -1.652,-2.341 -0.229,-0.404 -0.53,-0.767 -0.765,-1.168 -0.103,-0.174 -0.118,-0.398 -0.173,-0.599 0.028,-0.009 0.056,-0.018 0.084,-0.027 0.079,0.169 0.143,0.346 0.24,0.504 0.106,0.171 0.252,0.318 0.363,0.488 0.063,0.098 0.078,0.228 0.138,0.329 0.403,0.666 0.802,1.334 1.226,1.985 0.114,0.175 0.317,0.292 0.478,0.436 0.254,0.226 0.519,0.442 0.759,0.682 0.304,0.307 0.619,0.585 1.03,0.75 0.232,0.093 0.447,0.242 0.651,0.391 0.335,0.247 0.703,0.406 1.101,0.516 0.871,0.239 1.742,0.478 2.658,0.422 0.338,-0.021 0.674,-0.096 1.012,-0.136 0.237,-0.028 0.475,-0.039 0.713,-0.057 C -0.006,-0.081 -0.003,-0.041 0,0" id="path351"/>
    </g>
    <g transform="translate(160.57,348.98)" id="g357">
      <path d="M 0,0 C 0.128,-0.115 0.204,-0.181 0.297,-0.265 -0.874,-0.459 -1.572,-1.252 -2.296,-2.009 -1.123,-1.14 0.082,-0.334 1.544,0.01 1.529,0.044 1.515,0.079 1.5,0.114 1.37,0.089 1.236,0.071 1.108,0.036 0.948,-0.008 0.794,-0.077 0.633,-0.113 0.551,-0.132 0.458,-0.102 0.37,-0.094 0.427,-0.034 0.473,0.057 0.543,0.082 1.116,0.281 1.695,0.464 2.27,0.66 2.523,0.747 2.768,0.865 3.022,0.948 3.209,1.009 3.404,1.056 3.599,1.076 4.265,1.147 4.933,1.203 5.6,1.265 5.608,1.265 5.618,1.263 5.626,1.262 6.6,1.093 7.576,0.931 8.547,0.747 8.717,0.715 8.867,0.583 9.029,0.505 9.085,0.478 9.155,0.457 9.213,0.466 9.247,0.47 9.302,0.554 9.291,0.578 9.271,0.627 9.216,0.687 9.167,0.695 8.506,0.806 7.921,1.193 7.22,1.187 6.864,1.184 6.509,1.347 6.15,1.414 5.983,1.445 5.807,1.433 5.636,1.423 5.357,1.405 5.079,1.346 4.801,1.352 3.968,1.37 3.176,1.18 2.396,0.918 1.768,0.707 1.142,0.489 0.52,0.262 0.345,0.198 0.184,0.094 0,0" id="path355"/>
    </g>
    <g transform="translate(168.29,331.45)" id="g361">
      <path d="M 0,0 C -0.209,0.117 -0.4,0.218 -0.585,0.329 -1.823,1.071 -2.681,2.167 -3.39,3.389 -3.651,3.841 -3.853,4.327 -4.077,4.801 -4.216,5.098 -4.35,5.396 -4.641,5.642 -4.67,5.201 -4.552,4.842 -4.391,4.491 -4.165,4 -3.987,3.479 -3.704,3.023 -3.417,2.561 -3.068,2.116 -2.671,1.744 -2.095,1.202 -1.45,0.733 -0.835,0.231 -0.716,0.134 -0.599,0.035 -0.492,-0.074 -0.361,-0.207 -0.195,-0.195 0,0" id="path359"/>
    </g>
    <g transform="translate(173.64,340.23)" id="g365">
      <path d="m 0,0 c 0.059,0.279 0.24,0.494 -0.087,0.636 -0.025,0.011 -0.046,0.055 -0.052,0.087 -0.154,0.788 -0.528,1.489 -0.936,2.16 -0.203,0.336 -0.567,0.578 -0.865,0.855 -0.212,0.197 -0.437,0.381 -0.655,0.573 -0.293,0.258 -0.586,0.518 -0.877,0.78 -0.135,0.121 -0.259,0.259 -0.403,0.37 -0.442,0.34 -0.884,0.681 -1.343,0.997 -0.136,0.094 -0.333,0.094 -0.492,0.159 -0.201,0.082 -0.392,0.188 -0.588,0.282 -0.038,0.018 -0.087,0.046 -0.121,0.036 -0.079,-0.022 -0.15,-0.065 -0.225,-0.1 0.06,-0.05 0.111,-0.119 0.179,-0.147 0.442,-0.182 0.921,-0.3 1.325,-0.542 C -4.441,5.728 -3.794,5.232 -3.248,4.611 -3.028,4.36 -2.715,4.192 -2.476,3.954 -2.17,3.65 -1.888,3.321 -1.61,2.991 -1.387,2.727 -1.179,2.449 -0.976,2.168 -0.901,2.065 -0.815,1.939 -0.81,1.82 -0.785,1.255 -0.427,0.835 -0.206,0.356 -0.159,0.257 -0.096,0.165 0,0" id="path363"/>
    </g>
    <g transform="translate(157.7,345.32)" id="g369">
      <path d="M 0,0 C 0.048,0.047 0.101,0.091 0.141,0.143 0.972,1.217 2.07,1.959 3.238,2.605 3.898,2.971 4.599,3.238 5.341,3.427 5.845,3.555 6.329,3.74 6.857,3.765 7.597,3.801 8.326,3.729 9.046,3.565 9.455,3.472 9.858,3.36 10.265,3.259 10.309,3.248 10.357,3.253 10.425,3.249 10.176,3.585 9.817,3.617 9.48,3.678 8.834,3.793 8.187,3.907 7.536,3.985 7.33,4.01 7.11,3.921 6.897,3.885 6.408,3.802 5.91,3.754 5.431,3.631 4.111,3.29 2.797,2.891 1.727,2.016 1.377,1.73 0.937,1.473 0.739,1.01 0.708,0.938 0.61,0.896 0.543,0.84 0.282,0.617 0.051,0.373 0,0" id="path367"/>
    </g>
    <g transform="translate(161.03,351.86)" id="g373">
      <path d="M 0,0 C 0.097,0.022 0.194,0.047 0.292,0.066 1.725,0.345 3.153,0.664 4.621,0.704 4.775,0.708 4.932,0.668 5.087,0.659 5.29,0.647 5.495,0.658 5.696,0.637 5.92,0.613 6.144,0.569 6.366,0.523 6.863,0.42 7.356,0.302 7.872,0.414 7.924,0.425 7.991,0.34 8.058,0.319 8.151,0.289 8.25,0.263 8.348,0.263 c 0.03,0 0.096,0.118 0.084,0.132 C 8.371,0.469 8.297,0.57 8.214,0.583 7.955,0.627 7.687,0.623 7.426,0.661 7.09,0.71 6.76,0.795 6.424,0.838 6.255,0.859 6.078,0.811 5.904,0.809 5.741,0.808 5.578,0.83 5.415,0.835 4.936,0.85 4.457,0.891 3.98,0.868 2.95,0.818 1.917,0.762 0.924,0.433 0.605,0.326 0.291,0.204 -0.026,0.089 -0.017,0.059 -0.009,0.03 0,0" id="path371"/>
    </g>
    <g transform="translate(165.91,348.58)" id="g377">
      <path d="M 0,0 C -0.18,0.191 -0.369,0.223 -0.572,0.202 -0.875,0.172 -1.18,0.142 -1.482,0.098 -3.916,-0.257 -6.024,-1.197 -7.509,-3.26 -7.651,-3.458 -7.827,-3.631 -7.972,-3.828 -8.063,-3.951 -8.125,-4.094 -8.163,-4.254 -6.099,-1.587 -3.535,0.084 0,0" id="path375"/>
    </g>
    <g transform="translate(158.86,348.19)" id="g381">
      <path d="m 0,0 c 0.356,0.046 0.582,0.238 0.806,0.443 0.112,0.102 0.24,0.192 0.369,0.274 0.345,0.22 0.693,0.438 1.044,0.649 0.124,0.074 0.256,0.143 0.393,0.185 0.909,0.281 1.811,0.597 2.736,0.811 0.471,0.109 0.985,0.029 1.48,0.041 0.08,0.002 0.162,0.03 0.238,0.06 C 7.08,2.469 7.083,2.565 7.064,2.578 7.002,2.619 6.926,2.668 6.857,2.665 6.356,2.641 5.853,2.622 5.354,2.566 4.812,2.504 4.271,2.414 3.735,2.311 3.598,2.285 3.485,2.154 3.351,2.092 3.001,1.93 2.645,1.783 2.294,1.624 2.075,1.525 1.856,1.423 1.645,1.309 1.328,1.136 1.003,0.97 0.707,0.766 0.466,0.601 0.26,0.387 0.043,0.187 0.014,0.161 0.02,0.095 0,0" id="path379"/>
    </g>
    <g transform="translate(166.1,348.48)" id="g385">
      <path d="m 0,0 c 0.118,-0.032 0.235,-0.072 0.355,-0.095 0.43,-0.08 0.882,-0.097 1.287,-0.244 1.015,-0.368 2.053,-0.703 2.909,-1.407 0.387,-0.318 0.851,-0.574 1.153,-0.957 0.441,-0.561 1.094,-0.941 1.376,-1.634 0.034,-0.086 0.15,-0.139 0.229,-0.207 0.025,0.016 0.05,0.032 0.076,0.048 C 7.362,-4.415 7.358,-4.319 7.312,-4.255 7.16,-4.042 7.006,-3.829 6.83,-3.637 5.671,-2.376 4.45,-1.19 2.799,-0.583 2.146,-0.343 1.476,-0.142 0.808,0.056 0.602,0.117 0.375,0.114 0.159,0.129 0.108,0.133 0.056,0.092 0.004,0.071 0.002,0.047 0.001,0.024 0,0" id="path383"/>
    </g>
    <g transform="translate(170.22,346.45)" id="g389">
      <path d="m 0,0 c 0.099,-0.103 0.192,-0.211 0.296,-0.309 0.441,-0.413 0.919,-0.794 1.32,-1.243 0.367,-0.411 0.664,-0.887 0.971,-1.349 0.245,-0.37 0.454,-0.763 0.682,-1.144 0.056,-0.093 0.126,-0.177 0.227,-0.318 0.025,0.122 0.062,0.186 0.044,0.227 -0.228,0.526 -0.378,1.1 -0.876,1.467 -0.041,0.03 -0.083,0.076 -0.095,0.123 C 2.431,-2.027 2.01,-1.707 1.687,-1.327 1.396,-0.985 1.03,-0.706 0.696,-0.401 0.569,-0.285 0.44,-0.171 0.307,-0.063 0.236,-0.007 0.153,0.032 0.076,0.079 0.051,0.053 0.025,0.026 0,0" id="path387"/>
    </g>
    <g transform="translate(162.64,349.16)" id="g393">
      <path d="M 0,0 C 0.234,0.053 0.47,0.102 0.704,0.159 1.618,0.381 2.545,0.583 3.48,0.408 4.199,0.274 4.897,0.032 5.597,-0.188 6.069,-0.336 6.528,-0.529 6.992,-0.701 7.003,-0.673 7.014,-0.646 7.025,-0.618 6.746,-0.513 6.461,-0.421 6.189,-0.301 5.832,-0.143 5.485,0.04 5.13,0.205 5.037,0.249 4.928,0.258 4.829,0.293 4.605,0.374 4.385,0.465 4.161,0.543 4.03,0.588 3.891,0.653 3.758,0.646 2.896,0.592 2.03,0.548 1.174,0.443 0.766,0.393 0.374,0.214 -0.025,0.094 -0.017,0.062 -0.008,0.031 0,0" id="path391"/>
    </g>
    <g transform="translate(157.02,339.05)" id="g397">
      <path d="m 0,0 c 0.034,0.362 0.043,0.649 0.089,0.931 0.15,0.916 0.619,1.7 1.055,2.498 C 1.354,3.813 1.541,4.208 1.75,4.591 1.896,4.859 2.069,5.113 2.219,5.38 2.283,5.494 2.318,5.625 2.367,5.748 2.344,5.761 2.321,5.773 2.298,5.786 2.148,5.586 1.969,5.401 1.853,5.183 1.375,4.281 0.912,3.369 0.449,2.458 0.264,2.093 0.092,1.721 -0.083,1.35 -0.112,1.287 -0.136,1.216 -0.136,1.148 -0.138,0.836 -0.135,0.525 -0.123,0.213 -0.121,0.163 -0.068,0.114 0,0" id="path395"/>
    </g>
    <g transform="translate(170.79,350.4)" id="g401">
      <path d="M 0,0 C -1.086,0.745 -3.551,1.216 -4.244,0.981 -4.146,0.944 -4.05,0.892 -3.948,0.873 -3.641,0.815 -3.332,0.771 -3.022,0.721 -2.997,0.717 -2.969,0.7 -2.946,0.705 -2.251,0.846 -1.713,0.415 -1.113,0.208 -0.803,0.101 -0.478,0.035 -0.158,-0.044 -0.125,-0.052 -0.081,-0.024 0,0" id="path399"/>
    </g>
    <g transform="translate(161.32,330.89)" id="g405">
      <path d="M 0,0 C -0.08,0.072 -0.149,0.162 -0.241,0.212 -0.708,0.473 -1.181,0.726 -1.654,0.976 -1.785,1.045 -1.93,1.085 -2.06,1.156 -2.155,1.207 -2.23,1.293 -2.323,1.349 -2.39,1.391 -2.472,1.409 -2.546,1.437 -2.571,1.35 -2.596,1.262 -2.62,1.174 -2.542,1.154 -2.465,1.127 -2.385,1.115 -2.36,1.111 -2.328,1.146 -2.324,1.147 -1.964,0.874 -1.64,0.58 -1.271,0.36 -0.907,0.143 -0.53,-0.09 0,0" id="path403"/>
    </g>
    <g transform="translate(171.94,344.2)" id="g409">
      <path d="M 0,0 C -0.309,0.702 -2.479,2.513 -3.1,2.574 -1.862,1.96 -1.084,0.801 0,0" id="path407"/>
    </g>
    <g transform="translate(171.45,338.35)" id="g413">
      <path d="m 0,0 c 0.117,-0.341 0.205,-0.696 0.358,-1.02 0.213,-0.448 0.469,-0.875 0.72,-1.302 0.034,-0.06 0.143,-0.08 0.221,-0.104 0.011,-0.004 0.078,0.093 0.066,0.115 -0.111,0.204 -0.237,0.399 -0.35,0.602 -0.148,0.264 -0.301,0.527 -0.429,0.801 -0.085,0.18 -0.113,0.387 -0.2,0.567 C 0.315,-0.197 0.195,-0.076 0.097,0.055 0.064,0.037 0.032,0.019 0,0" id="path411"/>
    </g>
    <g transform="translate(158.09,335.46)" id="g417">
      <path d="M 0,0 C -0.017,0.081 -0.024,0.167 -0.055,0.243 -0.301,0.857 -0.581,1.46 -0.79,2.087 -0.903,2.425 -0.897,2.802 -0.951,3.16 -0.963,3.238 -0.987,3.32 -1.031,3.383 -1.043,3.402 -1.176,3.381 -1.19,3.35 -1.221,3.284 -1.228,3.195 -1.211,3.123 -1.144,2.833 -1.074,2.544 -0.985,2.261 -0.898,1.978 -0.786,1.703 -0.69,1.423 -0.651,1.309 -0.633,1.187 -0.59,1.075 -0.507,0.86 -0.413,0.649 -0.324,0.435 -0.292,0.357 -0.271,0.272 -0.233,0.197 -0.19,0.112 -0.133,0.035 -0.082,-0.045 -0.055,-0.03 -0.027,-0.015 0,0" id="path415"/>
    </g>
    <g transform="translate(159.27,349.15)" id="g421">
      <path d="M 0,0 C 0.119,0.059 0.241,0.115 0.358,0.178 0.948,0.496 1.534,0.82 2.128,1.13 2.23,1.183 2.369,1.163 2.485,1.194 2.617,1.228 2.744,1.282 2.861,1.356 2.231,1.462 0.12,0.494 0,0" id="path419"/>
    </g>
    <g transform="translate(170.56,348.59)" id="g425">
      <path d="M 0,0 C -0.326,0.199 -0.649,0.402 -0.979,0.593 -1.067,0.643 -1.18,0.646 -1.277,0.682 -1.589,0.795 -1.895,0.926 -2.21,1.028 -2.465,1.111 -2.729,1.17 -2.992,1.225 -3.063,1.24 -3.144,1.2 -3.223,1.146 -2.081,0.919 -1.06,0.385 0,0" id="path423"/>
    </g>
    <g transform="translate(163.42,353.06)" id="g429">
      <path d="M 0,0 C 0.249,0.038 0.497,0.082 0.746,0.112 0.979,0.14 1.213,0.152 1.446,0.171 1.698,0.193 1.963,0.175 2.201,0.404 2.066,0.433 1.967,0.479 1.873,0.47 1.515,0.436 1.156,0.397 0.801,0.336 0.525,0.289 0.254,0.206 -0.019,0.138 -0.013,0.092 -0.006,0.046 0,0" id="path427"/>
    </g>
    <g transform="translate(172.25,348.26)" id="g433">
      <path d="M 0,0 C -0.055,0.251 -0.274,0.372 -0.477,0.471 -0.887,0.673 -1.313,0.843 -1.737,1.019 -1.86,1.07 -1.993,1.099 -2.122,1.138 -2.134,1.103 -2.146,1.067 -2.159,1.032 -1.666,0.808 -1.17,0.589 -0.68,0.357 -0.56,0.3 -0.459,0.202 -0.348,0.125 -0.252,0.057 -0.154,-0.008 -0.057,-0.073 -0.038,-0.049 -0.02,-0.025 0,0" id="path431"/>
    </g>
    <g transform="translate(168.23,348.52)" id="g437">
      <path d="m 0,0 c 0.727,-0.317 1.41,-0.616 2.106,-0.92 -0.015,0.036 -0.02,0.083 -0.042,0.094 -0.32,0.158 -0.525,0.5 -0.937,0.526 -0.18,0.011 -0.365,0.144 -0.523,0.257 C 0.419,0.089 0.247,0.117 0,0" id="path435"/>
    </g>
    <g transform="translate(166.41,353.29)" id="g441">
      <path d="m 0,0 c 0.221,-0.028 0.4,-0.047 0.579,-0.073 0.265,-0.04 0.529,-0.091 0.794,-0.125 0.075,-0.01 0.154,0.023 0.274,0.043 C 1.289,0.156 0.24,0.26 0,0" id="path439"/>
    </g>
    <g transform="translate(167.47,330.72)" id="g445">
      <path d="M 0,0 C 0.11,-0.268 0.239,-0.475 0.596,-0.496 0.801,-0.508 0.993,-0.692 1.2,-0.778 1.312,-0.825 1.441,-0.832 1.565,-0.85 1.572,-0.851 1.602,-0.77 1.597,-0.767 1.492,-0.703 1.389,-0.632 1.276,-0.588 0.993,-0.478 0.696,-0.4 0.423,-0.27 0.284,-0.204 0.184,-0.052 0.066,0.061 0.044,0.041 0.022,0.02 0,0" id="path443"/>
    </g>
    <g transform="translate(166.93,347.52)" id="g449">
      <path d="M 0,0 C -0.464,0.307 -0.949,0.319 -1.447,0.108 -0.958,0.159 -0.503,-0.22 0,0" id="path447"/>
    </g>
    <g transform="translate(171.07,347.1)" id="g453">
      <path d="M 0,0 C 0.356,-0.287 0.712,-0.573 1.109,-0.892 1.066,-0.543 0.394,0.022 0.051,0.062 0.034,0.041 0.017,0.021 0,0" id="path451"/>
    </g>
    <g transform="translate(171.69,333.51)" id="g457">
      <path d="M 0,0 C -0.223,0.265 -0.443,0.533 -0.673,0.792 -0.706,0.828 -0.793,0.816 -0.854,0.826 -0.851,0.755 -0.875,0.655 -0.838,0.619 -0.59,0.378 -0.33,0.151 -0.073,-0.081 -0.048,-0.054 -0.024,-0.027 0,0" id="path455"/>
    </g>
    <g transform="translate(173.4,345.23)" id="g461">
      <path d="M 0,0 C -0.111,0.115 -0.224,0.228 -0.331,0.345 -0.458,0.485 -0.574,0.636 -0.709,0.767 -0.768,0.823 -0.862,0.858 -0.943,0.866 -0.977,0.869 -1.06,0.756 -1.047,0.725 -1.021,0.656 -0.954,0.598 -0.891,0.552 -0.735,0.436 -0.569,0.334 -0.415,0.215 -0.297,0.124 -0.192,0.016 -0.081,-0.084 L 0,0" id="path459"/>
    </g>
    <g transform="translate(168.68,347.41)" id="g465">
      <path d="M 0,0 C 0.038,-0.06 0.062,-0.148 0.115,-0.174 0.494,-0.355 0.88,-0.524 1.276,-0.682 0.968,-0.296 0.513,-0.135 0,0" id="path463"/>
    </g>
    <g transform="translate(168.38,347.53)" id="g469">
      <path d="M 0,0 C -0.154,0.256 -0.422,0.36 -0.852,0.344 -0.833,0.101 -0.488,-0.043 0,0" id="path467"/>
    </g>
    <g transform="translate(170.82,348.39)" id="g473">
      <path d="M 0,0 C 0.411,-0.25 0.822,-0.5 1.233,-0.751 0.924,-0.333 0.521,-0.067 0,0" id="path471"/>
    </g>
    <g transform="translate(167.33,347.44)" id="g477">
      <path d="m 0,0 c 0.387,-0.143 0.774,-0.286 1.161,-0.428 0.012,0.035 0.025,0.07 0.037,0.105 C 0.808,-0.195 0.481,0.113 0,0" id="path475"/>
    </g>
    <g transform="translate(162.97,337.41)" id="g481">
      <path d="M 0,0 C 0.015,0.068 0.047,0.139 0.04,0.205 0.023,0.356 -0.003,0.508 -0.046,0.653 -0.062,0.708 -0.133,0.745 -0.18,0.791 -0.221,0.745 -0.303,0.691 -0.296,0.655 -0.251,0.428 -0.187,0.207 -0.129,-0.017 -0.086,-0.011 -0.043,-0.006 0,0" id="path479"/>
    </g>
    <g transform="translate(157.19,343.43)" id="g485">
      <path d="M 0,0 C 0.288,0.103 0.493,0.399 0.452,0.605 0.441,0.656 0.396,0.713 0.351,0.737 0.328,0.75 0.245,0.704 0.231,0.669 0.152,0.462 0.085,0.25 0,0" id="path483"/>
    </g>
    <g transform="translate(166.2,329.7)" id="g489">
      <path d="M 0,0 C 0.29,-0.062 0.545,-0.116 0.828,-0.176 0.664,0.027 0.24,0.117 0,0" id="path487"/>
    </g>
    <g transform="translate(166.69,331.31)" id="g493">
      <path d="M 0,0 C -0.018,-0.326 0.136,-0.432 0.537,-0.417 0.331,-0.257 0.166,-0.128 0,0" id="path491"/>
    </g>
    <g transform="translate(170.8,350.31)" id="g497">
      <path d="M 0,0 C 0.141,-0.12 0.226,-0.207 0.325,-0.271 0.375,-0.302 0.455,-0.307 0.516,-0.295 0.552,-0.288 0.609,-0.206 0.6,-0.19 0.571,-0.136 0.521,-0.07 0.468,-0.058 0.328,-0.027 0.181,-0.021 0,0" id="path495"/>
    </g>
    <g transform="translate(165.93,353.29)" id="g501">
      <path d="m 0,0 c 0.12,-0.01 0.238,-0.02 0.356,-0.029 0,0.078 0,0.156 -0.001,0.235 C 0.236,0.191 0.116,0.178 -0.004,0.164 -0.003,0.109 -0.001,0.055 0,0" id="path499"/>
    </g>
    <g transform="translate(170.83,347.81)" id="g505">
      <path d="M 0,0 C 0.179,-0.107 0.359,-0.215 0.538,-0.322 0.562,-0.285 0.585,-0.248 0.609,-0.21 0.432,-0.1 0.255,0.009 0.079,0.119 0.052,0.079 0.026,0.04 0,0" id="path503"/>
    </g>
    <g transform="translate(172.59,346.5)" id="g509">
      <path d="m 0,0 c 0.154,-0.118 0.307,-0.236 0.46,-0.353 l 0.083,0.105 C 0.394,-0.129 0.244,-0.01 0.094,0.11 0.062,0.073 0.031,0.036 0,0" id="path507"/>
    </g>
    <g transform="translate(170.59,348.09)" id="g513">
      <path d="M 0,0 -0.3,0.15 C -0.324,0.101 -0.347,0.052 -0.371,0.002 -0.269,-0.044 -0.167,-0.09 -0.064,-0.135 -0.043,-0.09 -0.022,-0.045 0,0" id="path511"/>
    </g>
    <g transform="translate(165.87,346.76)" id="g517">
      <path d="M 0,0 C 0.217,-0.023 0.432,-0.045 0.648,-0.068 0.65,-0.043 0.653,-0.019 0.656,0.006 0.437,0.03 0.22,0.054 0.001,0.078 0.001,0.052 0.001,0.026 0,0" id="path515"/>
    </g>
  </g></svg>