<svg
   xmlns:dc="http://purl.org/dc/elements/1.1/"
   xmlns:cc="http://creativecommons.org/ns#"
   xmlns:rdf="http://www.w3.org/1999/02/22-rdf-syntax-ns#"
   xmlns:svg="http://www.w3.org/2000/svg"
   xmlns="http://www.w3.org/2000/svg"
   xmlns:sodipodi="http://sodipodi.sourceforge.net/DTD/sodipodi-0.dtd"
   xmlns:inkscape="http://www.inkscape.org/namespaces/inkscape"
   inkscape:version="1.0 (4035a4fb49, 2020-05-01)"
   sodipodi:docname="all_stacked (copy).svg"
   id="svg2899"
   viewBox="0 0 6.7021 13.579"
   version="1.1"
   height="13.579mm"
   width="6.7021mm"><g xmlns="http://www.w3.org/2000/svg" transform="translate(-34.997,-129.641)" id="g777">
    <g transform="matrix(0.35278,0,0,-0.35278,36.552,138.36)" id="g767">
      <path d="M 0,0 V -1.494 H 10.177 V 0 H 5.088 Z" id="path765"/>
    </g>
    <g transform="matrix(0.35278,0,0,-0.35278,-72.439,292.96)" id="g775">
      <g clip-path="url(#clipPath1435)" id="g773">
        <g transform="translate(320.58,444.4)" id="g771">
          <path d="m 0,0 c 0,0 -0.282,1.115 -0.823,0.455 -0.541,-0.661 0.282,-1.451 0.282,-1.451 0,0 -0.769,-1.895 -1.665,-1.256 -0.895,0.639 -0.653,2.187 -0.653,2.187 0,0 0.379,-0.108 0.607,0.65 0.227,0.758 -0.455,1.147 -0.455,1.147 0,0 -0.66,-0.086 -0.823,-0.671 -0.162,-0.585 0.325,-0.953 0.325,-0.953 0,0 -0.325,-1.451 -1.592,-1.234 -0.988,0.169 -1.202,1.247 -1.248,1.713 0.661,0.04 1.184,0.588 1.184,1.258 0,0.575 -0.385,1.06 -0.911,1.212 0.071,0.279 0.109,0.572 0.109,0.874 0,0.893 -0.331,1.708 -0.876,2.331 -0.546,-0.623 -0.877,-1.438 -0.877,-2.331 0,-0.296 0.037,-0.584 0.105,-0.859 -0.556,-0.131 -0.971,-0.63 -0.971,-1.227 0,-0.692 0.558,-1.253 1.248,-1.26 -0.047,-0.467 -0.261,-1.542 -1.248,-1.711 -1.267,-0.217 -1.591,1.234 -1.591,1.234 0,0 0.487,0.368 0.324,0.953 -0.162,0.585 -0.823,0.671 -0.823,0.671 0,0 -0.682,-0.389 -0.454,-1.147 0.227,-0.758 0.606,-0.65 0.606,-0.65 0,0 0.243,-1.548 -0.653,-2.187 -0.895,-0.639 -1.664,1.256 -1.664,1.256 0,0 0.823,0.79 0.281,1.451 C -12.797,1.115 -13.078,0 -13.078,0 c 0,0 -0.553,1.115 -1.257,0.736 0,0 2.686,-3.995 2.686,-6.453 h 10.22 c 0,2.458 2.685,6.453 2.685,6.453 C 0.552,1.115 0,0 0,0" id="path769"/>
        </g>
      </g>
    </g>
  </g></svg>