<svg
   xmlns:dc="http://purl.org/dc/elements/1.1/"
   xmlns:cc="http://creativecommons.org/ns#"
   xmlns:rdf="http://www.w3.org/1999/02/22-rdf-syntax-ns#"
   xmlns:svg="http://www.w3.org/2000/svg"
   xmlns="http://www.w3.org/2000/svg"
   xmlns:sodipodi="http://sodipodi.sourceforge.net/DTD/sodipodi-0.dtd"
   xmlns:inkscape="http://www.inkscape.org/namespaces/inkscape"
   inkscape:version="1.0 (4035a4fb49, 2020-05-01)"
   sodipodi:docname="all_stacked (copy).svg"
   id="svg2899"
   viewBox="0 0 6.7021 13.579"
   version="1.1"
   height="13.579mm"
   width="6.7021mm"><g xmlns="http://www.w3.org/2000/svg" transform="translate(-90.073,-206.866)" id="g1653">
    <g transform="matrix(0.35278,0,0,-0.35278,35.597,307.03)" id="g1613">
      <g clip-path="url(#clipPath26142)" id="g1611">
        <g transform="translate(163.87,264.58)" id="g1589">
          <path d="M 0,0 C -0.012,0.005 -1.245,0.561 -2.46,1.441 -3.178,1.96 -3.75,2.49 -4.162,3.015 -4.685,3.683 -4.95,4.348 -4.95,4.991 V 5.059 8.734 H 5.053 V 4.98 C 5.05,4.34 4.785,3.679 4.264,3.015 3.853,2.49 3.28,1.96 2.563,1.441 1.348,0.561 0.115,0.005 0.103,0 L 0.051,-0.023 Z" fill="#ffffff" id="path1587"/>
        </g>
        <g transform="translate(169.02,273.41)" id="g1593">
          <path d="m 0,0 h -10.208 v -3.984 h 0.003 c 0.035,-0.625 0.306,-1.266 0.808,-1.906 0.417,-0.532 0.996,-1.067 1.719,-1.59 1.22,-0.883 2.421,-1.424 2.472,-1.446 l 0.102,-0.046 0.102,0.046 c 0.051,0.022 1.251,0.563 2.472,1.446 0.723,0.523 1.301,1.058 1.718,1.59 0.502,0.64 0.774,1.281 0.808,1.906 H 0 v 3.734 z m -0.25,-0.25 v -3.484 h -0.002 c 0.001,-0.038 0.002,-0.076 0.002,-0.114 0,-2.678 -4.854,-4.85 -4.854,-4.85 0,0 -4.854,2.172 -4.854,4.85 0,0.038 10e-4,0.076 0.002,0.114 h -0.002 v 3.484 z" id="path1591"/>
        </g>
        <g transform="translate(169.02,273.41)" id="g1597">
          <path d="m 0,0 h -10.208 v -3.984 h 0.003 c 0.035,-0.625 0.306,-1.266 0.808,-1.906 0.417,-0.532 0.996,-1.067 1.719,-1.59 1.22,-0.883 2.421,-1.424 2.472,-1.446 l 0.102,-0.046 0.102,0.046 c 0.051,0.022 1.251,0.563 2.472,1.446 0.723,0.523 1.301,1.058 1.718,1.59 0.502,0.64 0.774,1.281 0.808,1.906 H 0 v 3.734 z m -0.25,-0.25 v -3.484 h -0.002 c 0.001,-0.038 0.002,-0.076 0.002,-0.114 0,-2.678 -4.854,-4.85 -4.854,-4.85 0,0 -4.854,2.172 -4.854,4.85 0,0.038 10e-4,0.076 0.002,0.114 h -0.002 v 3.484 z" fill="none" stroke="#000000" stroke-miterlimit="10" stroke-width="0.25" id="path1595"/>
        </g>
        <g transform="translate(158.92,256.07)" id="g1601">
          <path d="M 0,0 V 3.754 C 0.003,4.394 0.268,5.055 0.789,5.719 1.2,6.244 1.773,6.774 2.49,7.293 3.705,8.173 4.938,8.729 4.95,8.734 L 5.002,8.757 5.053,8.734 C 5.065,8.729 6.298,8.173 7.513,7.293 8.231,6.774 8.803,6.244 9.215,5.719 9.738,5.051 10.003,4.386 10.003,3.743 V 3.675 0 Z" fill="#ffffff" id="path1599"/>
        </g>
        <g transform="translate(163.92,264.94)" id="g1605">
          <path d="M 0,0 -0.102,-0.046 C -0.153,-0.068 -1.353,-0.609 -2.574,-1.492 -3.297,-2.015 -3.876,-2.55 -4.292,-3.082 -4.795,-3.722 -5.066,-4.363 -5.1,-4.988 H -5.104 V -8.972 H 5.104 v 3.984 H 5.1 c -0.034,0.625 -0.305,1.266 -0.808,1.906 -0.417,0.532 -0.995,1.067 -1.718,1.59 -1.221,0.883 -2.421,1.424 -2.472,1.446 z m 0,-0.274 c 0,0 4.854,-2.171 4.854,-4.85 0,-0.038 -0.001,-0.076 -0.002,-0.114 h 0.002 v -3.484 h -9.708 v 3.484 h 0.002 c -10e-4,0.038 -0.002,0.076 -0.002,0.114 0,2.679 4.854,4.85 4.854,4.85" id="path1603"/>
        </g>
        <g transform="translate(163.92,264.94)" id="g1609">
          <path d="M 0,0 -0.102,-0.046 C -0.153,-0.068 -1.353,-0.609 -2.574,-1.492 -3.297,-2.015 -3.876,-2.55 -4.292,-3.082 -4.795,-3.722 -5.066,-4.363 -5.1,-4.988 H -5.104 V -8.972 H 5.104 v 3.984 H 5.1 c -0.034,0.625 -0.305,1.266 -0.808,1.906 -0.417,0.532 -0.995,1.067 -1.718,1.59 -1.221,0.883 -2.421,1.424 -2.472,1.446 z m 0,-0.274 c 0,0 4.854,-2.171 4.854,-4.85 0,-0.038 -0.001,-0.076 -0.002,-0.114 h 0.002 v -3.484 h -9.708 v 3.484 h 0.002 c -10e-4,0.038 -0.002,0.076 -0.002,0.114 0,2.679 4.854,4.85 4.854,4.85" fill="none" stroke="#000000" stroke-miterlimit="10" stroke-width="0.25" id="path1607"/>
        </g>
      </g>
    </g>
    <path d="m 91.503,210.93 h 3.8396 v -0.54751 H 91.503 Z" fill="#ffffff" id="path1615"/>
    <path d="m 91.556,210.44 h 3.7349 v 0.44661 H 91.556 Z m -0.0885,-0.0864 v 0.61941 h 3.9116 v -0.61947 z" id="path1617"/>
    <path d="m 91.556,210.44 h 3.7349 v 0.44661 H 91.556 Z m -0.0885,-0.0864 v 0.61941 h 3.9116 v -0.61947 z" fill="none" stroke="#000000" stroke-miterlimit="10" stroke-width="0.088194" id="path1619"/>
    <g transform="matrix(0.35278,0,0,-0.35278,35.597,307.03)" id="g1639">
      <g clip-path="url(#clipPath26180)" id="g1637">
        <g transform="translate(163.92,264.85)" id="g1623">
          <path d="M 0,0 C -0.425,0.199 -3.153,1.53 -4.224,3.273 H 4.224 C 3.153,1.53 0.425,0.199 0,0" id="path1621"/>
        </g>
        <g transform="translate(168.38,268.26)" id="g1627">
          <path d="m 0,0 h -8.917 c 1.085,-2.049 4.459,-3.56 4.459,-3.56 0,0 3.373,1.511 4.458,3.56 M -0.488,-0.273 C -0.963,-0.947 -1.745,-1.646 -2.777,-2.315 -3.525,-2.8 -4.2,-3.136 -4.458,-3.259 c -0.259,0.123 -0.934,0.459 -1.682,0.944 -1.032,0.669 -1.814,1.368 -2.289,2.042 z" fill="#ffffff" id="path1625"/>
        </g>
        <g transform="translate(159.37,256.46)" id="g1631">
          <path d="M 0,0 C 0.425,0.446 0.787,0.888 1.113,1.284 2.147,2.541 2.894,3.45 4.55,3.45 6.205,3.45 6.949,2.544 7.98,1.291 8.307,0.893 8.672,0.449 9.1,0 Z" id="path1629"/>
        </g>
        <g transform="translate(163.92,260.05)" id="g1635">
          <path d="M 0,0 C -2.369,0 -2.977,-1.826 -4.873,-3.722 H 4.873 C 2.966,-1.815 2.369,0 0,0 m 0,-0.273 c 0.73,0 1.323,-0.184 1.865,-0.581 0.513,-0.376 0.952,-0.91 1.46,-1.528 0.273,-0.332 0.572,-0.695 0.912,-1.068 h -8.474 c 0.337,0.37 0.634,0.731 0.906,1.061 0.509,0.619 0.948,1.154 1.462,1.531 0.545,0.4 1.138,0.585 1.869,0.585" fill="#ffffff" id="path1633"/>
        </g>
      </g>
    </g>
    <path d="m 91.503,216.93 h 3.8396 v -0.54751 H 91.503 Z" fill="#ffffff" id="path1641"/>
    <path d="m 91.556,216.43 h 3.7349 v 0.44696 H 91.556 Z m 3.7352,-0.0864 h -3.8234 v 0.61976 h 3.9116 v -0.61983 z" id="path1643"/>
    <path d="m 91.556,216.43 h 3.7349 v 0.44696 H 91.556 Z m 3.7352,-0.0864 h -3.8234 v 0.61976 h 3.9116 v -0.61983 z" fill="none" stroke="#000000" stroke-miterlimit="10" stroke-width="0.088194" id="path1645"/>
    <path d="m 93.308,213.78 h 0.23001 v -0.21448 H 93.308 Z" fill="#ffffff" id="path1647"/>
    <g transform="matrix(0.35278,0,0,-0.35278,93.423,212.96)" id="g1651">
      <path d="M 0,0 V -7.781" fill="none" stroke="#000000" stroke-miterlimit="10" stroke-width="0.5" id="path1649"/>
    </g>
  </g></svg>