<svg
   xmlns:dc="http://purl.org/dc/elements/1.1/"
   xmlns:cc="http://creativecommons.org/ns#"
   xmlns:rdf="http://www.w3.org/1999/02/22-rdf-syntax-ns#"
   xmlns:svg="http://www.w3.org/2000/svg"
   xmlns="http://www.w3.org/2000/svg"
   xmlns:sodipodi="http://sodipodi.sourceforge.net/DTD/sodipodi-0.dtd"
   xmlns:inkscape="http://www.inkscape.org/namespaces/inkscape"
   inkscape:version="1.0 (4035a4fb49, 2020-05-01)"
   sodipodi:docname="all_stacked (copy).svg"
   id="svg2899"
   viewBox="0 0 6.7021 13.579"
   version="1.1"
   height="13.579mm"
   width="6.7021mm"><g xmlns="http://www.w3.org/2000/svg" transform="translate(-161.586,-107.214)" id="g2615">
    <g transform="matrix(0.35278,0,0,-0.35278,106.69,304.67)" id="g2609">
      <g clip-path="url(#clipPath33610)" id="g2607">
        <g transform="translate(162.64,541.33)" id="g2601">
          <path d="m 0,0 c -0.446,0.009 -0.893,0.03 -1.339,0.025 -1.901,-0.021 -3.58,-1.242 -4.203,-3.048 -0.617,-1.787 -0.049,-3.81 1.441,-4.97 1.379,-1.074 2.924,-1.313 4.537,-0.643 1.626,0.674 2.541,1.943 2.766,3.696 0.023,0.178 0.026,0.359 0.029,0.539 0.045,2.413 0.081,4.826 0.134,7.239 0.03,1.371 1.01,2.504 2.348,2.752 C 7.023,5.833 8.339,5.129 8.862,3.906 9.673,2.009 8.291,-0.092 6.225,-0.096 5.802,-0.097 5.379,-0.072 5.003,-0.06 4.992,-0.638 4.983,-1.174 4.973,-1.697 5.414,-1.71 5.881,-1.75 6.346,-1.732 c 1.51,0.058 2.726,0.701 3.585,1.943 1.403,2.03 0.943,4.711 -1.034,6.192 C 7.282,7.613 4.952,7.558 3.403,6.275 2.305,5.366 1.748,4.195 1.721,2.774 1.675,0.361 1.636,-2.052 1.59,-4.465 1.57,-5.506 1.131,-6.327 0.255,-6.897 c -1.311,-0.853 -3.088,-0.461 -3.938,0.859 -0.859,1.334 -0.48,3.107 0.842,3.958 0.522,0.335 1.091,0.482 1.707,0.466 0.376,-0.01 0.752,-0.017 1.107,-0.025 C -0.018,-1.077 -0.009,-0.545 0,0" fill="#ffffff" id="path2599"/>
        </g>
        <g transform="translate(162.64,541.33)" id="g2605">
          <path d="m 0,0 c -0.009,-0.545 -0.018,-1.077 -0.027,-1.639 -0.355,0.008 -0.731,0.015 -1.107,0.025 -0.616,0.016 -1.185,-0.131 -1.707,-0.466 -1.322,-0.851 -1.701,-2.624 -0.842,-3.958 0.85,-1.32 2.627,-1.712 3.938,-0.859 0.876,0.57 1.315,1.391 1.335,2.432 0.046,2.413 0.085,4.826 0.131,7.239 C 1.748,4.195 2.305,5.366 3.403,6.275 4.952,7.558 7.282,7.613 8.897,6.403 10.874,4.922 11.334,2.241 9.931,0.211 9.072,-1.031 7.856,-1.674 6.346,-1.732 5.881,-1.75 5.414,-1.71 4.973,-1.697 c 0.01,0.523 0.019,1.059 0.03,1.637 0.376,-0.012 0.799,-0.037 1.222,-0.036 2.066,0.004 3.448,2.105 2.637,4.002 C 8.339,5.129 7.023,5.833 5.713,5.59 4.375,5.342 3.395,4.209 3.365,2.838 3.312,0.425 3.276,-1.988 3.231,-4.401 3.228,-4.581 3.225,-4.762 3.202,-4.94 2.977,-6.693 2.062,-7.962 0.436,-8.636 c -1.613,-0.67 -3.158,-0.431 -4.537,0.643 -1.49,1.16 -2.058,3.183 -1.441,4.97 0.623,1.806 2.302,3.027 4.203,3.048 C -0.893,0.03 -0.446,0.009 0,0" id="path2603"/>
        </g>
      </g>
    </g>
    <g transform="matrix(0.35278,0,0,-0.35278,166.46,114.73)" id="g2613">
      <path d="M 0,0 -2.731,2.05 0.097,4.03 Z" id="path2611"/>
    </g>
  </g></svg>