<svg
   xmlns:dc="http://purl.org/dc/elements/1.1/"
   xmlns:cc="http://creativecommons.org/ns#"
   xmlns:rdf="http://www.w3.org/1999/02/22-rdf-syntax-ns#"
   xmlns:svg="http://www.w3.org/2000/svg"
   xmlns="http://www.w3.org/2000/svg"
   xmlns:sodipodi="http://sodipodi.sourceforge.net/DTD/sodipodi-0.dtd"
   xmlns:inkscape="http://www.inkscape.org/namespaces/inkscape"
   inkscape:version="1.0 (4035a4fb49, 2020-05-01)"
   sodipodi:docname="all_stacked (copy).svg"
   id="svg2899"
   viewBox="0 0 6.7021 13.579"
   version="1.1"
   height="13.579mm"
   width="6.7021mm"><g xmlns="http://www.w3.org/2000/svg" transform="translate(-90.713,-217.866)" id="g1727">
    <g transform="matrix(0.35278,0,0,-0.35278,35.597,307.03)" id="g1721">
      <g clip-path="url(#clipPath26226)" id="g1719">
        <g transform="translate(163.62,235.34)" id="g1657">
          <path d="m 0,0 c 0.705,0.213 0.776,-0.45 0.901,-0.652 0.124,-0.202 0,-0.777 0,-0.777 L 1.328,-1.484 1.339,-0.98 1.417,-1.043 1.862,-1.067 2.015,-1.106 1.962,-1.58 2.385,-1.539 v 0.446 h 0.117 l 0.385,-0.019 0.16,0.027 v -0.544 l 0.514,0.172 c 0,0 -0.153,0.455 0.039,0.658 0.193,0.202 0.332,0.825 1.167,0.802 C 5.602,-0.02 5.642,0.679 5.365,0.859 5.087,1.039 4.661,1.094 5.028,2.27 5.426,3.545 5.397,5.645 2.296,5.645 c -1.775,0 -3.943,-0.506 -2.698,-4.477 0,0 0.054,-0.263 -0.359,-0.472 C -1.174,0.486 -0.705,-0.213 0,0 M 2.892,1.893 C 2.898,1.977 2.96,2.048 3.046,2.068 L 3.889,2.265 C 3.998,2.29 4.109,2.226 4.134,2.121 L 4.27,1.559 C 4.285,1.498 4.268,1.434 4.224,1.387 L 3.8,0.939 C 3.726,0.861 3.6,0.853 3.517,0.922 L 2.939,1.399 C 2.891,1.439 2.865,1.497 2.869,1.556 Z M 2.246,1.423 C 2.254,1.443 2.285,1.441 2.29,1.42 L 2.712,-0.442 C 2.718,-0.464 2.687,-0.478 2.672,-0.459 L 2.146,0.206 C 2.139,0.215 2.125,0.217 2.115,0.211 L 1.685,-0.072 Z M 0.229,1.559 0.366,2.121 C 0.391,2.226 0.501,2.29 0.611,2.265 L 1.454,2.068 C 1.54,2.048 1.602,1.977 1.608,1.893 L 1.63,1.556 C 1.634,1.497 1.609,1.439 1.561,1.399 L 0.983,0.922 C 0.9,0.853 0.774,0.861 0.7,0.939 L 0.276,1.387 C 0.232,1.434 0.215,1.498 0.229,1.559" id="path1655"/>
        </g>
        <g transform="translate(164.55,232.27)" id="g1661">
          <path d="M 0,0 C 0.514,-0.567 1.374,-0.312 1.374,-0.312 2.743,-0.379 1.845,-0.337 2.808,0.18 3.771,0.696 3.46,1.161 3.46,1.161 L 3.768,2.482 3.709,2.688 c 0,0 -0.618,-0.083 -0.695,-1.026 C 2.937,0.72 2.495,0.73 2.495,0.73 L 2.504,1.1 2.02,1.01 V 0.62 L 1.561,0.55 1.621,1.1 1.107,1.096 1.003,0.628 0.636,0.624 V 1.065 L 0.161,1.15 0.109,0.673 C -0.297,0.665 -0.665,2.548 -0.665,2.548 -1.334,2.64 -1.073,2.299 -0.888,1.778 -0.704,1.257 -0.894,0.821 -0.894,0.821 -0.894,0.821 -0.513,0.567 0,0" id="path1659"/>
        </g>
        <g transform="translate(171.1,228.97)" id="g1665">
          <path d="M 0,0 C -0.197,0.056 -0.345,0.19 -0.423,0.354 -0.346,0.244 -0.232,0.156 -0.087,0.115 -0.031,0.099 0.025,0.094 0.081,0.093 0.349,0.091 0.599,0.253 0.679,0.509 0.776,0.819 0.59,1.145 0.264,1.237 0.212,1.251 0.159,1.257 0.107,1.258 -0.166,1.267 -0.421,1.103 -0.502,0.843 -0.504,0.839 -0.504,0.835 -0.505,0.832 h -0.002 l -0.786,-2.509 c 0.018,-0.003 0.036,-0.004 0.053,-0.009 0.198,-0.056 0.345,-0.19 0.424,-0.355 -0.077,0.111 -0.192,0.199 -0.336,0.24 -0.058,0.016 -0.116,0.021 -0.173,0.021 -0.267,0.001 -0.513,-0.16 -0.593,-0.415 -0.097,-0.31 0.089,-0.636 0.415,-0.728 0.052,-0.015 0.104,-0.02 0.156,-0.022 0.273,-0.008 0.528,0.156 0.61,0.416 0.002,0.008 0.003,0.016 0.005,0.024 l 0.781,2.496 C 0.033,-0.005 0.016,-0.005 0,0" id="path1663"/>
        </g>
        <g transform="translate(171.61,228.58)" id="g1669">
          <path d="m 0,0 -0.029,0.008 c -0.169,0.048 -0.346,-0.043 -0.396,-0.203 l -0.206,-0.657 c -0.05,-0.16 0.046,-0.328 0.214,-0.376 l 0.03,-0.008 c 0.168,-0.048 0.345,0.043 0.395,0.203 l 0.206,0.658 C 0.264,-0.216 0.168,-0.047 0,0" id="path1667"/>
        </g>
        <g transform="translate(172.44,228.35)" id="g1673">
          <path d="m 0,0 -0.029,0.008 c -0.169,0.048 -0.346,-0.043 -0.396,-0.203 l -0.206,-0.657 c -0.05,-0.16 0.046,-0.328 0.214,-0.376 l 0.03,-0.008 c 0.168,-0.048 0.345,0.043 0.395,0.203 l 0.206,0.658 C 0.264,-0.216 0.168,-0.047 0,0" id="path1671"/>
        </g>
        <g transform="translate(173.27,228.11)" id="g1677">
          <path d="m 0,0 -0.029,0.008 c -0.169,0.048 -0.346,-0.043 -0.396,-0.203 l -0.206,-0.657 c -0.05,-0.16 0.046,-0.328 0.214,-0.376 l 0.03,-0.008 c 0.168,-0.048 0.345,0.043 0.395,0.203 l 0.206,0.658 C 0.264,-0.216 0.168,-0.047 0,0" id="path1675"/>
        </g>
        <g transform="translate(174.35,227.49)" id="g1681">
          <path d="m 0,0 c -0.062,0.017 -0.124,0.017 -0.182,0.005 l 0.031,0.099 c 0.04,0.127 -0.036,0.26 -0.17,0.298 L -0.344,0.409 C -0.477,0.446 -0.618,0.374 -0.657,0.247 L -0.901,-0.53 c -0.039,-0.127 0.037,-0.26 0.17,-0.298 l 0.023,-0.006 c 0.134,-0.038 0.274,0.034 0.314,0.161 l 0.031,0.1 c 0.042,-0.041 0.094,-0.074 0.155,-0.091 0.193,-0.054 0.396,0.05 0.454,0.233 C 0.303,-0.247 0.193,-0.055 0,0" id="path1679"/>
        </g>
        <g transform="translate(169.83,228.17)" id="g1685">
          <path d="M 0,0 0.096,0.335 0.241,0.836 C -0.924,1.185 -2.064,1.592 -3.168,2.08 l -0.822,0.379 -0.806,0.41 -0.792,0.435 -0.774,0.467 -0.757,0.494 -0.738,0.521 -0.715,0.552 c -0.234,0.19 -0.466,0.383 -0.704,0.571 -0.936,0.769 -1.836,1.585 -2.786,2.418 0.487,-1.14 1.206,-2.177 2.045,-3.113 0.216,-0.23 0.433,-0.458 0.657,-0.682 l 0.7,-0.642 0.732,-0.614 c 0.252,-0.194 0.503,-0.392 0.763,-0.579 0.264,-0.181 0.526,-0.365 0.794,-0.543 0.273,-0.169 0.542,-0.345 0.82,-0.508 0.283,-0.155 0.564,-0.314 0.849,-0.466 0.29,-0.143 0.577,-0.292 0.871,-0.427 1.178,-0.54 2.415,-0.969 3.687,-1.254 z" id="path1683"/>
        </g>
        <g transform="translate(161.69,227.19)" id="g1689">
          <path d="m 0,0 c -0.057,0 -0.115,-0.005 -0.173,-0.022 -0.144,-0.04 -0.259,-0.128 -0.336,-0.239 0.079,0.165 0.226,0.299 0.423,0.354 0.018,0.005 0.036,0.006 0.054,0.01 L -0.818,2.612 -0.82,2.611 C -0.822,2.615 -0.822,2.619 -0.823,2.622 -0.904,2.882 -1.159,3.046 -1.432,3.038 -1.484,3.037 -1.537,3.031 -1.589,3.016 -1.915,2.924 -2.101,2.598 -2.004,2.289 c 0.08,-0.257 0.329,-0.419 0.598,-0.416 0.056,0 0.112,0.006 0.168,0.022 0.145,0.04 0.259,0.128 0.336,0.239 C -0.98,1.969 -1.128,1.835 -1.325,1.78 -1.341,1.775 -1.358,1.774 -1.374,1.771 l 0.781,-2.497 c 0.002,-0.008 0.003,-0.015 0.005,-0.023 0.082,-0.26 0.337,-0.424 0.61,-0.416 0.052,0.001 0.104,0.007 0.156,0.022 0.326,0.092 0.512,0.418 0.415,0.727 C 0.513,-0.161 0.267,0.001 0,0" id="path1687"/>
        </g>
        <g transform="translate(160.28,228.39)" id="g1693">
          <path d="M 0,0 C -0.05,0.16 -0.227,0.251 -0.395,0.203 L -0.425,0.195 C -0.593,0.147 -0.689,-0.021 -0.639,-0.18 l 0.206,-0.658 c 0.05,-0.16 0.227,-0.251 0.395,-0.203 l 0.03,0.008 c 0.168,0.048 0.264,0.216 0.214,0.375 z" id="path1691"/>
        </g>
        <g transform="translate(159.45,228.15)" id="g1697">
          <path d="M 0,0 C -0.05,0.16 -0.227,0.251 -0.395,0.203 L -0.425,0.195 C -0.593,0.147 -0.689,-0.021 -0.639,-0.18 l 0.206,-0.658 c 0.05,-0.16 0.227,-0.251 0.395,-0.203 l 0.03,0.008 c 0.168,0.048 0.264,0.216 0.214,0.375 z" id="path1695"/>
        </g>
        <g transform="translate(158.62,227.92)" id="g1701">
          <path d="M 0,0 C -0.05,0.16 -0.227,0.251 -0.395,0.203 L -0.425,0.195 C -0.593,0.147 -0.689,-0.021 -0.639,-0.18 l 0.206,-0.658 c 0.05,-0.16 0.227,-0.251 0.395,-0.203 l 0.03,0.008 c 0.168,0.048 0.264,0.216 0.214,0.375 z" id="path1699"/>
        </g>
        <g transform="translate(157.77,227.74)" id="g1705">
          <path d="M 0,0 C -0.04,0.127 -0.18,0.199 -0.313,0.161 L -0.337,0.155 C -0.47,0.117 -0.546,-0.016 -0.506,-0.143 l 0.031,-0.1 c -0.059,0.013 -0.121,0.013 -0.182,-0.004 -0.193,-0.055 -0.303,-0.248 -0.246,-0.431 0.058,-0.183 0.261,-0.288 0.454,-0.233 0.061,0.017 0.113,0.05 0.155,0.09 l 0.031,-0.1 c 0.04,-0.126 0.18,-0.198 0.314,-0.161 l 0.023,0.007 c 0.133,0.038 0.209,0.171 0.169,0.297 z" id="path1703"/>
        </g>
        <g transform="translate(164.36,229.45)" id="g1709">
          <path d="m 0,0 c -0.22,0.142 -0.414,0.277 -0.566,0.385 -0.783,-0.307 -1.581,-0.58 -2.392,-0.823 l 0.144,-0.501 c 0.666,0.183 1.293,0.381 1.912,0.598 C -0.599,-0.233 -0.298,-0.119 0,0" id="path1707"/>
        </g>
        <g transform="translate(168,231.94)" id="g1713">
          <path d="m 0,0 -0.774,-0.467 -0.792,-0.435 -0.342,-0.174 c 0.21,-0.106 1.375,-0.703 1.531,-0.784 0.129,0.081 0.257,0.163 0.387,0.243 0.267,0.178 0.529,0.362 0.794,0.543 0.259,0.187 0.51,0.385 0.763,0.579 l 0.731,0.614 0.7,0.642 C 3.222,0.985 3.44,1.214 3.655,1.443 4.495,2.379 5.213,3.416 5.701,4.556 4.75,3.723 3.85,2.907 2.914,2.138 2.676,1.95 2.444,1.758 2.211,1.567 L 1.495,1.015 0.757,0.494 Z" id="path1711"/>
        </g>
        <g transform="translate(163.59,228.76)" id="g1717">
          <path d="m 0,0 c -0.627,-0.23 -1.269,-0.424 -1.951,-0.593 l 0.144,-0.501 c 1.231,0.275 2.428,0.687 3.57,1.202 C 1.548,0.214 1.336,0.332 1.135,0.452 0.762,0.29 0.383,0.139 0,0" id="path1715"/>
        </g>
      </g>
    </g>
    <g transform="matrix(0.35278,0,0,-0.35278,93.544,226.09)" id="g1725">
      <path d="m 0,0 0.482,-0.254 -2.994,-1.142 -0.102,0.127 -0.101,0.406 z" id="path1723"/>
    </g>
  </g></svg>