<svg
   xmlns:dc="http://purl.org/dc/elements/1.1/"
   xmlns:cc="http://creativecommons.org/ns#"
   xmlns:rdf="http://www.w3.org/1999/02/22-rdf-syntax-ns#"
   xmlns:svg="http://www.w3.org/2000/svg"
   xmlns="http://www.w3.org/2000/svg"
   xmlns:sodipodi="http://sodipodi.sourceforge.net/DTD/sodipodi-0.dtd"
   xmlns:inkscape="http://www.inkscape.org/namespaces/inkscape"
   inkscape:version="1.0 (4035a4fb49, 2020-05-01)"
   sodipodi:docname="all_stacked (copy).svg"
   id="svg2899"
   viewBox="0 0 6.7021 13.579"
   version="1.1"
   height="13.579mm"
   width="6.7021mm"><g xmlns="http://www.w3.org/2000/svg" transform="matrix(0.35278,0,0,-0.35278,-107.4356,143.35)" id="g785">
    <g clip-path="url(#clipPath1467)" id="g783">
      <g transform="translate(320.01,392.72)" id="g781">
        <path d="m 0,0 1.242,0.989 c 0,0 -0.964,1.213 -1.462,1.841 -1.072,-0.868 -2.115,-1.712 -3.186,-2.578 0.917,-1.241 1.631,-2.523 2.043,-3.948 0.431,-1.488 0.644,-2.991 0.092,-4.511 -0.67,-1.841 -2.013,-2.834 -3.897,-3.038 -0.265,-0.029 -0.536,-0.04 -0.808,-0.038 -0.273,-0.002 -0.544,0.009 -0.809,0.038 -1.884,0.204 -3.227,1.197 -3.897,3.038 -0.552,1.52 -0.339,3.023 0.092,4.511 0.412,1.425 1.127,2.707 2.043,3.948 -1.071,0.866 -2.114,1.71 -3.186,2.578 -0.498,-0.628 -1.461,-1.841 -1.461,-1.841 L -11.953,0 l -0.26,-0.43 c -1.051,-2.047 -1.726,-4.192 -1.522,-6.538 0.199,-2.29 1.091,-4.224 2.957,-5.615 1.463,-1.089 3.085,-1.535 4.802,-1.507 1.716,-0.028 3.338,0.418 4.801,1.507 1.866,1.391 2.758,3.325 2.957,5.615 0.204,2.346 -0.471,4.491 -1.522,6.538 z m -12.645,-4.868 10e-4,0.008 -0.089,0.018 0.25,1.224 0.684,-0.142 -0.249,-1.224 -0.379,0.079 z m 1.009,-5.453 c -0.223,0.451 -0.433,0.875 -0.663,1.339 0.179,0.095 0.33,0.175 0.51,0.27 0.23,-0.465 0.439,-0.889 0.663,-1.341 -0.175,-0.092 -0.316,-0.166 -0.51,-0.268 m 6.573,-2.641 h -1.826 v 0.686 h 1.826 z m 4.746,2.641 c -0.194,0.102 -0.334,0.176 -0.51,0.268 0.224,0.452 0.433,0.876 0.663,1.341 0.18,-0.095 0.331,-0.175 0.51,-0.27 -0.23,-0.464 -0.44,-0.888 -0.663,-1.339 M 0.78,-4.842 0.691,-4.86 0.692,-4.868 0.474,-4.905 0.096,-4.984 l -0.25,1.224 0.685,0.142 z" id="path779"/>
      </g>
    </g>
  </g></svg>