<svg
   xmlns:dc="http://purl.org/dc/elements/1.1/"
   xmlns:cc="http://creativecommons.org/ns#"
   xmlns:rdf="http://www.w3.org/1999/02/22-rdf-syntax-ns#"
   xmlns:svg="http://www.w3.org/2000/svg"
   xmlns="http://www.w3.org/2000/svg"
   xmlns:sodipodi="http://sodipodi.sourceforge.net/DTD/sodipodi-0.dtd"
   xmlns:inkscape="http://www.inkscape.org/namespaces/inkscape"
   inkscape:version="1.0 (4035a4fb49, 2020-05-01)"
   sodipodi:docname="all_stacked (copy).svg"
   id="svg2899"
   viewBox="0 0 6.7021 13.579"
   version="1.1"
   height="13.579mm"
   width="6.7021mm"><g xmlns="http://www.w3.org/2000/svg" transform="matrix(0.35278,0,0,-0.35278,-54.483,72.63)" id="g1735">
    <g clip-path="url(#clipPath26322)" id="g1733">
      <g transform="translate(166.9,183.47)" id="g1731">
        <path d="M 0,0 C 0,-0.791 0.092,-1.933 1.141,-1.933 2.19,-1.933 2.282,-0.791 2.282,0 2.282,0.791 2.19,1.933 1.141,1.933 0.092,1.933 0,0.791 0,0 m 4.123,0 c 0,-1.914 -1.012,-3.332 -2.982,-3.332 -1.969,0 -2.982,1.418 -2.982,3.332 0,1.914 1.013,3.332 2.982,3.332 1.97,0 2.982,-1.418 2.982,-3.332 M 0.055,10.105 H 1.657 L -6.001,-3.81 h -1.601 z m -8.264,-3.81 c 0,-0.791 0.092,-1.933 1.141,-1.933 1.049,0 1.141,1.142 1.141,1.933 0,0.792 -0.092,1.933 -1.141,1.933 -1.049,0 -1.141,-1.141 -1.141,-1.933 m 4.123,0 c 0,-1.914 -1.013,-3.331 -2.982,-3.331 -1.97,0 -2.982,1.417 -2.982,3.331 0,1.914 1.012,3.332 2.982,3.332 1.969,0 2.982,-1.418 2.982,-3.332" id="path1729"/>
      </g>
    </g>
  </g></svg>