<svg
   xmlns:dc="http://purl.org/dc/elements/1.1/"
   xmlns:cc="http://creativecommons.org/ns#"
   xmlns:rdf="http://www.w3.org/1999/02/22-rdf-syntax-ns#"
   xmlns:svg="http://www.w3.org/2000/svg"
   xmlns="http://www.w3.org/2000/svg"
   xmlns:sodipodi="http://sodipodi.sourceforge.net/DTD/sodipodi-0.dtd"
   xmlns:inkscape="http://www.inkscape.org/namespaces/inkscape"
   inkscape:version="1.0 (4035a4fb49, 2020-05-01)"
   sodipodi:docname="all_stacked (copy).svg"
   id="svg2899"
   viewBox="0 0 6.7021 13.579"
   version="1.1"
   height="13.579mm"
   width="6.7021mm"><g xmlns="http://www.w3.org/2000/svg" transform="translate(-90.33,-269.14)" id="g1797">
    <g transform="matrix(0.35278,0,0,-0.35278,93.603,276.07)" id="g1751">
      <path d="M 0,0 -7.576,4.374 -7.138,5.133 0.438,0.759 Z" id="path1749"/>
    </g>
    <g transform="matrix(0.35278,0,0,-0.35278,91.085,277.61)" id="g1755">
      <path d="M 0,0 -0.438,0.759 7.138,5.133 7.576,4.374 Z" id="path1753"/>
    </g>
    <path d="m 93.525,279.02 h 0.30939 v -3.0861 H 93.525 Z" id="path1757"/>
    <g transform="matrix(0.35278,0,0,-0.35278,96.275,277.61)" id="g1761">
      <path d="M 0,0 -7.576,4.374 -7.138,5.133 0.438,0.759 Z" id="path1759"/>
    </g>
    <g transform="matrix(0.35278,0,0,-0.35278,93.757,276.07)" id="g1765">
      <path d="M 0,0 -0.438,0.759 7.138,5.133 7.576,4.374 Z" id="path1763"/>
    </g>
    <path d="m 93.525,275.93 h 0.30939 v -3.0861 H 93.525 Z" id="path1767"/>
    <g transform="matrix(0.35278,0,0,-0.35278,93.68,273.94)" id="g1771">
      <path d="m 0,0 -1.651,1.651 0.62,0.62 L 0,1.24 1.031,2.271 1.651,1.651 Z" id="path1769"/>
    </g>
    <g transform="matrix(0.35278,0,0,-0.35278,91.158,275.15)" id="g1775">
      <path d="M 0,0 -0.227,0.847 1.181,1.224 0.804,2.633 1.651,2.86 2.256,0.604 Z" id="path1773"/>
    </g>
    <g transform="matrix(0.35278,0,0,-0.35278,91.741,277.72)" id="g1779">
      <path d="M 0,0 -0.847,0.227 -0.47,1.635 -1.878,2.013 -1.651,2.86 0.604,2.255 Z" id="path1777"/>
    </g>
    <g transform="matrix(0.35278,0,0,-0.35278,93.317,278.73)" id="g1783">
      <path d="M 0,0 -0.62,0.62 1.031,2.271 2.682,0.62 2.062,0 1.031,1.031 Z" id="path1781"/>
    </g>
    <g transform="matrix(0.35278,0,0,-0.35278,95.62,277.72)" id="g1787">
      <path d="M 0,0 -0.604,2.255 1.651,2.86 1.878,2.013 0.47,1.635 0.847,0.227 Z" id="path1785"/>
    </g>
    <g transform="matrix(0.35278,0,0,-0.35278,96.202,275.15)" id="g1791">
      <path d="M 0,0 -2.256,0.604 -1.651,2.86 -0.804,2.633 -1.181,1.224 0.227,0.847 Z" id="path1789"/>
    </g>
    <g transform="matrix(0.35278,0,0,-0.35278,94.778,277.83)" id="g1795">
      <path d="M 0,0 -3.111,0.722 -6.222,0 -7.153,3.055 -9.334,5.389 -7.153,7.722 -6.222,10.777 -3.111,10.055 0,10.777 0.93,7.722 3.111,5.389 0.93,3.055 Z M -3.111,1.622 -0.6,1.039 0.151,3.505 1.911,5.389 0.151,7.272 -0.6,9.738 -3.111,9.155 -5.622,9.738 -6.373,7.272 -8.133,5.389 -6.373,3.505 -5.622,1.039 Z" id="path1793"/>
    </g>
  </g></svg>