<svg
   xmlns:dc="http://purl.org/dc/elements/1.1/"
   xmlns:cc="http://creativecommons.org/ns#"
   xmlns:rdf="http://www.w3.org/1999/02/22-rdf-syntax-ns#"
   xmlns:svg="http://www.w3.org/2000/svg"
   xmlns="http://www.w3.org/2000/svg"
   xmlns:sodipodi="http://sodipodi.sourceforge.net/DTD/sodipodi-0.dtd"
   xmlns:inkscape="http://www.inkscape.org/namespaces/inkscape"
   inkscape:version="1.0 (4035a4fb49, 2020-05-01)"
   sodipodi:docname="all_stacked (copy).svg"
   id="svg2899"
   viewBox="0 0 6.7021 13.579"
   version="1.1"
   height="13.579mm"
   width="6.7021mm"><g xmlns="http://www.w3.org/2000/svg" transform="matrix(0.35278,0,0,-0.35278,-157.4,228.31)" id="g843">
    <g clip-path="url(#clipPath2207)" id="g841">
      <g transform="translate(463.01,631.38)" id="g835">
        <path d="m 0,0 c -1.437,0.232 -2.871,0.632 -4.312,0.653 -0.054,0.001 -0.109,0.001 -0.163,0.001 -0.287,0 -0.573,-0.011 -0.86,-0.03 H -5.336 C -5.476,0.615 -5.616,0.604 -5.756,0.591 -5.782,0.589 -5.808,0.586 -5.835,0.584 -5.97,0.571 -6.106,0.557 -6.241,0.542 -6.265,0.539 -6.289,0.536 -6.313,0.534 -6.442,0.519 -6.571,0.503 -6.701,0.487 -6.714,0.485 -6.727,0.484 -6.74,0.482 -6.88,0.464 -7.02,0.445 -7.16,0.426 -7.189,0.422 -7.217,0.418 -7.246,0.414 -7.39,0.394 -7.535,0.374 -7.679,0.354 -7.799,0.337 -7.919,0.32 -8.04,0.303 -8.072,0.299 -8.105,0.294 -8.138,0.289 -8.272,0.271 -8.406,0.253 -8.54,0.235 -8.569,0.232 -8.598,0.228 -8.626,0.224 -8.767,0.206 -8.907,0.188 -9.047,0.172 -9.362,0.136 -9.445,-0.112 -9.443,-0.394 v -0.061 c 0.002,-0.306 0.002,-0.613 0.003,-0.92 10e-4,-0.109 0.002,-0.218 0.003,-0.328 10e-4,-0.04 10e-4,-0.081 0.002,-0.121 0.002,-0.139 0.005,-0.277 0.01,-0.415 0.004,-0.13 0.01,-0.26 0.017,-0.389 l 0.006,-0.117 c 0.005,-0.093 0.011,-0.185 0.017,-0.278 0.003,-0.043 0.006,-0.085 0.009,-0.128 0.007,-0.094 0.015,-0.187 0.023,-0.281 0.003,-0.037 0.006,-0.073 0.01,-0.11 0.041,-0.434 0.096,-0.862 0.17,-1.285 0.015,-0.084 0.03,-0.167 0.046,-0.25 0.003,-0.012 0.005,-0.023 0.007,-0.035 0.016,-0.081 0.033,-0.162 0.05,-0.243 10e-4,-0.006 0.003,-0.011 0.004,-0.017 0.055,-0.255 0.118,-0.507 0.189,-0.756 0.002,-0.006 0.004,-0.013 0.005,-0.019 0.021,-0.072 0.043,-0.144 0.065,-0.216 0.007,-0.022 0.013,-0.043 0.02,-0.064 0.022,-0.069 0.044,-0.137 0.067,-0.205 0.008,-0.021 0.015,-0.042 0.022,-0.064 0.09,-0.258 0.188,-0.512 0.298,-0.761 0.585,-1.226 1.328,-2.178 2.439,-2.823 0.433,-0.251 0.861,-0.367 1.284,-0.367 0.476,0 0.946,0.147 1.41,0.413 0.931,0.534 1.643,1.3 2.167,2.237 1.3,2.326 1.476,4.888 1.554,7.467 C 0.463,-0.248 0.302,-0.049 0,0 m -5.229,-3.773 c -0.37,-0.392 -0.848,-0.587 -1.34,-0.587 -0.509,0 -1.033,0.209 -1.47,0.624 0.387,0.393 0.856,0.59 1.34,0.59 0.056,0 0.112,-0.004 0.169,-0.009 0.032,-0.003 0.064,-0.008 0.096,-0.013 0.022,-0.003 0.043,-0.006 0.065,-0.01 0.043,-0.008 0.085,-0.018 0.128,-0.029 0.008,-0.002 0.017,-0.004 0.026,-0.007 0.049,-0.013 0.097,-0.028 0.146,-0.045 0.29,-0.101 0.575,-0.271 0.84,-0.514 m 0.51,-4.729 c -0.031,-10e-4 -0.061,-0.002 -0.092,-0.002 -0.961,0 -1.863,0.792 -2.379,2.048 0.738,-0.258 1.514,-0.663 2.332,-0.777 0.095,-0.014 0.19,-0.02 0.284,-0.02 0.766,0 1.48,0.424 2.186,0.916 -0.349,-1.141 -1.431,-2.117 -2.331,-2.165 m 2.133,4.06 c -0.578,0 -1.157,0.231 -1.463,0.655 0.469,0.379 0.933,0.568 1.391,0.568 0.483,0 0.96,-0.21 1.432,-0.63 -0.319,-0.405 -0.839,-0.593 -1.36,-0.593" id="path833"/>
      </g>
      <g transform="translate(452.6,625.99)" id="g839">
        <path d="M 0,0 C -0.996,-0.052 -1.939,0.749 -2.471,2.045 -1.733,1.788 -0.957,1.382 -0.14,1.268 0.107,1.234 0.347,1.247 0.583,1.295 0.513,1.867 0.468,2.474 0.445,3.126 0.43,3.569 0.429,4.015 0.429,4.446 c 0,0.18 -0.001,0.36 -0.002,0.54 C 0.422,5.728 0.876,6.045 1.303,6.095 1.747,6.146 2.203,6.21 2.644,6.272 3.452,6.386 4.28,6.503 5.113,6.554 5.141,7.025 5.159,7.498 5.173,7.972 5.181,8.253 5.021,8.453 4.719,8.502 3.282,8.734 1.847,9.133 0.407,9.154 -1.169,9.178 -2.75,8.857 -4.328,8.674 -4.643,8.637 -4.726,8.39 -4.724,8.108 -4.72,7.493 -4.727,6.877 -4.706,6.262 -4.643,4.435 -4.389,2.644 -3.681,1.044 -3.096,-0.182 -2.353,-1.133 -1.242,-1.778 -0.371,-2.284 0.482,-2.241 1.317,-1.806 1.077,-1.18 0.888,-0.508 0.748,0.225 0.497,0.093 0.242,0.013 0,0 m -0.51,4.729 c -0.753,-0.796 -1.95,-0.781 -2.81,0.036 0.785,0.8 1.913,0.785 2.81,-0.036" id="path837"/>
      </g>
    </g>
  </g></svg>