<svg
   xmlns:dc="http://purl.org/dc/elements/1.1/"
   xmlns:cc="http://creativecommons.org/ns#"
   xmlns:rdf="http://www.w3.org/1999/02/22-rdf-syntax-ns#"
   xmlns:svg="http://www.w3.org/2000/svg"
   xmlns="http://www.w3.org/2000/svg"
   xmlns:sodipodi="http://sodipodi.sourceforge.net/DTD/sodipodi-0.dtd"
   xmlns:inkscape="http://www.inkscape.org/namespaces/inkscape"
   inkscape:version="1.0 (4035a4fb49, 2020-05-01)"
   sodipodi:docname="all_stacked (copy).svg"
   id="svg2899"
   viewBox="0 0 6.7021 13.579"
   version="1.1"
   height="13.579mm"
   width="6.7021mm"><g xmlns="http://www.w3.org/2000/svg" transform="matrix(0.35278,0,0,-0.35278,-106.9356,120.95)" id="g793">
    <g clip-path="url(#clipPath1507)" id="g791">
      <g transform="translate(317.29,326.64)" id="g789">
        <path d="m 0,0 c -0.208,1.043 1.321,2.12 1.321,2.12 l -1.564,1.704 c 0,0 -0.348,-1.148 -1.982,-1.217 C -3.579,2.549 -4.423,3.423 -4.672,3.724 -4.92,3.423 -5.764,2.549 -7.118,2.607 -8.752,2.676 -9.1,3.824 -9.1,3.824 L -10.664,2.12 c 0,0 1.529,-1.077 1.321,-2.12 -0.209,-1.043 -1.787,-2.364 -1.703,-4.345 0.124,-2.928 5.275,-3.707 6.291,-5.414 l 0.083,-0.128 0.084,0.128 c 1.016,1.707 6.167,2.486 6.291,5.414 C 1.787,-2.364 0.209,-1.043 0,0" id="path787"/>
      </g>
    </g>
  </g></svg>