<?xml version="1.0" encoding="utf-8"?>
<!-- Generator: Adobe Illustrator 24.2.0, SVG Export Plug-In . SVG Version: 6.00 Build 0)  -->
<svg version="1.1"
	 id="svg2899" sodipodi:docname="all_stacked (copy).svg" xmlns:cc="http://creativecommons.org/ns#" xmlns:dc="http://purl.org/dc/elements/1.1/" xmlns:inkscape="http://www.inkscape.org/namespaces/inkscape" xmlns:rdf="http://www.w3.org/1999/02/22-rdf-syntax-ns#" xmlns:sodipodi="http://sodipodi.sourceforge.net/DTD/sodipodi-0.dtd" xmlns:svg="http://www.w3.org/2000/svg"
	 xmlns="http://www.w3.org/2000/svg" xmlns:xlink="http://www.w3.org/1999/xlink" x="0px" y="0px" viewBox="0 0 19 38.5"
	 style="enable-background:new 0 0 19 38.5;" xml:space="preserve">
<g>
	<path d="M11.5,17.4c0.7,0,1.3,0.1,2,0.1c0-1,0-1.9,0-2.8c0-0.7,0-1.4,0-2.1c0-0.5-0.5-0.8-1-0.8c-0.5,0-0.9,0.3-1,0.8
		c0,0.1,0,0.2,0,0.3c0,1.4,0,2.9,0,4.3C11.5,17.3,11.5,17.4,11.5,17.4"/>
	<path d="M11.5,17.4c0.7,0,1.3,0.1,2,0.1c0-1,0-1.9,0-2.8c0-0.7,0-1.4,0-2.1c0-0.5-0.5-0.8-1-0.8c-0.5,0-0.9,0.3-1,0.8
		c0,0.1,0,0.2,0,0.3c0,1.4,0,2.9,0,4.3C11.5,17.3,11.5,17.4,11.5,17.4z"/>
	<g>
		<path d="M9.5,23.8c-0.8,0-1.5,0.7-1.5,1.5c0,0.8,0.6,1.5,1.5,1.5c0.8,0,1.5-0.7,1.5-1.5C11,24.5,10.3,23.8,9.5,23.8z"/>
		<path d="M16,19.6c0-0.5,0-0.5-0.5-0.6c-1-0.2-2.1-0.3-3.1-0.5c-0.4,0-0.8,0-1.2,0c-0.4,0.1-0.6,0.4-0.6,0.8c0,0.4,0.3,0.7,0.7,0.8
			c0.9,0.3,1.8,0.5,2.8,0.8c0.3,0.1,0.5,0.4,0.4,0.7c-0.1,0.3-0.4,0.4-0.7,0.4c-1-0.3-1.9-0.5-2.8-0.8c-1.5-0.4-1.9-2.2-0.8-3.3
			c0.1-0.1,0.1-0.2,0.1-0.4c0-1.9,0-3.9,0-5.8c0-0.6,0-1.2,0-1.9C10.4,9.4,10,9,9.5,9C9.1,9,8.7,9.3,8.6,9.8c0,0.1,0,0.3,0,0.4
			c0,1.9,0,3.7,0,5.6c0,1,0,2,0,3c0,0.4-0.2,0.6-0.5,0.6c-0.3,0-0.5-0.2-0.6-0.6c0,0,0-0.1,0-0.1c0-1.9,0-3.9,0-5.8c0-0.5,0-1,0-1.6
			c0-0.5-0.4-0.8-0.8-0.9c-0.4,0-0.8,0.3-0.9,0.7c0,0.1,0,0.3,0,0.4c0,1.4,0,2.8,0,4.2c0,1,0,2,0,3c0,0.4-0.2,0.6-0.5,0.6
			c-0.3,0-0.5-0.2-0.6-0.6c0,0,0-0.1,0-0.1c0-1.4,0-2.9,0-4.3c0-0.1,0-0.3,0-0.4c-0.1-0.5-0.4-0.8-0.9-0.8c-0.4,0-0.8,0.3-0.8,0.8
			c0,0.1,0,0.2,0,0.3c0,1.6,0,3.3,0,4.9c0,1.6,0,3.2,0,4.8c0,2.3,1.1,3.9,3.1,4.8c1.9,0.9,3.8,0.9,5.8,0.4c2.4-0.7,4.2-2.5,4.1-5.5
			C16,22.3,16,21,16,19.6z M13,25.7c-0.8,0.8-1.8,1.5-3,1.7c-0.7,0.1-1.5,0-2.1-0.4c-0.7-0.3-1.3-0.8-1.8-1.3
			c-0.2-0.2-0.2-0.4,0-0.6c0.8-0.9,1.8-1.5,3-1.7c0.2,0,0.3,0,0.5,0c0.8,0,1.6,0.3,2.2,0.7c0.4,0.3,0.8,0.6,1.2,1
			C13.2,25.2,13.2,25.4,13,25.7z"/>
	</g>
</g>
</svg>
