<svg
   xmlns:dc="http://purl.org/dc/elements/1.1/"
   xmlns:cc="http://creativecommons.org/ns#"
   xmlns:rdf="http://www.w3.org/1999/02/22-rdf-syntax-ns#"
   xmlns:svg="http://www.w3.org/2000/svg"
   xmlns="http://www.w3.org/2000/svg"
   xmlns:sodipodi="http://sodipodi.sourceforge.net/DTD/sodipodi-0.dtd"
   xmlns:inkscape="http://www.inkscape.org/namespaces/inkscape"
   inkscape:version="1.0 (4035a4fb49, 2020-05-01)"
   sodipodi:docname="all_stacked (copy).svg"
   id="svg2899"
   viewBox="0 0 6.7021 13.579"
   version="1.1"
   height="13.579mm"
   width="6.7021mm"><g xmlns="http://www.w3.org/2000/svg" transform="matrix(0.35278,0,0,-0.35278,-54.279,149.81)" id="g2661">
    <g clip-path="url(#clipPath33738)" id="g2659">
      <g transform="translate(165.35,407.25)" id="g2637">
        <path d="m 0,0 c 0.657,-0.039 1.287,-0.076 1.974,-0.117 0,0.971 0.002,1.905 0,2.839 C 1.971,3.414 1.983,4.106 1.951,4.797 1.93,5.258 1.491,5.599 0.991,5.606 0.494,5.612 0.061,5.277 -0.01,4.825 -0.025,4.729 -0.025,4.63 -0.025,4.533 -0.025,3.091 -0.024,1.648 -0.022,0.206 -0.022,0.131 -0.006,0.056 0,0" id="path2635"/>
      </g>
      <g transform="translate(165.35,407.25)" id="g2641">
        <path d="m 0,0 c 0.657,-0.039 1.287,-0.076 1.974,-0.117 0,0.971 0.002,1.905 0,2.839 C 1.971,3.414 1.983,4.106 1.951,4.797 1.93,5.258 1.491,5.599 0.991,5.606 0.494,5.612 0.061,5.277 -0.01,4.825 -0.025,4.729 -0.025,4.63 -0.025,4.533 -0.025,3.091 -0.024,1.648 -0.022,0.206 -0.022,0.131 -0.006,0.056 0,0" id="path2639"/>
      </g>
      <g transform="translate(169.86,405.04)" id="g2645">
        <path d="M 0,0 C 0,0.462 0.001,0.488 -0.466,0.567 -1.494,0.74 -2.525,0.899 -3.559,1.031 -3.94,1.08 -4.339,1.074 -4.72,1.022 -5.131,0.967 -5.324,0.653 -5.292,0.237 c 0.029,-0.374 0.293,-0.682 0.709,-0.799 0.92,-0.26 1.843,-0.506 2.762,-0.767 0.341,-0.096 0.501,-0.389 0.408,-0.696 -0.088,-0.291 -0.372,-0.442 -0.701,-0.353 -0.951,0.257 -1.904,0.504 -2.847,0.787 -1.473,0.443 -1.903,2.247 -0.808,3.304 0.082,0.079 0.128,0.234 0.129,0.354 0.009,1.941 0.008,3.882 0.008,5.823 0,0.625 0.01,1.249 -0.005,1.873 -0.012,0.495 -0.386,0.871 -0.843,0.882 C -6.93,10.656 -7.298,10.318 -7.358,9.833 -7.373,9.707 -7.37,9.579 -7.37,9.453 -7.364,7.59 -7.353,5.727 -7.351,3.864 -7.35,2.869 -7.362,1.875 -7.371,0.88 -7.375,0.489 -7.579,0.25 -7.905,0.243 -8.24,0.236 -8.452,0.483 -8.459,0.889 -8.46,0.928 -8.46,0.967 -8.46,1.006 c 0.001,1.932 0.002,3.863 0.003,5.794 0,0.517 0.007,1.035 -0.003,1.551 -0.01,0.466 -0.356,0.841 -0.786,0.876 -0.436,0.035 -0.821,-0.273 -0.91,-0.74 -0.025,-0.133 -0.028,-0.272 -0.028,-0.408 0,-1.414 0.004,-2.828 0.005,-4.243 10e-4,-0.995 10e-4,-1.99 -0.004,-2.985 -10e-4,-0.365 -0.216,-0.603 -0.53,-0.61 -0.323,-0.008 -0.546,0.24 -0.556,0.617 -10e-4,0.049 0,0.097 0,0.146 -0.002,1.444 -0.003,2.888 -0.005,4.331 0,0.127 -0.001,0.255 -0.021,0.379 -0.074,0.459 -0.432,0.77 -0.862,0.76 -0.422,-0.011 -0.779,-0.35 -0.835,-0.799 -0.013,-0.106 -0.01,-0.214 -0.01,-0.321 0,-1.629 0,-3.258 0.001,-4.887 0,-1.59 -0.02,-3.181 0.004,-4.77 0.036,-2.254 1.078,-3.897 3.124,-4.846 1.873,-0.87 3.829,-0.94 5.798,-0.367 2.351,0.685 4.15,2.49 4.08,5.507 C -0.025,-2.673 0.001,-1.336 0,0" id="path2643"/>
      </g>
      <g transform="translate(169.86,405.04)" id="g2649">
        <path d="M 0,0 C 0,0.462 0.001,0.488 -0.466,0.567 -1.494,0.74 -2.525,0.899 -3.559,1.031 -3.94,1.08 -4.339,1.074 -4.72,1.022 -5.131,0.967 -5.324,0.653 -5.292,0.237 c 0.029,-0.374 0.293,-0.682 0.709,-0.799 0.92,-0.26 1.843,-0.506 2.762,-0.767 0.341,-0.096 0.501,-0.389 0.408,-0.696 -0.088,-0.291 -0.372,-0.442 -0.701,-0.353 -0.951,0.257 -1.904,0.504 -2.847,0.787 -1.473,0.443 -1.903,2.247 -0.808,3.304 0.082,0.079 0.128,0.234 0.129,0.354 0.009,1.941 0.008,3.882 0.008,5.823 0,0.625 0.01,1.249 -0.005,1.873 -0.012,0.495 -0.386,0.871 -0.843,0.882 C -6.93,10.656 -7.298,10.318 -7.358,9.833 -7.373,9.707 -7.37,9.579 -7.37,9.453 -7.364,7.59 -7.353,5.727 -7.351,3.864 -7.35,2.869 -7.362,1.875 -7.371,0.88 -7.375,0.489 -7.579,0.25 -7.905,0.243 -8.24,0.236 -8.452,0.483 -8.459,0.889 -8.46,0.928 -8.46,0.967 -8.46,1.006 c 0.001,1.932 0.002,3.863 0.003,5.794 0,0.517 0.007,1.035 -0.003,1.551 -0.01,0.466 -0.356,0.841 -0.786,0.876 -0.436,0.035 -0.821,-0.273 -0.91,-0.74 -0.025,-0.133 -0.028,-0.272 -0.028,-0.408 0,-1.414 0.004,-2.828 0.005,-4.243 10e-4,-0.995 10e-4,-1.99 -0.004,-2.985 -10e-4,-0.365 -0.216,-0.603 -0.53,-0.61 -0.323,-0.008 -0.546,0.24 -0.556,0.617 -10e-4,0.049 0,0.097 0,0.146 -0.002,1.444 -0.003,2.888 -0.005,4.331 0,0.127 -0.001,0.255 -0.021,0.379 -0.074,0.459 -0.432,0.77 -0.862,0.76 -0.422,-0.011 -0.779,-0.35 -0.835,-0.799 -0.013,-0.106 -0.01,-0.214 -0.01,-0.321 0,-1.629 0,-3.258 0.001,-4.887 0,-1.59 -0.02,-3.181 0.004,-4.77 0.036,-2.254 1.078,-3.897 3.124,-4.846 1.873,-0.87 3.829,-0.94 5.798,-0.367 2.351,0.685 4.15,2.49 4.08,5.507 C -0.025,-2.673 0.001,-1.336 0,0" id="path2647"/>
      </g>
      <g transform="translate(163.36,401.39)" id="g2653">
        <path d="M 0,0 C 0.816,-0.005 1.557,-0.264 2.223,-0.709 2.659,-1.001 3.06,-1.349 3.454,-1.697 3.72,-1.932 3.711,-2.139 3.465,-2.386 2.628,-3.225 1.676,-3.865 0.474,-4.047 c -0.748,-0.113 -1.456,0.046 -2.132,0.362 -0.691,0.323 -1.291,0.772 -1.816,1.322 -0.199,0.209 -0.216,0.409 -0.034,0.598 0.844,0.875 1.814,1.535 3.046,1.726 C -0.31,-0.016 -0.154,-0.013 0,0" fill="#ffffff" id="path2651"/>
      </g>
      <g transform="translate(163.36,400.83)" id="g2657">
        <path d="m 0,0 c 0.809,-0.003 1.473,-0.658 1.481,-1.461 0.008,-0.83 -0.67,-1.505 -1.504,-1.497 -0.821,0.007 -1.472,0.678 -1.463,1.505 C -1.477,-0.65 -0.81,0.003 0,0" id="path2655"/>
      </g>
    </g>
  </g></svg>