<svg
   xmlns:dc="http://purl.org/dc/elements/1.1/"
   xmlns:cc="http://creativecommons.org/ns#"
   xmlns:rdf="http://www.w3.org/1999/02/22-rdf-syntax-ns#"
   xmlns:svg="http://www.w3.org/2000/svg"
   xmlns="http://www.w3.org/2000/svg"
   xmlns:sodipodi="http://sodipodi.sourceforge.net/DTD/sodipodi-0.dtd"
   xmlns:inkscape="http://www.inkscape.org/namespaces/inkscape"
   inkscape:version="1.0 (4035a4fb49, 2020-05-01)"
   sodipodi:docname="all_stacked (copy).svg"
   id="svg2899"
   viewBox="0 0 6.7021 13.579"
   version="1.1"
   height="13.579mm"
   width="6.7021mm"><g xmlns="http://www.w3.org/2000/svg" transform="matrix(0.35278,0,0,-0.35278,-107.6569,295.37)" id="g1833">
    <g clip-path="url(#clipPath24604)" id="g1831">
      <g transform="translate(322.68,819.23)" id="g1813">
        <path d="m 0,0 c -0.459,-0.161 -1.105,-0.101 -1.73,-0.044 -0.502,0.046 -0.976,0.089 -1.387,0.031 -0.002,0 -0.003,-0.001 -0.004,-0.001 -0.077,0.54 -0.255,1.067 -0.537,1.567 0.273,0.102 0.582,0.166 0.884,0.227 0.572,0.117 1.163,0.237 1.551,0.623 0.081,0.081 0.082,0.213 0,0.295 C -1.304,2.78 -1.436,2.78 -1.518,2.699 -1.817,2.401 -2.322,2.298 -2.857,2.189 -3.202,2.119 -3.555,2.045 -3.876,1.915 c -0.199,0.311 -0.43,0.628 -0.687,0.939 0.198,0.163 0.429,0.277 0.681,0.399 0.391,0.189 0.835,0.403 1.177,0.858 0.07,0.092 0.051,0.223 -0.041,0.292 C -2.838,4.473 -2.969,4.454 -3.038,4.362 -3.32,3.988 -3.681,3.814 -4.063,3.629 -4.328,3.501 -4.596,3.369 -4.835,3.171 c -0.252,0.281 -0.523,0.554 -0.81,0.809 0.151,0.243 0.344,0.469 0.544,0.7 0.348,0.403 0.708,0.819 0.897,1.382 0.037,0.11 -0.022,0.228 -0.131,0.265 C -4.445,6.363 -4.563,6.305 -4.599,6.195 -4.762,5.71 -5.095,5.325 -5.417,4.953 -5.609,4.731 -5.805,4.504 -5.968,4.254 c -0.264,0.215 -0.539,0.412 -0.823,0.587 0.122,0.295 0.359,0.49 0.631,0.712 0.442,0.36 0.943,0.768 0.966,1.694 0.003,0.115 -0.088,0.211 -0.203,0.214 C -5.513,7.464 -5.608,7.373 -5.611,7.258 -5.63,6.524 -6.015,6.209 -6.423,5.876 -6.694,5.655 -6.985,5.416 -7.153,5.051 c -0.466,0.25 -0.948,0.433 -1.432,0.522 0.024,0.282 0.16,0.55 0.318,0.856 0.244,0.475 0.52,1.013 0.418,1.744 C -7.865,8.287 -7.971,8.367 -8.085,8.351 -8.199,8.334 -8.279,8.229 -8.262,8.115 -8.178,7.515 -8.412,7.06 -8.639,6.62 -8.8,6.306 -8.964,5.984 -9.001,5.627 -9.391,5.654 -9.78,5.615 -10.161,5.496 -10.216,5.479 -10.267,5.458 -10.32,5.439 c -0.16,0.385 -0.125,0.806 -0.088,1.215 0.055,0.601 0.112,1.223 -0.473,1.663 -0.092,0.07 -0.223,0.051 -0.292,-0.041 -0.069,-0.092 -0.051,-0.223 0.041,-0.292 0.38,-0.286 0.365,-0.677 0.308,-1.292 -0.04,-0.447 -0.082,-0.944 0.123,-1.424 -0.303,-0.163 -0.564,-0.37 -0.79,-0.614 -0.498,0.795 -1.205,1.279 -2.111,1.436 -0.114,0.019 -0.222,-0.057 -0.242,-0.17 -0.019,-0.114 0.057,-0.222 0.171,-0.242 0.839,-0.145 1.461,-0.596 1.902,-1.369 -0.305,-0.429 -0.527,-0.937 -0.69,-1.489 -0.424,0.135 -0.814,0.346 -1.22,0.568 -0.401,0.219 -0.816,0.445 -1.282,0.602 -0.109,0.036 -0.227,-0.022 -0.264,-0.132 -0.037,-0.109 0.022,-0.227 0.131,-0.264 0.431,-0.145 0.83,-0.362 1.215,-0.572 0.414,-0.226 0.84,-0.457 1.314,-0.605 -0.095,-0.401 -0.164,-0.818 -0.212,-1.243 -0.362,0.041 -0.768,0.25 -1.193,0.471 -0.611,0.318 -1.242,0.646 -1.887,0.555 -0.114,-0.016 -0.194,-0.121 -0.178,-0.235 0.016,-0.115 0.122,-0.194 0.236,-0.178 0.513,0.072 1.084,-0.225 1.637,-0.512 0.445,-0.232 0.901,-0.466 1.344,-0.515 -0.033,-0.39 -0.052,-0.782 -0.062,-1.167 -0.5,-0.159 -1.188,-0.2 -1.809,-0.236 -0.354,-0.02 -0.688,-0.039 -0.968,-0.079 -0.114,-0.016 -0.194,-0.121 -0.178,-0.236 0.016,-0.114 0.122,-0.193 0.236,-0.177 0.263,0.037 0.589,0.055 0.933,0.075 0.393,0.023 0.812,0.047 1.205,0.102 0.2,0.028 0.393,0.065 0.572,0.113 -0.005,-0.471 0,-0.926 0.005,-1.348 0.002,-0.18 0.004,-0.353 0.005,-0.519 -0.384,-0.14 -0.849,-0.163 -1.335,-0.182 -0.703,-0.029 -1.43,-0.059 -2.011,-0.459 -0.094,-0.065 -0.118,-0.195 -0.053,-0.29 0.046,-0.067 0.125,-0.099 0.201,-0.088 0.031,0.004 0.062,0.016 0.089,0.035 0.482,0.331 1.147,0.359 1.791,0.385 0.449,0.018 0.906,0.038 1.318,0.158 0,-0.016 0,-0.033 -10e-4,-0.049 l 0.005,-0.079 c 0.062,-0.44 0.159,-0.821 0.278,-1.157 -0.295,-0.159 -0.656,-0.24 -1.031,-0.324 -0.505,-0.113 -1.028,-0.229 -1.48,-0.541 -0.095,-0.065 -0.119,-0.195 -0.053,-0.29 0.046,-0.068 0.125,-0.099 0.201,-0.088 0.031,0.004 0.061,0.015 0.089,0.034 0.385,0.266 0.868,0.374 1.334,0.478 0.377,0.084 0.761,0.172 1.097,0.342 0.196,-0.423 0.434,-0.753 0.686,-1.012 -1.007,-0.473 -1.873,-1.441 -2.222,-1.867 -0.073,-0.089 -0.06,-0.221 0.029,-0.294 0.047,-0.038 0.106,-0.053 0.162,-0.045 0.05,0.007 0.097,0.032 0.132,0.075 0.716,0.875 1.544,1.544 2.245,1.824 0.32,-0.244 0.643,-0.393 0.919,-0.482 -0.113,-0.259 -0.306,-0.523 -0.507,-0.796 -0.386,-0.523 -0.824,-1.116 -0.727,-1.806 0.016,-0.114 0.122,-0.194 0.236,-0.178 0.114,0.016 0.194,0.122 0.178,0.236 -0.074,0.521 0.277,0.997 0.649,1.501 0.224,0.304 0.451,0.615 0.581,0.944 0.407,-0.075 0.841,-0.082 1.289,-0.019 0.013,0.002 0.026,0.005 0.04,0.007 -0.033,-0.49 -0.216,-0.943 -0.409,-1.415 -0.311,-0.762 -0.632,-1.549 -0.252,-2.488 0.037,-0.091 0.13,-0.142 0.222,-0.129 0.017,0.003 0.034,0.007 0.05,0.014 0.106,0.043 0.158,0.165 0.115,0.271 -0.317,0.782 -0.041,1.458 0.252,2.174 0.211,0.519 0.425,1.053 0.441,1.655 0.47,0.11 0.947,0.286 1.413,0.522 0.166,-0.314 0.307,-0.701 0.444,-1.083 0.177,-0.493 0.345,-0.959 0.571,-1.288 0.047,-0.068 0.126,-0.099 0.202,-0.089 0.03,0.005 0.061,0.016 0.089,0.035 0.094,0.065 0.118,0.195 0.053,0.29 -0.196,0.285 -0.354,0.726 -0.522,1.193 -0.143,0.397 -0.29,0.799 -0.471,1.141 0.324,0.188 0.639,0.404 0.941,0.645 0.039,-0.077 0.078,-0.154 0.118,-0.234 0.356,-0.712 0.724,-1.447 1.144,-1.764 0.046,-0.035 0.102,-0.047 0.155,-0.04 0.053,0.007 0.103,0.035 0.138,0.081 0.069,0.092 0.05,0.223 -0.041,0.292 -0.343,0.258 -0.704,0.98 -1.023,1.617 -0.055,0.111 -0.11,0.219 -0.163,0.325 0.353,0.316 0.682,0.669 0.975,1.053 0.164,0.215 0.31,0.433 0.441,0.653 0.323,-0.117 0.756,-0.79 1.11,-1.341 0.33,-0.513 0.641,-0.997 0.949,-1.229 0.046,-0.035 0.102,-0.048 0.155,-0.04 0.053,0.007 0.103,0.035 0.137,0.081 0.07,0.092 0.051,0.223 -0.041,0.292 -0.248,0.187 -0.553,0.662 -0.849,1.122 -0.42,0.654 -0.821,1.276 -1.257,1.481 0.147,0.288 0.265,0.579 0.357,0.87 0.465,-0.003 0.754,-0.22 1.079,-0.468 0.399,-0.303 0.842,-0.64 1.626,-0.53 0.143,0.02 0.297,0.055 0.463,0.107 0.11,0.035 0.171,0.152 0.137,0.262 -0.035,0.11 -0.151,0.172 -0.262,0.136 -0.879,-0.276 -1.265,0.017 -1.711,0.357 -0.321,0.244 -0.679,0.51 -1.221,0.547 0.094,0.414 0.135,0.828 0.116,1.236 0.008,0.001 0.014,-0.002 0.022,-0.001 0.363,0.051 0.814,0.01 1.29,-0.034 0.512,-0.047 1.036,-0.095 1.498,-0.03 0.143,0.02 0.28,0.051 0.409,0.096 0.109,0.038 0.166,0.157 0.128,0.266 C 0.228,-0.019 0.109,0.039 0,0 M -5.14,-3.329 C -5.386,-3.652 -5.665,-3.951 -5.963,-4.22 -5.972,-4.225 -5.982,-4.226 -5.99,-4.232 -6.014,-4.248 -6.033,-4.27 -6.048,-4.293 -7.303,-5.39 -8.895,-5.974 -10.053,-5.67 c -0.979,0.256 -1.58,1.095 -1.785,2.496 0.003,0.298 -0.001,0.633 -0.005,0.993 -0.027,2.404 -0.069,6.035 1.993,6.681 1.813,0.57 4.224,-1.624 5.265,-3.425 1.091,-1.885 -0.025,-3.708 -0.555,-4.404" id="path1811"/>
      </g>
      <g transform="translate(322.68,819.23)" id="g1817">
        <path d="m 0,0 c -0.459,-0.161 -1.105,-0.101 -1.73,-0.044 -0.502,0.046 -0.976,0.089 -1.387,0.031 -0.002,0 -0.003,-0.001 -0.004,-0.001 -0.077,0.54 -0.255,1.067 -0.537,1.567 0.273,0.102 0.582,0.166 0.884,0.227 0.572,0.117 1.163,0.237 1.551,0.623 0.081,0.081 0.082,0.213 0,0.295 C -1.304,2.78 -1.436,2.78 -1.518,2.699 -1.817,2.401 -2.322,2.298 -2.857,2.189 -3.202,2.119 -3.555,2.045 -3.876,1.915 c -0.199,0.311 -0.43,0.628 -0.687,0.939 0.198,0.163 0.429,0.277 0.681,0.399 0.391,0.189 0.835,0.403 1.177,0.858 0.07,0.092 0.051,0.223 -0.041,0.292 C -2.838,4.473 -2.969,4.454 -3.038,4.362 -3.32,3.988 -3.681,3.814 -4.063,3.629 -4.328,3.501 -4.596,3.369 -4.835,3.171 c -0.252,0.281 -0.523,0.554 -0.81,0.809 0.151,0.243 0.344,0.469 0.544,0.7 0.348,0.403 0.708,0.819 0.897,1.382 0.037,0.11 -0.022,0.228 -0.131,0.265 C -4.445,6.363 -4.563,6.305 -4.599,6.195 -4.762,5.71 -5.095,5.325 -5.417,4.953 -5.609,4.731 -5.805,4.504 -5.968,4.254 c -0.264,0.215 -0.539,0.412 -0.823,0.587 0.122,0.295 0.359,0.49 0.631,0.712 0.442,0.36 0.943,0.768 0.966,1.694 0.003,0.115 -0.088,0.211 -0.203,0.214 C -5.513,7.464 -5.608,7.373 -5.611,7.258 -5.63,6.524 -6.015,6.209 -6.423,5.876 -6.694,5.655 -6.985,5.416 -7.153,5.051 c -0.466,0.25 -0.948,0.433 -1.432,0.522 0.024,0.282 0.16,0.55 0.318,0.856 0.244,0.475 0.52,1.013 0.418,1.744 C -7.865,8.287 -7.971,8.367 -8.085,8.351 -8.199,8.334 -8.279,8.229 -8.262,8.115 -8.178,7.515 -8.412,7.06 -8.639,6.62 -8.8,6.306 -8.964,5.984 -9.001,5.627 -9.391,5.654 -9.78,5.615 -10.161,5.496 -10.216,5.479 -10.267,5.458 -10.32,5.439 c -0.16,0.385 -0.125,0.806 -0.088,1.215 0.055,0.601 0.112,1.223 -0.473,1.663 -0.092,0.07 -0.223,0.051 -0.292,-0.041 -0.069,-0.092 -0.051,-0.223 0.041,-0.292 0.38,-0.286 0.365,-0.677 0.308,-1.292 -0.04,-0.447 -0.082,-0.944 0.123,-1.424 -0.303,-0.163 -0.564,-0.37 -0.79,-0.614 -0.498,0.795 -1.205,1.279 -2.111,1.436 -0.114,0.019 -0.222,-0.057 -0.242,-0.17 -0.019,-0.114 0.057,-0.222 0.171,-0.242 0.839,-0.145 1.461,-0.596 1.902,-1.369 -0.305,-0.429 -0.527,-0.937 -0.69,-1.489 -0.424,0.135 -0.814,0.346 -1.22,0.568 -0.401,0.219 -0.816,0.445 -1.282,0.602 -0.109,0.036 -0.227,-0.022 -0.264,-0.132 -0.037,-0.109 0.022,-0.227 0.131,-0.264 0.431,-0.145 0.83,-0.362 1.215,-0.572 0.414,-0.226 0.84,-0.457 1.314,-0.605 -0.095,-0.401 -0.164,-0.818 -0.212,-1.243 -0.362,0.041 -0.768,0.25 -1.193,0.471 -0.611,0.318 -1.242,0.646 -1.887,0.555 -0.114,-0.016 -0.194,-0.121 -0.178,-0.235 0.016,-0.115 0.122,-0.194 0.236,-0.178 0.513,0.072 1.084,-0.225 1.637,-0.512 0.445,-0.232 0.901,-0.466 1.344,-0.515 -0.033,-0.39 -0.052,-0.782 -0.062,-1.167 -0.5,-0.159 -1.188,-0.2 -1.809,-0.236 -0.354,-0.02 -0.688,-0.039 -0.968,-0.079 -0.114,-0.016 -0.194,-0.121 -0.178,-0.236 0.016,-0.114 0.122,-0.193 0.236,-0.177 0.263,0.037 0.589,0.055 0.933,0.075 0.393,0.023 0.812,0.047 1.205,0.102 0.2,0.028 0.393,0.065 0.572,0.113 -0.005,-0.471 0,-0.926 0.005,-1.348 0.002,-0.18 0.004,-0.353 0.005,-0.519 -0.384,-0.14 -0.849,-0.163 -1.335,-0.182 -0.703,-0.029 -1.43,-0.059 -2.011,-0.459 -0.094,-0.065 -0.118,-0.195 -0.053,-0.29 0.046,-0.067 0.125,-0.099 0.201,-0.088 0.031,0.004 0.062,0.016 0.089,0.035 0.482,0.331 1.147,0.359 1.791,0.385 0.449,0.018 0.906,0.038 1.318,0.158 0,-0.016 0,-0.033 -10e-4,-0.049 l 0.005,-0.079 c 0.062,-0.44 0.159,-0.821 0.278,-1.157 -0.295,-0.159 -0.656,-0.24 -1.031,-0.324 -0.505,-0.113 -1.028,-0.229 -1.48,-0.541 -0.095,-0.065 -0.119,-0.195 -0.053,-0.29 0.046,-0.068 0.125,-0.099 0.201,-0.088 0.031,0.004 0.061,0.015 0.089,0.034 0.385,0.266 0.868,0.374 1.334,0.478 0.377,0.084 0.761,0.172 1.097,0.342 0.196,-0.423 0.434,-0.753 0.686,-1.012 -1.007,-0.473 -1.873,-1.441 -2.222,-1.867 -0.073,-0.089 -0.06,-0.221 0.029,-0.294 0.047,-0.038 0.106,-0.053 0.162,-0.045 0.05,0.007 0.097,0.032 0.132,0.075 0.716,0.875 1.544,1.544 2.245,1.824 0.32,-0.244 0.643,-0.393 0.919,-0.482 -0.113,-0.259 -0.306,-0.523 -0.507,-0.796 -0.386,-0.523 -0.824,-1.116 -0.727,-1.806 0.016,-0.114 0.122,-0.194 0.236,-0.178 0.114,0.016 0.194,0.122 0.178,0.236 -0.074,0.521 0.277,0.997 0.649,1.501 0.224,0.304 0.451,0.615 0.581,0.944 0.407,-0.075 0.841,-0.082 1.289,-0.019 0.013,0.002 0.026,0.005 0.04,0.007 -0.033,-0.49 -0.216,-0.943 -0.409,-1.415 -0.311,-0.762 -0.632,-1.549 -0.252,-2.488 0.037,-0.091 0.13,-0.142 0.222,-0.129 0.017,0.003 0.034,0.007 0.05,0.014 0.106,0.043 0.158,0.165 0.115,0.271 -0.317,0.782 -0.041,1.458 0.252,2.174 0.211,0.519 0.425,1.053 0.441,1.655 0.47,0.11 0.947,0.286 1.413,0.522 0.166,-0.314 0.307,-0.701 0.444,-1.083 0.177,-0.493 0.345,-0.959 0.571,-1.288 0.047,-0.068 0.126,-0.099 0.202,-0.089 0.03,0.005 0.061,0.016 0.089,0.035 0.094,0.065 0.118,0.195 0.053,0.29 -0.196,0.285 -0.354,0.726 -0.522,1.193 -0.143,0.397 -0.29,0.799 -0.471,1.141 0.324,0.188 0.639,0.404 0.941,0.645 0.039,-0.077 0.078,-0.154 0.118,-0.234 0.356,-0.712 0.724,-1.447 1.144,-1.764 0.046,-0.035 0.102,-0.047 0.155,-0.04 0.053,0.007 0.103,0.035 0.138,0.081 0.069,0.092 0.05,0.223 -0.041,0.292 -0.343,0.258 -0.704,0.98 -1.023,1.617 -0.055,0.111 -0.11,0.219 -0.163,0.325 0.353,0.316 0.682,0.669 0.975,1.053 0.164,0.215 0.31,0.433 0.441,0.653 0.323,-0.117 0.756,-0.79 1.11,-1.341 0.33,-0.513 0.641,-0.997 0.949,-1.229 0.046,-0.035 0.102,-0.048 0.155,-0.04 0.053,0.007 0.103,0.035 0.137,0.081 0.07,0.092 0.051,0.223 -0.041,0.292 -0.248,0.187 -0.553,0.662 -0.849,1.122 -0.42,0.654 -0.821,1.276 -1.257,1.481 0.147,0.288 0.265,0.579 0.357,0.87 0.465,-0.003 0.754,-0.22 1.079,-0.468 0.399,-0.303 0.842,-0.64 1.626,-0.53 0.143,0.02 0.297,0.055 0.463,0.107 0.11,0.035 0.171,0.152 0.137,0.262 -0.035,0.11 -0.151,0.172 -0.262,0.136 -0.879,-0.276 -1.265,0.017 -1.711,0.357 -0.321,0.244 -0.679,0.51 -1.221,0.547 0.094,0.414 0.135,0.828 0.116,1.236 0.008,0.001 0.014,-0.002 0.022,-0.001 0.363,0.051 0.814,0.01 1.29,-0.034 0.512,-0.047 1.036,-0.095 1.498,-0.03 0.143,0.02 0.28,0.051 0.409,0.096 0.109,0.038 0.166,0.157 0.128,0.266 C 0.228,-0.019 0.109,0.039 0,0 Z M -5.14,-3.329 C -5.386,-3.652 -5.665,-3.951 -5.963,-4.22 -5.972,-4.225 -5.982,-4.226 -5.99,-4.232 -6.014,-4.248 -6.033,-4.27 -6.048,-4.293 -7.303,-5.39 -8.895,-5.974 -10.053,-5.67 c -0.979,0.256 -1.58,1.095 -1.785,2.496 0.003,0.298 -0.001,0.633 -0.005,0.993 -0.027,2.404 -0.069,6.035 1.993,6.681 1.813,0.57 4.224,-1.624 5.265,-3.425 1.091,-1.885 -0.025,-3.708 -0.555,-4.404 z" fill="none" stroke="#000000" stroke-miterlimit="10" stroke-width="0.25" id="path1815"/>
      </g>
      <g transform="translate(312.71,818.12)" id="g1821">
        <path d="m 0,0 c -0.559,-0.083 -1.022,-0.657 -0.93,-1.282 0.082,-0.598 0.665,-1.037 1.265,-0.954 0.617,0.086 1.056,0.671 0.972,1.291 C 1.237,-0.436 0.706,0.104 0,0" id="path1819"/>
      </g>
      <g transform="translate(313.91,819.58)" id="g1825">
        <path d="M 0,0 C 0.637,0.085 1.055,0.633 0.967,1.268 0.901,1.933 0.262,2.316 -0.333,2.237 -0.941,2.156 -1.353,1.591 -1.269,0.963 -1.184,0.32 -0.648,-0.086 0,0" id="path1823"/>
      </g>
      <g transform="translate(315.41,819.5)" id="g1829">
        <path d="m 0,0 c -0.591,-0.082 -1.033,-0.672 -0.95,-1.27 0.085,-0.616 0.642,-1.048 1.25,-0.97 0.597,0.077 1.071,0.673 0.99,1.244 C 1.2,-0.372 0.609,0.085 0,0" id="path1827"/>
      </g>
    </g>
  </g></svg>