<svg
   xmlns:dc="http://purl.org/dc/elements/1.1/"
   xmlns:cc="http://creativecommons.org/ns#"
   xmlns:rdf="http://www.w3.org/1999/02/22-rdf-syntax-ns#"
   xmlns:svg="http://www.w3.org/2000/svg"
   xmlns="http://www.w3.org/2000/svg"
   xmlns:sodipodi="http://sodipodi.sourceforge.net/DTD/sodipodi-0.dtd"
   xmlns:inkscape="http://www.inkscape.org/namespaces/inkscape"
   inkscape:version="1.0 (4035a4fb49, 2020-05-01)"
   sodipodi:docname="all_stacked (copy).svg"
   id="svg2899"
   viewBox="0 0 6.7021 13.579"
   version="1.1"
   height="13.579mm"
   width="6.7021mm"><g xmlns="http://www.w3.org/2000/svg" transform="matrix(0.35278,0,0,-0.35278,-107.6797,281.97)" id="g1841">
    <g clip-path="url(#clipPath24650)" id="g1839">
      <g transform="translate(319.05,781.33)" id="g1837">
        <path d="M 0,0 C 0.591,1.238 0.561,2.714 -0.222,3.978 -1.001,5.238 -2.35,6 -3.791,6.145 -2.723,6.008 -1.732,5.43 -1.152,4.492 -0.433,3.33 -0.541,1.934 -1.305,0.897 -1.53,0.591 -1.813,0.317 -2.148,0.089 -2.251,0.018 -2.36,-0.048 -2.474,-0.11 -2.996,-0.391 -3.562,-0.536 -4.125,-0.558 l 0.024,-0.719 c 0.516,-0.091 0.906,-0.513 0.906,-1.021 0,-0.098 -0.014,-0.192 -0.041,-0.281 l 0.703,-0.353 c 0.383,0.505 0.91,0.907 1.526,1.154 0.365,0.146 0.761,0.237 1.175,0.263 0.082,0.005 0.164,0.008 0.247,0.008 1.993,0 3.609,-1.508 3.609,-3.368 0,-0.466 -0.101,-0.909 -0.284,-1.312 0.276,0.557 0.429,1.177 0.429,1.831 C 4.169,-2.101 2.346,-0.245 0,0 m -1.529,1.069 c -0.769,0.553 -1.733,0.883 -2.779,0.883 -1.028,0 -1.977,-0.318 -2.739,-0.854 0.229,-0.322 0.518,-0.598 0.849,-0.817 0.538,0.344 1.188,0.546 1.89,0.546 0.714,0 1.376,-0.21 1.92,-0.566 0.341,0.22 0.631,0.493 0.859,0.808 m -4.554,4.656 c 0.432,0.233 0.894,0.373 1.36,0.426 C -5.378,6.095 -6.031,5.909 -6.638,5.582 -8.729,4.455 -9.541,2.053 -8.595,0.035 c -1.445,-0.142 -2.799,-0.904 -3.581,-2.168 -0.78,-1.26 -0.812,-2.732 -0.226,-3.968 -0.407,0.931 -0.366,2.021 0.214,2.959 0.669,1.08 1.882,1.684 3.13,1.684 0.094,0 0.188,-0.003 0.282,-0.01 0.397,-0.029 0.793,-0.12 1.172,-0.277 0.118,-0.049 0.234,-0.103 0.347,-0.164 0.523,-0.282 0.94,-0.667 1.242,-1.111 l 0.656,0.379 c -0.04,0.107 -0.063,0.223 -0.063,0.343 0,0.485 0.357,0.893 0.839,1.007 l -0.025,0.744 c -0.66,0.057 -1.297,0.283 -1.834,0.657 -0.317,0.222 -0.6,0.496 -0.832,0.818 -0.045,0.063 -0.089,0.128 -0.13,0.195 -0.997,1.611 -0.406,3.672 1.321,4.602 m -1.574,-8.023 c 0,0.092 0.005,0.183 0.014,0.273 -0.372,0.163 -0.772,0.262 -1.18,0.289 -0.026,-0.184 -0.04,-0.371 -0.04,-0.562 0,-1.757 1.143,-3.265 2.772,-3.912 0.188,0.351 0.298,0.722 0.334,1.094 -1.124,0.504 -1.9,1.576 -1.9,2.818 m 6.686,0.238 c 0.007,-0.079 0.011,-0.158 0.011,-0.238 0,-1.254 -0.791,-2.334 -1.934,-2.832 0.035,-0.391 0.146,-0.761 0.322,-1.098 1.654,0.637 2.818,2.157 2.818,3.93 0,0.174 -0.012,0.346 -0.034,0.515 -0.42,-0.024 -0.818,-0.121 -1.183,-0.277 m -10.971,-4.798 c 0.379,-0.501 0.879,-0.936 1.485,-1.263 0.74,-0.398 1.548,-0.588 2.344,-0.588 1.457,0 2.878,0.634 3.783,1.78 0.854,-1.097 2.239,-1.81 3.802,-1.81 1.56,0 2.941,0.71 3.796,1.801 -0.661,-0.794 -1.693,-1.306 -2.853,-1.306 -1.438,0 -2.679,0.785 -3.26,1.92 -0.171,0.335 -0.284,0.701 -0.329,1.086 -0.014,0.119 -0.021,0.24 -0.021,0.363 0,0.563 0.149,1.093 0.41,1.559 l -0.68,0.34 c -0.204,-0.221 -0.506,-0.361 -0.843,-0.361 -0.313,0 -0.595,0.12 -0.797,0.313 l -0.679,-0.392 c 0.277,-0.562 0.387,-1.189 0.307,-1.811 -0.047,-0.367 -0.16,-0.733 -0.343,-1.081 -0.036,-0.068 -0.074,-0.136 -0.116,-0.203 -0.668,-1.081 -1.881,-1.685 -3.129,-1.685 -0.612,0 -1.233,0.146 -1.801,0.452 -0.432,0.233 -0.793,0.536 -1.076,0.886" id="path1835"/>
      </g>
    </g>
  </g></svg>