<svg
   xmlns:dc="http://purl.org/dc/elements/1.1/"
   xmlns:cc="http://creativecommons.org/ns#"
   xmlns:rdf="http://www.w3.org/1999/02/22-rdf-syntax-ns#"
   xmlns:svg="http://www.w3.org/2000/svg"
   xmlns="http://www.w3.org/2000/svg"
   xmlns:sodipodi="http://sodipodi.sourceforge.net/DTD/sodipodi-0.dtd"
   xmlns:inkscape="http://www.inkscape.org/namespaces/inkscape"
   inkscape:version="1.0 (4035a4fb49, 2020-05-01)"
   sodipodi:docname="all_stacked (copy).svg"
   id="svg2899"
   viewBox="0 0 6.7021 13.579"
   version="1.1"
   height="13.579mm"
   width="6.7021mm"><g xmlns="http://www.w3.org/2000/svg" transform="translate(-119.457,-44.821)" id="g1871">
    <g transform="matrix(0.35278,0,0,-0.35278,11.772,308.27)" id="g1853">
      <g clip-path="url(#clipPath24684)" id="g1851">
        <g transform="translate(307,723.67)" id="g1845">
          <path d="m 0,0 c -0.452,1.009 -0.756,1.861 -0.756,3.085 0,1.828 0.999,3.374 2.32,4.639 H 2.137 C 0.791,6.203 -0.026,4.714 -0.026,2.696 -0.026,1.679 0.122,0.943 0.443,0 Z" id="path1843"/>
        </g>
        <g transform="translate(309.52,728.82)" id="g1849">
          <path d="m 0,0 h -0.504 l 0.035,0.149 h 0.895 c 0.417,0 0.626,0.066 0.799,0.182 l -0.356,-1.05 0.017,-0.009 c 0.357,0.414 0.834,0.976 1.495,0.976 0.521,0 0.808,-0.273 0.808,-0.695 0,-0.248 -0.182,-0.719 -0.33,-1.124 L 2.468,-2.622 C 2.407,-2.795 2.337,-2.994 2.337,-3.068 c 0,-0.141 0.07,-0.174 0.157,-0.174 0.278,0 0.643,0.488 0.738,0.67 L 3.354,-2.638 C 3.111,-3.043 2.711,-3.54 2.068,-3.54 c -0.46,0 -0.721,0.323 -0.721,0.695 0,0.157 0.078,0.339 0.122,0.471 l 0.686,1.936 C 2.207,-0.289 2.25,-0.182 2.25,-0.074 2.25,0.033 2.146,0.05 2.068,0.05 1.651,0.05 0.843,-0.893 0.721,-1.29 L 0.07,-3.44 h -1.113 z" id="path1847"/>
        </g>
      </g>
    </g>
    <g transform="matrix(0.35278,0,0,-0.35278,122.83,51.122)" id="g1857">
      <path d="M 0,0 H 0.5 V -1.195 H 1.755 V -1.67 H 0.5 V -2.865 H 0 v 1.195 h -1.255 v 0.475 H 0 Z" id="path1855"/>
    </g>
    <g transform="matrix(0.35278,0,0,-0.35278,11.772,308.27)" id="g1869">
      <g clip-path="url(#clipPath24704)" id="g1867">
        <g transform="translate(317.37,725.38)" id="g1861">
          <path d="m 0,0 v 0.546 h 0.478 c 0.382,0 0.608,0.099 0.608,0.33 V 3.697 H -0.026 V 4.259 C 0.678,4.292 1.138,4.408 1.486,5.003 H 2.207 V 0.876 c 0,-0.231 0.226,-0.33 0.608,-0.33 H 3.259 V 0 Z" id="path1859"/>
        </g>
        <g transform="translate(322.49,731.4)" id="g1865">
          <path d="m 0,0 c 0.452,-1.009 0.756,-1.861 0.756,-3.085 0,-1.827 -0.999,-3.374 -2.32,-4.639 h -0.574 c 1.347,1.521 2.164,3.01 2.164,5.028 0,1.017 -0.148,1.753 -0.469,2.696 z" id="path1863"/>
        </g>
      </g>
    </g>
  </g></svg>