<svg
   xmlns:dc="http://purl.org/dc/elements/1.1/"
   xmlns:cc="http://creativecommons.org/ns#"
   xmlns:rdf="http://www.w3.org/1999/02/22-rdf-syntax-ns#"
   xmlns:svg="http://www.w3.org/2000/svg"
   xmlns="http://www.w3.org/2000/svg"
   xmlns:sodipodi="http://sodipodi.sourceforge.net/DTD/sodipodi-0.dtd"
   xmlns:inkscape="http://www.inkscape.org/namespaces/inkscape"
   inkscape:version="1.0 (4035a4fb49, 2020-05-01)"
   sodipodi:docname="all_stacked (copy).svg"
   id="svg2899"
   viewBox="0 0 6.7021 13.579"
   version="1.1"
   height="13.579mm"
   width="6.7021mm"><g xmlns="http://www.w3.org/2000/svg" transform="matrix(0.35278,0,0,-0.35278,-54.509,92.52)" id="g2679">
    <g clip-path="url(#clipPath33896)" id="g2677">
      <g transform="translate(156.92,245.46)" id="g2675">
        <path d="M 0,0 0.896,-0.7 0.053,-2.316 C -0.369,-3.061 0.356,-3.787 0.817,-4.04 1.272,-4.289 1.977,-4.318 2.636,-4.309 L 3.822,-2.37 4.719,-2.855 3.163,0.027 Z m 0.132,-3.956 1.924,-3.555 c 0.387,-0.494 1.116,-0.61 1.872,-0.593 h 2.03 v 3.367 L 2.109,-4.71 C 1.511,-4.746 0.729,-4.62 0.132,-3.956 M 12.239,2.596 11.192,2.152 10.187,3.673 C 9.74,4.403 8.754,4.121 8.309,3.84 7.871,3.563 7.503,2.96 7.192,2.38 L 8.313,0.402 7.454,-0.147 10.729,-0.184 Z M 8.715,4.398 4.673,4.439 C 4.053,4.34 3.598,3.759 3.247,3.089 L 2.263,1.314 5.208,-0.318 7.097,3.035 c 0.258,0.54 0.747,1.163 1.618,1.363 m 0.176,-13.718 0.119,1.132 1.817,0.141 c 0.856,0.037 1.087,1.036 1.057,1.561 -0.03,0.518 -0.379,1.131 -0.736,1.686 L 8.875,-4.822 8.811,-3.805 7.192,-6.651 Z m 3.285,2.209 1.995,3.515 c 0.214,0.59 -0.074,1.27 -0.489,1.902 l -1.076,1.721 -2.855,-1.784 2.017,-3.278 c 0.347,-0.488 0.655,-1.218 0.408,-2.076" id="path2673"/>
      </g>
    </g>
  </g></svg>