<svg
   xmlns:dc="http://purl.org/dc/elements/1.1/"
   xmlns:cc="http://creativecommons.org/ns#"
   xmlns:rdf="http://www.w3.org/1999/02/22-rdf-syntax-ns#"
   xmlns:svg="http://www.w3.org/2000/svg"
   xmlns="http://www.w3.org/2000/svg"
   xmlns:sodipodi="http://sodipodi.sourceforge.net/DTD/sodipodi-0.dtd"
   xmlns:inkscape="http://www.inkscape.org/namespaces/inkscape"
   inkscape:version="1.0 (4035a4fb49, 2020-05-01)"
   sodipodi:docname="all_stacked (copy).svg"
   id="svg2899"
   viewBox="0 0 6.7021 13.579"
   version="1.1"
   height="13.579mm"
   width="6.7021mm"><g xmlns="http://www.w3.org/2000/svg" transform="matrix(0.35278,0,0,-0.35278,-107.1856,231.45)" id="g1889">
    <g clip-path="url(#clipPath24756)" id="g1887">
      <g transform="translate(307.43,633.94)" id="g1885">
        <path d="M 0,0 C 0.907,0.437 1.815,0.874 2.722,1.311 3.841,-0.782 5.88,-1.126 7.256,-0.7 8.722,-0.247 9.816,1.159 9.894,2.629 9.999,4.596 8.74,5.943 7.436,6.418 6.082,6.912 4.332,6.523 3.523,5.505 4.059,4.999 4.6,4.488 5.226,3.896 3.029,3.547 0.954,3.218 -1.188,2.878 -0.903,5.048 -0.624,7.177 -0.349,9.273 0.168,8.751 0.696,8.218 1.238,7.671 3.214,9.476 5.409,10.116 7.9,9.483 9.811,8.998 11.248,7.841 12.179,6.101 14.045,2.614 12.549,-1.751 8.946,-3.341 5.284,-4.956 1.347,-3.107 0,0" id="path1883"/>
      </g>
    </g>
  </g></svg>