<svg
   xmlns:dc="http://purl.org/dc/elements/1.1/"
   xmlns:cc="http://creativecommons.org/ns#"
   xmlns:rdf="http://www.w3.org/1999/02/22-rdf-syntax-ns#"
   xmlns:svg="http://www.w3.org/2000/svg"
   xmlns="http://www.w3.org/2000/svg"
   xmlns:sodipodi="http://sodipodi.sourceforge.net/DTD/sodipodi-0.dtd"
   xmlns:inkscape="http://www.inkscape.org/namespaces/inkscape"
   inkscape:version="1.0 (4035a4fb49, 2020-05-01)"
   sodipodi:docname="all_stacked (copy).svg"
   id="svg2899"
   viewBox="0 0 6.7021 13.579"
   version="1.1"
   height="13.579mm"
   width="6.7021mm"><g xmlns="http://www.w3.org/2000/svg" transform="matrix(0.35278,0,0,-0.35278,-107.5605,147.7)" id="g2013">
    <g clip-path="url(#clipPath24918)" id="g2011">
      <g transform="translate(320.84,398.17)" id="g1929">
        <path d="m 0,0 c 0.354,0.613 0.995,0.955 1.655,0.955 0.004,0.097 0.006,0.194 0.006,0.292 0,1.561 -0.442,3.019 -1.206,4.256 -0.912,-0.52 -2.074,-0.206 -2.599,0.705 -0.354,0.612 -0.329,1.34 0.001,1.911 -1.248,0.783 -2.723,1.237 -4.305,1.237 -0.078,0 -0.156,-0.002 -0.234,-0.004 -0.007,-1.049 -0.859,-1.898 -1.91,-1.898 -0.708,0 -1.326,0.386 -1.656,0.958 -1.413,-0.751 -2.577,-1.907 -3.338,-3.314 0.906,-0.531 1.216,-1.694 0.69,-2.604 -0.354,-0.613 -0.995,-0.955 -1.655,-0.955 -0.004,-0.097 -0.006,-0.194 -0.006,-0.292 0,-1.561 0.442,-3.019 1.206,-4.256 0.912,0.519 2.074,0.205 2.599,-0.705 0.354,-0.613 0.329,-1.34 -10e-4,-1.912 1.248,-0.783 2.723,-1.236 4.305,-1.236 0.078,0 0.156,0.001 0.234,0.003 0.007,1.05 0.859,1.898 1.91,1.898 0.708,0 1.326,-0.385 1.656,-0.957 1.413,0.751 2.577,1.907 3.338,3.314 C -0.216,-2.074 -0.526,-0.911 0,0" id="path1927"/>
      </g>
      <g transform="translate(320.84,398.17)" id="g1933">
        <path d="m 0,0 c 0.354,0.613 0.995,0.955 1.655,0.955 0.004,0.097 0.006,0.194 0.006,0.292 0,1.561 -0.442,3.019 -1.206,4.256 -0.912,-0.52 -2.074,-0.206 -2.599,0.705 -0.354,0.612 -0.329,1.34 0.001,1.911 -1.248,0.783 -2.723,1.237 -4.305,1.237 -0.078,0 -0.156,-0.002 -0.234,-0.004 -0.007,-1.049 -0.859,-1.898 -1.91,-1.898 -0.708,0 -1.326,0.386 -1.656,0.958 -1.413,-0.751 -2.577,-1.907 -3.338,-3.314 0.906,-0.531 1.216,-1.694 0.69,-2.604 -0.354,-0.613 -0.995,-0.955 -1.655,-0.955 -0.004,-0.097 -0.006,-0.194 -0.006,-0.292 0,-1.561 0.442,-3.019 1.206,-4.256 0.912,0.519 2.074,0.205 2.599,-0.705 0.354,-0.613 0.329,-1.34 -10e-4,-1.912 1.248,-0.783 2.723,-1.236 4.305,-1.236 0.078,0 0.156,0.001 0.234,0.003 0.007,1.05 0.859,1.898 1.91,1.898 0.708,0 1.326,-0.385 1.656,-0.957 1.413,0.751 2.577,1.907 3.338,3.314 C -0.216,-2.074 -0.526,-0.911 0,0 Z" fill="none" stroke="#ffffff" stroke-miterlimit="10" stroke-width="0.081" id="path1931"/>
      </g>
      <g transform="translate(315.6,399.87)" id="g1937">
        <path d="M 0,0 C 0,0.219 0.155,0.402 0.361,0.444 0.278,0.59 0.175,0.724 0.056,0.84 0.034,0.797 0.008,0.756 -0.028,0.72 -0.206,0.543 -0.493,0.543 -0.671,0.72 -0.825,0.875 -0.845,1.113 -0.73,1.29 -0.881,1.331 -1.04,1.355 -1.205,1.355 -1.212,1.355 -1.219,1.354 -1.225,1.354 -1.21,1.308 -1.2,1.26 -1.2,1.21 -1.2,0.959 -1.403,0.755 -1.654,0.755 -1.873,0.755 -2.056,0.91 -2.099,1.117 -2.244,1.033 -2.378,0.93 -2.494,0.811 -2.451,0.79 -2.41,0.763 -2.374,0.727 c 0.177,-0.177 0.177,-0.465 0,-0.642 -0.155,-0.155 -0.394,-0.174 -0.57,-0.059 -0.041,-0.152 -0.065,-0.311 -0.065,-0.475 0,-0.007 10e-4,-0.014 10e-4,-0.021 0.046,0.015 0.094,0.026 0.144,0.026 0.251,0 0.454,-0.204 0.454,-0.455 0,-0.219 -0.154,-0.401 -0.361,-0.444 0.084,-0.146 0.186,-0.279 0.306,-0.396 0.021,0.043 0.048,0.084 0.084,0.12 0.177,0.177 0.465,0.177 0.642,0 0.155,-0.155 0.174,-0.393 0.059,-0.569 0.152,-0.042 0.311,-0.066 0.475,-0.066 0.007,0 0.014,10e-4 0.021,0.002 -0.015,0.045 -0.026,0.093 -0.026,0.144 0,0.251 0.204,0.454 0.455,0.454 0.218,0 0.401,-0.155 0.444,-0.361 0.146,0.083 0.279,0.186 0.396,0.305 -0.043,0.022 -0.084,0.048 -0.12,0.084 -0.177,0.178 -0.177,0.465 0,0.643 0.155,0.154 0.393,0.174 0.569,0.059 0.041,0.151 0.065,0.31 0.065,0.475 0,0.007 -0.001,0.013 -0.001,0.02 C 0.553,-0.444 0.505,-0.454 0.454,-0.454 0.203,-0.454 0,-0.251 0,0" id="path1935"/>
      </g>
      <g transform="translate(315.6,399.87)" id="g1941">
        <path d="M 0,0 C 0,0.219 0.155,0.402 0.361,0.444 0.278,0.59 0.175,0.724 0.056,0.84 0.034,0.797 0.008,0.756 -0.028,0.72 -0.206,0.543 -0.493,0.543 -0.671,0.72 -0.825,0.875 -0.845,1.113 -0.73,1.29 -0.881,1.331 -1.04,1.355 -1.205,1.355 -1.212,1.355 -1.219,1.354 -1.225,1.354 -1.21,1.308 -1.2,1.26 -1.2,1.21 -1.2,0.959 -1.403,0.755 -1.654,0.755 -1.873,0.755 -2.056,0.91 -2.099,1.117 -2.244,1.033 -2.378,0.93 -2.494,0.811 -2.451,0.79 -2.41,0.763 -2.374,0.727 c 0.177,-0.177 0.177,-0.465 0,-0.642 -0.155,-0.155 -0.394,-0.174 -0.57,-0.059 -0.041,-0.152 -0.065,-0.311 -0.065,-0.475 0,-0.007 10e-4,-0.014 10e-4,-0.021 0.046,0.015 0.094,0.026 0.144,0.026 0.251,0 0.454,-0.204 0.454,-0.455 0,-0.219 -0.154,-0.401 -0.361,-0.444 0.084,-0.146 0.186,-0.279 0.306,-0.396 0.021,0.043 0.048,0.084 0.084,0.12 0.177,0.177 0.465,0.177 0.642,0 0.155,-0.155 0.174,-0.393 0.059,-0.569 0.152,-0.042 0.311,-0.066 0.475,-0.066 0.007,0 0.014,10e-4 0.021,0.002 -0.015,0.045 -0.026,0.093 -0.026,0.144 0,0.251 0.204,0.454 0.455,0.454 0.218,0 0.401,-0.155 0.444,-0.361 0.146,0.083 0.279,0.186 0.396,0.305 -0.043,0.022 -0.084,0.048 -0.12,0.084 -0.177,0.178 -0.177,0.465 0,0.643 0.155,0.154 0.393,0.174 0.569,0.059 0.041,0.151 0.065,0.31 0.065,0.475 0,0.007 -0.001,0.013 -0.001,0.02 C 0.553,-0.444 0.505,-0.454 0.454,-0.454 0.203,-0.454 0,-0.251 0,0 Z" fill="none" stroke="#ffffff" stroke-miterlimit="10" stroke-width="0.3" id="path1939"/>
      </g>
      <g transform="translate(314.01,399.42)" id="g1945">
        <path d="M 0,0 C 0,0.212 0.172,0.384 0.384,0.384 0.596,0.384 0.768,0.212 0.768,0 0.768,-0.212 0.596,-0.384 0.384,-0.384 0.172,-0.384 0,-0.212 0,0" id="path1943"/>
      </g>
      <g transform="translate(314.01,399.42)" id="g1949">
        <path d="M 0,0 C 0,0.212 0.172,0.384 0.384,0.384 0.596,0.384 0.768,0.212 0.768,0 0.768,-0.212 0.596,-0.384 0.384,-0.384 0.172,-0.384 0,-0.212 0,0 Z" fill="none" stroke="#ffffff" stroke-miterlimit="10" stroke-width="0.3" id="path1947"/>
      </g>
      <g transform="translate(313.7,403.98)" id="g1953">
        <path d="M 0,0 C 0,1.045 0.847,1.892 1.892,1.892 2.937,1.892 3.784,1.045 3.784,0 3.784,-1.045 2.937,-1.892 1.892,-1.892 0.847,-1.892 0,-1.045 0,0" fill="#ffffff" id="path1951"/>
      </g>
      <g transform="translate(313.7,403.98)" id="g1957">
        <path d="M 0,0 C 0,1.045 0.847,1.892 1.892,1.892 2.937,1.892 3.784,1.045 3.784,0 3.784,-1.045 2.937,-1.892 1.892,-1.892 0.847,-1.892 0,-1.045 0,0 Z" fill="none" stroke="#000000" stroke-miterlimit="10" stroke-width="0.081" id="path1955"/>
      </g>
      <g transform="translate(310.09,401.1)" id="g1961">
        <path d="M 0,0 C -0.905,0.522 -1.215,1.68 -0.693,2.584 -0.17,3.489 0.987,3.799 1.892,3.277 2.797,2.754 3.107,1.597 2.584,0.693 2.062,-0.212 0.905,-0.522 0,0" fill="#ffffff" id="path1959"/>
      </g>
      <g transform="translate(310.09,401.1)" id="g1965">
        <path d="M 0,0 C -0.905,0.522 -1.215,1.68 -0.693,2.584 -0.17,3.489 0.987,3.799 1.892,3.277 2.797,2.754 3.107,1.597 2.584,0.693 2.062,-0.212 0.905,-0.522 0,0 Z" fill="none" stroke="#000000" stroke-miterlimit="10" stroke-width="0.081" id="path1963"/>
      </g>
      <g transform="translate(310.79,396.53)" id="g1969">
        <path d="M 0,0 C -0.905,-0.522 -2.062,-0.212 -2.584,0.692 -3.107,1.597 -2.797,2.754 -1.892,3.277 -0.987,3.799 0.17,3.489 0.692,2.584 1.215,1.68 0.905,0.522 0,0" fill="#ffffff" id="path1967"/>
      </g>
      <g transform="translate(310.79,396.53)" id="g1973">
        <path d="M 0,0 C -0.905,-0.522 -2.062,-0.212 -2.584,0.692 -3.107,1.597 -2.797,2.754 -1.892,3.277 -0.987,3.799 0.17,3.489 0.692,2.584 1.215,1.68 0.905,0.522 0,0 Z" fill="none" stroke="#000000" stroke-miterlimit="10" stroke-width="0.081" id="path1971"/>
      </g>
      <g transform="translate(315.09,394.85)" id="g1977">
        <path d="m 0,0 c 0,-1.045 -0.847,-1.892 -1.892,-1.892 -1.045,0 -1.892,0.847 -1.892,1.892 0,1.045 0.847,1.892 1.892,1.892 C -0.847,1.892 0,1.045 0,0" fill="#ffffff" id="path1975"/>
      </g>
      <g transform="translate(315.09,394.85)" id="g1981">
        <path d="m 0,0 c 0,-1.045 -0.847,-1.892 -1.892,-1.892 -1.045,0 -1.892,0.847 -1.892,1.892 0,1.045 0.847,1.892 1.892,1.892 C -0.847,1.892 0,1.045 0,0 Z" fill="none" stroke="#000000" stroke-miterlimit="10" stroke-width="0.081" id="path1979"/>
      </g>
      <g transform="translate(318.69,397.74)" id="g1985">
        <path d="m 0,0 c 0.905,-0.522 1.215,-1.68 0.693,-2.584 -0.523,-0.905 -1.68,-1.215 -2.585,-0.693 -0.905,0.523 -1.215,1.68 -0.692,2.585 C -2.062,0.212 -0.905,0.522 0,0" fill="#ffffff" id="path1983"/>
      </g>
      <g transform="translate(318.69,397.74)" id="g1989">
        <path d="m 0,0 c 0.905,-0.522 1.215,-1.68 0.693,-2.584 -0.523,-0.905 -1.68,-1.215 -2.585,-0.693 -0.905,0.523 -1.215,1.68 -0.692,2.585 C -2.062,0.212 -0.905,0.522 0,0 Z" fill="none" stroke="#000000" stroke-miterlimit="10" stroke-width="0.081" id="path1987"/>
      </g>
      <g transform="translate(318,402.3)" id="g1993">
        <path d="M 0,0 C 0.903,0.521 2.057,0.212 2.578,-0.691 3.1,-1.594 2.79,-2.748 1.888,-3.269 0.985,-3.791 -0.17,-3.481 -0.691,-2.578 -1.212,-1.676 -0.903,-0.521 0,0 Z" fill="none" stroke="#000000" stroke-miterlimit="10" stroke-width="0.3" id="path1991"/>
      </g>
      <g transform="translate(318.07,402.17)" id="g1997">
        <path d="M 0,0 C 0.832,0.48 1.896,0.195 2.377,-0.637 2.857,-1.469 2.572,-2.533 1.74,-3.014 0.908,-3.494 -0.156,-3.209 -0.637,-2.377 -1.117,-1.545 -0.832,-0.48 0,0" id="path1995"/>
      </g>
      <g transform="translate(318.07,402.17)" id="g2001">
        <path d="M 0,0 C 0.832,0.48 1.896,0.195 2.377,-0.637 2.857,-1.469 2.572,-2.533 1.74,-3.014 0.908,-3.494 -0.156,-3.209 -0.637,-2.377 -1.117,-1.545 -0.832,-0.48 0,0 Z" fill="none" stroke="#ffffff" stroke-miterlimit="10" stroke-width="0.3" id="path1999"/>
      </g>
      <g transform="translate(318.49,401.45)" id="g2005">
        <path d="M 0,0 C 0.433,0.25 0.986,0.102 1.236,-0.331 1.485,-0.764 1.337,-1.317 0.904,-1.567 0.472,-1.816 -0.081,-1.668 -0.331,-1.236 -0.581,-0.803 -0.433,-0.25 0,0" id="path2003"/>
      </g>
      <g transform="translate(318.49,401.45)" id="g2009">
        <path d="M 0,0 C 0.433,0.25 0.986,0.102 1.236,-0.331 1.485,-0.764 1.337,-1.317 0.904,-1.567 0.472,-1.816 -0.081,-1.668 -0.331,-1.236 -0.581,-0.803 -0.433,-0.25 0,0 Z" fill="none" stroke="#ffffff" stroke-miterlimit="10" stroke-width="0.3" id="path2007"/>
      </g>
    </g>
  </g></svg>