<svg
   xmlns:dc="http://purl.org/dc/elements/1.1/"
   xmlns:cc="http://creativecommons.org/ns#"
   xmlns:rdf="http://www.w3.org/1999/02/22-rdf-syntax-ns#"
   xmlns:svg="http://www.w3.org/2000/svg"
   xmlns="http://www.w3.org/2000/svg"
   xmlns:sodipodi="http://sodipodi.sourceforge.net/DTD/sodipodi-0.dtd"
   xmlns:inkscape="http://www.inkscape.org/namespaces/inkscape"
   inkscape:version="1.0 (4035a4fb49, 2020-05-01)"
   sodipodi:docname="all_stacked (copy).svg"
   id="svg2899"
   viewBox="0 0 6.7021 13.579"
   version="1.1"
   height="13.579mm"
   width="6.7021mm"><g xmlns="http://www.w3.org/2000/svg" transform="translate(93.64,-70.763)" id="g2895">
    <g transform="matrix(0.35278,0,0,-0.35278,-91.581,80.251)" id="g2773">
      <path d="m 0,0 1.81,-0.659 9.672,26.575 -1.809,0.659 z" fill="#ffffff" id="path2771"/>
    </g>
    <g transform="matrix(0.35278,0,0,-0.35278,-91.581,80.251)" id="g2777">
      <path d="m 0,0 1.81,-0.659 9.672,26.575 -1.809,0.659 z" fill="none" stroke="#000000" stroke-miterlimit="10" stroke-width="0.5" id="path2775"/>
    </g>
    <g transform="matrix(0.35278,0,0,-0.35278,-201.2,197.44)" id="g2789">
      <g clip-path="url(#clipPath3830)" id="g2787">
        <g transform="translate(308.08,322.44)" id="g2781">
          <path d="M 0,0 -1.282,-1.065 8.636,26.184 10.446,25.526 2.404,3.432 C 1.915,2.088 1.083,0.9 0,0" fill="#ffffff" id="path2779"/>
        </g>
        <g transform="translate(308.08,322.44)" id="g2785">
          <path d="M 0,0 -1.282,-1.065 8.636,26.184 10.446,25.526 2.404,3.432 C 1.915,2.088 1.083,0.9 0,0" fill="none" stroke="#000000" stroke-miterlimit="10" stroke-width="0.5" id="path2783"/>
        </g>
      </g>
    </g>
    <g transform="matrix(0.35278,0,0,-0.35278,-90.028,74.352)" id="g2793">
      <path d="m 0,0 4.782,-1.741 0.337,0.927 -4.782,1.74 z" fill="#ffffff" id="path2791"/>
    </g>
    <g transform="matrix(0.35278,0,0,-0.35278,-90.028,74.352)" id="g2797">
      <path d="m 0,0 4.782,-1.741 0.337,0.927 -4.782,1.74 z" fill="none" stroke="#000000" stroke-miterlimit="10" stroke-width="0.5" id="path2795"/>
    </g>
    <g transform="matrix(0.35278,0,0,-0.35278,-88.288,71.509)" id="g2801">
      <path d="M 0,0 0.495,-0.636 1.283,-0.467 0.788,0.168 Z" id="path2799"/>
    </g>
    <g transform="matrix(0.35278,0,0,-0.35278,-87.835,71.673)" id="g2805">
      <path d="m 0,0 -0.788,-0.169 -0.495,0.636 0.788,0.169 z" fill="none" stroke="#000000" stroke-miterlimit="10" stroke-width="0.5" id="path2803"/>
    </g>
    <g transform="matrix(0.35278,0,0,-0.35278,-87.95,71.632)" id="g2809">
      <path d="M 0,0 -0.387,-0.083 -0.63,0.229 -0.243,0.312 Z" fill="none" stroke="#000000" stroke-miterlimit="10" stroke-width="0.5" id="path2807"/>
    </g>
    <g transform="matrix(0.35278,0,0,-0.35278,-88.437,71.918)" id="g2813">
      <path d="M 0,0 0.495,-0.635 1.283,-0.467 0.788,0.169 Z" id="path2811"/>
    </g>
    <g transform="matrix(0.35278,0,0,-0.35278,-87.984,72.083)" id="g2817">
      <path d="m 0,0 -0.788,-0.169 -0.495,0.636 0.788,0.169 z" fill="none" stroke="#000000" stroke-miterlimit="10" stroke-width="0.5" id="path2815"/>
    </g>
    <g transform="matrix(0.35278,0,0,-0.35278,-88.099,72.041)" id="g2821">
      <path d="M 0,0 -0.387,-0.083 -0.63,0.229 -0.243,0.312 Z" fill="none" stroke="#000000" stroke-miterlimit="10" stroke-width="0.5" id="path2819"/>
    </g>
    <g transform="matrix(0.35278,0,0,-0.35278,-88.586,72.327)" id="g2825">
      <path d="M 0,0 0.496,-0.636 1.283,-0.467 0.788,0.168 Z" id="path2823"/>
    </g>
    <g transform="matrix(0.35278,0,0,-0.35278,-88.133,72.492)" id="g2829">
      <path d="m 0,0 -0.788,-0.169 -0.495,0.636 0.788,0.169 z" fill="none" stroke="#000000" stroke-miterlimit="10" stroke-width="0.5" id="path2827"/>
    </g>
    <g transform="matrix(0.35278,0,0,-0.35278,-88.248,72.45)" id="g2833">
      <path d="M 0,0 -0.387,-0.083 -0.63,0.229 -0.243,0.312 Z" fill="none" stroke="#000000" stroke-miterlimit="10" stroke-width="0.5" id="path2831"/>
    </g>
    <g transform="matrix(0.35278,0,0,-0.35278,-88.735,72.737)" id="g2837">
      <path d="M 0,0 0.495,-0.635 1.283,-0.467 0.788,0.169 Z" id="path2835"/>
    </g>
    <g transform="matrix(0.35278,0,0,-0.35278,-88.282,72.902)" id="g2841">
      <path d="m 0,0 -0.788,-0.169 -0.495,0.636 0.788,0.169 z" fill="none" stroke="#000000" stroke-miterlimit="10" stroke-width="0.5" id="path2839"/>
    </g>
    <g transform="matrix(0.35278,0,0,-0.35278,-88.397,72.86)" id="g2845">
      <path d="M 0,0 -0.387,-0.083 -0.63,0.229 -0.243,0.312 Z" fill="none" stroke="#000000" stroke-miterlimit="10" stroke-width="0.5" id="path2843"/>
    </g>
    <g transform="matrix(0.35278,0,0,-0.35278,-88.884,73.146)" id="g2849">
      <path d="M 0,0 0.495,-0.635 1.283,-0.467 0.788,0.168 Z" id="path2847"/>
    </g>
    <g transform="matrix(0.35278,0,0,-0.35278,-88.431,73.311)" id="g2853">
      <path d="m 0,0 -0.788,-0.169 -0.495,0.636 0.788,0.169 z" fill="none" stroke="#000000" stroke-miterlimit="10" stroke-width="0.5" id="path2851"/>
    </g>
    <g transform="matrix(0.35278,0,0,-0.35278,-88.546,73.269)" id="g2857">
      <path d="M 0,0 -0.387,-0.083 -0.63,0.229 -0.243,0.312 Z" fill="none" stroke="#000000" stroke-miterlimit="10" stroke-width="0.5" id="path2855"/>
    </g>
    <g transform="matrix(0.35278,0,0,-0.35278,-89.032,73.556)" id="g2861">
      <path d="M 0,0 0.495,-0.635 1.283,-0.467 0.788,0.169 Z" id="path2859"/>
    </g>
    <g transform="matrix(0.35278,0,0,-0.35278,-88.58,73.72)" id="g2865">
      <path d="m 0,0 -0.788,-0.169 -0.495,0.636 0.788,0.169 z" fill="none" stroke="#000000" stroke-miterlimit="10" stroke-width="0.5" id="path2863"/>
    </g>
    <g transform="matrix(0.35278,0,0,-0.35278,-88.695,73.679)" id="g2869">
      <path d="M 0,0 -0.387,-0.083 -0.63,0.229 -0.243,0.312 Z" fill="none" stroke="#000000" stroke-miterlimit="10" stroke-width="0.5" id="path2867"/>
    </g>
    <g transform="matrix(0.35278,0,0,-0.35278,-89.182,73.965)" id="g2873">
      <path d="M 0,0 0.495,-0.635 1.283,-0.467 0.788,0.168 Z" id="path2871"/>
    </g>
    <g transform="matrix(0.35278,0,0,-0.35278,-88.729,74.13)" id="g2877">
      <path d="m 0,0 -0.788,-0.169 -0.495,0.636 0.788,0.169 z" fill="none" stroke="#000000" stroke-miterlimit="10" stroke-width="0.5" id="path2875"/>
    </g>
    <g transform="matrix(0.35278,0,0,-0.35278,-89.52,74.589)" id="g2881">
      <path d="M 0,0 1.81,-0.659 1.472,-1.585 -0.337,-0.926 Z" fill="#ffffff" id="path2879"/>
    </g>
    <g transform="matrix(0.35278,0,0,-0.35278,-89.52,74.589)" id="g2885">
      <path d="M 0,0 1.81,-0.659 1.472,-1.585 -0.337,-0.926 Z" fill="none" stroke="#000000" stroke-miterlimit="10" stroke-width="0.5" id="path2883"/>
    </g>
    <g transform="matrix(0.35278,0,0,-0.35278,-88.283,71.192)" id="g2889">
      <path d="M 0,0 1.81,-0.659 2.135,0.236 0.326,0.894 Z" fill="#ffffff" id="path2887"/>
    </g>
    <g transform="matrix(0.35278,0,0,-0.35278,-88.283,71.192)" id="g2893">
      <path d="M 0,0 1.81,-0.659 2.135,0.236 0.326,0.894 Z" fill="none" stroke="#000000" stroke-miterlimit="10" stroke-width="0.5" id="path2891"/>
    </g>
  </g></svg>