<?xml version="1.0" encoding="utf-8"?>
<!-- Generator: Adobe Illustrator 24.2.0, SVG Export Plug-In . SVG Version: 6.00 Build 0)  -->
<svg version="1.1"
	 id="svg2899" sodipodi:docname="all_stacked (copy).svg" xmlns:cc="http://creativecommons.org/ns#" xmlns:dc="http://purl.org/dc/elements/1.1/" xmlns:inkscape="http://www.inkscape.org/namespaces/inkscape" xmlns:rdf="http://www.w3.org/1999/02/22-rdf-syntax-ns#" xmlns:sodipodi="http://sodipodi.sourceforge.net/DTD/sodipodi-0.dtd" xmlns:svg="http://www.w3.org/2000/svg"
	 xmlns="http://www.w3.org/2000/svg" xmlns:xlink="http://www.w3.org/1999/xlink" x="0px" y="0px" viewBox="0 0 19 38.5"
	 style="enable-background:new 0 0 19 38.5;" xml:space="preserve">
<g>
	<g>
		<path d="M9.1,11.5c-4.2,0-7.6,3.4-7.6,7.6c0,4.2,3.4,7.6,7.6,7.6c4.2,0,7.6-3.4,7.6-7.6C16.7,14.9,13.3,11.5,9.1,11.5 M9.1,27.2
			c-2.1,0-4.2-0.8-5.7-2.4C1.9,23.3,1,21.3,1,19.1s0.8-4.2,2.4-5.7c1.5-1.5,3.5-2.4,5.7-2.4c2.1,0,4.2,0.8,5.7,2.4
			c1.5,1.5,2.4,3.5,2.4,5.7s-0.8,4.2-2.4,5.7C13.3,26.4,11.2,27.2,9.1,27.2"/>
	</g>
	<g>
		<path d="M9.1,12.6c-3.6,0-6.5,2.9-6.5,6.5c0,3.6,2.9,6.5,6.5,6.5c3.6,0,6.5-2.9,6.5-6.5C15.6,15.6,12.7,12.6,9.1,12.6 M9.1,26.1
			c-1.9,0-3.6-0.7-4.9-2c-1.3-1.3-2-3-2-4.9c0-1.8,0.7-3.6,2-4.9c1.3-1.3,3-2,4.9-2c1.8,0,3.6,0.7,4.9,2c1.3,1.3,2,3,2,4.9
			c0,1.8-0.7,3.6-2,4.9C12.7,25.4,10.9,26.1,9.1,26.1"/>
	</g>
	<g>
		<path d="M9.1,13.7c-3,0-5.5,2.5-5.5,5.5c0,3,2.5,5.5,5.5,5.5c3,0,5.5-2.5,5.5-5.5C14.6,16.1,12.1,13.7,9.1,13.7 M9.1,25
			c-3.3,0-5.9-2.6-5.9-5.9s2.6-5.9,5.9-5.9s5.9,2.6,5.9,5.9S12.3,25,9.1,25"/>
	</g>
	<g>
		<polygon points="10.7,22.6 7.5,22.6 9.1,26.3 		"/>
		<polygon points="2.9,15.6 5.2,18.8 6.9,16 		"/>
		<path d="M9.1,17.1c-1.1,0-2,0.9-2,2c0,1.1,0.9,2,2,2c1.1,0,2-0.9,2-2C11.1,18,10.2,17.1,9.1,17.1z"/>
		<path d="M12.7,19.2L12.7,19.2L12.7,19.2l-1.8-3.1H7.3l-1.8,3.1l0,0l0,0l1.8,3.1h3.6L12.7,19.2z M9.1,21.5c-1.3,0-2.3-1.1-2.3-2.3
			c0-1.3,1.1-2.3,2.3-2.3c1.3,0,2.3,1.1,2.3,2.3C11.4,20.4,10.4,21.5,9.1,21.5z"/>
		<polygon points="12.9,19.5 11.3,22.3 15.3,22.7 		"/>
		<polygon points="15.3,15.6 11.3,16 12.9,18.8 		"/>
		<polygon points="5.2,19.5 2.9,22.7 6.9,22.3 		"/>
		<polygon points="7.5,15.7 10.7,15.7 9.1,12 		"/>
	</g>
	<polygon points="6.2,13.8 6.2,11.8 4.2,12.8 	"/>
	<polygon points="2.8,19.7 0.8,18.7 0.8,20.7 	"/>
	<polygon points="6.5,25.4 4.5,26.4 6.5,27.4 	"/>
	<polygon points="12.8,25.2 12.8,27.2 14.8,26.2 	"/>
	<polygon points="16.2,19.3 18.2,20.3 18.2,18.3 	"/>
	<polygon points="12.5,13.6 14.5,12.6 12.5,11.6 	"/>
</g>
</svg>
