<svg
   xmlns:dc="http://purl.org/dc/elements/1.1/"
   xmlns:cc="http://creativecommons.org/ns#"
   xmlns:rdf="http://www.w3.org/1999/02/22-rdf-syntax-ns#"
   xmlns:svg="http://www.w3.org/2000/svg"
   xmlns="http://www.w3.org/2000/svg"
   xmlns:sodipodi="http://sodipodi.sourceforge.net/DTD/sodipodi-0.dtd"
   xmlns:inkscape="http://www.inkscape.org/namespaces/inkscape"
   inkscape:version="1.0 (4035a4fb49, 2020-05-01)"
   sodipodi:docname="all_stacked (copy).svg"
   id="svg2899"
   viewBox="0 0 6.7021 13.579"
   version="1.1"
   height="13.579mm"
   width="6.7021mm"><g xmlns="http://www.w3.org/2000/svg" transform="matrix(0.35278,0,0,-0.35278,-107.5657,75.2)" id="g801">
    <g clip-path="url(#clipPath1569)" id="g799">
      <g transform="translate(316.61,200.95)" id="g797">
        <path d="M 0,0 C -0.169,1.204 0.267,2.261 0.975,2.36 1.531,2.439 2.09,1.902 2.385,1.083 3.041,1.656 3.789,1.855 4.238,1.516 4.687,1.178 4.702,0.404 4.332,-0.384 5.2,-0.442 5.87,-0.831 5.949,-1.387 6.048,-2.095 5.152,-2.806 3.948,-2.975 3.372,-3.056 2.831,-2.998 2.411,-2.839 c 1.34,-1.842 1.133,-4.809 -0.658,-7.185 -1.789,-2.375 -4.581,-3.392 -6.722,-2.614 0.268,-0.36 0.472,-0.863 0.553,-1.437 0.169,-1.204 -0.267,-2.261 -0.975,-2.361 -0.557,-0.078 -1.115,0.459 -1.41,1.278 -0.656,-0.573 -1.404,-0.772 -1.853,-0.434 -0.449,0.338 -0.464,1.113 -0.094,1.901 -0.868,0.058 -1.538,0.447 -1.617,1.003 -0.099,0.708 0.797,1.419 2.001,1.588 0.574,0.081 1.114,0.024 1.533,-0.135 -1.337,1.843 -1.129,4.807 0.661,7.182 1.79,2.376 4.584,3.393 6.725,2.613 C 0.286,-1.081 0.081,-0.576 0,0 m -6.221,-10.702 c -0.358,1.602 0.169,3.7 1.543,5.524 1.375,1.824 3.246,2.909 4.884,3.006 -1.809,0.623 -4.191,-0.294 -5.745,-2.357 -1.554,-2.063 -1.78,-4.605 -0.682,-6.173 m 0.865,-2.086 c -0.022,0.16 -0.102,0.301 -0.197,0.417 -0.117,0.142 -0.255,0.247 -0.338,0.303 -0.045,0.03 -0.073,0.046 -0.073,0.046 0,0 -0.023,0.023 -0.064,0.057 -0.077,0.065 -0.216,0.169 -0.385,0.242 -0.138,0.059 -0.295,0.097 -0.455,0.074 -0.461,-0.064 -0.804,-0.337 -0.766,-0.608 0.003,-0.021 0.009,-0.042 0.017,-0.062 0.086,-0.233 0.462,-0.371 0.887,-0.311 0.005,0.001 0.009,0.002 0.014,0.002 0.222,0.036 0.407,0.183 0.538,0.323 -0.098,-0.165 -0.188,-0.383 -0.161,-0.607 0.001,-0.005 0.001,-0.009 0.002,-0.014 0.059,-0.425 0.295,-0.748 0.544,-0.767 0.021,-0.002 0.042,-0.002 0.064,10e-4 0.271,0.038 0.438,0.443 0.373,0.904 m 6.19,11.36 c 0.007,-0.049 0.02,-0.097 0.037,-0.143 0.048,-0.131 0.13,-0.246 0.219,-0.34 0.167,-0.178 0.352,-0.283 0.352,-0.283 0,0 0.151,-0.149 0.369,-0.261 0.115,-0.058 0.248,-0.106 0.387,-0.116 0.049,-0.004 0.098,-0.003 0.148,0.004 0.461,0.065 0.804,0.337 0.766,0.608 -0.006,0.041 -0.021,0.079 -0.042,0.114 -0.119,0.201 -0.468,0.314 -0.858,0.26 -0.001,0 -0.003,0 -0.004,-0.001 -0.229,-0.032 -0.419,-0.181 -0.552,-0.324 0.1,0.168 0.192,0.392 0.16,0.62 -0.001,0.002 -0.001,0.003 -0.001,0.004 -0.056,0.39 -0.26,0.694 -0.486,0.753 -0.04,0.011 -0.081,0.015 -0.122,0.009 C 0.936,-0.562 0.769,-0.967 0.834,-1.428" id="path795"/>
      </g>
    </g>
  </g></svg>