<svg
   xmlns:dc="http://purl.org/dc/elements/1.1/"
   xmlns:cc="http://creativecommons.org/ns#"
   xmlns:rdf="http://www.w3.org/1999/02/22-rdf-syntax-ns#"
   xmlns:svg="http://www.w3.org/2000/svg"
   xmlns="http://www.w3.org/2000/svg"
   xmlns:sodipodi="http://sodipodi.sourceforge.net/DTD/sodipodi-0.dtd"
   xmlns:inkscape="http://www.inkscape.org/namespaces/inkscape"
   inkscape:version="1.0 (4035a4fb49, 2020-05-01)"
   sodipodi:docname="all_stacked (copy).svg"
   id="svg2899"
   viewBox="0 0 6.7021 13.579"
   version="1.1"
   height="13.579mm"
   width="6.7021mm"><g xmlns="http://www.w3.org/2000/svg" transform="translate(-199.245,-112.12)" id="g2765">
    <g transform="matrix(0.35278,0,0,-0.35278,91.501,407.97)" id="g2711">
      <g clip-path="url(#clipPath32992)" id="g2709">
        <g transform="translate(306.66,819.43)" id="g2687">
          <path d="m 0,0 c 0,4.329 3.51,7.839 7.839,7.839 4.329,0 7.839,-3.51 7.839,-7.839 0,-4.329 -3.51,-7.839 -7.839,-7.839 C 3.51,-7.839 0,-4.329 0,0" fill="#ffffff" id="path2685"/>
        </g>
        <g transform="translate(314.5,811.39)" id="g2691">
          <path d="m 0,0 c -2.149,0 -4.169,0.837 -5.689,2.356 -1.519,1.52 -2.356,3.54 -2.356,5.689 0,2.149 0.837,4.17 2.356,5.689 1.52,1.52 3.54,2.357 5.689,2.357 2.149,0 4.169,-0.837 5.689,-2.357 C 7.208,12.215 8.045,10.194 8.045,8.045 8.045,5.896 7.208,3.876 5.689,2.356 4.169,0.837 2.149,0 0,0 m 0,15.678 c -4.209,0 -7.633,-3.424 -7.633,-7.633 0,-4.208 3.424,-7.632 7.633,-7.632 4.209,0 7.633,3.424 7.633,7.632 0,4.209 -3.424,7.633 -7.633,7.633" id="path2689"/>
        </g>
        <g transform="translate(307.78,819.43)" id="g2695">
          <path d="m 0,0 c 0,3.711 3.008,6.719 6.719,6.719 3.711,0 6.719,-3.008 6.719,-6.719 0,-3.711 -3.008,-6.719 -6.719,-6.719 C 3.008,-6.719 0,-3.711 0,0" fill="#ffffff" id="path2693"/>
        </g>
        <g transform="translate(314.5,812.51)" id="g2699">
          <path d="m 0,0 c -1.85,0 -3.589,0.72 -4.897,2.028 -1.308,1.308 -2.028,3.048 -2.028,4.897 0,1.85 0.72,3.589 2.028,4.897 1.308,1.308 3.047,2.029 4.897,2.029 1.85,0 3.589,-0.721 4.897,-2.029 C 6.205,10.514 6.925,8.775 6.925,6.925 6.925,5.076 6.205,3.336 4.897,2.028 3.589,0.72 1.85,0 0,0 m 0,13.438 c -3.591,0 -6.513,-2.921 -6.513,-6.513 0,-3.591 2.922,-6.512 6.513,-6.512 3.591,0 6.513,2.921 6.513,6.512 0,3.592 -2.922,6.513 -6.513,6.513" id="path2697"/>
        </g>
        <g transform="translate(308.81,819.43)" id="g2703">
          <path d="m 0,0 c 0,3.141 2.546,5.688 5.688,5.688 3.141,0 5.687,-2.547 5.687,-5.688 0,-3.141 -2.546,-5.688 -5.687,-5.688 C 2.546,-5.688 0,-3.141 0,0" fill="#ffffff" id="path2701"/>
        </g>
        <g transform="translate(314.5,813.54)" id="g2707">
          <path d="m 0,0 c -3.25,0 -5.894,2.644 -5.894,5.894 0,3.25 2.644,5.894 5.894,5.894 3.25,0 5.894,-2.644 5.894,-5.894 C 5.894,2.644 3.25,0 0,0 m 0,11.375 c -3.022,0 -5.481,-2.459 -5.481,-5.481 0,-3.022 2.459,-5.481 5.481,-5.481 3.022,0 5.481,2.459 5.481,5.481 0,3.022 -2.459,5.481 -5.481,5.481" id="path2705"/>
        </g>
      </g>
    </g>
    <g transform="matrix(0.35278,0,0,-0.35278,201.77,117.73)" id="g2715">
      <path d="M 0,0 1.914,4.341 3.828,0 8.545,0.513 5.742,-3.315 8.545,-7.144 3.828,-6.631 1.914,-10.972 0,-6.631 l -4.717,-0.513 2.803,3.829 -2.803,3.828 z" id="path2713"/>
    </g>
    <g transform="matrix(0.35278,0,0,-0.35278,202.45,121.78)" id="g2719">
      <path d="m 0,0 -2.042,4.631 -5.032,-0.547 2.99,4.084 -2.99,4.084 5.032,-0.547 L 0,16.336 2.042,11.705 7.074,12.252 4.084,8.168 7.074,4.084 2.042,4.631 Z M -1.786,5.074 0,1.023 1.786,5.074 6.188,4.595 3.573,8.168 6.188,11.74 1.786,11.262 0,15.313 -1.786,11.262 -6.188,11.74 -3.573,8.168 -6.188,4.595 Z" fill="#ffffff" id="path2717"/>
    </g>
    <g transform="matrix(0.35278,0,0,-0.35278,201.77,117.75)" id="g2723">
      <path d="M 0,0 -1.908,-3.267 0,-6.535 H 3.817 L 5.725,-3.267 3.817,0 Z" id="path2721"/>
    </g>
    <g transform="matrix(0.35278,0,0,-0.35278,203.16,120.12)" id="g2727">
      <path d="m 0,0 h -4.053 l -2.029,3.474 2.029,3.473 H 0 L 2.029,3.474 Z m -3.817,0.413 h 3.58 l 1.788,3.061 -1.788,3.061 h -3.58 L -5.605,3.474 Z" fill="#ffffff" id="path2725"/>
    </g>
    <g transform="matrix(0.35278,0,0,-0.35278,91.501,407.97)" id="g2739">
      <g clip-path="url(#clipPath33040)" id="g2737">
        <g transform="translate(311.93,819.43)" id="g2731">
          <path d="M 0,0 C 0,1.416 1.148,2.564 2.564,2.564 3.98,2.564 5.128,1.416 5.128,0 5.128,-1.416 3.98,-2.564 2.564,-2.564 1.148,-2.564 0,-1.416 0,0" id="path2729"/>
        </g>
        <g transform="translate(314.5,817.08)" id="g2735">
          <path d="m 0,0 c -1.295,0 -2.349,1.054 -2.349,2.349 0,1.296 1.054,2.35 2.349,2.35 1.295,0 2.349,-1.054 2.349,-2.35 C 2.349,1.054 1.295,0 0,0 m 0,4.349 c -1.102,0 -1.999,-0.897 -1.999,-2 0,-1.102 0.897,-1.999 1.999,-1.999 1.102,0 1.999,0.897 1.999,1.999 0,1.103 -0.897,2 -1.999,2" fill="#ffffff" id="path2733"/>
        </g>
      </g>
    </g>
    <g transform="matrix(0.35278,0,0,-0.35278,201.43,117)" id="g2743">
      <path d="M 0,0 V 2 L -2,1 Z" id="path2741"/>
    </g>
    <g transform="matrix(0.35278,0,0,-0.35278,200.24,119.08)" id="g2747">
      <path d="M 0,0 -2,1 V -1 Z" id="path2745"/>
    </g>
    <g transform="matrix(0.35278,0,0,-0.35278,201.55,121.1)" id="g2751">
      <path d="M 0,0 -2,-1 0,-2 Z" id="path2749"/>
    </g>
    <g transform="matrix(0.35278,0,0,-0.35278,203.76,121.03)" id="g2755">
      <path d="m 0,0 v -2 l 2,1 z" id="path2753"/>
    </g>
    <g transform="matrix(0.35278,0,0,-0.35278,204.95,118.94)" id="g2759">
      <path d="M 0,0 2,-1 V 1 Z" id="path2757"/>
    </g>
    <g transform="matrix(0.35278,0,0,-0.35278,203.64,116.93)" id="g2763">
      <path d="M 0,0 2,1 0,2 Z" id="path2761"/>
    </g>
  </g></svg>