<svg
   xmlns:dc="http://purl.org/dc/elements/1.1/"
   xmlns:cc="http://creativecommons.org/ns#"
   xmlns:rdf="http://www.w3.org/1999/02/22-rdf-syntax-ns#"
   xmlns:svg="http://www.w3.org/2000/svg"
   xmlns="http://www.w3.org/2000/svg"
   xmlns:sodipodi="http://sodipodi.sourceforge.net/DTD/sodipodi-0.dtd"
   xmlns:inkscape="http://www.inkscape.org/namespaces/inkscape"
   inkscape:version="1.0 (4035a4fb49, 2020-05-01)"
   sodipodi:docname="all_stacked (copy).svg"
   id="svg2899"
   viewBox="0 0 6.7021 13.579"
   version="1.1"
   height="13.579mm"
   width="6.7021mm"><g xmlns="http://www.w3.org/2000/svg" transform="matrix(0.35278,0,0,-0.35278,-107.1857,74.22)" id="g2025">
    <g clip-path="url(#clipPath25218)" id="g2023">
      <g transform="translate(314.59,183.86)" id="g2021">
        <path d="m 0,0 c -0.329,0.132 -0.985,0.516 -0.985,1.485 0,1.295 -0.042,3.67 0.584,5.633 0.627,1.963 6.224,7.936 6.224,7.936 l -7.087,0.018 -7.086,-0.018 c 0,0 5.596,-5.973 6.223,-7.936 C -1.5,5.155 -1.542,2.78 -1.542,1.485 -1.542,0.516 -2.198,0.132 -2.528,0 -4.209,-0.064 -5.427,-0.254 -5.427,-0.478 H 2.899 C 2.899,-0.254 1.681,-0.064 0,0" id="path2019"/>
      </g>
    </g>
  </g></svg>