<svg
   xmlns:dc="http://purl.org/dc/elements/1.1/"
   xmlns:cc="http://creativecommons.org/ns#"
   xmlns:rdf="http://www.w3.org/1999/02/22-rdf-syntax-ns#"
   xmlns:svg="http://www.w3.org/2000/svg"
   xmlns="http://www.w3.org/2000/svg"
   xmlns:sodipodi="http://sodipodi.sourceforge.net/DTD/sodipodi-0.dtd"
   xmlns:inkscape="http://www.inkscape.org/namespaces/inkscape"
   inkscape:version="1.0 (4035a4fb49, 2020-05-01)"
   sodipodi:docname="all_stacked (copy).svg"
   id="svg2899"
   viewBox="0 0 6.7021 13.579"
   version="1.1"
   height="13.579mm"
   width="6.7021mm"><g xmlns="http://www.w3.org/2000/svg" transform="translate(-55.803,-93.905)" id="g865">
    <g transform="matrix(0.35278,0,0,-0.35278,-101.74,297.05)" id="g859">
      <g clip-path="url(#clipPath2257)" id="g857">
        <g transform="translate(451.08,558.38)" id="g847">
          <path d="m 0,0 0.154,0.538 c 0.23,0.79 0.581,1.316 0.811,1.623 0.472,0.637 1.12,1.086 1.975,1.086 0.516,0 1.416,-0.219 1.416,-0.888 0,-0.351 -0.242,-0.582 -0.593,-0.582 -0.263,0 -0.526,0.209 -0.526,0.483 0,0.165 0.098,0.329 0.241,0.395 C 3.599,2.875 3.083,2.973 2.951,2.973 2.282,2.973 1.876,2.48 1.635,1.854 1.514,1.547 1.382,1.207 1.273,0.56 L 1.174,0 H 2.907 C 3.302,0 3.686,0.022 4.092,0.165 L 3.357,-3.017 c -0.055,-0.23 -0.153,-0.549 -0.153,-0.669 0,-0.165 0.087,-0.242 0.241,-0.242 0.472,0 0.845,0.867 1.053,1.218 L 4.74,-2.798 C 4.531,-3.226 4.301,-3.631 3.983,-3.983 3.719,-4.268 3.302,-4.454 2.918,-4.41 c -0.439,0.054 -0.79,0.252 -0.79,0.757 0,0.098 0.022,0.373 0.088,0.658 l 0.647,2.721 H 1.108 L 0.801,-1.733 C 0.702,-2.216 0.592,-2.699 0.472,-3.171 0.274,-3.939 -0.23,-5.277 -0.691,-5.914 -1.163,-6.572 -1.547,-6.813 -2.37,-6.813 c -0.417,0 -0.834,0.318 -0.834,0.746 0,0.285 0.22,0.527 0.516,0.527 0.252,0 0.516,-0.154 0.516,-0.439 0,-0.132 -0.044,-0.209 -0.088,-0.264 -0.044,-0.054 -0.088,-0.087 -0.088,-0.153 0,-0.143 0.187,-0.143 0.285,-0.143 0.362,0 0.692,0.274 0.944,1.097 0.175,0.571 0.263,1.174 0.384,1.756 l 0.68,3.412 H -1.086 L -1.009,0 Z" id="path845"/>
        </g>
        <g transform="translate(458.12,557.44)" id="g851">
          <path d="m 0,0 0.022,-0.022 c 0.45,0.592 1.064,1.119 1.854,1.119 0.527,0 0.977,-0.296 0.977,-0.867 0,-0.208 -0.033,-0.362 -0.077,-0.559 L 2.194,-2.721 c -0.044,-0.164 0.077,-0.241 0.242,-0.241 0.307,0 0.899,0.943 0.987,1.218 L 3.642,-1.843 C 3.39,-2.436 2.973,-3.171 2.326,-3.335 2.063,-3.401 1.964,-3.401 1.701,-3.401 c -0.341,0 -0.714,0.241 -0.714,0.614 0,0.264 0.319,1.35 0.395,1.679 0.055,0.208 0.362,1.305 0.362,1.426 0,0.252 -0.241,0.34 -0.449,0.34 -0.67,0 -1.383,-1.108 -1.514,-1.7 l -0.516,-2.271 h -1.13 l 0.921,4.07 H -1.81 l 0.077,0.274 h 1.009 c 0.34,0 0.669,0.044 1.009,0.044 z" id="path849"/>
        </g>
        <g transform="translate(464.27,554.67)" id="g855">
          <path d="m 0,0 c 0,-0.384 -0.351,-0.702 -0.691,-0.702 -0.351,0 -0.713,0.318 -0.713,0.702 0,0.395 0.362,0.702 0.713,0.702 C -0.351,0.702 0,0.395 0,0" id="path853"/>
        </g>
      </g>
    </g>
    <g transform="matrix(0.35278,0,0,-0.35278,57.579,102.07)" id="g863">
      <path d="M 0,0 H 12.657" fill="none" stroke="#000000" stroke-width="0.75" id="path861"/>
    </g>
  </g></svg>