<svg
   xmlns:dc="http://purl.org/dc/elements/1.1/"
   xmlns:cc="http://creativecommons.org/ns#"
   xmlns:rdf="http://www.w3.org/1999/02/22-rdf-syntax-ns#"
   xmlns:svg="http://www.w3.org/2000/svg"
   xmlns="http://www.w3.org/2000/svg"
   xmlns:sodipodi="http://sodipodi.sourceforge.net/DTD/sodipodi-0.dtd"
   xmlns:inkscape="http://www.inkscape.org/namespaces/inkscape"
   inkscape:version="1.0 (4035a4fb49, 2020-05-01)"
   sodipodi:docname="all_stacked (copy).svg"
   id="svg2899"
   viewBox="0 0 6.7021 13.579"
   version="1.1"
   height="13.579mm"
   width="6.7021mm"><g xmlns="http://www.w3.org/2000/svg" transform="translate(-11.158,-157.459)" id="g649">
    <g transform="matrix(0.35278,0,0,-0.35278,13.464,162.86)" id="g595">
      <path d="M 0,0 -1.876,1.662 V -9.53 L 0,-7.868 Z" id="path593"/>
    </g>
    <g transform="matrix(0.35278,0,0,-0.35278,13.464,162.86)" id="g599">
      <path d="M 0,0 -1.876,1.662 V -9.53 L 0,-7.868 Z" fill="none" stroke="#ffffff" stroke-miterlimit="10" stroke-width="0.25" id="path597"/>
    </g>
    <g transform="matrix(0.35278,0,0,-0.35278,13.529,165.73)" id="g603">
      <path d="m 0,0 -1.94,-1.74 4.543,-2.718 v 2.9 z" id="path601"/>
    </g>
    <g transform="matrix(0.35278,0,0,-0.35278,13.529,165.73)" id="g607">
      <path d="m 0,0 -1.94,-1.74 4.543,-2.718 v 2.9 z" fill="none" stroke="#ffffff" stroke-miterlimit="10" stroke-width="0.25" id="path605"/>
    </g>
    <g transform="matrix(0.35278,0,0,-0.35278,14.569,166.28)" id="g611">
      <path d="m 0,0 v -2.901 l 4.544,2.719 -1.941,1.74 z" id="path609"/>
    </g>
    <g transform="matrix(0.35278,0,0,-0.35278,14.569,166.28)" id="g615">
      <path d="m 0,0 v -2.901 l 4.544,2.719 -1.941,1.74 z" fill="none" stroke="#ffffff" stroke-miterlimit="10" stroke-width="0.25" id="path613"/>
    </g>
    <g transform="matrix(0.35278,0,0,-0.35278,15.552,165.64)" id="g619">
      <path d="M 0,0 1.876,-1.662 V 9.53 L 0,7.868 Z" id="path617"/>
    </g>
    <g transform="matrix(0.35278,0,0,-0.35278,15.552,165.64)" id="g623">
      <path d="M 0,0 1.876,-1.662 V 9.53 L 0,7.868 Z" fill="none" stroke="#ffffff" stroke-miterlimit="10" stroke-width="0.25" id="path621"/>
    </g>
    <g transform="matrix(0.35278,0,0,-0.35278,15.488,162.76)" id="g627">
      <path d="m 0,0 1.94,1.74 -4.543,2.718 v -2.9 z" id="path625"/>
    </g>
    <g transform="matrix(0.35278,0,0,-0.35278,15.488,162.76)" id="g631">
      <path d="m 0,0 1.94,1.74 -4.543,2.718 v -2.9 z" fill="none" stroke="#ffffff" stroke-miterlimit="10" stroke-width="0.25" id="path629"/>
    </g>
    <g transform="matrix(0.35278,0,0,-0.35278,14.447,162.21)" id="g635">
      <path d="m 0,0 v 2.901 l -4.543,-2.719 1.94,-1.74 z" id="path633"/>
    </g>
    <g transform="matrix(0.35278,0,0,-0.35278,14.447,162.21)" id="g639">
      <path d="m 0,0 v 2.901 l -4.543,-2.719 1.94,-1.74 z" fill="none" stroke="#ffffff" stroke-miterlimit="10" stroke-width="0.25" id="path637"/>
    </g>
    <g transform="matrix(0.35278,0,0,-0.35278,13.587,162.87)" id="g643">
      <path d="m 0,0 v -7.794 l 2.613,-1.558 2.613,1.558 V 0 L 2.613,1.557 Z" id="path641"/>
    </g>
    <g transform="matrix(0.35278,0,0,-0.35278,13.587,162.87)" id="g647">
      <path d="m 0,0 v -7.794 l 2.613,-1.558 2.613,1.558 V 0 L 2.613,1.557 Z" fill="none" stroke="#ffffff" stroke-miterlimit="10" stroke-width="0.25" id="path645"/>
    </g>
  </g></svg>