<svg
   xmlns:dc="http://purl.org/dc/elements/1.1/"
   xmlns:cc="http://creativecommons.org/ns#"
   xmlns:rdf="http://www.w3.org/1999/02/22-rdf-syntax-ns#"
   xmlns:svg="http://www.w3.org/2000/svg"
   xmlns="http://www.w3.org/2000/svg"
   xmlns:sodipodi="http://sodipodi.sourceforge.net/DTD/sodipodi-0.dtd"
   xmlns:inkscape="http://www.inkscape.org/namespaces/inkscape"
   inkscape:version="1.0 (4035a4fb49, 2020-05-01)"
   sodipodi:docname="all_stacked (copy).svg"
   id="svg2899"
   viewBox="0 0 6.7021 13.579"
   version="1.1"
   height="13.579mm"
   width="6.7021mm"><g xmlns="http://www.w3.org/2000/svg" transform="matrix(0.35278,0,0,-0.35278,-107.6656,46.45)" id="g2051">
    <g clip-path="url(#clipPath25276)" id="g2049">
      <g transform="translate(313.84,113.69)" id="g2047">
        <path d="m 0,0 h 0.865 c 0.882,0 1.57,0.406 1.57,1.341 0,1.006 -0.582,1.623 -1.588,1.623 -1.217,0 -1.606,-1.059 -1.694,-2.064 l -2.346,0.494 c 0.388,2.329 1.87,3.546 4.216,3.546 1.959,0 3.776,-1.041 3.776,-3.211 0,-1.394 -0.671,-2.188 -1.976,-2.523 v -0.035 c 1.5,-0.353 2.258,-1.429 2.276,-2.964 0,-2.488 -2.047,-3.688 -4.34,-3.688 -2.347,0 -4.164,1.094 -4.164,4.129 h 2.258 c 0,-1.288 0.653,-2.153 1.976,-2.153 1.129,0 1.8,0.759 1.8,1.853 0,1.341 -0.847,1.782 -1.764,1.782 H 0 Z" id="path2045"/>
      </g>
    </g>
  </g></svg>