<svg
   xmlns:dc="http://purl.org/dc/elements/1.1/"
   xmlns:cc="http://creativecommons.org/ns#"
   xmlns:rdf="http://www.w3.org/1999/02/22-rdf-syntax-ns#"
   xmlns:svg="http://www.w3.org/2000/svg"
   xmlns="http://www.w3.org/2000/svg"
   xmlns:sodipodi="http://sodipodi.sourceforge.net/DTD/sodipodi-0.dtd"
   xmlns:inkscape="http://www.inkscape.org/namespaces/inkscape"
   inkscape:version="1.0 (4035a4fb49, 2020-05-01)"
   sodipodi:docname="all_stacked (copy).svg"
   id="svg2899"
   viewBox="0 0 6.7021 13.579"
   version="1.1"
   height="13.579mm"
   width="6.7021mm"><g xmlns="http://www.w3.org/2000/svg" transform="translate(-118.957,-271.01)" id="g2097">
    <g transform="matrix(0.35278,0,0,-0.35278,11.772,308.27)" id="g2059">
      <g clip-path="url(#clipPath25296)" id="g2057">
        <g transform="translate(316.25,87.797)" id="g2055">
          <path d="m 0,0 -0.525,0.611 c 2.198,1.89 1.372,3.552 1.336,3.622 l 0.71,0.38 C 1.571,4.521 2.71,2.329 0,0" id="path2053"/>
        </g>
      </g>
    </g>
    <g transform="matrix(0.35278,0,0,-0.35278,123.84,277.05)" id="g2063">
      <path d="m 0,0 -1.589,1.406 -1.096,-1.239 1.59,-1.405 z" id="path2061"/>
    </g>
    <g transform="matrix(0.35278,0,0,-0.35278,11.772,308.27)" id="g2095">
      <g clip-path="url(#clipPath25312)" id="g2093">
        <g transform="translate(307.89,87.955)" id="g2067">
          <path d="M 0,0 C 2.165,2.447 5.904,2.676 8.352,0.511 10.799,-1.655 11.027,-5.394 8.863,-7.841 6.697,-10.288 2.958,-10.517 0.511,-8.352 -1.937,-6.187 -2.165,-2.447 0,0" id="path2065"/>
        </g>
        <g transform="translate(312.32,77.961)" id="g2071">
          <path d="m 0,0 c -1.432,0 -2.869,0.502 -4.023,1.523 -1.216,1.075 -1.939,2.559 -2.039,4.18 -0.099,1.62 0.439,3.181 1.515,4.397 2.22,2.509 6.067,2.744 8.577,0.524 C 6.539,8.404 6.774,4.556 4.555,2.047 3.355,0.692 1.681,0 0,0 M -4.308,9.888 C -5.327,8.736 -5.836,7.257 -5.743,5.722 c 0.094,-1.535 0.78,-2.941 1.932,-3.96 2.377,-2.103 6.022,-1.88 8.126,0.497 2.103,2.377 1.88,6.022 -0.497,8.126 -2.377,2.103 -6.023,1.88 -8.126,-0.497" fill="#ffffff" id="path2069"/>
        </g>
        <g transform="translate(317.11,94.564)" id="g2075">
          <path d="m 0,0 c 0.301,-0.265 0.603,-0.53 0.904,-0.795 l 1.032,0.621 0.31,0.187 -0.071,-0.356 C 2.096,-0.736 2.017,-1.13 1.938,-1.523 2.289,-1.717 2.64,-1.912 2.992,-2.106 L 3.309,-2.281 2.965,-2.397 C 2.585,-2.526 2.205,-2.654 1.825,-2.782 1.832,-3.184 1.84,-3.585 1.847,-3.986 l 0.007,-0.363 -0.273,0.24 C 1.28,-3.844 0.979,-3.579 0.677,-3.314 0.334,-3.521 -0.01,-3.728 -0.354,-3.935 l -0.311,-0.187 0.072,0.355 c 0.079,0.394 0.158,0.788 0.237,1.181 -0.351,0.194 -0.703,0.389 -1.054,0.583 l -0.317,0.175 0.343,0.116 c 0.38,0.128 0.761,0.257 1.141,0.385 -0.007,0.401 -0.015,0.803 -0.022,1.204 l -0.007,0.362 z" id="path2073"/>
        </g>
        <g transform="translate(309.3,86.703)" id="g2079">
          <path d="M 0,0 C 1.474,1.666 4.019,1.821 5.685,0.348 7.351,-1.126 7.506,-3.672 6.033,-5.337 4.559,-7.003 2.013,-7.159 0.348,-5.685 -1.318,-4.211 -1.474,-1.666 0,0" id="path2077"/>
        </g>
        <g transform="translate(312.32,79.849)" id="g2083">
          <path d="M 0,0 C -0.987,0 -1.977,0.346 -2.772,1.049 -3.61,1.79 -4.109,2.813 -4.177,3.93 -4.245,5.046 -3.875,6.122 -3.134,6.96 -1.604,8.689 1.048,8.851 2.777,7.321 4.506,5.791 4.668,3.14 3.138,1.41 2.312,0.477 1.159,0 0,0 M -2.894,6.748 C -3.579,5.974 -3.921,4.98 -3.858,3.949 -3.795,2.918 -3.334,1.973 -2.56,1.288 -0.963,-0.124 1.486,0.025 2.899,1.622 4.312,3.219 4.162,5.668 2.565,7.082 0.968,8.495 -1.481,8.345 -2.894,6.748" fill="#ffffff" id="path2081"/>
        </g>
        <g transform="translate(312.2,83.5)" id="g2087">
          <path d="m 0,0 c -0.177,0 -0.32,0.143 -0.32,0.32 v 3.317 c 0,0.177 0.143,0.32 0.32,0.32 0.177,0 0.32,-0.143 0.32,-0.32 V 0.32 C 0.32,0.143 0.177,0 0,0" fill="#ffffff" id="path2085"/>
        </g>
        <g transform="translate(312.2,83.5)" id="g2091">
          <path d="m 0,0 c -0.1,0 -0.198,0.046 -0.26,0.133 -0.103,0.144 -0.07,0.344 0.074,0.446 l 1.954,1.4 C 1.912,2.082 2.111,2.049 2.214,1.906 2.317,1.762 2.284,1.562 2.14,1.46 L 0.186,0.06 C 0.129,0.019 0.064,0 0,0" fill="#ffffff" id="path2089"/>
        </g>
      </g>
    </g>
  </g></svg>