<svg
   xmlns:dc="http://purl.org/dc/elements/1.1/"
   xmlns:cc="http://creativecommons.org/ns#"
   xmlns:rdf="http://www.w3.org/1999/02/22-rdf-syntax-ns#"
   xmlns:svg="http://www.w3.org/2000/svg"
   xmlns="http://www.w3.org/2000/svg"
   xmlns:sodipodi="http://sodipodi.sourceforge.net/DTD/sodipodi-0.dtd"
   xmlns:inkscape="http://www.inkscape.org/namespaces/inkscape"
   inkscape:version="1.0 (4035a4fb49, 2020-05-01)"
   sodipodi:docname="all_stacked (copy).svg"
   id="svg2899"
   viewBox="0 0 6.7021 13.579"
   version="1.1"
   height="13.579mm"
   width="6.7021mm"><g xmlns="http://www.w3.org/2000/svg" transform="matrix(0.35278,0,0,-0.35278,-157.244,281.3)" id="g2253">
    <g clip-path="url(#clipPath26618)" id="g2251">
      <g transform="translate(462.56,770.13)" id="g2225">
        <path d="m 0,0 c -0.079,0.281 -0.242,0.381 -0.766,0.285 l -2.765,-0.492 c -0.281,0.485 -0.558,0.973 -0.844,1.455 -0.33,0.555 -0.305,1.27 -0.156,1.876 0.075,0.304 0.421,1.574 0.505,1.609 l 2.091,0.847 c 0.271,0.109 0.401,0.418 0.292,0.689 -0.11,0.27 -0.418,0.4 -0.689,0.291 L -4.658,5.617 C -4.807,5.557 -4.921,5.432 -4.967,5.278 L -5.772,3.591 c 0,0 0.001,-0.288 -0.976,0.035 -0.474,0.156 -0.746,0.288 -0.901,0.382 l -1.767,0.823 -1.08,2.038 c -0.065,0.165 -0.188,0.3 -0.345,0.381 l -2.784,1.424 C -13.982,8.856 -14.42,8.715 -14.603,8.357 -14.786,8 -14.644,7.562 -14.287,7.379 l 2.54,-1.299 c 0.291,-0.737 0.582,-1.475 0.873,-2.213 0.155,-0.393 0.194,-0.64 0.475,-0.954 1.473,-1.748 4.36,-1.952 4.969,-2.142 l 1.189,-1.855 c 0.076,-0.131 0.205,-0.223 0.353,-0.253 0.035,-0.007 0.07,-0.011 0.104,-0.011 0.115,0 0.428,0.07 0.428,0.07 l 2.808,0.594 C -0.167,-0.583 0.115,-0.406 0,0" id="path2223"/>
      </g>
      <g transform="translate(459.43,773.84)" id="g2229">
        <path d="m 0,0 c -0.678,0 -1.228,-0.55 -1.228,-1.229 0,-0.678 0.55,-1.228 1.228,-1.228 0.678,0 1.228,0.55 1.228,1.228 C 1.228,-0.55 0.678,0 0,0" id="path2227"/>
      </g>
      <g transform="translate(450.35,781.17)" id="g2233">
        <path d="M 0,0 0.045,-1.33 H 0.068 L 0.113,0 0.147,1.33 C 0.157,1.773 0.187,2.216 0.17,2.659 0.155,3.103 0.131,3.546 0.068,3.989 H 0.045 C -0.017,3.546 -0.041,3.103 -0.057,2.659 -0.073,2.216 -0.044,1.773 -0.034,1.33 Z" id="path2231"/>
      </g>
      <g transform="translate(455.83,781.49)" id="g2237">
        <path d="M 0,0 0.045,-2.004 H 0.068 L 0.113,0 0.147,2.004 C 0.157,2.672 0.187,3.34 0.17,4.008 0.155,4.676 0.13,5.344 0.068,6.011 H 0.045 C -0.017,5.344 -0.042,4.676 -0.057,4.008 -0.073,3.34 -0.044,2.672 -0.034,2.004 Z" id="path2235"/>
      </g>
      <g transform="translate(456.72,782.01)" id="g2241">
        <path d="M 0,0 C 0.015,-0.404 0.027,-0.809 0.045,-1.213 H 0.068 C 0.086,-0.809 0.098,-0.404 0.113,0 L 0.147,1.213 C 0.157,1.617 0.187,2.022 0.17,2.426 0.155,2.831 0.13,3.235 0.068,3.639 H 0.045 C -0.017,3.235 -0.042,2.831 -0.057,2.426 -0.073,2.022 -0.044,1.617 -0.034,1.213 Z" id="path2239"/>
      </g>
      <g transform="translate(459.38,778.79)" id="g2245">
        <path d="M 0,0 0.045,-1.37 H 0.068 L 0.113,0 0.147,1.37 C 0.157,1.826 0.187,2.283 0.17,2.739 0.155,3.196 0.13,3.652 0.068,4.109 H 0.045 C -0.017,3.652 -0.041,3.196 -0.057,2.739 -0.073,2.283 -0.044,1.826 -0.034,1.37 Z" id="path2243"/>
      </g>
      <g transform="translate(455.54,777.54)" id="g2249">
        <path d="m 0,0 -1.576,2.451 c -0.16,0.283 -0.393,0.511 -0.702,0.511 -0.354,0 -0.565,-0.287 -0.565,-0.64 0,-0.015 10e-4,-0.029 0.002,-0.044 C -2.846,2.189 -2.825,2.1 -2.775,2.023 l 1.502,-2.335 0.084,-0.132 -0.059,-0.145 c 0,0 -0.213,-0.528 -0.429,-1.057 -0.108,-0.264 -0.216,-0.528 -0.298,-0.727 -0.009,-0.022 -0.018,-0.043 -0.026,-0.064 l 1.459,-0.686 0.575,2.717 0.004,0.019 0.007,0.018 C 0.086,-0.247 0.07,-0.109 0,0" id="path2247"/>
      </g>
    </g>
  </g></svg>