<svg
   xmlns:dc="http://purl.org/dc/elements/1.1/"
   xmlns:cc="http://creativecommons.org/ns#"
   xmlns:rdf="http://www.w3.org/1999/02/22-rdf-syntax-ns#"
   xmlns:svg="http://www.w3.org/2000/svg"
   xmlns="http://www.w3.org/2000/svg"
   xmlns:sodipodi="http://sodipodi.sourceforge.net/DTD/sodipodi-0.dtd"
   xmlns:inkscape="http://www.inkscape.org/namespaces/inkscape"
   inkscape:version="1.0 (4035a4fb49, 2020-05-01)"
   sodipodi:docname="all_stacked (copy).svg"
   id="svg2899"
   viewBox="0 0 6.7021 13.579"
   version="1.1"
   height="13.579mm"
   width="6.7021mm"><g xmlns="http://www.w3.org/2000/svg" transform="matrix(0.35278,0,0,-0.35278,-157.796,268.54)" id="g2425">
    <g clip-path="url(#clipPath26666)" id="g2423">
      <g transform="translate(454.07,745.93)" id="g2257">
        <path d="M 0,0 C 0.443,-0.132 0.674,-0.304 0.706,-0.525 0.725,-0.652 0.671,-0.762 0.606,-0.845 0.954,-0.917 1.012,-0.847 1.013,-0.846 1.03,-0.824 1.004,-0.745 0.979,-0.705 0.959,-0.673 0.877,-0.532 0.81,-0.354 0.724,-0.126 0.664,0.163 0.793,0.365 0.902,0.536 1.116,0.608 1.428,0.578 1.765,0.545 1.999,0.42 2.121,0.205 2.198,0.069 2.219,-0.083 2.212,-0.227 c 0.034,0.019 0.068,0.033 0.104,0.044 0.201,0.059 0.355,-0.038 0.372,-0.049 0.011,-0.007 0.021,-0.015 0.028,-0.025 0.061,-0.076 0.255,-0.276 0.43,-0.29 0.064,-0.005 0.118,0.015 0.17,0.062 0.08,0.073 0.075,0.124 0.073,0.14 C 3.375,-0.23 3.198,-0.111 3.137,-0.078 3.1,-0.058 3.076,-0.019 3.076,0.023 3.075,0.066 3.098,0.105 3.135,0.126 3.148,0.135 3.275,0.219 3.232,0.431 3.199,0.593 3.135,0.658 3.101,0.682 3.072,0.695 3.055,0.705 3.05,0.708 3.002,0.74 2.984,0.802 3.008,0.854 3.031,0.906 3.09,0.934 3.146,0.919 3.153,0.917 3.178,0.91 3.21,0.89 3.279,0.865 3.471,0.812 3.85,0.834 4.309,0.861 4.373,1.182 4.373,1.185 4.384,1.242 4.436,1.283 4.495,1.281 4.554,1.279 4.602,1.233 4.607,1.175 4.641,0.793 4.668,0.785 4.759,0.756 4.837,0.731 4.955,0.694 5.107,0.568 5.222,0.473 5.244,0.372 5.241,0.305 5.237,0.169 5.138,0.052 5.026,-0.044 5.126,-0.006 5.225,0.042 5.298,0.082 5.307,0.087 5.314,0.091 5.318,0.093 5.375,0.122 5.446,0.101 5.476,0.045 5.507,-0.01 5.487,-0.08 5.431,-0.113 5.427,-0.115 5.422,-0.117 5.415,-0.122 5.375,-0.146 5.34,-0.182 5.339,-0.197 c 0,0 0.029,-0.09 0.405,-0.189 0.373,-0.1 0.397,-0.063 0.449,0.018 0.072,0.112 0.182,0.282 0.624,0.371 0.247,0.05 0.27,0.112 0.27,0.113 C 7.095,0.166 6.935,0.312 6.739,0.412 6.701,0.431 6.676,0.469 6.675,0.511 6.672,0.553 6.694,0.593 6.73,0.615 7.025,0.799 7.287,0.845 7.509,0.751 7.739,0.653 7.9,0.407 7.975,0.039 c 0.024,-0.118 0.074,-0.201 0.147,-0.257 0.007,0.006 0.014,0.013 0.022,0.018 0.128,0.089 0.3,0.148 0.526,0.129 C 8.771,-0.08 8.882,-0.104 9.006,-0.147 9.239,-0.228 9.514,-0.377 9.839,-0.623 9.693,-0.205 9.455,0.274 9.074,0.812 9.063,0.828 9.05,0.844 9.038,0.86 7.494,2.928 3.326,1.808 3.284,1.796 3.247,1.785 3.208,1.794 3.178,1.818 3.16,1.831 2.723,2.16 1.869,1.987 0.996,1.81 0.488,1.257 0.483,1.252 0.463,1.229 0.433,1.215 0.403,1.213 -0.205,1.171 -0.555,0.868 -0.587,0.591 -0.615,0.339 -0.396,0.118 0,0" id="path2255"/>
      </g>
      <g transform="translate(454.07,745.93)" id="g2261">
        <path d="M 0,0 C 0.443,-0.132 0.674,-0.304 0.706,-0.525 0.725,-0.652 0.671,-0.762 0.606,-0.845 0.954,-0.917 1.012,-0.847 1.013,-0.846 1.03,-0.824 1.004,-0.745 0.979,-0.705 0.959,-0.673 0.877,-0.532 0.81,-0.354 0.724,-0.126 0.664,0.163 0.793,0.365 0.902,0.536 1.116,0.608 1.428,0.578 1.765,0.545 1.999,0.42 2.121,0.205 2.198,0.069 2.219,-0.083 2.212,-0.227 c 0.034,0.019 0.068,0.033 0.104,0.044 0.201,0.059 0.355,-0.038 0.372,-0.049 0.011,-0.007 0.021,-0.015 0.028,-0.025 0.061,-0.076 0.255,-0.276 0.43,-0.29 0.064,-0.005 0.118,0.015 0.17,0.062 0.08,0.073 0.075,0.124 0.073,0.14 C 3.375,-0.23 3.198,-0.111 3.137,-0.078 3.1,-0.058 3.076,-0.019 3.076,0.023 3.075,0.066 3.098,0.105 3.135,0.126 3.148,0.135 3.275,0.219 3.232,0.431 3.199,0.593 3.135,0.658 3.101,0.682 3.072,0.695 3.055,0.705 3.05,0.708 3.002,0.74 2.984,0.802 3.008,0.854 3.031,0.906 3.09,0.934 3.146,0.919 3.153,0.917 3.178,0.91 3.21,0.89 3.279,0.865 3.471,0.812 3.85,0.834 4.309,0.861 4.373,1.182 4.373,1.185 4.384,1.242 4.436,1.283 4.495,1.281 4.554,1.279 4.602,1.233 4.607,1.175 4.641,0.793 4.668,0.785 4.759,0.756 4.837,0.731 4.955,0.694 5.107,0.568 5.222,0.473 5.244,0.372 5.241,0.305 5.237,0.169 5.138,0.052 5.026,-0.044 5.126,-0.006 5.225,0.042 5.298,0.082 5.307,0.087 5.314,0.091 5.318,0.093 5.375,0.122 5.446,0.101 5.476,0.045 5.507,-0.01 5.487,-0.08 5.431,-0.113 5.427,-0.115 5.422,-0.117 5.415,-0.122 5.375,-0.146 5.34,-0.182 5.339,-0.197 c 0,0 0.029,-0.09 0.405,-0.189 0.373,-0.1 0.397,-0.063 0.449,0.018 0.072,0.112 0.182,0.282 0.624,0.371 0.247,0.05 0.27,0.112 0.27,0.113 C 7.095,0.166 6.935,0.312 6.739,0.412 6.701,0.431 6.676,0.469 6.675,0.511 6.672,0.553 6.694,0.593 6.73,0.615 7.025,0.799 7.287,0.845 7.509,0.751 7.739,0.653 7.9,0.407 7.975,0.039 c 0.024,-0.118 0.074,-0.201 0.147,-0.257 0.007,0.006 0.014,0.013 0.022,0.018 0.128,0.089 0.3,0.148 0.526,0.129 C 8.771,-0.08 8.882,-0.104 9.006,-0.147 9.239,-0.228 9.514,-0.377 9.839,-0.623 9.693,-0.205 9.455,0.274 9.074,0.812 9.063,0.828 9.05,0.844 9.038,0.86 7.494,2.928 3.326,1.808 3.284,1.796 3.247,1.785 3.208,1.794 3.178,1.818 3.16,1.831 2.723,2.16 1.869,1.987 0.996,1.81 0.488,1.257 0.483,1.252 0.463,1.229 0.433,1.215 0.403,1.213 -0.205,1.171 -0.555,0.868 -0.587,0.591 -0.615,0.339 -0.396,0.118 0,0 Z" fill="none" stroke="#000000" stroke-miterlimit="10" stroke-width="0.1" id="path2259"/>
      </g>
      <g transform="translate(455.66,743.5)" id="g2265">
        <path d="m 0,0 c 0.234,0.125 0.705,-0.012 0.867,-0.254 0.029,-0.042 0.085,-0.147 0.054,-0.278 0.178,0.034 0.394,0.053 0.548,-0.008 0.052,-0.021 0.101,-0.044 0.144,-0.065 0.057,-0.028 0.151,-0.072 0.179,-0.065 0,0 0.031,0.02 0.055,0.152 0.028,0.144 0.112,0.202 0.178,0.225 0.244,0.085 0.614,-0.192 0.75,-0.303 C 2.884,-0.63 3.24,-0.779 3.412,-1.3 3.409,-1.443 3.397,-1.587 3.379,-1.733 3.359,-1.903 3.331,-2.076 3.298,-2.252 3.294,-2.271 3.291,-2.29 3.288,-2.309 c 0.01,0.013 0.019,0.027 0.028,0.04 0.024,0.032 0.045,0.065 0.066,0.098 v -0.002 l 10e-4,0.003 c 0.035,0.055 0.069,0.111 0.1,0.169 0.066,0.126 0.121,0.257 0.165,0.394 0.029,0.091 0.053,0.185 0.071,0.28 0.067,0.36 0.048,0.74 -0.058,1.096 C 3.554,0.123 3.366,0.451 3.125,0.724 2.881,0.995 2.59,1.224 2.254,1.361 2.492,1.097 2.7,0.827 2.876,0.544 2.926,0.466 2.971,0.385 3.014,0.304 3.066,0.209 3.111,0.112 3.153,0.014 3.203,-0.103 3.248,-0.22 3.284,-0.341 3.299,-0.391 3.313,-0.442 3.324,-0.493 3.291,-0.407 3.249,-0.322 3.197,-0.24 3.152,-0.167 3.099,-0.1 3.041,-0.037 2.704,0.329 2.158,0.546 1.412,0.609 -0.376,0.76 -0.68,0.334 -0.728,0.145 c -0.059,-0.24 0.135,-0.476 0.196,-0.5 0.265,-0.105 0.423,-0.237 0.471,-0.39 0.005,-0.013 0.009,-0.028 0.011,-0.044 0.022,0.086 0.02,0.206 -0.05,0.358 C -0.227,-0.149 -0.055,-0.03 0,0" id="path2263"/>
      </g>
      <g transform="translate(455.66,743.5)" id="g2269">
        <path d="m 0,0 c 0.234,0.125 0.705,-0.012 0.867,-0.254 0.029,-0.042 0.085,-0.147 0.054,-0.278 0.178,0.034 0.394,0.053 0.548,-0.008 0.052,-0.021 0.101,-0.044 0.144,-0.065 0.057,-0.028 0.151,-0.072 0.179,-0.065 0,0 0.031,0.02 0.055,0.152 0.028,0.144 0.112,0.202 0.178,0.225 0.244,0.085 0.614,-0.192 0.75,-0.303 C 2.884,-0.63 3.24,-0.779 3.412,-1.3 3.409,-1.443 3.397,-1.587 3.379,-1.733 3.359,-1.903 3.331,-2.076 3.298,-2.252 3.294,-2.271 3.291,-2.29 3.288,-2.309 c 0.01,0.013 0.019,0.027 0.028,0.04 0.024,0.032 0.045,0.065 0.066,0.098 v -0.002 l 10e-4,0.003 c 0.035,0.055 0.069,0.111 0.1,0.169 0.066,0.126 0.121,0.257 0.165,0.394 0.029,0.091 0.053,0.185 0.071,0.28 0.067,0.36 0.048,0.74 -0.058,1.096 C 3.554,0.123 3.366,0.451 3.125,0.724 2.881,0.995 2.59,1.224 2.254,1.361 2.492,1.097 2.7,0.827 2.876,0.544 2.926,0.466 2.971,0.385 3.014,0.304 3.066,0.209 3.111,0.112 3.153,0.014 3.203,-0.103 3.248,-0.22 3.284,-0.341 3.299,-0.391 3.313,-0.442 3.324,-0.493 3.291,-0.407 3.249,-0.322 3.197,-0.24 3.152,-0.167 3.099,-0.1 3.041,-0.037 2.704,0.329 2.158,0.546 1.412,0.609 -0.376,0.76 -0.68,0.334 -0.728,0.145 c -0.059,-0.24 0.135,-0.476 0.196,-0.5 0.265,-0.105 0.423,-0.237 0.471,-0.39 0.005,-0.013 0.009,-0.028 0.011,-0.044 0.022,0.086 0.02,0.206 -0.05,0.358 C -0.227,-0.149 -0.055,-0.03 0,0 Z" fill="none" stroke="#000000" stroke-miterlimit="10" stroke-width="0.1" id="path2267"/>
      </g>
      <g transform="translate(464.56,745.81)" id="g2273">
        <path d="m 0,0 c -0.138,0.682 -0.726,0.681 -0.726,0.681 0.265,-0.556 0.439,-1.071 0.538,-1.549 0.166,-0.151 0.343,-0.324 0.532,-0.524 0.107,-0.113 0.205,-0.228 0.296,-0.343 0.037,0.214 0.058,0.396 0.073,0.538 C 0.873,0.336 0,0 0,0" id="path2271"/>
      </g>
      <g transform="translate(464.56,745.81)" id="g2277">
        <path d="m 0,0 c -0.138,0.682 -0.726,0.681 -0.726,0.681 0.265,-0.556 0.439,-1.071 0.538,-1.549 0.166,-0.151 0.343,-0.324 0.532,-0.524 0.107,-0.113 0.205,-0.228 0.296,-0.343 0.037,0.214 0.058,0.396 0.073,0.538 C 0.873,0.336 0,0 0,0 Z" fill="none" stroke="#000000" stroke-miterlimit="10" stroke-width="0.1" id="path2275"/>
      </g>
      <g transform="translate(463.02,740.3)" id="g2281">
        <path d="M 0,0 C 0.414,0.375 0.752,0.752 1.026,1.118 1.253,1.423 1.437,1.721 1.586,2.007 1.535,2.157 1.472,2.282 1.407,2.308 1.399,2.311 1.375,2.321 1.321,2.278 1.264,2.234 1.191,2.183 1.113,2.153 1.008,1.914 0.878,1.688 0.729,1.472 0.146,0.633 -0.742,-0.051 -1.72,-0.67 c 0.115,-0.188 0.14,-0.361 0.145,-0.415 0.144,0.174 0.345,0.446 0.382,0.646 0.072,0.386 0.967,0.432 1.146,0.438 z" id="path2279"/>
      </g>
      <g transform="translate(463.02,740.3)" id="g2285">
        <path d="M 0,0 C 0.414,0.375 0.752,0.752 1.026,1.118 1.253,1.423 1.437,1.721 1.586,2.007 1.535,2.157 1.472,2.282 1.407,2.308 1.399,2.311 1.375,2.321 1.321,2.278 1.264,2.234 1.191,2.183 1.113,2.153 1.008,1.914 0.878,1.688 0.729,1.472 0.146,0.633 -0.742,-0.051 -1.72,-0.67 c 0.115,-0.188 0.14,-0.361 0.145,-0.415 0.144,0.174 0.345,0.446 0.382,0.646 0.072,0.386 0.967,0.432 1.146,0.438 z" fill="none" stroke="#000000" stroke-miterlimit="10" stroke-width="0.1" id="path2283"/>
      </g>
      <g transform="translate(458.23,737.63)" id="g2289">
        <path d="M 0,0 C -0.022,0.054 -0.038,0.127 -0.038,0.207 -0.382,0.12 -0.75,0.032 -1.108,-0.05 -4.846,-1.153 -10.353,-1.713 -10.353,-1.713 -5.816,-1.478 -2.47,-0.836 0,0" id="path2287"/>
      </g>
      <g transform="translate(458.23,737.63)" id="g2293">
        <path d="M 0,0 C -0.022,0.054 -0.038,0.127 -0.038,0.207 -0.382,0.12 -0.75,0.032 -1.108,-0.05 -4.846,-1.153 -10.353,-1.713 -10.353,-1.713 -5.816,-1.478 -2.47,-0.836 0,0 Z" fill="none" stroke="#000000" stroke-miterlimit="10" stroke-width="0.1" id="path2291"/>
      </g>
      <g transform="translate(463.86,739.79)" id="g2297">
        <path d="m 0,0 c -0.116,-0.096 -0.239,-0.186 -0.358,-0.279 -0.118,-0.094 -0.244,-0.179 -0.369,-0.265 -0.125,-0.085 -0.247,-0.175 -0.378,-0.252 -0.51,-0.328 -1.048,-0.611 -1.597,-0.87 -0.549,-0.261 -1.115,-0.485 -1.69,-0.687 -0.285,-0.105 -0.576,-0.196 -0.866,-0.289 l -0.438,-0.13 c -0.146,-0.043 -0.294,-0.08 -0.441,-0.122 -0.588,-0.16 -1.184,-0.296 -1.782,-0.42 -0.599,-0.121 -1.201,-0.227 -1.806,-0.315 -0.605,-0.093 -1.214,-0.164 -1.825,-0.216 1.227,0.014 2.454,0.144 3.665,0.354 1.211,0.213 2.411,0.508 3.573,0.92 1.16,0.411 2.288,0.936 3.309,1.625 0.507,0.347 0.993,0.728 1.427,1.162 C 0.501,0.295 0.576,0.375 0.65,0.456 0.693,0.538 0.728,0.619 0.759,0.699 0.625,0.561 0.486,0.426 0.343,0.297 Z" id="path2295"/>
      </g>
      <g transform="translate(463.86,739.79)" id="g2301">
        <path d="m 0,0 c -0.116,-0.096 -0.239,-0.186 -0.358,-0.279 -0.118,-0.094 -0.244,-0.179 -0.369,-0.265 -0.125,-0.085 -0.247,-0.175 -0.378,-0.252 -0.51,-0.328 -1.048,-0.611 -1.597,-0.87 -0.549,-0.261 -1.115,-0.485 -1.69,-0.687 -0.285,-0.105 -0.576,-0.196 -0.866,-0.289 l -0.438,-0.13 c -0.146,-0.043 -0.294,-0.08 -0.441,-0.122 -0.588,-0.16 -1.184,-0.296 -1.782,-0.42 -0.599,-0.121 -1.201,-0.227 -1.806,-0.315 -0.605,-0.093 -1.214,-0.164 -1.825,-0.216 1.227,0.014 2.454,0.144 3.665,0.354 1.211,0.213 2.411,0.508 3.573,0.92 1.16,0.411 2.288,0.936 3.309,1.625 0.507,0.347 0.993,0.728 1.427,1.162 C 0.501,0.295 0.576,0.375 0.65,0.456 0.693,0.538 0.728,0.619 0.759,0.699 0.625,0.561 0.486,0.426 0.343,0.297 Z" fill="none" stroke="#000000" stroke-miterlimit="10" stroke-width="0.1" id="path2299"/>
      </g>
      <g transform="translate(463.21,743.8)" id="g2305">
        <path d="M 0,0 C 0.022,0.032 0.026,0.065 0.028,0.083 0.039,0.177 0.008,0.292 -0.044,0.397 -0.113,0.541 -0.22,0.664 -0.306,0.687 -0.206,0.502 -0.103,0.252 -0.06,-0.05 -0.032,-0.036 -0.012,-0.018 0,0" id="path2303"/>
      </g>
      <g transform="translate(463.21,743.8)" id="g2309">
        <path d="M 0,0 C 0.022,0.032 0.026,0.065 0.028,0.083 0.039,0.177 0.008,0.292 -0.044,0.397 -0.113,0.541 -0.22,0.664 -0.306,0.687 -0.206,0.502 -0.103,0.252 -0.06,-0.05 -0.032,-0.036 -0.012,-0.018 0,0 Z" fill="none" stroke="#000000" stroke-miterlimit="10" stroke-width="0.1" id="path2307"/>
      </g>
      <g transform="translate(462.38,741.61)" id="g2313">
        <path d="m 0,0 c 0,0 -0.56,-0.698 -1.57,-1.554 0.047,-0.022 0.09,-0.046 0.13,-0.071 0.841,0.606 1.784,1.399 2.279,2.193 0.078,0.127 0.15,0.243 0.214,0.353 C 1.122,1.036 1.184,1.144 1.238,1.243 1.224,1.273 1.211,1.303 1.196,1.333 1.147,1.43 1.031,1.527 0.904,1.61 0.862,1.637 0.819,1.662 0.776,1.686 0.751,1.201 0.551,0.627 0,0" id="path2311"/>
      </g>
      <g transform="translate(462.38,741.61)" id="g2317">
        <path d="m 0,0 c 0,0 -0.56,-0.698 -1.57,-1.554 0.047,-0.022 0.09,-0.046 0.13,-0.071 0.841,0.606 1.784,1.399 2.279,2.193 0.078,0.127 0.15,0.243 0.214,0.353 C 1.122,1.036 1.184,1.144 1.238,1.243 1.224,1.273 1.211,1.303 1.196,1.333 1.147,1.43 1.031,1.527 0.904,1.61 0.862,1.637 0.819,1.662 0.776,1.686 0.751,1.201 0.551,0.627 0,0 Z" fill="none" stroke="#000000" stroke-miterlimit="10" stroke-width="0.1" id="path2315"/>
      </g>
      <g transform="translate(454.76,737.88)" id="g2321">
        <path d="M 0,0 C -0.096,0.003 -0.135,0.054 -0.159,0.083 -0.186,0.119 -0.2,0.131 -0.228,0.134 -0.242,0.135 -0.262,0.135 -0.291,0.131 -0.405,0.117 -0.655,0.042 -1.183,-0.241 -0.832,-0.173 -0.411,-0.089 0.025,0 H 0" id="path2319"/>
      </g>
      <g transform="translate(454.76,737.88)" id="g2325">
        <path d="M 0,0 C -0.096,0.003 -0.135,0.054 -0.159,0.083 -0.186,0.119 -0.2,0.131 -0.228,0.134 -0.242,0.135 -0.262,0.135 -0.291,0.131 -0.405,0.117 -0.655,0.042 -1.183,-0.241 -0.832,-0.173 -0.411,-0.089 0.025,0 Z" fill="none" stroke="#000000" stroke-miterlimit="10" stroke-width="0.1" id="path2323"/>
      </g>
      <g transform="translate(456.86,739.92)" id="g2329">
        <path d="m 0,0 c -0.148,0.042 -0.179,0.017 -0.18,0.016 -0.013,-0.012 -0.004,-0.08 0,-0.117 0.011,-0.086 0.024,-0.191 -0.054,-0.254 -0.074,-0.06 -0.084,-0.1 -0.086,-0.109 l 0.061,-0.303 c 0.019,0.011 0.037,0.02 0.053,0.025 -0.001,0.015 -0.005,0.039 -0.008,0.058 -0.02,0.115 -0.056,0.33 0.207,0.443 0.152,0.065 0.277,0.047 0.372,-0.007 C 0.298,-0.152 0.186,-0.052 0,0" id="path2327"/>
      </g>
      <g transform="translate(456.86,739.92)" id="g2333">
        <path d="m 0,0 c -0.148,0.042 -0.179,0.017 -0.18,0.016 -0.013,-0.012 -0.004,-0.08 0,-0.117 0.011,-0.086 0.024,-0.191 -0.054,-0.254 -0.074,-0.06 -0.084,-0.1 -0.086,-0.109 l 0.061,-0.303 c 0.019,0.011 0.037,0.02 0.053,0.025 -0.001,0.015 -0.005,0.039 -0.008,0.058 -0.02,0.115 -0.056,0.33 0.207,0.443 0.152,0.065 0.277,0.047 0.372,-0.007 C 0.298,-0.152 0.186,-0.052 0,0 Z" fill="none" stroke="#000000" stroke-miterlimit="10" stroke-width="0.1" id="path2331"/>
      </g>
      <g transform="translate(455.88,738.58)" id="g2337">
        <path d="m 0,0 0.018,0.009 c 0.051,0.026 0.103,0.053 0.154,0.08 0.103,0.11 0.297,0.31 0.449,0.416 L 0.479,0.806 C 0.478,0.806 0.453,0.853 0.387,0.869 0.32,0.886 0.196,0.875 -0.011,0.73 -0.109,0.662 -0.164,0.593 -0.173,0.527 -0.179,0.48 -0.162,0.429 -0.121,0.378 L 0,0.228 -0.189,0.256 C -0.267,0.267 -0.466,0.273 -0.62,0.078 -0.8,-0.15 -0.916,-0.137 -1.04,-0.099 c -0.03,0.01 -0.06,0.019 -0.096,0.012 -0.065,-0.014 -0.151,-0.082 -0.296,-0.304 -0.091,-0.141 -0.145,-0.21 -0.191,-0.238 0.7,0.234 1.44,0.5 1.619,0.624 z" id="path2335"/>
      </g>
      <g transform="translate(455.88,738.58)" id="g2341">
        <path d="m 0,0 0.018,0.009 c 0.051,0.026 0.103,0.053 0.154,0.08 0.103,0.11 0.297,0.31 0.449,0.416 L 0.479,0.806 C 0.478,0.806 0.453,0.853 0.387,0.869 0.32,0.886 0.196,0.875 -0.011,0.73 -0.109,0.662 -0.164,0.593 -0.173,0.527 -0.179,0.48 -0.162,0.429 -0.121,0.378 L 0,0.228 -0.189,0.256 C -0.267,0.267 -0.466,0.273 -0.62,0.078 -0.8,-0.15 -0.916,-0.137 -1.04,-0.099 c -0.03,0.01 -0.06,0.019 -0.096,0.012 -0.065,-0.014 -0.151,-0.082 -0.296,-0.304 -0.091,-0.141 -0.145,-0.21 -0.191,-0.238 0.7,0.234 1.44,0.5 1.619,0.624 z" fill="none" stroke="#000000" stroke-miterlimit="10" stroke-width="0.1" id="path2339"/>
      </g>
      <g transform="translate(457.89,740.02)" id="g2345">
        <path d="M 0,0 C -0.022,-0.181 -0.189,-0.426 -0.278,-0.543 -0.28,-0.546 -0.281,-0.548 -0.283,-0.55 -0.292,-0.562 -0.3,-0.572 -0.306,-0.581 -0.319,-0.598 -0.329,-0.609 -0.331,-0.611 l -0.031,-0.038 c 0.232,0.154 0.405,0.303 0.533,0.436 C 0.342,-0.037 0.433,0.111 0.48,0.204 0.45,0.199 0.419,0.194 0.389,0.187 0.195,0.148 0.009,0.079 0,0" id="path2343"/>
      </g>
      <g transform="translate(457.89,740.02)" id="g2349">
        <path d="M 0,0 C -0.022,-0.181 -0.189,-0.426 -0.278,-0.543 -0.28,-0.546 -0.281,-0.548 -0.283,-0.55 -0.292,-0.562 -0.3,-0.572 -0.306,-0.581 -0.319,-0.598 -0.329,-0.609 -0.331,-0.611 l -0.031,-0.038 c 0.232,0.154 0.405,0.303 0.533,0.436 C 0.342,-0.037 0.433,0.111 0.48,0.204 0.45,0.199 0.419,0.194 0.389,0.187 0.195,0.148 0.009,0.079 0,0 Z" fill="none" stroke="#000000" stroke-miterlimit="10" stroke-width="0.1" id="path2347"/>
      </g>
      <g transform="translate(456.44,738.8)" id="g2353">
        <path d="M 0,0 C 0.026,0.01 0.051,0.021 0.076,0.032 0.302,0.126 0.5,0.222 0.674,0.318 0.767,0.37 0.854,0.421 0.933,0.472 L 0.925,0.491 0.916,0.514 0.897,0.561 0.895,0.564 C 0.892,0.572 0.881,0.596 0.861,0.625 0.816,0.69 0.726,0.779 0.578,0.749 0.555,0.744 0.531,0.737 0.506,0.726 0.351,0.66 0.367,0.564 0.386,0.453 0.393,0.413 0.403,0.353 0.385,0.305 0.373,0.271 0.347,0.243 0.296,0.232 0.25,0.223 0.133,0.126 0.004,0.003 0.002,0.002 0.001,0.001 0,0" id="path2351"/>
      </g>
      <g transform="translate(456.44,738.8)" id="g2357">
        <path d="M 0,0 C 0.026,0.01 0.051,0.021 0.076,0.032 0.302,0.126 0.5,0.222 0.674,0.318 0.767,0.37 0.854,0.421 0.933,0.472 L 0.925,0.491 0.916,0.514 0.897,0.561 0.895,0.564 C 0.892,0.572 0.881,0.596 0.861,0.625 0.816,0.69 0.726,0.779 0.578,0.749 0.555,0.744 0.531,0.737 0.506,0.726 0.351,0.66 0.367,0.564 0.386,0.453 0.393,0.413 0.403,0.353 0.385,0.305 0.373,0.271 0.347,0.243 0.296,0.232 0.25,0.223 0.133,0.126 0.004,0.003 0.002,0.002 0.001,0.001 0,0 Z" fill="none" stroke="#000000" stroke-miterlimit="10" stroke-width="0.1" id="path2355"/>
      </g>
      <g transform="translate(458.23,738.03)" id="g2361">
        <path d="M 0,0 C 0.039,0.118 0.129,0.231 0.306,0.302 0.402,0.341 0.479,0.365 0.541,0.381 0.476,0.448 0.412,0.535 0.383,0.635 0.381,0.634 0.379,0.632 0.378,0.63 0.249,0.49 0.142,0.423 0.04,0.419 -0.07,0.414 -0.145,0.483 -0.206,0.538 -0.264,0.592 -0.302,0.625 -0.353,0.62 -0.416,0.617 -0.539,0.548 -0.76,0.258 -0.945,0.016 -1.049,-0.078 -1.146,-0.09 -1.223,-0.099 -1.276,-0.055 -1.319,-0.021 -1.369,0.02 -1.438,0.076 -1.599,0.044 -1.788,0.005 -2.106,-0.156 -2.674,-0.61 -1.896,-0.448 -0.84,-0.214 0,0" id="path2359"/>
      </g>
      <g transform="translate(458.23,738.03)" id="g2365">
        <path d="M 0,0 C 0.039,0.118 0.129,0.231 0.306,0.302 0.402,0.341 0.479,0.365 0.541,0.381 0.476,0.448 0.412,0.535 0.383,0.635 0.381,0.634 0.379,0.632 0.378,0.63 0.249,0.49 0.142,0.423 0.04,0.419 -0.07,0.414 -0.145,0.483 -0.206,0.538 -0.264,0.592 -0.302,0.625 -0.353,0.62 -0.416,0.617 -0.539,0.548 -0.76,0.258 -0.945,0.016 -1.049,-0.078 -1.146,-0.09 -1.223,-0.099 -1.276,-0.055 -1.319,-0.021 -1.369,0.02 -1.438,0.076 -1.599,0.044 -1.788,0.005 -2.106,-0.156 -2.674,-0.61 -1.896,-0.448 -0.84,-0.214 0,0 Z" fill="none" stroke="#000000" stroke-miterlimit="10" stroke-width="0.1" id="path2363"/>
      </g>
      <g transform="translate(459.44,738.09)" id="g2369">
        <path d="M 0,0 C 0.009,0.008 0.017,0.015 0.026,0.023 0.258,0.23 0.624,0.535 0.795,0.559 0.804,0.572 0.797,0.635 0.793,0.676 0.787,0.733 0.779,0.802 0.786,0.874 0.798,1.022 0.868,1.184 1.128,1.274 1.274,1.326 1.401,1.329 1.508,1.302 1.634,1.271 1.733,1.2 1.807,1.118 1.795,1.184 1.765,1.296 1.692,1.416 1.62,1.535 1.506,1.662 1.324,1.76 1.286,1.78 1.244,1.799 1.199,1.817 1.176,1.826 1.155,1.835 1.131,1.843 0.913,1.916 0.846,1.891 0.828,1.876 0.794,1.85 0.8,1.758 0.804,1.677 0.808,1.619 0.811,1.558 0.803,1.501 0.796,1.452 0.781,1.407 0.749,1.37 0.738,1.358 0.726,1.347 0.712,1.337 0.559,1.232 0.556,1.157 0.556,1.157 L 0.61,0.772 0.644,0.531 0.559,0.743 0.406,1.122 C 0.405,1.123 0.401,1.131 0.393,1.144 0.386,1.153 0.377,1.164 0.365,1.176 0.342,1.199 0.308,1.225 0.257,1.241 0.152,1.274 -0.043,1.271 -0.377,1.07 -0.442,1.031 -0.495,0.99 -0.538,0.95 -0.581,0.908 -0.612,0.866 -0.632,0.823 -0.648,0.789 -0.657,0.753 -0.657,0.717 -0.658,0.565 -0.512,0.422 -0.416,0.348 -0.403,0.344 -0.392,0.339 -0.384,0.334 -0.352,0.316 -0.331,0.287 -0.327,0.256 L -0.326,0.251 -0.317,0.187 -0.306,0.11 -0.303,0.092 -0.324,0.104 -0.412,0.158 -0.445,0.179 C -0.447,0.18 -0.452,0.183 -0.459,0.187 -0.464,0.191 -0.471,0.196 -0.479,0.202 -0.494,0.203 -0.52,0.202 -0.562,0.193 -0.616,0.182 -0.697,0.159 -0.815,0.111 -0.889,0.081 -0.941,0.042 -0.978,-0.001 -0.991,-0.016 -1.003,-0.033 -1.012,-0.049 -1.021,-0.064 -1.028,-0.08 -1.034,-0.096 -1.045,-0.125 -1.05,-0.153 -1.053,-0.181 c -0.005,-0.053 0.002,-0.103 0.01,-0.14 0.236,0.049 0.461,0.112 0.675,0.184 C -0.241,-0.094 -0.118,-0.048 0,0" id="path2367"/>
      </g>
      <g transform="translate(459.44,738.09)" id="g2373">
        <path d="M 0,0 C 0.009,0.008 0.017,0.015 0.026,0.023 0.258,0.23 0.624,0.535 0.795,0.559 0.804,0.572 0.797,0.635 0.793,0.676 0.787,0.733 0.779,0.802 0.786,0.874 0.798,1.022 0.868,1.184 1.128,1.274 1.274,1.326 1.401,1.329 1.508,1.302 1.634,1.271 1.733,1.2 1.807,1.118 1.795,1.184 1.765,1.296 1.692,1.416 1.62,1.535 1.506,1.662 1.324,1.76 1.286,1.78 1.244,1.799 1.199,1.817 1.176,1.826 1.155,1.835 1.131,1.843 0.913,1.916 0.846,1.891 0.828,1.876 0.794,1.85 0.8,1.758 0.804,1.677 0.808,1.619 0.811,1.558 0.803,1.501 0.796,1.452 0.781,1.407 0.749,1.37 0.738,1.358 0.726,1.347 0.712,1.337 0.559,1.232 0.556,1.157 0.556,1.157 L 0.61,0.772 0.644,0.531 0.559,0.743 0.406,1.122 C 0.405,1.123 0.401,1.131 0.393,1.144 0.386,1.153 0.377,1.164 0.365,1.176 0.342,1.199 0.308,1.225 0.257,1.241 0.152,1.274 -0.043,1.271 -0.377,1.07 -0.442,1.031 -0.495,0.99 -0.538,0.95 -0.581,0.908 -0.612,0.866 -0.632,0.823 -0.648,0.789 -0.657,0.753 -0.657,0.717 -0.658,0.565 -0.512,0.422 -0.416,0.348 -0.403,0.344 -0.392,0.339 -0.384,0.334 -0.352,0.316 -0.331,0.287 -0.327,0.256 L -0.326,0.251 -0.317,0.187 -0.306,0.11 -0.303,0.092 -0.324,0.104 -0.412,0.158 -0.445,0.179 C -0.447,0.18 -0.452,0.183 -0.459,0.187 -0.464,0.191 -0.471,0.196 -0.479,0.202 -0.494,0.203 -0.52,0.202 -0.562,0.193 -0.616,0.182 -0.697,0.159 -0.815,0.111 -0.889,0.081 -0.941,0.042 -0.978,-0.001 -0.991,-0.016 -1.003,-0.033 -1.012,-0.049 -1.021,-0.064 -1.028,-0.08 -1.034,-0.096 -1.045,-0.125 -1.05,-0.153 -1.053,-0.181 c -0.005,-0.053 0.002,-0.103 0.01,-0.14 0.236,0.049 0.461,0.112 0.675,0.184 C -0.241,-0.094 -0.118,-0.048 0,0 Z" fill="none" stroke="#000000" stroke-miterlimit="10" stroke-width="0.1" id="path2371"/>
      </g>
      <g transform="translate(462.82,740.09)" id="g2377">
        <path d="M 0,0 C -0.005,0 -0.01,-0.001 -0.014,-0.001 -0.381,-0.03 -0.819,-0.13 -0.85,-0.299 -0.88,-0.462 -0.995,-0.656 -1.113,-0.821 -1.254,-1.019 -1.4,-1.176 -1.412,-1.187 L -1.498,-1.279 -1.54,-1.16 c -0.002,0.007 -0.007,0.021 -0.015,0.038 -0.004,0.007 -0.006,0.014 -0.01,0.021 -0.008,0.015 -0.017,0.031 -0.028,0.048 -0.012,0.02 -0.028,0.041 -0.045,0.063 -0.082,0.099 -0.221,0.195 -0.44,0.146 C -2.101,-0.85 -2.126,-0.856 -2.151,-0.865 -2.254,-0.902 -2.313,-0.949 -2.347,-1.005 -2.4,-1.091 -2.389,-1.194 -2.378,-1.295 -2.369,-1.368 -2.361,-1.468 -2.41,-1.529 -2.427,-1.55 -2.453,-1.565 -2.488,-1.574 -2.494,-1.576 -2.5,-1.578 -2.506,-1.579 -2.508,-1.58 -2.51,-1.58 -2.512,-1.58 -2.562,-1.591 -2.65,-1.645 -2.755,-1.721 -2.757,-1.723 -2.758,-1.723 -2.759,-1.724 -2.844,-1.787 -2.94,-1.865 -3.036,-1.946 -3.061,-1.967 -3.087,-1.989 -3.111,-2.01 c 0.129,0.04 0.253,0.082 0.373,0.125 C -0.796,-1.193 -0.166,-0.305 0,0" id="path2375"/>
      </g>
      <g transform="translate(462.82,740.09)" id="g2381">
        <path d="M 0,0 C -0.005,0 -0.01,-0.001 -0.014,-0.001 -0.381,-0.03 -0.819,-0.13 -0.85,-0.299 -0.88,-0.462 -0.995,-0.656 -1.113,-0.821 -1.254,-1.019 -1.4,-1.176 -1.412,-1.187 L -1.498,-1.279 -1.54,-1.16 c -0.002,0.007 -0.007,0.021 -0.015,0.038 -0.004,0.007 -0.006,0.014 -0.01,0.021 -0.008,0.015 -0.017,0.031 -0.028,0.048 -0.012,0.02 -0.028,0.041 -0.045,0.063 -0.082,0.099 -0.221,0.195 -0.44,0.146 C -2.101,-0.85 -2.126,-0.856 -2.151,-0.865 -2.254,-0.902 -2.313,-0.949 -2.347,-1.005 -2.4,-1.091 -2.389,-1.194 -2.378,-1.295 -2.369,-1.368 -2.361,-1.468 -2.41,-1.529 -2.427,-1.55 -2.453,-1.565 -2.488,-1.574 -2.494,-1.576 -2.5,-1.578 -2.506,-1.579 -2.508,-1.58 -2.51,-1.58 -2.512,-1.58 -2.562,-1.591 -2.65,-1.645 -2.755,-1.721 -2.757,-1.723 -2.758,-1.723 -2.759,-1.724 -2.844,-1.787 -2.94,-1.865 -3.036,-1.946 -3.061,-1.967 -3.087,-1.989 -3.111,-2.01 c 0.129,0.04 0.253,0.082 0.373,0.125 C -0.796,-1.193 -0.166,-0.305 0,0 Z" fill="none" stroke="#000000" stroke-miterlimit="10" stroke-width="0.1" id="path2379"/>
      </g>
      <g transform="translate(461.5,745.56)" id="g2385">
        <path d="m 0,0 c 0.186,-0.141 0.342,-0.308 0.459,-0.496 0.008,0.06 0.022,0.123 0.043,0.185 C 0.354,-0.173 0.184,-0.064 0,0" id="path2383"/>
      </g>
      <g transform="translate(461.5,745.56)" id="g2389">
        <path d="m 0,0 c 0.186,-0.141 0.342,-0.308 0.459,-0.496 0.008,0.06 0.022,0.123 0.043,0.185 C 0.354,-0.173 0.184,-0.064 0,0 Z" fill="none" stroke="#000000" stroke-miterlimit="10" stroke-width="0.1" id="path2387"/>
      </g>
      <g transform="translate(462.26,743.72)" id="g2393">
        <path d="M 0,0 V -0.023 C 0,-0.028 -0.001,-0.032 -0.001,-0.042 L -0.005,-0.09 c -0.007,-0.065 -0.009,-0.129 -0.019,-0.194 -0.031,-0.26 -0.083,-0.517 -0.161,-0.765 -0.153,-0.498 -0.395,-0.969 -0.703,-1.398 -0.154,-0.216 -0.322,-0.424 -0.505,-0.62 -0.143,-0.157 -0.295,-0.307 -0.454,-0.451 -0.043,-0.038 -0.086,-0.076 -0.13,-0.114 0.077,0.032 0.151,0.069 0.222,0.108 0.17,0.092 0.331,0.201 0.486,0.316 0.219,0.17 0.427,0.358 0.613,0.57 0.373,0.419 0.666,0.924 0.835,1.473 0.084,0.274 0.137,0.559 0.157,0.845 0.007,0.071 0.006,0.144 0.008,0.216 l 0.002,0.054 c 0,0.008 0,0.021 -0.001,0.033 L 0.343,0.012 C 0.341,0.05 0.337,0.086 0.332,0.123 0.326,0.176 0.317,0.227 0.308,0.279 0.216,0.152 0.106,0.072 -0.001,0.026 0,0.017 0,0.008 0,0" id="path2391"/>
      </g>
      <g transform="translate(462.26,743.72)" id="g2397">
        <path d="M 0,0 V -0.023 C 0,-0.028 -0.001,-0.032 -0.001,-0.042 L -0.005,-0.09 c -0.007,-0.065 -0.009,-0.129 -0.019,-0.194 -0.031,-0.26 -0.083,-0.517 -0.161,-0.765 -0.153,-0.498 -0.395,-0.969 -0.703,-1.398 -0.154,-0.216 -0.322,-0.424 -0.505,-0.62 -0.143,-0.157 -0.295,-0.307 -0.454,-0.451 -0.043,-0.038 -0.086,-0.076 -0.13,-0.114 0.077,0.032 0.151,0.069 0.222,0.108 0.17,0.092 0.331,0.201 0.486,0.316 0.219,0.17 0.427,0.358 0.613,0.57 0.373,0.419 0.666,0.924 0.835,1.473 0.084,0.274 0.137,0.559 0.157,0.845 0.007,0.071 0.006,0.144 0.008,0.216 l 0.002,0.054 c 0,0.008 0,0.021 -0.001,0.033 L 0.343,0.012 C 0.341,0.05 0.337,0.086 0.332,0.123 0.326,0.176 0.317,0.227 0.308,0.279 0.216,0.152 0.106,0.072 -0.001,0.026 0,0.017 0,0.008 0,0 Z" fill="none" stroke="#000000" stroke-miterlimit="10" stroke-width="0.1" id="path2395"/>
      </g>
      <g transform="translate(461.53,743.16)" id="g2401">
        <path d="M 0,0 0.016,-0.22 C 0.019,-0.257 0.023,-0.294 0.024,-0.331 L 0.023,-0.442 V -0.664 C 0.018,-0.812 0.002,-0.96 -0.008,-1.109 0.021,-0.964 0.055,-0.818 0.08,-0.67 l 0.029,0.223 0.014,0.112 c 0.004,0.038 0.005,0.075 0.007,0.113 L 0.142,0.005 C 0.145,0.081 0.14,0.156 0.139,0.233 0.14,0.386 0.118,0.537 0.105,0.691 0.06,0.995 -0.014,1.299 -0.128,1.591 l -0.043,0.11 -0.05,0.107 C -0.252,1.88 -0.291,1.95 -0.328,2.02 -0.367,2.089 -0.407,2.158 -0.452,2.225 -0.476,2.259 -0.498,2.292 -0.523,2.325 -0.536,2.342 -0.547,2.359 -0.561,2.376 -0.576,2.393 -0.587,2.408 -0.607,2.43 L -0.917,2.089 C -0.912,2.085 -0.898,2.072 -0.888,2.062 -0.877,2.052 -0.865,2.04 -0.854,2.028 -0.831,2.006 -0.809,1.98 -0.787,1.955 -0.742,1.905 -0.701,1.85 -0.659,1.795 -0.62,1.739 -0.578,1.684 -0.542,1.623 l 0.056,-0.089 0.05,-0.092 C -0.3,1.194 -0.196,0.925 -0.118,0.646 -0.088,0.504 -0.047,0.363 -0.031,0.218 -0.021,0.145 -0.007,0.073 0,0" id="path2399"/>
      </g>
      <g transform="translate(461.53,743.16)" id="g2405">
        <path d="M 0,0 0.016,-0.22 C 0.019,-0.257 0.023,-0.294 0.024,-0.331 L 0.023,-0.442 V -0.664 C 0.018,-0.812 0.002,-0.96 -0.008,-1.109 0.021,-0.964 0.055,-0.818 0.08,-0.67 l 0.029,0.223 0.014,0.112 c 0.004,0.038 0.005,0.075 0.007,0.113 L 0.142,0.005 C 0.145,0.081 0.14,0.156 0.139,0.233 0.14,0.386 0.118,0.537 0.105,0.691 0.06,0.995 -0.014,1.299 -0.128,1.591 l -0.043,0.11 -0.05,0.107 C -0.252,1.88 -0.291,1.95 -0.328,2.02 -0.367,2.089 -0.407,2.158 -0.452,2.225 -0.476,2.259 -0.498,2.292 -0.523,2.325 -0.536,2.342 -0.547,2.359 -0.561,2.376 -0.576,2.393 -0.587,2.408 -0.607,2.43 L -0.917,2.089 C -0.912,2.085 -0.898,2.072 -0.888,2.062 -0.877,2.052 -0.865,2.04 -0.854,2.028 -0.831,2.006 -0.809,1.98 -0.787,1.955 -0.742,1.905 -0.701,1.85 -0.659,1.795 -0.62,1.739 -0.578,1.684 -0.542,1.623 l 0.056,-0.089 0.05,-0.092 C -0.3,1.194 -0.196,0.925 -0.118,0.646 -0.088,0.504 -0.047,0.363 -0.031,0.218 -0.021,0.145 -0.007,0.073 0,0 Z" fill="none" stroke="#000000" stroke-miterlimit="10" stroke-width="0.1" id="path2403"/>
      </g>
      <g transform="translate(457.47,738.93)" id="g2409">
        <path d="M 0,0 C 0.136,0.079 0.27,0.163 0.402,0.249 0.042,-0.036 -0.335,-0.3 -0.723,-0.548 -0.134,-0.217 0.438,0.149 0.972,0.571 1.506,0.99 1.997,1.475 2.402,2.034 2.601,2.316 2.779,2.616 2.917,2.938 3.056,3.259 3.156,3.601 3.202,3.953 3.24,4.237 3.245,4.527 3.214,4.814 3.262,4.654 3.296,4.49 3.315,4.321 3.335,4.124 3.335,3.923 3.317,3.723 3.283,3.321 3.168,2.924 3.01,2.543 2.851,2.162 2.643,1.8 2.408,1.456 2.674,1.777 2.918,2.12 3.117,2.492 3.314,2.865 3.474,3.265 3.551,3.69 3.59,3.902 3.612,4.119 3.61,4.339 3.606,4.558 3.58,4.777 3.53,4.993 3.481,5.209 3.405,5.42 3.308,5.622 3.259,5.723 3.204,5.822 3.143,5.917 3.112,5.965 3.08,6.012 3.046,6.059 3.028,6.082 3.011,6.105 2.991,6.128 2.972,6.152 2.956,6.172 2.928,6.202 L 2.726,5.991 2.43,5.789 C 2.436,5.782 2.448,5.764 2.457,5.75 2.466,5.735 2.476,5.719 2.485,5.702 2.505,5.67 2.522,5.635 2.541,5.602 2.575,5.533 2.608,5.462 2.638,5.39 2.697,5.245 2.746,5.094 2.78,4.94 2.853,4.632 2.873,4.31 2.85,3.991 2.843,3.888 2.828,3.785 2.811,3.683 2.813,3.786 2.802,3.889 2.796,3.992 2.789,4.051 2.778,4.109 2.768,4.167 L 2.754,4.254 C 2.748,4.283 2.739,4.31 2.732,4.337 L 2.643,4.667 C 2.63,4.723 2.608,4.776 2.588,4.83 L 2.527,4.99 C 2.506,5.043 2.487,5.097 2.465,5.15 L 2.387,5.303 C 2.335,5.405 2.288,5.509 2.221,5.604 1.985,5.996 1.666,6.338 1.294,6.597 1.28,6.606 1.267,6.616 1.253,6.625 1.221,6.647 1.188,6.669 1.156,6.69 1.154,6.69 1.154,6.691 1.153,6.691 L 1.005,6.775 C 0.957,6.804 0.906,6.828 0.855,6.852 0.804,6.875 0.754,6.902 0.701,6.92 0.494,7.005 0.277,7.066 0.057,7.089 0.268,7.024 0.467,6.932 0.654,6.822 0.838,6.71 1.019,6.592 1.176,6.446 1.499,6.166 1.76,5.824 1.956,5.451 2.146,5.075 2.287,4.674 2.368,4.257 2.374,4.232 2.381,4.206 2.386,4.18 L 2.396,4.105 C 2.402,4.054 2.412,4.004 2.416,3.954 2.42,3.852 2.43,3.751 2.422,3.65 2.421,3.548 2.405,3.448 2.392,3.347 2.384,3.297 2.371,3.247 2.361,3.197 L 2.344,3.123 2.322,3.049 C 2.268,2.851 2.184,2.661 2.089,2.476 1.997,2.289 1.877,2.115 1.757,1.942 1.633,1.771 1.496,1.607 1.353,1.448 1.208,1.291 1.059,1.135 0.9,0.989 0.895,0.984 0.889,0.979 0.884,0.974 0.731,0.832 0.573,0.695 0.41,0.562 0.243,0.424 0.071,0.29 -0.105,0.162 -0.152,0.128 -0.2,0.094 -0.248,0.06 -0.555,-0.161 -0.872,-0.371 -1.201,-0.565 -0.783,-0.42 -0.387,-0.218 0,0" id="path2407"/>
      </g>
      <g transform="translate(457.47,738.93)" id="g2413">
        <path d="M 0,0 C 0.136,0.079 0.27,0.163 0.402,0.249 0.042,-0.036 -0.335,-0.3 -0.723,-0.548 -0.134,-0.217 0.438,0.149 0.972,0.571 1.506,0.99 1.997,1.475 2.402,2.034 2.601,2.316 2.779,2.616 2.917,2.938 3.056,3.259 3.156,3.601 3.202,3.953 3.24,4.237 3.245,4.527 3.214,4.814 3.262,4.654 3.296,4.49 3.315,4.321 3.335,4.124 3.335,3.923 3.317,3.723 3.283,3.321 3.168,2.924 3.01,2.543 2.851,2.162 2.643,1.8 2.408,1.456 2.674,1.777 2.918,2.12 3.117,2.492 3.314,2.865 3.474,3.265 3.551,3.69 3.59,3.902 3.612,4.119 3.61,4.339 3.606,4.558 3.58,4.777 3.53,4.993 3.481,5.209 3.405,5.42 3.308,5.622 3.259,5.723 3.204,5.822 3.143,5.917 3.112,5.965 3.08,6.012 3.046,6.059 3.028,6.082 3.011,6.105 2.991,6.128 2.972,6.152 2.956,6.172 2.928,6.202 L 2.726,5.991 2.43,5.789 C 2.436,5.782 2.448,5.764 2.457,5.75 2.466,5.735 2.476,5.719 2.485,5.702 2.505,5.67 2.522,5.635 2.541,5.602 2.575,5.533 2.608,5.462 2.638,5.39 2.697,5.245 2.746,5.094 2.78,4.94 2.853,4.632 2.873,4.31 2.85,3.991 2.843,3.888 2.828,3.785 2.811,3.683 2.813,3.786 2.802,3.889 2.796,3.992 2.789,4.051 2.778,4.109 2.768,4.167 L 2.754,4.254 C 2.748,4.283 2.739,4.31 2.732,4.337 L 2.643,4.667 C 2.63,4.723 2.608,4.776 2.588,4.83 L 2.527,4.99 C 2.506,5.043 2.487,5.097 2.465,5.15 L 2.387,5.303 C 2.335,5.405 2.288,5.509 2.221,5.604 1.985,5.996 1.666,6.338 1.294,6.597 1.28,6.606 1.267,6.616 1.253,6.625 1.221,6.647 1.188,6.669 1.156,6.69 1.154,6.69 1.154,6.691 1.153,6.691 L 1.005,6.775 C 0.957,6.804 0.906,6.828 0.855,6.852 0.804,6.875 0.754,6.902 0.701,6.92 0.494,7.005 0.277,7.066 0.057,7.089 0.268,7.024 0.467,6.932 0.654,6.822 0.838,6.71 1.019,6.592 1.176,6.446 1.499,6.166 1.76,5.824 1.956,5.451 2.146,5.075 2.287,4.674 2.368,4.257 2.374,4.232 2.381,4.206 2.386,4.18 L 2.396,4.105 C 2.402,4.054 2.412,4.004 2.416,3.954 2.42,3.852 2.43,3.751 2.422,3.65 2.421,3.548 2.405,3.448 2.392,3.347 2.384,3.297 2.371,3.247 2.361,3.197 L 2.344,3.123 2.322,3.049 C 2.268,2.851 2.184,2.661 2.089,2.476 1.997,2.289 1.877,2.115 1.757,1.942 1.633,1.771 1.496,1.607 1.353,1.448 1.208,1.291 1.059,1.135 0.9,0.989 0.895,0.984 0.889,0.979 0.884,0.974 0.731,0.832 0.573,0.695 0.41,0.562 0.243,0.424 0.071,0.29 -0.105,0.162 -0.152,0.128 -0.2,0.094 -0.248,0.06 -0.555,-0.161 -0.872,-0.371 -1.201,-0.565 -0.783,-0.42 -0.387,-0.218 0,0 Z" fill="none" stroke="#000000" stroke-miterlimit="10" stroke-width="0.1" id="path2411"/>
      </g>
      <g transform="translate(464.74,744.23)" id="g2417">
        <path d="m 0,0 c -0.106,0.112 -0.207,0.214 -0.304,0.309 -0.024,0.023 -0.048,0.046 -0.071,0.069 -0.049,0.046 -0.096,0.091 -0.142,0.133 -0.051,0.046 -0.1,0.09 -0.149,0.131 -0.381,0.33 -0.684,0.517 -0.923,0.616 -0.02,0.008 -0.038,0.016 -0.057,0.023 C -1.711,1.305 -1.771,1.322 -1.825,1.334 -2.073,1.387 -2.222,1.328 -2.302,1.271 L -2.317,1.259 C -2.353,1.23 -2.385,1.198 -2.412,1.162 -2.483,1.066 -2.523,0.95 -2.54,0.849 c -0.016,-0.1 -0.012,-0.186 0.006,-0.222 0.149,-0.3 0.186,-0.539 0.11,-0.711 -0.004,-0.009 -0.009,-0.015 -0.013,-0.023 -0.022,-0.043 -0.051,-0.082 -0.087,-0.114 0.03,0.011 0.063,0.027 0.096,0.049 0.088,0.057 0.179,0.161 0.244,0.337 0.007,0.018 0.013,0.034 0.019,0.054 0.053,0.171 0.137,0.25 0.217,0.284 0.035,0.014 0.067,0.02 0.097,0.022 0.038,0.003 0.07,-0.002 0.089,-0.006 0.072,-0.017 0.145,-0.058 0.212,-0.115 0.05,-0.043 0.098,-0.095 0.14,-0.154 0.137,-0.184 0.225,-0.428 0.199,-0.625 -0.011,-0.077 -0.05,-0.218 -0.195,-0.303 0.168,-0.095 0.36,-0.228 0.466,-0.384 0.014,-0.022 0.028,-0.044 0.038,-0.066 0.03,-0.059 0.053,-0.116 0.077,-0.172 0.035,-0.086 0.084,-0.205 0.122,-0.215 0.008,-0.002 0.057,-0.008 0.192,0.099 0.024,0.02 0.048,0.034 0.071,0.046 0.05,0.026 0.096,0.037 0.138,0.037 0.04,0 0.075,-0.008 0.104,-0.02 0.093,-0.037 0.167,-0.129 0.226,-0.239 0.119,-0.226 0.173,-0.533 0.188,-0.634 0.016,-0.049 0.069,-0.229 0.085,-0.488 0.002,-0.044 0.004,-0.089 0.004,-0.137 0,-0.114 -0.007,-0.24 -0.028,-0.375 C 0.271,-3.262 0.264,-3.3 0.257,-3.337 0.25,-3.371 0.243,-3.404 0.234,-3.438 0.2,-3.577 0.152,-3.722 0.083,-3.87 c 0.366,0.402 0.749,0.971 0.824,1.647 l 0.001,0.011 C 0.97,-1.634 0.799,-1.056 0.401,-0.489 0.286,-0.325 0.152,-0.162 0,0" id="path2415"/>
      </g>
      <g transform="translate(464.74,744.23)" id="g2421">
        <path d="m 0,0 c -0.106,0.112 -0.207,0.214 -0.304,0.309 -0.024,0.023 -0.048,0.046 -0.071,0.069 -0.049,0.046 -0.096,0.091 -0.142,0.133 -0.051,0.046 -0.1,0.09 -0.149,0.131 -0.381,0.33 -0.684,0.517 -0.923,0.616 -0.02,0.008 -0.038,0.016 -0.057,0.023 C -1.711,1.305 -1.771,1.322 -1.825,1.334 -2.073,1.387 -2.222,1.328 -2.302,1.271 L -2.317,1.259 C -2.353,1.23 -2.385,1.198 -2.412,1.162 -2.483,1.066 -2.523,0.95 -2.54,0.849 c -0.016,-0.1 -0.012,-0.186 0.006,-0.222 0.149,-0.3 0.186,-0.539 0.11,-0.711 -0.004,-0.009 -0.009,-0.015 -0.013,-0.023 -0.022,-0.043 -0.051,-0.082 -0.087,-0.114 0.03,0.011 0.063,0.027 0.096,0.049 0.088,0.057 0.179,0.161 0.244,0.337 0.007,0.018 0.013,0.034 0.019,0.054 0.053,0.171 0.137,0.25 0.217,0.284 0.035,0.014 0.067,0.02 0.097,0.022 0.038,0.003 0.07,-0.002 0.089,-0.006 0.072,-0.017 0.145,-0.058 0.212,-0.115 0.05,-0.043 0.098,-0.095 0.14,-0.154 0.137,-0.184 0.225,-0.428 0.199,-0.625 -0.011,-0.077 -0.05,-0.218 -0.195,-0.303 0.168,-0.095 0.36,-0.228 0.466,-0.384 0.014,-0.022 0.028,-0.044 0.038,-0.066 0.03,-0.059 0.053,-0.116 0.077,-0.172 0.035,-0.086 0.084,-0.205 0.122,-0.215 0.008,-0.002 0.057,-0.008 0.192,0.099 0.024,0.02 0.048,0.034 0.071,0.046 0.05,0.026 0.096,0.037 0.138,0.037 0.04,0 0.075,-0.008 0.104,-0.02 0.093,-0.037 0.167,-0.129 0.226,-0.239 0.119,-0.226 0.173,-0.533 0.188,-0.634 0.016,-0.049 0.069,-0.229 0.085,-0.488 0.002,-0.044 0.004,-0.089 0.004,-0.137 0,-0.114 -0.007,-0.24 -0.028,-0.375 C 0.271,-3.262 0.264,-3.3 0.257,-3.337 0.25,-3.371 0.243,-3.404 0.234,-3.438 0.2,-3.577 0.152,-3.722 0.083,-3.87 c 0.366,0.402 0.749,0.971 0.824,1.647 l 0.001,0.011 C 0.97,-1.634 0.799,-1.056 0.401,-0.489 0.286,-0.325 0.152,-0.162 0,0 Z" fill="none" stroke="#000000" stroke-miterlimit="10" stroke-width="0.1" id="path2419"/>
      </g>
    </g>
  </g></svg>