<svg
   xmlns:dc="http://purl.org/dc/elements/1.1/"
   xmlns:cc="http://creativecommons.org/ns#"
   xmlns:rdf="http://www.w3.org/1999/02/22-rdf-syntax-ns#"
   xmlns:svg="http://www.w3.org/2000/svg"
   xmlns="http://www.w3.org/2000/svg"
   xmlns:sodipodi="http://sodipodi.sourceforge.net/DTD/sodipodi-0.dtd"
   xmlns:inkscape="http://www.inkscape.org/namespaces/inkscape"
   inkscape:version="1.0 (4035a4fb49, 2020-05-01)"
   sodipodi:docname="all_stacked (copy).svg"
   id="svg2899"
   viewBox="0 0 6.7021 13.579"
   version="1.1"
   height="13.579mm"
   width="6.7021mm"><g xmlns="http://www.w3.org/2000/svg" transform="translate(-34.313,-236.493)" id="g815">
    <g transform="matrix(0.35278,0,0,-0.35278,-72.439,292.96)" id="g809">
      <g clip-path="url(#clipPath1607)" id="g807">
        <g transform="translate(317.04,144.02)" id="g805">
          <path d="m 0,0 c -1.043,1.646 -2.866,2.739 -4.937,2.739 -3.232,0 -5.862,-2.664 -5.862,-5.938 0,-3.275 2.63,-5.939 5.862,-5.939 2.996,0 5.474,2.288 5.821,5.23 H -1.04 c -0.331,-1.875 -1.952,-3.302 -3.897,-3.302 -2.182,0 -3.958,1.799 -3.958,4.011 0,2.211 1.776,4.01 3.958,4.01 1.55,0 2.894,-0.906 3.543,-2.223 l -1.064,-1.079 -0.014,-0.013 h 3.388 v 3.432 z" id="path803"/>
        </g>
      </g>
    </g>
    <g transform="matrix(0.35278,0,0,-0.35278,37.487,243.03)" id="g813">
      <path d="m 0,0 v -0.48 l -1.062,-0.938 -0.557,-0.493 0.65,-0.755 1.413,1.248 0.546,0.483 V 2.377 H 0 Z" id="path811"/>
    </g>
  </g></svg>