<svg
   xmlns:dc="http://purl.org/dc/elements/1.1/"
   xmlns:cc="http://creativecommons.org/ns#"
   xmlns:rdf="http://www.w3.org/1999/02/22-rdf-syntax-ns#"
   xmlns:svg="http://www.w3.org/2000/svg"
   xmlns="http://www.w3.org/2000/svg"
   xmlns:sodipodi="http://sodipodi.sourceforge.net/DTD/sodipodi-0.dtd"
   xmlns:inkscape="http://www.inkscape.org/namespaces/inkscape"
   inkscape:version="1.0 (4035a4fb49, 2020-05-01)"
   sodipodi:docname="all_stacked (copy).svg"
   id="svg2899"
   viewBox="0 0 6.7021 13.579"
   version="1.1"
   height="13.579mm"
   width="6.7021mm"><g xmlns="http://www.w3.org/2000/svg" transform="matrix(0.35278,0,0,-0.35278,-157.387,240.93)" id="g2481">
    <g clip-path="url(#clipPath26868)" id="g2479">
      <g transform="translate(454.21,671.07)" id="g2429">
        <path d="m 0,0 c -0.074,0 -0.134,0.06 -0.135,0.134 l -0.004,0.504 c -0.001,0.036 0.013,0.07 0.038,0.096 0.025,0.025 0.06,0.04 0.095,0.04 0,0 2.8,0.024 2.801,0.024 0.074,0 0.134,-0.059 0.135,-0.134 L 2.934,0.16 C 2.934,0.125 2.921,0.09 2.895,0.065 2.87,0.039 2.836,0.025 2.8,0.024 L 0,0" id="path2427"/>
      </g>
      <g transform="translate(457.01,671.73)" id="g2433">
        <path d="m 0,0 0.004,-0.504 -2.799,-0.024 -0.004,0.504 z m 0,0.27 h -0.002 l -2.8,-0.025 C -2.951,0.244 -3.07,0.122 -3.069,-0.027 l 0.004,-0.504 c 10e-4,-0.071 0.03,-0.14 0.081,-0.19 0.051,-0.049 0.118,-0.077 0.189,-0.077 h 0.002 l 2.8,0.024 c 0.149,0.001 0.268,0.123 0.267,0.272 L 0.27,0.002 C 0.269,0.074 0.24,0.142 0.189,0.192 0.139,0.242 0.071,0.27 0,0.27" fill="#ffffff" id="path2431"/>
      </g>
      <g transform="translate(455.5,667.38)" id="g2437">
        <path d="m 0,0 c -0.016,0 -0.032,0.003 -0.048,0.009 l -4.119,1.55 c -0.057,0.022 -0.093,0.079 -0.086,0.14 0.006,0.061 0.053,0.11 0.113,0.12 0.245,0.037 0.507,0.128 0.539,0.187 -0.004,0.204 0.171,1.068 1.062,1.339 0.455,0.138 0.592,0.227 0.628,0.257 0.003,0.012 0.007,0.024 0.014,0.036 0.023,0.042 0.068,0.069 0.116,0.069 L 1.906,3.739 C 1.946,3.739 1.984,3.721 2.01,3.691 2.066,3.624 2.217,3.486 2.326,3.486 2.591,3.486 3.32,3.23 3.58,2.596 3.79,2.083 4.426,1.891 4.433,1.889 4.489,1.872 4.528,1.822 4.53,1.764 4.532,1.706 4.496,1.653 4.442,1.633 L 0.047,0.008 C 0.032,0.003 0.016,0 0,0" id="path2435"/>
      </g>
      <g transform="translate(457.41,670.98)" id="g2441">
        <path d="m 0,0 c 0,0 0.211,-0.253 0.42,-0.253 h 0.005 c 0.212,0 0.887,-0.228 1.124,-0.807 0.238,-0.581 0.94,-0.785 0.94,-0.785 l -4.395,-1.624 -4.12,1.55 c 0,0 0.653,0.099 0.651,0.309 -0.002,0.21 0.178,0.982 0.969,1.222 0.791,0.24 0.72,0.356 0.72,0.356 z M 0,0.27 H -0.002 L -3.688,0.238 C -3.785,0.237 -3.874,0.184 -3.922,0.099 -3.924,0.094 -3.927,0.089 -3.929,0.084 c -0.054,-0.033 -0.2,-0.106 -0.555,-0.214 -0.825,-0.251 -1.124,-1.003 -1.157,-1.402 -0.082,-0.043 -0.267,-0.096 -0.425,-0.12 -0.121,-0.018 -0.215,-0.116 -0.228,-0.239 -0.013,-0.122 0.059,-0.237 0.173,-0.28 l 4.12,-1.551 c 0.03,-0.011 0.063,-0.017 0.095,-0.017 0.031,0 0.063,0.006 0.093,0.017 l 4.395,1.624 c 0.11,0.041 0.181,0.147 0.176,0.263 C 2.754,-1.719 2.676,-1.618 2.564,-1.586 2.559,-1.584 1.983,-1.408 1.798,-0.957 1.52,-0.277 0.754,0.017 0.425,0.017 0.376,0.019 0.263,0.106 0.207,0.173 0.156,0.234 0.08,0.27 0,0.27" fill="#ffffff" id="path2439"/>
      </g>
      <g transform="translate(455.65,654.1)" id="g2445">
        <path d="M 0,0 C -4.066,0 -4.481,1.212 -4.497,1.263 -4.5,1.276 -4.502,1.289 -4.503,1.301 L -4.674,14.45 c 0,0.036 0.013,0.07 0.039,0.096 0.025,0.025 0.059,0.04 0.095,0.04 0,0 9.012,0.078 9.013,0.078 0.074,0 0.134,-0.059 0.135,-0.134 L 4.781,1.134 C 4.782,1.121 4.78,1.108 4.776,1.095 4.745,0.987 4.353,0.037 0.186,0.001 Z" id="path2443"/>
      </g>
      <g transform="translate(460.12,668.63)" id="g2449">
        <path d="m 0,0 0.174,-13.397 c 0,0 -0.276,-0.96 -4.462,-0.997 h -0.185 c -4.013,0 -4.367,1.167 -4.367,1.167 L -9.012,-0.078 Z M 0,0.27 H -0.002 L -9.014,0.191 C -9.163,0.19 -9.283,0.068 -9.282,-0.081 l 0.172,-13.148 c 0,-0.026 0.004,-0.052 0.011,-0.076 0.043,-0.139 0.531,-1.359 4.626,-1.359 0.062,0 0.124,0 0.187,10e-4 4.176,0.036 4.664,0.999 4.719,1.192 0.007,0.025 0.011,0.051 0.01,0.076 L 0.27,0.002 C 0.268,0.151 0.148,0.27 0,0.27" fill="#ffffff" id="path2447"/>
      </g>
      <g transform="translate(450.94,668.42)" id="g2453">
        <path d="m 0,0 c -0.074,0 -0.134,0.06 -0.135,0.134 l -0.004,0.504 c -0.001,0.036 0.013,0.07 0.038,0.096 0.025,0.025 0.06,0.04 0.095,0.04 l 9.379,0.081 c 0.074,0 0.134,-0.059 0.135,-0.133 L 9.512,0.217 C 9.513,0.182 9.499,0.147 9.474,0.122 9.449,0.096 9.414,0.082 9.379,0.081 L 0,0" id="path2451"/>
      </g>
      <g transform="translate(460.32,669.14)" id="g2457">
        <path d="m 0,0 0.004,-0.504 -9.377,-0.082 -0.005,0.505 z M 0,0.27 H -0.002 L -9.38,0.188 C -9.529,0.187 -9.648,0.065 -9.647,-0.084 l 0.004,-0.504 c 0.001,-0.071 0.03,-0.14 0.081,-0.19 0.05,-0.05 0.118,-0.077 0.189,-0.077 h 0.002 l 9.378,0.081 c 0.149,0.001 0.268,0.123 0.267,0.272 L 0.27,0.002 C 0.269,0.074 0.24,0.142 0.189,0.192 0.139,0.242 0.071,0.27 0,0.27" fill="#ffffff" id="path2455"/>
      </g>
      <g transform="translate(453.37,670.81)" id="g2461">
        <path d="m 0,0 c -0.074,0 -0.134,0.06 -0.135,0.134 l -0.004,0.504 c -0.001,0.036 0.013,0.07 0.038,0.096 0.025,0.025 0.06,0.04 0.095,0.04 l 4.48,0.039 c 0.074,0 0.135,-0.06 0.135,-0.134 L 4.614,0.175 C 4.614,0.139 4.6,0.105 4.575,0.079 4.55,0.054 4.516,0.039 4.48,0.039 L 0,0" id="path2459"/>
      </g>
      <g transform="translate(457.85,671.49)" id="g2465">
        <path d="m 0,0 0.004,-0.504 -4.478,-0.039 -0.005,0.504 z M 0,0.27 H -0.002 L -4.481,0.231 C -4.63,0.229 -4.75,0.108 -4.748,-0.041 l 0.004,-0.504 c 10e-4,-0.072 0.03,-0.14 0.081,-0.19 0.05,-0.05 0.118,-0.078 0.189,-0.078 h 0.002 l 4.479,0.039 c 0.149,0.001 0.268,0.123 0.267,0.272 L 0.27,0.002 C 0.269,0.074 0.24,0.142 0.189,0.192 0.139,0.242 0.071,0.27 0,0.27" fill="#ffffff" id="path2463"/>
      </g>
      <g transform="translate(454.38,671.58)" id="g2469">
        <path d="m 0,0 c -0.036,0 -0.071,0.014 -0.096,0.04 -0.026,0.026 -0.04,0.061 -0.039,0.098 l 0.032,1.378 c 0.001,0.041 0.02,0.078 0.051,0.103 0.024,0.019 0.054,0.029 0.084,0.029 0.009,0 0.019,-10e-4 0.028,-0.003 C 0.065,1.644 0.638,1.523 1.109,1.52 H 1.11 c 0.453,0 1.03,0.173 1.036,0.175 0.013,0.004 0.026,0.006 0.039,0.006 0.026,0 0.051,-0.008 0.073,-0.022 C 2.292,1.658 2.314,1.623 2.319,1.583 L 2.504,0.173 C 2.509,0.135 2.498,0.096 2.473,0.067 2.447,0.038 2.411,0.021 2.372,0.021 L 0,0" id="path2467"/>
      </g>
      <g transform="translate(456.56,673.14)" id="g2473">
        <path d="m 0,0 0.186,-1.41 -2.371,-0.021 0.032,1.378 c 0,0 0.585,-0.124 1.076,-0.127 h 0.012 C -0.597,-0.18 0,0 0,0 M 0,0.27 C -0.026,0.27 -0.052,0.266 -0.078,0.258 -0.084,0.256 -0.643,0.089 -1.065,0.089 h -0.01 c -0.458,0.003 -1.017,0.121 -1.022,0.122 -0.019,0.004 -0.038,0.006 -0.056,0.006 -0.061,0 -0.12,-0.02 -0.168,-0.058 -0.063,-0.05 -0.1,-0.125 -0.102,-0.205 l -0.032,-1.379 c -10e-4,-0.073 0.027,-0.143 0.078,-0.195 0.051,-0.052 0.12,-0.081 0.192,-0.081 h 0.002 l 2.371,0.021 c 0.077,10e-4 0.15,0.034 0.201,0.093 0.051,0.058 0.074,0.135 0.064,0.212 L 0.267,0.035 C 0.257,0.114 0.213,0.184 0.146,0.227 0.102,0.255 0.051,0.27 0,0.27" fill="#ffffff" id="path2471"/>
      </g>
      <g transform="translate(455.55,671.87)" id="g2477">
        <path d="M 0,0 C -0.054,0 -0.107,0.009 -0.158,0.028 -0.398,0.116 -0.523,0.386 -0.436,0.629 -0.37,0.815 -0.194,0.94 0,0.94 0.054,0.94 0.107,0.93 0.158,0.911 0.398,0.823 0.523,0.554 0.436,0.31 0.37,0.125 0.194,0 0,0" fill="#ffffff" id="path2475"/>
      </g>
    </g>
  </g></svg>