<?xml version="1.0" encoding="utf-8"?>
<!-- Generator: Adobe Illustrator 24.2.0, SVG Export Plug-In . SVG Version: 6.00 Build 0)  -->
<svg version="1.2" baseProfile="tiny"
	 id="svg2899" sodipodi:docname="all_stacked (copy).svg" xmlns:cc="http://creativecommons.org/ns#" xmlns:dc="http://purl.org/dc/elements/1.1/" xmlns:inkscape="http://www.inkscape.org/namespaces/inkscape" xmlns:rdf="http://www.w3.org/1999/02/22-rdf-syntax-ns#" xmlns:sodipodi="http://sodipodi.sourceforge.net/DTD/sodipodi-0.dtd" xmlns:svg="http://www.w3.org/2000/svg"
	 xmlns="http://www.w3.org/2000/svg" xmlns:xlink="http://www.w3.org/1999/xlink" x="0px" y="0px" viewBox="0 0 19 38.5"
	 overflow="visible" xml:space="preserve">
<g display="none">
	<path display="inline" fill="#FFFFFF" d="M11.7,11.2L11.7,11.2l-4.5,0c-0.1,0-0.3,0.1-0.3,0.3L7,12c0,0.1,0,0.1,0.1,0.2
		c0.1,0,0.1,0.1,0.2,0.1h0l4.5,0c0.1,0,0.3-0.1,0.3-0.3l0-0.5c0-0.1,0-0.1-0.1-0.2C11.9,11.2,11.8,11.2,11.7,11.2"/>
</g>
<g>
	<g>
		<path fill="#FFFFFF" d="M4.9,14.3l9-0.1"/>
	</g>
	<rect x="4.8" y="13.8" transform="matrix(1 -8.747785e-03 8.747785e-03 1 -0.1223 8.316131e-02)" width="9.4" height="0.5"/>
	<path d="M7.2,14.6"/>
	<path d="M12.8,12.9c-0.2-0.5-0.8-0.8-1.1-0.8c0,0,0,0,0,0l-4.5,0h0c0,0-0.1,0-0.1,0c-0.1,0-0.2,0.1-0.3,0.1c-0.8,0.2-1,1-1,1.2
		c0,0,0,0,0,0l7.4-0.1C13,13.3,12.9,13.2,12.8,12.9z"/>
	<rect x="7.2" y="11.4" transform="matrix(1 -8.709189e-03 8.709189e-03 1 -0.1011 8.252432e-02)" width="4.5" height="0.5"/>
	<path d="M10.4,9.7c0,0-0.6,0.2-1.1,0.2h0c-0.5,0-1.1-0.1-1.1-0.1l0,1.4l2.4,0L10.4,9.7z M9.8,10.7C9.7,10.9,9.6,11,9.4,11
		c-0.1,0-0.1,0-0.2,0c-0.2-0.1-0.4-0.4-0.3-0.6c0.1-0.2,0.2-0.3,0.4-0.3c0.1,0,0.1,0,0.2,0C9.8,10.2,9.9,10.4,9.8,10.7z"/>
	<g>
		<path d="M4.8,14.6L5,27.5c0,0,0,0,0,0c0,0.1,0.4,1.3,4.5,1.3l0.2,0c4.2,0,4.6-1,4.6-1.1c0,0,0,0,0,0l-0.2-13.1L4.8,14.6z"/>
	</g>
</g>
</svg>
