<?xml version="1.0" encoding="UTF-8"?>
<svg width="39.75mm" height="39.75mm" version="1.1" viewBox="0 0 39.75 39.75" xmlns="http://www.w3.org/2000/svg" xmlns:cc="http://creativecommons.org/ns#" xmlns:dc="http://purl.org/dc/elements/1.1/" xmlns:rdf="http://www.w3.org/1999/02/22-rdf-syntax-ns#">
 <defs>
  <clipPath id="clipPath2345">
   <path d="m14.173 715.04h112.68v112.68h-112.68z"/>
  </clipPath>
 </defs>
 <metadata>
  <rdf:RDF>
   <cc:Work rdf:about="">
    <dc:format>image/svg+xml</dc:format>
    <dc:type rdf:resource="http://purl.org/dc/dcmitype/StillImage"/>
    <dc:title/>
   </cc:Work>
  </rdf:RDF>
 </metadata>
 <g transform="translate(-10.641 -6.4652)">
  <g transform="matrix(.35278 0 0 -.35278 5.6407 298.47)">
   <g clip-path="url(#clipPath2345)">
    <g transform="translate(14.173 771.38)">
     <path d="m0 0c0 31.115 25.222 56.339 56.337 56.339 31.117 0 56.34-25.224 56.34-56.339s-25.223-56.339-56.34-56.339c-31.115 0-56.337 25.224-56.337 56.339"/>
    </g>
    <g transform="translate(103.38 765.53)">
     <path d="m0 0c-2.432-0.819-2.323 0.334-2.345 2.238v22.358l-3.945-0.661v-20.704s-0.68-4.167-2.872-5.019c-2.149-0.361-1.884 0.711-1.94 2.837l-7e-3 -1e-3v9.172l3.119 2.289v1.255l-0.385-0.064c-2.097-0.348-2.971 1.149-3.061 3.201v6.271c-2.159-0.37-3.907-2.39-3.942-4.541h-4e-3v-3.478h4e-3c0.03-1.921 1.449-3.27 3.302-3.267l-2.979-1.375 0.018-11.293c0.033-2 1.57-3.364 3.534-3.244 0.684 0.022 0.9 0.04 1.443 0.173 0.863 0.233 1.546 0.734 2.074 1.345v5e-3l9e-3 3e-3c1.314 1.517 1.711 3.635 1.711 3.635 0-2.101 1.31-3.062 1.696-3.301 0.629-0.327 1.385-0.42 2.21-0.324h1e-3c4e-3 1e-3 1.449 0.169 2.359 0.421z" fill="#fff"/>
    </g>
    <g transform="translate(101.04 795.72)">
     <path d="m0 0-3.948-0.726v-3.425l3.948 0.584z" fill="#fff"/>
    </g>
    <g transform="translate(106.62 770.48)">
     <path d="m0 0c0.015-0.181 0.032-4.208 0.032-4.208s0.17-3.092 6.07-3.092c0 0-2.125 0.245-2.125 3.92v1.437c7e-3 0.047 0.461 4.816-5.974 5.199 5.106 0.278 5.885 3.241 5.974 4.534v3e-3c0.024 0.361 0 14.389 0 14.389 0 1.475 0.43 1.957 1.071 2.074 1.291 0.234 1.246-0.591 1.269-2.167v-0.358l6e-3 2e-3 3.937 0.658 3e-3 0.49h-3e-3c-0.036 2.134-1.778 3.565-3.93 3.22v3e-3c-4e-3 -3e-3 -7e-3 -3e-3 -0.011-3e-3 0-2e-3 -0.655-0.111-0.655-0.111-5.689-0.956-5.632-4.468-5.632-4.468l2e-3 2e-3s-0.019-14.896-0.034-15.075c-0.085-0.775-0.522-2.681-2.768-2.681v-1.089c2.245 0 2.682-1.903 2.768-2.679" fill="#fff"/>
    </g>
    <g transform="translate(121.09 766.46)">
     <path d="m0 0c-1.063 3.66-8.863 4.532-8.819-0.121 0.013-1.441 1.172-2.406 2.603-2.146 1.469 0.267 2.729 2.247 1.278 3.378 1.741 0.129 3.2-1.194 2.568-2.979-0.563-1.59-2.248-2.592-3.776-3.057-2.855-0.869-5.799-0.368-8.717-0.594-3.306-0.255-9.921-1.173-9.832-5.701 0.078-3.933 7.1-5.921 8.739-2.075 0.629 1.475-0.043 3.227-1.726 3.373-1.692 0.148-3.627-2.076-1.92-3.415-2.271-0.145-3.44 1.926-2.131 3.793 1.204 1.716 3.324 2.399 5.313 2.656 1.771 0.229 3.563 0.122 5.345 0.133 2.17 0.014 4.378 0.307 6.454 0.953 2.504 0.779 5.564 2.7 4.621 5.802-0.136 0.468 0.141-0.463 0 0" fill="#fff"/>
    </g>
    <g transform="translate(85.74 783.88)">
     <path d="m0 0c-0.036 2.133-1.817 3.591-3.929 3.222-3.739-0.769-4.337-2.974-4.337-2.974-0.092 0.409-0.625 0.945-0.636 0.956-0.606 0.559-2.096 1.384-5.231 0.514v-2.207l0.491 0.091c2.007 0.333 1.894-0.595 1.921-2.473v-22.345l3.942 0.662 0.017 22.379c0.028 0.778 0.438 2.42 1.489 2.899 0.707 0.31 2.292 0.703 2.327-2.013l2e-3 -18.613c0-3.397-1.963-3.823-2.149-3.785v-0.016c2.517-0.699 4.019 0.332 4.849 1.354 0.726 0.806 1.193 1.837 1.237 2.909l0.01 19.375v0.067z" fill="#fff"/>
    </g>
    <g transform="translate(40.204 778.3)">
     <path d="m0 0c2.432 0.819 2.323-0.334 2.345-2.238v-22.358l3.945 0.661v20.704s0.68 4.167 2.872 5.019c2.149 0.361 1.884-0.711 1.94-2.837l7e-3 1e-3v-9.172l-3.12-2.288v-1.256l0.386 0.064c2.097 0.348 2.971-1.149 3.061-3.201v-6.271c2.159 0.37 3.907 2.39 3.942 4.541h4e-3v3.478h-4e-3c-0.03 1.922-1.449 3.27-3.302 3.268l2.979 1.374-0.018 11.293c-0.033 2-1.57 3.364-3.534 3.244-0.684-0.022-0.9-0.04-1.444-0.173-0.863-0.233-1.545-0.734-2.073-1.345v-5e-3l-9e-3 -3e-3c-1.314-1.517-1.711-3.635-1.711-3.635 0 2.101-1.31 3.062-1.696 3.301-0.629 0.327-1.385 0.42-2.21 0.324h-2e-3c-3e-3 -1e-3 -1.448-0.169-2.358-0.421z" fill="#fff"/>
    </g>
    <g transform="translate(42.55 748.11)">
     <path d="m0 0 3.948 0.726v3.425l-3.948-0.584z" fill="#fff"/>
    </g>
    <g transform="translate(36.966 773.35)">
     <path d="m0 0c-0.015 0.181-0.032 4.208-0.032 4.208s-0.17 3.092-6.071 3.092c0 0 2.125-0.245 2.125-3.92v-1.437c-6e-3 -0.047-0.46-4.816 5.975-5.199-5.106-0.278-5.885-3.241-5.975-4.534v-3e-3c-0.024-0.361 0-14.389 0-14.389 0-1.475-0.429-1.957-1.07-2.074-1.291-0.234-1.246 0.59-1.269 2.167v0.358l-6e-3 -2e-3 -3.937-0.658-3e-3 -0.49h3e-3c0.036-2.134 1.778-3.565 3.93-3.22v-3e-3c4e-3 3e-3 7e-3 3e-3 0.011 3e-3 0 2e-3 0.655 0.111 0.655 0.111 5.689 0.956 5.632 4.468 5.632 4.468l-2e-3 -2e-3s0.019 14.896 0.034 15.075c0.085 0.775 0.522 2.681 2.768 2.681v1.089c-2.245 0-2.682 1.903-2.768 2.679" fill="#fff"/>
    </g>
    <g transform="translate(22.495 777.38)">
     <path d="m0 0c1.063-3.66 8.863-4.532 8.819 0.121-0.013 1.441-1.172 2.406-2.603 2.146-1.469-0.267-2.729-2.247-1.278-3.378-1.741-0.129-3.2 1.194-2.568 2.979 0.563 1.59 2.248 2.592 3.776 3.057 2.855 0.869 5.799 0.368 8.717 0.594 3.306 0.255 9.921 1.173 9.832 5.701-0.078 3.933-7.1 5.921-8.739 2.075-0.629-1.475 0.043-3.227 1.726-3.373 1.692-0.148 3.627 2.076 1.92 3.415 2.271 0.145 3.44-1.926 2.131-3.793-1.204-1.716-3.324-2.399-5.313-2.656-1.771-0.229-3.563-0.122-5.345-0.133-2.17-0.014-4.378-0.307-6.454-0.953-2.504-0.779-5.564-2.7-4.621-5.802 0.136-0.468-0.141 0.463 0 0" fill="#fff"/>
    </g>
    <g transform="translate(57.847 759.96)">
     <path d="m0 0c0.036-2.133 1.817-3.591 3.929-3.222 3.739 0.769 4.337 2.974 4.337 2.974 0.092-0.409 0.625-0.945 0.636-0.956 0.606-0.559 2.096-1.384 5.231-0.514v2.207l-0.491-0.091c-2.007-0.333-1.894 0.595-1.921 2.473v22.345l-3.942-0.662-0.017-22.379c-0.028-0.778-0.438-2.42-1.489-2.899-0.707-0.31-2.292-0.703-2.327 2.013l-2e-3 18.613c0 3.397 1.963 3.823 2.149 3.785v0.016c-2.517 0.699-4.019-0.331-4.849-1.354-0.726-0.806-1.194-1.837-1.237-2.909l-0.01-19.375v-0.067z" fill="#fff"/>
    </g>
   </g>
  </g>
 </g>
</svg>
